<?xml version="1.0" encoding="UTF-8"?>
<svg id="Layer_1" data-name="Layer 1" xmlns="http://www.w3.org/2000/svg" xmlns:xlink="http://www.w3.org/1999/xlink" viewBox="0 0 1080 589.8067">
  <defs>
    <style>
      .cls-1 {
        fill: url(#Degradado_sin_nombre_4);
      }

      .cls-1, .cls-2, .cls-3, .cls-4 {
        stroke-width: 0px;
      }

      .cls-2 {
        fill: url(#Degradado_sin_nombre_3);
      }

      .cls-3 {
        fill: url(#Degradado_sin_nombre_2);
      }

      .cls-4 {
        fill: #fff;
      }
    </style>
    <linearGradient id="Degradado_sin_nombre_4" data-name="Degradado sin nombre 4" x1="195.8722" y1="313.3811" x2="335.1148" y2="174.1386" gradientUnits="userSpaceOnUse">
      <stop offset="0" stop-color="#e4522f"/>
      <stop offset=".085" stop-color="#e7692b"/>
      <stop offset=".2388" stop-color="#ee9027"/>
      <stop offset=".5381" stop-color="#f5b015"/>
      <stop offset=".7836" stop-color="#f5b015"/>
      <stop offset="1" stop-color="#fbce00"/>
    </linearGradient>
    <linearGradient id="Degradado_sin_nombre_3" data-name="Degradado sin nombre 3" x1="156.0721" y1="364.225" x2="343.1477" y2="177.1494" gradientUnits="userSpaceOnUse">
      <stop offset="0" stop-color="#009732"/>
      <stop offset=".0287" stop-color="#129b2d"/>
      <stop offset=".1831" stop-color="#75b518"/>
      <stop offset=".2523" stop-color="#9cbf10"/>
      <stop offset=".3619" stop-color="#aec40a"/>
      <stop offset=".614" stop-color="#d5cf00"/>
      <stop offset=".6255" stop-color="#d6cf00"/>
      <stop offset="1" stop-color="#fdd719"/>
    </linearGradient>
    <linearGradient id="Degradado_sin_nombre_2" data-name="Degradado sin nombre 2" x1="56.9916" y1="355.6908" x2="316.6887" y2="95.9936" gradientUnits="userSpaceOnUse">
      <stop offset="0" stop-color="#2d73b4"/>
      <stop offset=".097" stop-color="#1d87be"/>
      <stop offset=".2985" stop-color="#00aed2"/>
      <stop offset=".3641" stop-color="#17aeae"/>
      <stop offset=".5505" stop-color="#55af4c"/>
      <stop offset=".6342" stop-color="#6fb025"/>
      <stop offset=".6802" stop-color="#77b220"/>
      <stop offset=".912" stop-color="#9ec00e"/>
    </linearGradient>
  </defs>
  <g>
    <path class="cls-4" d="M451.4942,389.0247c1.6626-3.3268,4.1565-4.1581,7.2068-2.2173l10.2537,5.8207c2.7721,1.6626,3.8816,4.1581,2.219,7.2068-11.6414,21.6186-31.0427,32.4287-57.9289,32.4287-41.8528,0-64.5793-23.2828-64.5793-66.52v-57.6507c0-43.2389,22.7264-66.52,64.5793-66.52,27.1611,0,46.5624,10.8085,57.9289,32.4271,1.6626,3.0503.8313,5.5442-2.219,7.2068l-10.2537,5.8207c-3.0503,1.9408-5.5442,1.1078-7.2068-1.9408-7.7598-14.1353-20.2326-21.6186-38.2494-21.6186-26.608,0-39.6338,15.7979-39.6338,47.6735v51.5518c0,31.874,13.0258,47.6735,39.6338,47.6735,18.0169,0,30.4896-7.4833,38.2494-21.3421Z"/>
    <path class="cls-4" d="M592.5591,340.798v39.3573c0,33.8148-18.2918,52.1082-52.3847,52.1082-33.8148,0-52.1065-18.2934-52.1065-52.1082v-39.3573c0-34.0913,18.2918-52.3847,52.1065-52.3847,34.093,0,52.3847,18.2934,52.3847,52.3847ZM569.5544,343.2919c0-23.8359-9.1475-34.9226-29.3801-34.9226-19.9544,0-29.1019,11.0867-29.1019,34.9226v34.3695c0,23.5594,9.1475,34.6444,29.1019,34.6444,20.2326,0,29.3801-11.085,29.3801-34.6444v-34.3695Z"/>
    <path class="cls-4" d="M625.2544,428.9367c-3.3252,0-5.266-1.9408-5.266-5.266v-183.484c0-3.3268,1.9408-5.2676,5.266-5.2676h12.4727c3.3252,0,5.266,1.9408,5.266,5.2676v183.484c0,3.3252-1.9408,5.266-5.266,5.266h-12.4727Z"/>
    <path class="cls-4" d="M778.5237,340.798v39.0807c0,34.0913-18.2951,52.3847-52.1098,52.3847-34.0897,0-52.3847-18.2934-52.3847-52.3847v-139.6921c0-3.3268,1.9408-5.2676,5.266-5.2676h12.4727c3.3285,0,5.266,1.9408,5.266,5.2676v62.0854h.5564c6.9285-9.1475,17.7387-13.8588,32.4271-13.8588,31.5991,0,48.5065,18.2934,48.5065,52.3847ZM755.5158,343.2919c0-23.8359-9.1442-34.9226-29.1019-34.9226-19.6795,0-29.3801,11.6414-29.3801,34.9226v34.3695c0,23.5594,9.1475,34.6444,29.3801,34.6444,19.9577,0,29.1019-11.085,29.1019-34.6444v-34.3695Z"/>
    <path class="cls-4" d="M905.45,381.8179c0,32.9835-17.7387,50.4456-50.4439,50.4456s-50.4439-17.4621-50.4439-50.4456v-84.8135c0-3.3252,1.9408-5.266,5.266-5.266h12.4727c3.3252,0,5.266,1.9408,5.266,5.266v82.8743c0,22.4499,8.5911,32.4271,27.7175,32.4271s27.7142-9.9772,27.7142-32.4271v-82.8743c0-3.3252,1.9408-5.266,5.266-5.266h11.9196c3.3252,0,5.266,1.9408,5.266,5.266v84.8135Z"/>
    <path class="cls-4" d="M1014.6409,342.1841c0-23.2828-8.8693-33.8148-28.2706-33.8148s-28.2706,10.5319-28.2706,33.8148v81.4866c0,3.3252-1.9408,5.266-5.266,5.266h-12.4727c-3.3252,0-5.266-1.9408-5.266-5.266v-83.9822c0-33.26,18.0169-51.2752,51.2752-51.2752s51.2752,18.0152,51.2752,51.2752v83.9822c0,3.3252-1.9408,5.266-5.266,5.266h-12.4727c-3.3252,0-5.266-1.9408-5.266-5.266v-81.4866Z"/>
  </g>
  <g>
    <path class="cls-4" d="M552.5642,491.7192c-.4074,0-.6127-.2053-.6127-.616v-30.3588h-.053l-12.8701,30.5128c-.1557.308-.361.462-.7187.462h-.7684c-.361,0-.5663-.154-.7187-.462l-12.8735-30.5128h-.0497v30.3588c0,.4107-.2053.616-.616.616h-.924c-.4107,0-.616-.2053-.616-.616v-32.8212c0-.409.2053-.6144.616-.6144h2.1561c.3577,0,.563.154.7154.4604l12.7178,30.3604,12.6681-30.3604c.1557-.3064.3577-.4604.7187-.4604h2.2057c.4107,0,.6127.2053.6127.6144v32.8212c0,.4107-.202.616-.6127.616h-.977Z"/>
    <path class="cls-4" d="M580.921,473.5136c.4107,0,.616.2053.616.616v.7684c0,.4107-.2053.616-.616.616h-15.5396v14.2049h17.795c.4107,0,.616.2053.616.616v.7684c0,.4107-.2053.616-.616.616h-19.3847c-.4107,0-.616-.2053-.616-.616v-32.8212c0-.409.2053-.6144.616-.6144h19.3847c.4107,0,.616.2053.616.6144v.77c0,.4107-.2053.616-.616.616h-17.795v13.8455h15.5396Z"/>
    <path class="cls-4" d="M608.814,480.4885c0,7.7433-3.7922,11.8468-10.9724,11.8468-4.6665,0-8.1043-1.9491-10.31-5.7959-.2053-.3593-.1027-.6657.2583-.871l.6657-.4107c.3577-.2053.6657-.154.871.2053,1.7951,3.2821,4.6665,4.8718,8.462,4.8718,6.0012,0,8.823-3.3335,8.823-10.3597v-21.6931c0-.409.202-.6144.6127-.6144h.977c.4074,0,.6127.2053.6127.6144v22.2065Z"/>
    <path class="cls-4" d="M615.8386,469.3604c0-8.0513,4.0505-12.3088,11.7441-12.3088s11.7441,4.2575,11.7441,12.3088v10.6661c0,8.0513-4.0538,12.3088-11.7441,12.3088s-11.7441-4.2575-11.7441-12.3088v-10.6661ZM618.0443,479.5131c0,7.3343,3.0768,10.8217,9.5383,10.8217s9.5383-3.4875,9.5383-10.8217v-9.641c0-7.3326-3.0768-10.8201-9.5383-10.8201s-9.5383,3.4875-9.5383,10.8201v9.641Z"/>
    <path class="cls-4" d="M649.2195,491.1032c0,.4107-.2053.616-.616.616h-.9737c-.4107,0-.616-.2053-.616-.616v-32.8212c0-.409.2053-.6144.616-.6144h9.078c7.9983,0,11.6911,3.1281,11.6911,9.8464,0,5.6915-2.6661,8.8197-8.409,9.641l8.9753,13.7942c.308.462.1027.77-.4107.77h-1.3347c-.308,0-.563-.1027-.7187-.4107l-8.8693-13.9482h-8.4123v13.7428ZM656.7078,475.36c6.5112,0,9.4887-2.4624,9.4887-7.846s-2.9774-7.846-9.4887-7.846h-7.4883v15.6919h7.4883Z"/>
    <path class="cls-4" d="M704.8565,473.5136c.4107,0,.616.2053.616.616v.7684c0,.4107-.2053.616-.616.616h-15.5362v14.2049h17.795c.4107,0,.616.2053.616.616v.7684c0,.4107-.2053.616-.616.616h-19.3847c-.4107,0-.616-.2053-.616-.616v-32.8212c0-.409.2053-.6144.616-.6144h19.3847c.4107,0,.616.2053.616.6144v.77c0,.4107-.2053.616-.616.616h-17.795v13.8455h15.5362Z"/>
    <path class="cls-4" d="M735.8794,491.7192c-.308,0-.51-.1027-.7154-.4107l-18.3083-29.9497h-.053v29.7444c0,.4107-.2053.616-.616.616h-.9207c-.4107,0-.616-.2053-.616-.616v-32.8212c0-.409.2053-.6144.616-.6144h1.3314c.308,0,.5133.1027.7187.409l18.103,29.6417h.053v-29.4364c0-.409.202-.6144.6127-.6144h.924c.4107,0,.616.2053.616.6144v32.8212c0,.4107-.2053.616-.616.616h-1.1294Z"/>
    <path class="cls-4" d="M764.3884,473.5136c.4107,0,.616.2053.616.616v.7684c0,.4107-.2053.616-.616.616h-15.5362v14.2049h17.795c.4107,0,.616.2053.616.616v.7684c0,.4107-.2053.616-.616.616h-19.3847c-.4107,0-.616-.2053-.616-.616v-32.8212c0-.409.2053-.6144.616-.6144h19.3847c.4107,0,.616.2053.616.6144v.77c0,.4107-.2053.616-.616.616h-17.795v13.8455h15.5362Z"/>
    <path class="cls-4" d="M776.3875,491.1032c0,.4107-.2053.616-.616.616h-.9737c-.4107,0-.616-.2053-.616-.616v-32.8212c0-.409.2053-.6144.616-.6144h9.0747c8.0016,0,11.6944,3.1281,11.6944,9.8464,0,5.6915-2.6661,8.8197-8.4123,9.641l8.9753,13.7942c.308.462.1027.77-.4107.77h-1.3314c-.308,0-.5663-.1027-.7187-.4107l-8.8727-13.9482h-8.409v13.7428ZM783.8725,475.36c6.5146,0,9.4887-2.4624,9.4887-7.846s-2.9741-7.846-9.4887-7.846h-7.485v15.6919h7.485Z"/>
    <path class="cls-4" d="M825.0497,479.9751c0,8.1026-4.0008,12.3601-11.5884,12.3601-7.6406,0-11.6944-4.2575-11.6944-12.3088v-10.6661c0-8.0513,4.0538-12.3088,11.7441-12.3088,5.2825,0,8.8727,2.1031,10.8731,6.4102.1523.3593.0497.6674-.308.8214l-.7187.3577c-.3577.154-.6657.0513-.8214-.3064-1.6924-3.4875-4.6135-5.2825-9.025-5.2825-6.4616,0-9.5383,3.4875-9.5383,10.8714v9.5383c0,7.3856,3.0768,10.8731,9.4887,10.8731,6.3589,0,9.4357-3.5388,9.4357-10.9227v-2.9758h-8.3096c-.4107,0-.6127-.2053-.6127-.6144v-.77c0-.4107.202-.6144.6127-.6144h9.8464c.4107,0,.616.2037.616.6144v4.9232Z"/>
    <path class="cls-4" d="M834.174,453.7182c-.2053.2567-.4107.3593-.6657.3593h-.8214c-.4604,0-.616-.308-.3577-.6674l4.2061-6.4102c.2053-.308.4074-.409.7154-.409h1.0267c.5133,0,.7187.3577.4107.7684l-4.5142,6.3589ZM834.535,491.1032c0,.4107-.2053.616-.616.616h-.9737c-.4107,0-.616-.2053-.616-.616v-32.8212c0-.409.2053-.6144.616-.6144h.9737c.4107,0,.616.2053.616.6144v32.8212Z"/>
    <path class="cls-4" d="M842.8413,491.2059c-.1027.3593-.308.5133-.669.5133h-.9737c-.4604,0-.6657-.2567-.5133-.7187l11.8468-32.8212c.1557-.3577.308-.5117.7187-.5117h1.179c.4107,0,.563.154.7187.5117l11.8468,32.8212c.1523.462-.053.7187-.5133.7187h-1.0764c-.361,0-.5663-.154-.669-.5133l-2.7688-7.7946h-16.3576l-2.7688,7.7946ZM861.249,481.4108l-7.4353-20.9231h-.0497l-7.4353,20.9231h14.9202Z"/>
  </g>
  <g>
    <path class="cls-1" d="M362.8134,202.9118l.0097-.0195c-80.0248-25.146-159.0074-8.7003-178.2855,38.2176-12.8415,31.2513.1753,68.1818,44.194,103.2797,9.0838,7.2427,22.3465,5.6389,29.5478-3.4801,7.031-8.911,5.6841-21.7268-2.8858-29.0256.0122-.0085.0267-.017.0439-.0254-21.9667-20.8951-31.657-45.5359-23.031-66.5247,13.6185-33.1435,67.7509-43.9406,125.9065-28.5994,3.8868,1.0254,7.9197-.9264,9.1227-4.7599,1.1885-3.7843-.8815-7.8015-4.6222-9.0629Z"/>
    <path class="cls-2" d="M335.2113,172.5725c-102.5663-23.4512-197.6487,1.8666-222.6012,62.5878-26.0043,63.2858,34.3675,146.5046,137.8081,190.1567,14.9382,6.3025,32.161-.2302,38.6802-15.0724,6.5195-14.8432-.414-31.759-15.0721-38.679-72.4512-34.2019-107.0498-87.3869-89.5373-130.0113,16.7307-40.7126,77.7527-58.6536,145.8712-46.7413.402.1107.789.2546,1.2105.3227,6.2319,1.0057,12.0963-3.2292,13.102-9.4599,1.0057-6.2309-1.7948-11.3512-9.4614-13.1033Z"/>
    <path class="cls-3" d="M383.1225,163.486c-.2778-.1217-8.5209-2.7912-12.2378-3.986-148.1452-47.6225-293.9472-17.3702-330.1532,69.2663-23.4986,56.2269,4.4152,123.2666,73.2986,182.5317,13.326,11.4666,32.4969,8.9863,44.7127-5.2654,17.5148-23.6031-5.4771-44.8573-5.5793-44.9366-38.5925-39.376-56.8479-86.2799-40.5533-125.9357,27.4474-66.7918,139.362-90.2041,253.2875-54.4013,3.675,1.1549,8.1118,2.5957,8.4355,2.7381,5.526,2.4267,11.9746-.0853,14.4003-5.611,2.4254-5.527-.0853-11.9734-5.611-14.4001Z"/>
  </g>
</svg>