<?xml version="1.0" encoding="UTF-8"?>
<svg id="Layer_1" data-name="Layer 1" xmlns="http://www.w3.org/2000/svg" xmlns:xlink="http://www.w3.org/1999/xlink" viewBox="0 0 1080 589.8">
  <defs>
    <style>
      .cls-1 {
        fill: #cce0f4;
        stroke-width: 0px;
      }

      .cls-2 {
        fill: url(#linear-gradient);
      }

      .cls-2, .cls-3, .cls-4 {
        stroke: #fff;
        stroke-miterlimit: 10;
        stroke-width: .7602px;
      }

      .cls-3 {
        fill: url(#Cielo);
      }

      .cls-4 {
        fill: #0075be;
      }
    </style>
    <linearGradient id="linear-gradient" x1="381.4187" y1="155.1441" x2="587.7525" y2="155.1441" gradientUnits="userSpaceOnUse">
      <stop offset="0" stop-color="#cce0f4"/>
      <stop offset=".0641" stop-color="#c2dcf2"/>
      <stop offset=".1706" stop-color="#a9d2ee"/>
      <stop offset=".3066" stop-color="#7fc2e7"/>
      <stop offset=".4649" stop-color="#46abdd"/>
      <stop offset=".5674" stop-color="#1e9cd7"/>
      <stop offset=".8652" stop-color="#0075be"/>
      <stop offset=".9944" stop-color="#005b97"/>
    </linearGradient>
    <linearGradient id="Cielo" x1="376.15" y1="282.6401" x2="587.3575" y2="282.6401" gradientUnits="userSpaceOnUse">
      <stop offset="0" stop-color="#cce0f4"/>
      <stop offset=".0641" stop-color="#c2dcf2"/>
      <stop offset=".1706" stop-color="#a9d2ee"/>
      <stop offset=".3066" stop-color="#7fc2e7"/>
      <stop offset=".4649" stop-color="#46abdd"/>
      <stop offset=".5674" stop-color="#1e9cd7"/>
      <stop offset=".8652" stop-color="#0075be"/>
      <stop offset=".9944" stop-color="#005b97"/>
    </linearGradient>
  </defs>
  <g>
    <path class="cls-1" d="M138.1,534.4c13.1,0,16.1-6.5,16.1-11.1,0-9.1-14.1-11.1-23.6-13.9-9.6-2.8-34-6.8-34-32,0-22.4,17.9-31.5,36.7-31.5,18.9,0,30,6.3,39.8,13.4l-12.1,17.4999c-5.1-4.3-16.8-10.5-28.2-10.5-11.5,0-13.8,6.8-13.8,9.6,0,6.3,3.8,10,22.6,14.6,20.9,5,34.9,13.8,34.9,32,0,19.1-14.3,32.5-38.8,32.5-23.2,0-35.7-9-45.1-17.1l13.8-16.6c5.1,4.7999,15.8,13.1,31.7,13.1Z"/>
    <path class="cls-1" d="M305.5,500.4c0,30.2-24.4,54.8-54.6,54.8s-54.8-24.6-54.8-54.8,24.6-54.6,54.8-54.6,54.6,24.4,54.6,54.6ZM284.5,500.4c0-18.4-15.1-33.5-33.5-33.5s-33.5,15.1-33.5,33.5,15.1,33.5,33.5,33.5,33.5-15.1,33.5-33.5Z"/>
    <path class="cls-1" d="M340.2,553.3h-22.7l42.3-105.9h21.1l42.5,105.9h-22.9l-8.5-21.1h-43.3l-8.5,21.1ZM370.2,478l-13.1,33h26.4l-13.3-33Z"/>
    <path class="cls-1" d="M465.7,553.3h-21.1v-105.9h52.9c21.4,0,38.8,17.4,38.8,38.8,0,16.3-10,30.2-24.2,36l23.7,31h-26.7l-21.4-28.2h-22.1v28.3h.1ZM465.7,503.9h31.9c9.6,0,17.6-7.8,17.6-17.6s-8-17.6-17.6-17.6h-31.9v35.2Z"/>
    <path class="cls-4" d="M575.1,552.4v-105.9h35.2c15.6,0,28.4,12.6,28.4,28.2,0,4.5-1.2,8.5-2.8,12.3,10.1,6.1,16.9,17.3,16.9,30,0,19.6-15.9,35.3-35.3,35.3h-42.4001v.1ZM610.3,467.8h-14.1v14.1h14.1c4,0,7.1-3.2,7.1-7.1,0-3.9-3.1-7-7.1-7ZM631.5,517.1c0-7.8-6.3-14.1-14.1-14.1h-21.2v28.2h21.2c7.8,0,14.1-6.3,14.1-14.1Z"/>
    <path class="cls-4" d="M747.8,531.3v21.1h-70.5v-105.9h21.2v84.8h49.3Z"/>
    <path class="cls-4" d="M862.2,446.5v60.1c0,26.2-21.4,47.6-47.6,47.6-26.4,0-47.6-21.4-47.6-47.6v-60.1h20.9999v60.1c0,14.6,11.9,26.4,26.6,26.4s26.6-11.8,26.6-26.4v-60.1h21.0001Z"/>
    <path class="cls-4" d="M912,467.8v21.1h42.5v21.2h-42.5v21.2h56.6v21.1h-77.7v-105.9h77.7v21.2h-56.6v.1Z"/>
  </g>
  <path class="cls-2" d="M587.5524,287.192c-2.6115-14.5429-7.6236-28.0965-14.3832-41.0071-13.3339-25.4672-34.3955-40.2598-59.8711-47.8764-24.7907-7.4118-50.0204-13.1371-75.01-19.8054-18.9953-5.0687-37.9164-10.4546-56.8694-15.6993.0407-38.4295.0804-76.859.1197-115.2886.0071-6.9414.0858-13.884-.0135-20.8237-.045-3.1428.6775-4.1893,3.887-3.2801,33.3067,9.4352,66.952,17.6434,99.4353,30.1073,27.1421,10.4145,49.3454,28.1681,67.4142,52.308,14.486,19.3534,24.9073,40.6174,30.343,64.6499,3.8036,16.8166,5.231,33.9338,5.1445,51.2195-.1092,21.8317-.1348,43.6638-.1964,65.4958Z"/>
  <path class="cls-3" d="M376.1734,160.3802c15.0131,3.9241,29.1429,7.6207,43.2742,11.3102,26.9181,7.0278,53.8472,14.0082,80.7524,21.092,18.7644,4.9404,36.6519,12.0297,51.8741,25.2646,12.7354,11.0726,20.8899,25.6585,27.5352,41.3821,5.5062,13.0285,7.824,26.6586,7.7463,40.9566-.188,34.5545-.0616,69.111-.071,103.6667-.0001.4415-.1191.8829-.1137.8453-6.0389-5.1454-11.7622-10.9907-18.3233-15.4196-15.8771-10.7173-33.5118-15.4338-52.2581-16.3746-13.5662-.6807-27.3719-.9677-40.5663-3.9644-25.1937-5.722-47.0935-18.9961-64.5924-39.3614-18.9106-22.0082-30.089-48.2231-34.0583-77.8137-.8279-6.1719-1.1077-12.4697-1.1453-18.7128-.1335-22.1911-.0532-44.3836-.0538-66.5756,0-1.839,0-3.678,0-6.2954Z"/>
</svg>