<?xml version="1.0" encoding="utf-8"?>
<!-- Generator: Adobe Illustrator 28.4.1, SVG Export Plug-In . SVG Version: 6.00 Build 0)  -->
<svg version="1.1" id="Layer_1" xmlns="http://www.w3.org/2000/svg" xmlns:xlink="http://www.w3.org/1999/xlink" x="0px" y="0px"
	 viewBox="0 0 1256.2 249.5" style="enable-background:new 0 0 1256.2 249.5;" xml:space="preserve">
<style type="text/css">
	.st0{fill:#C8E3F2;}
	.st1{fill:#45B7E9;}
	.st2{fill:#90CDF9;}
	.st3{fill:#4CAFF6;}
	.st4{fill:#69BCF7;}
	.st5{fill:#41AAF5;}
	.st6{fill:#3FA9F5;}
	.st7{fill:#2F7DB5;}
	.st8{fill:#75C1F8;}
	.st9{fill:#93CFF9;}
	.st10{fill:#0E2536;}
	.st11{fill:#62859F;}
	.st12{fill:#497290;}
	.st13{fill:#A5D7FA;}
	.st14{fill:#1E5176;}
	.st15{fill:#446F8D;}
	
		.st16{fill:url(#SVGID_1_);stroke:url(#SVGID_00000072961381407451865360000006626344342734813080_);stroke-width:1.4451;stroke-miterlimit:10;}
	
		.st17{fill:url(#SVGID_00000160871421789034855920000014829706798055139481_);stroke:url(#SVGID_00000145049887365914663780000013642655348833602206_);stroke-width:1.4451;stroke-miterlimit:10;}
</style>
<image style="display:none;overflow:visible;enable-background:new    ;" width="1700" height="2200" xlink:href="../../../../../Volumes/NVMe 1TB - Paul/4-2Grey.png"  transform="matrix(0.72 0 0 0.72 -71.8177 -338.3527)">
</image>
<g>
	<g id="Objeto_generativo_00000019672367861770806080000018206782058375468437_">
		<g>
			<path class="st2" d="M693.5,141.6l-46.6-4c11.9-2.2,22.1-10.1,14.9-23.3c-6.6-12-29.5-5.1-40.2-8.4l-0.5,32.7
				c-11.9,0.2-23.8-0.2-35.7,0c0-21.5-2.5-43,0.5-64.5c29.3,2.8,87.9-9.7,106.7,19.4C701.8,107.9,700.5,126.8,693.5,141.6z"/>
			<path class="st3" d="M688.5,148.6c-4.2,5.2-8.3,8.7-12.9,13.4c6.7,9.8,12.8,20,18.9,30.3h-40.7c-7.6-10.6-15.2-36.4-32.3-28.8
				c-3.8,1.7,0.5,35.3-2.5,40.7l-0.5-12.9l-33.2,2c-0.6-14.5,0.2-29.2,0-43.7L688.5,148.6z"/>
			<path class="st4" d="M646.8,137.7l46.6,4c-1.9,4.1-2.6,4-5,6.9l-103.2,1c0-3.6,0-7.3,0-10.9c11.9-0.2,23.8,0.2,35.7,0
				C629.6,138.5,638.3,139.2,646.8,137.7z"/>
			<path class="st5" d="M694.4,192.3c2,3.4,6.9,7.6,7.4,11.9c-9.3-1.9-32.1,2.5-39.7,0c-1.4-0.5-7-9.9-8.4-11.9H694.4z"/>
			<path class="st6" d="M619,204.2h-34.2c0.6-3.6,0.6-7.3,0.5-10.9l33.2-2L619,204.2z"/>
		</g>
		<g>
			<g>
				<path class="st7" d="M1221.4,139.7h-97.3c-0.1-21.7-0.4-43.7,0.5-65.5h104.2l-1,32.7l-68,0.5c0.6,3.1-1.5,16.1,1.5,17.4
					c6.1,2.7,58.5-2.9,60,0.5C1221.5,130.1,1221.4,134.9,1221.4,139.7z"/>
				<path class="st8" d="M1221.4,147.6c-0.2,1.4-0.1,5.5-1.5,6h-59.5l-0.5,19.4l69,0.5v30.8h-104.2c-1-17.8-0.3-35.7-0.5-53.6
					L1221.4,147.6z"/>
				<path class="st9" d="M1221.4,139.7c0,2.5,0.3,5.6,0,7.9l-97.3,3c0-3.6,0-7.3,0-10.9H1221.4z"/>
			</g>
			<g>
				<g>
					<path class="st10" d="M894.9,147.6c0.2,8.4,1.5,17.3,1.5,25.8h61.5l1,30.8h-98.2c-1.2-18.2-0.2-36.5-0.5-54.6L894.9,147.6z"/>
					<path class="st11" d="M895.9,138.7l-35.7,1c-0.1-21.7-2.4-43.7-0.5-65.5l36.2,1.5C896.1,96.7,895.7,117.7,895.9,138.7z"/>
					<path class="st12" d="M895.9,138.7c0,3-1,7.4-1,8.9l-34.7,2c-0.1-3.3,0-6.6,0-9.9L895.9,138.7z"/>
				</g>
				<g>
					<path class="st10" d="M1013,148.6c3.8,36.1,46.5,36,48.6,0h35.7c-5.5,81.5-114.8,80.4-120.1,1L1013,148.6z"/>
					<path class="st11" d="M1097.4,139.7h-36.7c0.5-21.6-0.4-43.4,0-65l36.2-1.5C1097.1,95.2,1098.2,117.6,1097.4,139.7z"/>
					<path class="st11" d="M1013,140.7l-35.7-2c-0.8-21.3,0.6-42.7,0-64l35.2-0.5C1014.4,96.2,1011.7,118.6,1013,140.7z"/>
					<path class="st12" d="M1013,140.7c0.1,2.6-0.3,5.4,0,7.9l-35.7,1c-0.2-3.6,0.1-7.3,0-10.9L1013,140.7z"/>
					<path class="st12" d="M1097.4,139.7c-0.1,3,0.2,6,0,8.9h-35.7c0.2-3.3-1-7.1-1-8.9H1097.4z"/>
				</g>
			</g>
		</g>
		<g>
			<path class="st7" d="M815.5,139.7c-28.8-3.6-63.8,3.4-93.3-1c0.1-21.5-0.5-43,0.5-64.5c26.8,3.6,97.2-11.9,108.7,21.3
				c6.4,18.4-3.6,34.1-20.8,40.7L815.5,139.7z"/>
			<g>
				<path class="st9" d="M815.5,139.7c7.4,0.9,10,2.4,14.9,7.9l-107.2,2c0-3.3-1-7.3-1-10.9C751.7,143,786.7,136.1,815.5,139.7z"/>
				<g>
					<path class="st8" d="M830.4,147.6c22.1,25-5.2,59.2-35.2,56.6h-71.5c-3.6-2-0.4-47.7-0.5-54.6L830.4,147.6z"/>
					<path class="st13" d="M728.7,199.2c1.7-0.8,2.1,2.5,1,3C728,202.9,727.6,199.7,728.7,199.2z"/>
					<polygon class="st13" points="743.6,200.2 745.1,200.7 743.6,202.2 743.1,201.7 					"/>
					<polygon class="st13" points="766.4,200.2 767.9,200.7 766.4,202.2 765.9,201.7 					"/>
				</g>
			</g>
		</g>
		<g>
			<g>
				<g>
					<path class="st11" d="M241.9,139.7l-84.4,2c-16.8-12.1-18.1-35-6-51.1c19.2-25.5,75.3-21.6,97.3-1l-19.4,25.3
						c-6.3-12-61.4-19-51.1,0.5C182.7,123.5,226.8,124.3,241.9,139.7z"/>
					<path class="st14" d="M247.9,148.6c23.9,63-77.3,73-108.2,36.2l18.4-23.3c8.4,8.3,51.8,22.9,56.1,7.4
						c4.1-15.1-32.3-15.4-40.7-20.3C197.2,152,223.8,143.9,247.9,148.6z"/>
					<path class="st12" d="M241.9,139.7c3.9,4,3.9,3.4,6,8.9c-24.1-4.7-50.7,3.4-74.4,0c-6.8-1-10.5-3.1-15.9-6.9L241.9,139.7z"/>
				</g>
				<g>
					<path class="st13" d="M407.6,138.7l-35.7,1c-0.5-45.3-64.8-48.2-65.5,0c-11.6,1.2-26.1-2.5-36.7,2
						C266.3,50.4,407.7,49.2,407.6,138.7z"/>
					<path class="st8" d="M306.4,147.6c5.1,35.3,58,36,64.5,1h35.7c-10,78.5-126.5,77.7-137,2C280.9,146.1,294.6,148.1,306.4,147.6z
						"/>
					<path class="st9" d="M407.6,138.7c0,3.9-0.5,6.3-1,9.9h-35.7c0.2-1.1,1-8.1,1-8.9L407.6,138.7z"/>
					<path class="st9" d="M306.4,139.7c0,2.4-0.3,5.7,0,7.9c-11.8,0.5-25.5-1.5-36.7,3c-0.4-2.7,0.1-6.1,0-8.9
						C280.3,137.2,294.8,140.9,306.4,139.7z"/>
				</g>
			</g>
			<g>
				<path class="st14" d="M480.1,149.6c-0.5,1.8-1.8,3.5,0.5,5h25.8c2.1-0.9,0.8-4.5,0.5-6l34.7-1c7.9,18.8,17.2,37.1,24.8,56.1
					l-38.2,0.5c-1.1-0.5-7.7-18.9-9.4-21.8c-0.2-0.3-0.6-3.7-1.5-4c-11.9,1.9-45.8-4.3-53.1,4.5c-1.2,1.5-2.8,9.5-4.5,10.4
					c-1.5,0.9-30.6,0.3-35.2,3c5.7-16.7,14-32.4,20.8-48.6L480.1,149.6z"/>
				<path class="st11" d="M538.6,139.7l-34.7,2c-2.6-7.3-7.4-14.6-10.4-21.8c-3,6.5-6.9,13.2-9.4,19.8h-35.7
					c3.5-8.1,25.1-61.8,27.8-64c5.1-4.2,27.2,0.8,34.2-2.5C520.3,95.1,529.2,117.5,538.6,139.7z"/>
				<path class="st12" d="M484.1,139.7c-0.9,2.5-3.6,8.4-4,9.9l-34.7-2c1.1-2.5,1.9-5.4,3-7.9H484.1z"/>
				<path class="st12" d="M538.6,139.7c1.1,2.6,1.9,5.4,3,7.9l-34.7,1c-0.1-0.4-2.4-5.3-3-6.9L538.6,139.7z"/>
				<g>
					<path class="st14" d="M518.8,182.3c-10.6,0.4-41.7-3.8-50.1-1c-3.2,1.1-9.4,22.1-10.9,22.8c-3.9,1.9-29.4-1.4-35.7,0
						c-2.2-1.2,2.2-7,2.5-7.9c4.6-2.6,33.7-2.1,35.2-3c1.7-1,3.3-9,4.5-10.4c7.3-8.8,41.2-2.6,53.1-4.5
						C518.2,178.6,518.6,182.1,518.8,182.3z"/>
					<path class="st15" d="M432,199.2c0.5,0,0.7,0.9,0.5,1.5C431.9,204.4,430.7,199.3,432,199.2z"/>
				</g>
			</g>
		</g>
	</g>
	<linearGradient id="SVGID_1_" gradientUnits="userSpaceOnUse" x1="29.5223" y1="115.5782" x2="109.5333" y2="115.5782">
		<stop  offset="5.618000e-03" style="stop-color:#89C9F7"/>
		<stop  offset="0.1348" style="stop-color:#1E5176"/>
		<stop  offset="0.4326" style="stop-color:#3FA9F5"/>
		<stop  offset="0.6124" style="stop-color:#408CC2"/>
		<stop  offset="0.7842" style="stop-color:#407499"/>
		<stop  offset="0.919" style="stop-color:#41657F"/>
		<stop  offset="1" style="stop-color:#416076"/>
	</linearGradient>
	
		<linearGradient id="SVGID_00000061463100878429331250000017288706575434021800_" gradientUnits="userSpaceOnUse" x1="28.7992" y1="115.2808" x2="110.2558" y2="115.2808">
		<stop  offset="0" style="stop-color:#416076"/>
		<stop  offset="8.104095e-02" style="stop-color:#41657F"/>
		<stop  offset="0.2158" style="stop-color:#407499"/>
		<stop  offset="0.3876" style="stop-color:#408CC2"/>
		<stop  offset="0.5674" style="stop-color:#3FA9F5"/>
		<stop  offset="0.8652" style="stop-color:#1E5176"/>
		<stop  offset="0.9944" style="stop-color:#89C9F7"/>
	</linearGradient>
	
		<path style="fill:url(#SVGID_1_);stroke:url(#SVGID_00000061463100878429331250000017288706575434021800_);stroke-width:1.4451;stroke-miterlimit:10;" d="
		M109.5,166.8c-1-5.6-3-10.9-5.6-15.9c-5.2-9.9-13.3-15.6-23.2-18.6c-9.6-2.9-19.4-5.1-29.1-7.7c-7.4-2-14.7-4.1-22.1-6.1
		c0-14.9,0-29.8,0-44.7c0-2.7,0-5.4,0-8.1c0-1.2,0.3-1.6,1.5-1.3c12.9,3.7,26,6.8,38.6,11.7c10.5,4,19.1,10.9,26.1,20.3
		c5.6,7.5,9.7,15.8,11.8,25.1c1.5,6.5,2,13.2,2,19.9C109.5,149.9,109.5,158.3,109.5,166.8z"/>
	
		<linearGradient id="SVGID_00000080182209819129406170000017505269216142478483_" gradientUnits="userSpaceOnUse" x1="27.4793" y1="165.0179" x2="109.3801" y2="165.0179">
		<stop  offset="5.618000e-03" style="stop-color:#89C9F7"/>
		<stop  offset="0.1348" style="stop-color:#1E5176"/>
		<stop  offset="0.4326" style="stop-color:#3FA9F5"/>
		<stop  offset="0.6124" style="stop-color:#408CC2"/>
		<stop  offset="0.7842" style="stop-color:#407499"/>
		<stop  offset="0.919" style="stop-color:#41657F"/>
		<stop  offset="1" style="stop-color:#416076"/>
	</linearGradient>
	
		<linearGradient id="SVGID_00000062911136429502423530000005099212584045599896_" gradientUnits="userSpaceOnUse" x1="26.7567" y1="164.9113" x2="110.1026" y2="164.9113">
		<stop  offset="0" style="stop-color:#416076"/>
		<stop  offset="8.104095e-02" style="stop-color:#41657F"/>
		<stop  offset="0.2158" style="stop-color:#407499"/>
		<stop  offset="0.3876" style="stop-color:#408CC2"/>
		<stop  offset="0.5674" style="stop-color:#3FA9F5"/>
		<stop  offset="0.8652" style="stop-color:#1E5176"/>
		<stop  offset="0.9944" style="stop-color:#89C9F7"/>
	</linearGradient>
	
		<path style="fill:url(#SVGID_00000080182209819129406170000017505269216142478483_);stroke:url(#SVGID_00000062911136429502423530000005099212584045599896_);stroke-width:1.4451;stroke-miterlimit:10;" d="
		M27.5,117.6c5.8,1.5,11.3,3,16.8,4.4c10.4,2.7,20.9,5.4,31.3,8.2c7.3,1.9,14.2,4.7,20.1,9.8c4.9,4.3,8.1,9.9,10.7,16
		c2.1,5.1,3,10.3,3,15.9c-0.1,13.4,0,26.8,0,40.2c0,0.2,0,0.3,0,0.3c-2.3-2-4.6-4.3-7.1-6c-6.2-4.2-13-6-20.3-6.3
		c-5.3-0.3-10.6-0.4-15.7-1.5c-9.8-2.2-18.3-7.4-25-15.3c-7.3-8.5-11.7-18.7-13.2-30.2c-0.3-2.4-0.4-4.8-0.4-7.3
		c-0.1-8.6,0-17.2,0-25.8C27.5,119.3,27.5,118.6,27.5,117.6z"/>
</g>
</svg>
