<?xml version="1.0" encoding="UTF-8"?>
<svg id="Layer_1" data-name="Layer 1" xmlns="http://www.w3.org/2000/svg" xmlns:xlink="http://www.w3.org/1999/xlink" viewBox="0 0 1256.2 249.5">
  <defs>
    <style>
      .cls-1 {
        fill: #cce0f4;
        stroke-width: 0px;
      }

      .cls-2 {
        fill: url(#Cielo);
      }

      .cls-2, .cls-3, .cls-4 {
        stroke: #fff;
        stroke-miterlimit: 10;
        stroke-width: .7602px;
      }

      .cls-3 {
        fill: #0075be;
      }

      .cls-4 {
        fill: url(#Cielo-2);
      }
    </style>
    <linearGradient id="Cielo" x1="40.9836" y1="104.2902" x2="118.8795" y2="104.2902" gradientUnits="userSpaceOnUse">
      <stop offset="0" stop-color="#cce0f4"/>
      <stop offset=".0641" stop-color="#c2dcf2"/>
      <stop offset=".1706" stop-color="#a9d2ee"/>
      <stop offset=".3066" stop-color="#7fc2e7"/>
      <stop offset=".4649" stop-color="#46abdd"/>
      <stop offset=".5674" stop-color="#1e9cd7"/>
      <stop offset=".8652" stop-color="#0075be"/>
      <stop offset=".9944" stop-color="#005b97"/>
    </linearGradient>
    <linearGradient id="Cielo-2" data-name="Cielo" x1="38.9945" y1="152.423" x2="118.7304" y2="152.423" xlink:href="#Cielo"/>
  </defs>
  <path class="cls-2" d="M118.804,154.1414c-.9859-5.4903-2.8781-10.6071-5.43-15.4811-5.0339-9.6145-12.9851-15.199-22.6028-18.0745-9.3591-2.7981-18.8839-4.9596-28.318-7.477-7.1712-1.9136-14.3143-3.9469-21.4696-5.9269.0154-14.508.0303-29.0161.0452-43.5242.0027-2.6205.0324-5.2415-.0051-7.8614-.017-1.1865.2558-1.5815,1.4674-1.2383,12.5741,3.562,25.276,6.6608,37.5392,11.3662,10.2468,3.9317,18.6291,10.6341,25.4505,19.7475,5.4688,7.3064,9.4031,15.334,11.4552,24.4069,1.4359,6.3487,1.9748,12.8108,1.9422,19.3366-.0412,8.242-.0509,16.4841-.0741,24.7262Z"/>
  <path class="cls-4" d="M39.0033,106.267c5.6678,1.4814,11.0021,2.877,16.3371,4.2699,10.1622,2.6532,20.3286,5.2884,30.486,7.9627,7.084,1.8651,13.8369,4.5415,19.5837,9.538,4.8079,4.1802,7.8864,9.6867,10.3952,15.6227,2.0787,4.9186,2.9537,10.0643,2.9244,15.4621-.071,13.0451-.0233,26.091-.0268,39.1366,0,.1667-.045.3333-.0429.3191-2.2798-1.9425-4.4405-4.1493-6.9175-5.8213-5.994-4.046-12.6515-5.8266-19.7287-6.1818-5.1216-.257-10.3335-.3653-15.3148-1.4967-9.5112-2.1602-17.7789-7.1715-24.3852-14.8598-7.1392-8.3086-11.3593-18.2054-12.8578-29.3765-.3125-2.33-.4182-4.7076-.4324-7.0645-.0504-8.3777-.0201-16.7559-.0203-25.1339,0-.6943,0-1.3885,0-2.3766Z"/>
  <g>
    <path class="cls-1" d="M228.785,169.0641c15.9505,0,19.6033-7.9144,19.6033-13.5153,0-11.0801-17.1681-13.5153-28.7353-16.9246-11.6889-3.4093-41.3983-8.2797-41.3983-38.9631,0-27.2742,21.795-38.3543,44.6858-38.3543,23.0126,0,36.5279,7.6709,48.4604,16.3158l-14.7329,21.3079c-6.2098-5.2357-20.4556-12.7848-34.3363-12.7848-14.0024,0-16.8029,8.2797-16.8029,11.6889,0,7.6709,4.6269,12.176,27.5177,17.7769,25.4478,6.088,42.4942,16.8028,42.4942,38.9631,0,23.2561-17.4117,39.5719-47.2428,39.5719-28.2483,0-43.4682-10.9584-54.9137-20.8209l16.8029-20.2121c6.2097,5.8444,19.238,15.9505,38.5979,15.9505Z"/>
    <path class="cls-1" d="M432.6109,127.6657c0,36.7714-29.7094,66.7244-66.4808,66.7244s-66.7244-29.9529-66.7244-66.7243,29.9529-66.4808,66.7244-66.4808,66.4808,29.7094,66.4808,66.4808ZM407.0414,127.6657c0-22.4038-18.3857-40.7895-40.7895-40.7895s-40.7895,18.3857-40.7895,40.7895,18.3857,40.7896,40.7895,40.7896,40.7895-18.3858,40.7895-40.7896Z"/>
    <path class="cls-1" d="M474.8616,192.0766h-27.6395l51.5044-128.9436h25.6913l51.7479,128.9436h-27.883l-10.3496-25.6913h-52.722l-10.3496,25.6913ZM511.3895,100.3915l-15.9505,40.1807h32.1446l-16.194-40.1807Z"/>
    <path class="cls-1" d="M627.6701,192.0766h-25.6913V63.133h64.4109c26.0566,0,47.2428,21.1862,47.2428,47.2428,0,19.8468-12.176,36.7714-29.4659,43.8335l28.8571,37.7455h-32.5099l-26.0566-34.3363h-26.9089v34.4581h.1218ZM627.6701,131.9273h38.8414c11.6889,0,21.4297-9.4972,21.4297-21.4297s-9.7408-21.4297-21.4297-21.4297h-38.8414v42.8595Z"/>
    <path class="cls-3" d="M760.8753,190.9808V62.0372h42.8595c18.9945,0,34.5798,15.3417,34.5798,34.3363,0,5.4792-1.4611,10.3496-3.4093,14.9764,12.2977,7.4274,20.5774,21.0644,20.5774,36.528,0,23.8649-19.3598,42.9812-42.9812,42.9812h-51.6263v.1217ZM803.7347,87.9721h-17.1681v17.1681h17.1681c4.8704,0,8.6449-3.8963,8.6449-8.645,0-4.7487-3.7745-8.5232-8.6449-8.5232ZM829.5478,147.9996c0-9.4972-7.6709-17.1681-17.1681-17.1681h-25.8131v34.3362h25.8131c9.4972,0,17.1681-7.6709,17.1681-17.1681Z"/>
    <path class="cls-3" d="M971.1544,165.2895v25.6913h-85.8406V62.0373h25.8131v103.2523h60.0276Z"/>
    <path class="cls-3" d="M1110.4476,62.0372v73.1776c0,31.9011-26.0566,57.9576-57.9576,57.9576-32.1446,0-57.9576-26.0566-57.9576-57.9577V62.0372h25.5695v73.1776c0,17.7769,14.4894,32.1446,32.3881,32.1446s32.3881-14.3676,32.3881-32.1446V62.0372h25.5696Z"/>
    <path class="cls-3" d="M1171.084,87.9721v25.6913h51.7479v25.8131h-51.7479v25.8131h68.916v25.6913h-94.6073V62.0372h94.6073v25.8131h-68.916v.1218Z"/>
  </g>
</svg>