<?xml version="1.0" encoding="UTF-8"?>
<svg id="Layer_1" data-name="Layer 1" xmlns="http://www.w3.org/2000/svg" xmlns:xlink="http://www.w3.org/1999/xlink" viewBox="0 0 1256.2 249.5">
  <defs>
    <style>
      .cls-1 {
        fill: url(#Degradado_sin_nombre_68);
      }

      .cls-1, .cls-2, .cls-3, .cls-4, .cls-5, .cls-6, .cls-7, .cls-8, .cls-9 {
        stroke-width: 0px;
      }

      .cls-2 {
        fill: url(#Degradado_sin_nombre_68-2);
      }

      .cls-3 {
        fill: url(#Degradado_sin_nombre_68-3);
      }

      .cls-4 {
        fill: url(#Degradado_sin_nombre_68-6);
      }

      .cls-5 {
        fill: url(#Degradado_sin_nombre_68-4);
      }

      .cls-6 {
        fill: url(#Degradado_sin_nombre_68-7);
      }

      .cls-7 {
        fill: url(#Degradado_sin_nombre_68-8);
      }

      .cls-8 {
        fill: url(#Degradado_sin_nombre_68-5);
      }

      .cls-9 {
        fill: url(#Degradado_sin_nombre_68-9);
      }

      .cls-10 {
        fill: url(#Degradado_sin_nombre_68-10);
        stroke: #f0eee9;
        stroke-miterlimit: 10;
        stroke-width: .56px;
      }
    </style>
    <linearGradient id="Degradado_sin_nombre_68" data-name="Degradado sin nombre 68" x1="299.9182" y1="125.0333" x2="375.9567" y2="125.0333" gradientUnits="userSpaceOnUse">
      <stop offset="0" stop-color="#cbdff3"/>
      <stop offset=".0643" stop-color="#c1dbf1"/>
      <stop offset=".1714" stop-color="#a8d1ed"/>
      <stop offset=".3079" stop-color="#7ec0e6"/>
      <stop offset=".4669" stop-color="#45aadc"/>
      <stop offset=".5674" stop-color="#1e9bd6"/>
      <stop offset=".8652" stop-color="#0075bd"/>
      <stop offset=".9944" stop-color="#005b96"/>
    </linearGradient>
    <linearGradient id="Degradado_sin_nombre_68-2" data-name="Degradado sin nombre 68" x1="392.7456" y1="125.0304" x2="492.2556" y2="125.0304" xlink:href="#Degradado_sin_nombre_68"/>
    <linearGradient id="Degradado_sin_nombre_68-3" data-name="Degradado sin nombre 68" x1="506.9829" y1="125.1001" x2="601.0026" y2="125.1001" xlink:href="#Degradado_sin_nombre_68"/>
    <linearGradient id="Degradado_sin_nombre_68-4" data-name="Degradado sin nombre 68" x1="619.8501" y1="125.0991" x2="698.7717" y2="125.0991" xlink:href="#Degradado_sin_nombre_68"/>
    <linearGradient id="Degradado_sin_nombre_68-5" data-name="Degradado sin nombre 68" x1="724.0729" y1="130.1113" x2="800.3863" y2="130.1113" xlink:href="#Degradado_sin_nombre_68"/>
    <linearGradient id="Degradado_sin_nombre_68-6" data-name="Degradado sin nombre 68" x1="821.2866" y1="125.1001" x2="883.6003" y2="125.1001" xlink:href="#Degradado_sin_nombre_68"/>
    <linearGradient id="Degradado_sin_nombre_68-7" data-name="Degradado sin nombre 68" x1="904.5006" y1="125.9226" x2="988.226" y2="125.9226" xlink:href="#Degradado_sin_nombre_68"/>
    <linearGradient id="Degradado_sin_nombre_68-8" data-name="Degradado sin nombre 68" x1="1015.581" y1="125.102" x2="1080.0902" y2="125.102" xlink:href="#Degradado_sin_nombre_68"/>
    <linearGradient id="Degradado_sin_nombre_68-9" data-name="Degradado sin nombre 68" x1="181.4548" y1="95.4492" x2="284.1794" y2="95.4492" xlink:href="#Degradado_sin_nombre_68"/>
    <linearGradient id="Degradado_sin_nombre_68-10" data-name="Degradado sin nombre 68" x1="178.8318" y1="158.9238" x2="283.9827" y2="158.9238" xlink:href="#Degradado_sin_nombre_68"/>
  </defs>
  <path class="cls-1" d="M301.4272,103.8272c0-6.129,1.6-11.5509,4.8048-16.2647,3.2019-4.7114,7.6174-8.4174,13.2447-11.1176,5.6273-2.6977,12.0545-4.0488,19.2847-4.0488,7.3192,0,13.633,1.2826,18.9404,3.843,5.3065,2.5628,9.4023,6.1764,12.2843,10.8433,2.8831,4.6669,4.3236,10.2042,4.3236,16.608h-22.0974c0-3.5686-1.2362-6.3823-3.7065-8.4414-2.4704-2.0586-5.8121-3.088-10.0194-3.088-4.484,0-8.0771.9604-10.7744,2.8821-2.7002,1.9217-4.0488,4.5769-4.0488,7.9607,0,3.1119.8235,5.4904,2.4704,7.1373,1.6469,1.6474,4.2552,2.8376,7.8238,3.5686l15.2349,3.1569c9.059,1.8317,15.7845,5.0102,20.1766,9.5392,4.3921,4.5295,6.5876,10.8218,6.5876,18.873,0,6.4982-1.6019,12.1939-4.8038,17.0882-3.2038,4.8962-7.7094,8.6707-13.5195,11.3235-5.8121,2.6528-12.6061,3.9804-20.382,3.9804-7.504,0-14.0692-1.2826-19.6964-3.843-5.6273-2.5608-9.9744-6.1979-13.0393-10.9118-3.0669-4.7119-4.5975-10.2257-4.5975-16.5395h22.0974c0,3.6611,1.3261,6.4982,3.9804,8.5099,2.6532,2.0137,6.4517,3.0195,11.3924,3.0195,5.0317,0,9.012-.9369,11.9411-2.8136,2.9281-1.8743,4.3921-4.4136,4.3921-7.6174,0-2.8352-.709-5.0312-2.1271-6.5886-1.42-1.5545-3.8219-2.6528-7.2057-3.2938l-15.5097-3.1569c-9.059-1.8293-15.9009-5.306-20.5199-10.4316-4.6219-5.1231-6.9319-11.8487-6.9319-20.1766Z"/>
  <path class="cls-2" d="M492.2556,124.9617c0,10.3416-2.1056,19.469-6.3128,27.3823-4.2102,7.9157-10.0673,14.0921-17.5693,18.5297-7.504,4.439-16.1962,6.6566-26.0787,6.6566-9.7915,0-18.4153-2.2176-25.8723-6.6566-7.459-4.4376-13.2682-10.59-17.4314-18.4608-4.1642-7.8688-6.2454-16.9728-6.2454-27.3139s2.1046-19.4666,6.3138-27.3823c4.2082-7.9138,10.0419-14.0902,17.5009-18.5297,7.4561-4.4371,16.0799-6.6566,25.8723-6.6566,9.8824,0,18.5502,2.2195,26.0093,6.6566,7.4571,4.4395,13.2907,10.5925,17.5009,18.4608,4.2072,7.8707,6.3128,16.9747,6.3128,27.3139ZM468.7852,124.9617c0-6.4962-1.0523-12.055-3.1569-16.6764-2.1056-4.6195-5.1021-8.1666-8.9895-10.6374-3.8904-2.4704-8.5788-3.7055-14.0692-3.7055s-10.2042,1.2352-14.1376,3.7055c-3.9354,2.4709-6.9544,6.018-9.058,10.6374-2.1066,4.6214-3.1569,10.1802-3.1569,16.6764s1.0503,12.0785,3.1569,16.7454c2.1036,4.6664,5.1226,8.235,9.058,10.7059,3.9334,2.4704,8.6473,3.7055,14.1376,3.7055s10.1788-1.2567,14.0692-3.7745c3.8875-2.5154,6.884-6.1079,8.9895-10.7744,2.1046-4.6669,3.1569-10.2017,3.1569-16.608Z"/>
  <path class="cls-3" d="M530.1795,175.8844h-23.1966l36.2359-101.5686h21.6856l36.098,101.5686h-23.6073l-7.1373-21.4118h-32.8042l-7.2742,21.4118ZM551.1796,114.1194l-7.2752,21.6866h20.0397l-7.2752-21.6866c-.5486-1.7369-1.0973-3.5212-1.6469-5.3529-.5486-1.8293-.9154-3.3388-1.0973-4.529-.1848,1.1902-.5281,2.6762-1.0298,4.4605-.5037,1.7843-1.0768,3.5921-1.7154,5.4214Z"/>
  <path class="cls-5" d="M642.0853,175.8834h-22.2352v-101.5686h39.255c12.3528,0,21.892,2.8606,28.6175,8.5783,6.7255,5.7197,10.0878,13.8413,10.0878,24.3628,0,6.5881-1.3956,12.2154-4.1857,16.8823-2.7921,4.6664-7.0238,8.4649-12.6961,11.3919l17.8432,40.3532h-24.2949l-15.2349-35.5489h-17.1566v35.5489ZM642.0853,94.0792v26.7647h16.8818c4.8488,0,8.6238-1.1878,11.324-3.5686,2.6982-2.3784,4.0488-5.7172,4.0488-10.0194s-1.3036-7.5705-3.9119-9.814c-2.6073-2.241-6.3823-3.3628-11.323-3.3628h-17.0197Z"/>
  <path class="cls-8" d="M746.3082,79.327v101.5686h-22.2352v-101.5686h22.2352ZM765.1117,139.5821h-25.9408v-18.6671h24.8425c4.0253,0,7.0903-.9604,9.1969-2.8821,2.1036-1.9217,3.1569-4.7119,3.1569-8.3724,0-3.5686-1.0533-6.2669-3.1569-8.0981-2.1066-1.8293-5.1715-2.7452-9.1969-2.7452h-23.3325v-19.4901h25.666c10.2472,0,18.2764,2.5178,24.0885,7.549,5.8102,5.0332,8.7157,11.8961,8.7157,20.5883,0,5.949-1.465,10.9802-4.3921,15.098-2.93,4.1173-7.1842,7.0473-12.7645,8.7842v-1.9217c5.9471,1.2826,10.4995,3.9354,13.6564,7.9612,3.1569,4.0273,4.7354,9.1959,4.7354,15.5097,0,5.949-1.3036,11.0277-3.9119,15.2354-2.6073,4.2097-6.4507,7.3901-11.5294,9.5392-5.0786,2.1511-11.278,3.2254-18.5982,3.2254h-25.666v-19.4901h24.4308c4.1183,0,7.2272-.9374,9.3338-2.8141,2.1036-1.8743,3.1569-4.6879,3.1569-8.4409,0-3.4767-1.0768-6.1079-3.2254-7.8923-2.1515-1.7843-5.24-2.6762-9.2653-2.6762Z"/>
  <path class="cls-4" d="M843.5219,74.3158v101.5686h-22.2352v-101.5686h22.2352ZM825.267,175.8844v-20.5883h58.3333v20.5883h-58.3333Z"/>
  <path class="cls-6" d="M904.5006,137.7267v-63.4119h22.2352v61.9019c0,6.4057,1.6919,11.302,5.0786,14.6863,3.3838,3.3862,8.1876,5.0786,14.4114,5.0786,6.3138,0,11.1861-1.7374,14.6178-5.216,3.4317-3.4762,5.1471-8.325,5.1471-14.5489v-61.9019h22.2352v63.4119c0,8.0526-1.7154,15.053-5.1471,20.9996-3.4317,5.9495-8.304,10.569-14.6178,13.8628-6.3138,3.2943-13.7249,4.9412-22.2352,4.9412-8.4194,0-15.763-1.6254-22.0289-4.8723-6.2688-3.2469-11.1176-7.8688-14.5493-13.8628-3.4317-5.9921-5.1471-13.0159-5.1471-21.0685Z"/>
  <path class="cls-7" d="M1080.0902,175.8863h-64.5092v-101.5686h64.5092v20.5878h-48.4509l6.1769-5.7647v25.667h37.4701v19.4901h-37.4701v26.7647l-6.1769-5.7647h48.4509v20.5883Z"/>
  <path class="cls-9" d="M284.0798,161.19c-1.3001-7.2403-3.7954-13.988-7.1608-20.4156-6.6384-12.679-17.124-20.0436-29.8072-23.8355-12.3422-3.69-24.903-6.5404-37.3442-9.8602-9.4569-2.5235-18.8769-5.2049-28.3128-7.816.0203-19.1324.04-38.2647.0596-57.3971.0035-3.4558.0427-6.9122-.0067-10.3672-.0224-1.5646.3373-2.0856,1.9351-1.633,16.582,4.6974,33.3325,8.7839,49.5045,14.9891,13.5129,5.1849,24.5669,14.0237,33.5626,26.0419,7.212,9.6352,12.4003,20.2216,15.1064,32.1863,1.8936,8.3723,2.6043,16.8942,2.5612,25.4999-.0544,10.869-.0671,21.7383-.0978,32.6075Z"/>
  <path class="cls-10" d="M178.8434,98.056c7.4744,1.9536,14.509,3.794,21.5443,5.6308,13.4014,3.4989,26.8082,6.9741,40.2031,10.5008,9.342,2.4596,18.2474,5.9891,25.8259,12.5781,6.3404,5.5126,10.4001,12.7742,13.7086,20.6024,2.7413,6.4863,3.8952,13.2722,3.8565,20.3905-.0936,17.2032-.0307,34.4073-.0354,51.6111,0,.2198-.0593.4396-.0566.4208-3.0065-2.5617-5.8559-5.4718-9.1224-7.6767-7.9045-5.3357-16.684-7.6838-26.017-8.1522-6.754-.3389-13.6273-.4818-20.1962-1.9737-12.5428-2.8488-23.4458-9.4573-32.1577-19.5963-9.4147-10.9569-14.98-24.0082-16.9561-38.74-.4122-3.0727-.5515-6.2081-.5702-9.3163-.0665-11.048-.0265-22.0967-.0268-33.1451,0-.9155,0-1.8311,0-3.1342Z"/>
</svg>