<?xml version="1.0" encoding="utf-8"?>
<!-- Generator: Adobe Illustrator 28.4.1, SVG Export Plug-In . SVG Version: 6.00 Build 0)  -->
<svg version="1.1" id="Layer_1" xmlns="http://www.w3.org/2000/svg" xmlns:xlink="http://www.w3.org/1999/xlink" x="0px" y="0px"
	 viewBox="0 0 1256.2 249.5" style="enable-background:new 0 0 1256.2 249.5;" xml:space="preserve">
<style type="text/css">
	.st0{fill:#C8E3F2;}
	.st1{fill:#45B7E9;}
</style>
<image style="display:none;overflow:visible;" width="1700" height="2200" xlink:href="../../../../../Volumes/NVMe 1TB - Paul/4-2Grey.png"  transform="matrix(0.72 0 0 0.72 -71.8177 -338.3527)">
</image>
<g id="LOGO_SOARBLUE_-_TRAZADO">
	<g>
		<path class="st0" d="M-931.3,281.1c-5.9,0-11.2-0.8-16.2-2.2c-4.9-1.5-9.3-3.7-13.3-6.7c-3.9-3-7.5-6.6-10.5-10.8l12.2-13.8
			c4.7,6.5,9.3,11,13.8,13.5c4.5,2.5,9.6,3.8,15.3,3.8c3.3,0,6.2-0.5,8.9-1.5s4.8-2.4,6.3-4.2c1.5-1.8,2.3-3.8,2.3-6.1
			c0-1.6-0.3-3.2-0.9-4.5c-0.6-1.4-1.6-2.6-2.8-3.8c-1.2-1.1-2.8-2.1-4.6-3.1c-1.8-1-3.9-1.8-6.2-2.5c-2.3-0.7-4.8-1.3-7.6-1.9
			c-5.3-1.1-9.9-2.5-13.8-4.2s-7.3-4-9.9-6.6c-2.7-2.6-4.7-5.6-5.9-8.9s-1.9-7.1-1.9-11.3s0.9-8.1,2.8-11.7c1.9-3.5,4.4-6.6,7.7-9.2
			s7.1-4.6,11.4-6.1c4.3-1.4,9-2.2,14-2.2c5.7,0,10.7,0.7,15.2,2c4.5,1.3,8.4,3.3,11.8,6c3.4,2.6,6.2,5.8,8.4,9.6l-12.4,12.2
			c-1.9-3-4.1-5.5-6.5-7.4c-2.4-2-5-3.5-7.8-4.5c-2.8-1-5.7-1.5-8.8-1.5c-3.5,0-6.5,0.5-9,1.4c-2.5,1-4.5,2.3-6,4.1
			c-1.4,1.8-2.2,3.9-2.2,6.4c0,1.9,0.4,3.6,1.3,5.1s2.1,2.8,3.7,4s3.6,2.2,6.1,3c2.5,0.9,5.3,1.6,8.5,2.3c5.3,1.1,10,2.5,14.3,4.2
			c4.2,1.8,7.8,3.9,10.8,6.3c3,2.5,5.2,5.2,6.8,8.4s2.3,6.6,2.3,10.5c0,6.6-1.6,12.3-4.7,17.1c-3.1,4.8-7.5,8.4-13.2,11
			C-917,279.9-923.6,281.1-931.3,281.1L-931.3,281.1z"/>
		<path class="st0" d="M-831.1,281.1c-7.2,0-13.9-1.3-20-3.9c-6.2-2.6-11.5-6.2-16.1-10.9c-4.6-4.7-8.1-10.2-10.6-16.5
			c-2.5-6.3-3.8-13.3-3.8-20.8s1.2-14.4,3.8-20.8s6-11.8,10.6-16.5c4.6-4.7,9.9-8.3,16.1-10.9c6.1-2.6,12.8-3.9,20-3.9
			s14,1.3,20.2,3.9c6.2,2.6,11.5,6.2,16,11s8,10.2,10.5,16.5s3.8,13.2,3.8,20.7s-1.2,14.3-3.8,20.6c-2.5,6.3-6,11.9-10.5,16.6
			c-4.5,4.7-9.8,8.4-16,11C-817,279.8-823.8,281.1-831.1,281.1z M-831.1,263.2c4.6,0,8.8-0.8,12.6-2.5s7.1-4.1,9.9-7.2
			c2.8-3.1,5-6.8,6.6-10.9c1.6-4.1,2.4-8.7,2.4-13.5s-0.8-9.4-2.4-13.5s-3.8-7.8-6.6-10.9c-2.8-3.1-6.1-5.5-9.9-7.2s-8-2.5-12.6-2.5
			s-8.7,0.8-12.5,2.5c-3.9,1.7-7.2,4.1-10,7.1c-2.8,3.1-4.9,6.7-6.5,10.8c-1.5,4.1-2.3,8.7-2.3,13.7s0.8,9.4,2.3,13.6
			c1.5,4.2,3.7,7.8,6.5,10.9c2.8,3.1,6.1,5.5,10,7.1C-839.8,262.4-835.6,263.2-831.1,263.2L-831.1,263.2z"/>
		<path class="st0" d="M-776.1,279.7l39.4-100.9h17.6l39.1,100.9h-19.5l-21.6-57.4c-0.5-1.2-1.1-3-2-5.5s-1.7-5.2-2.7-8.2
			c-1-2.9-1.8-5.7-2.6-8.2c-0.8-2.5-1.3-4.4-1.7-5.5l3.6-0.1c-0.6,1.9-1.2,4.1-2,6.5c-0.8,2.4-1.6,4.9-2.4,7.5
			c-0.9,2.6-1.7,5.1-2.5,7.5c-0.8,2.4-1.6,4.6-2.2,6.5l-21.6,57L-776.1,279.7L-776.1,279.7z M-758.2,256.6l6.5-16.3h46l6.9,16.3
			H-758.2z"/>
		<path class="st0" d="M-666,279.7V178.8h43.8c6.1,0,11.6,1.4,16.6,4.2c5,2.8,9,6.7,11.9,11.5c2.9,4.9,4.4,10.3,4.4,16.4
			s-1.5,11.1-4.4,15.9c-2.9,4.9-6.9,8.7-11.8,11.5c-5,2.8-10.5,4.2-16.6,4.2h-25.5v37L-666,279.7L-666,279.7z M-647.7,226.3h25.7
			c2.8,0,5.2-0.7,7.3-2c2.1-1.3,3.7-3.1,4.8-5.4s1.7-4.8,1.7-7.6c0-3.2-0.7-5.9-2.2-8.2s-3.5-4.1-6.1-5.5s-5.6-2-8.9-2h-22.4
			L-647.7,226.3L-647.7,226.3z M-607.4,279.7l-25.7-45.6l19.3-3.6l28.6,49.3L-607.4,279.7L-607.4,279.7z"/>
		<path class="st0" d="M-526.5,279.7V178.8h43c6.6,0,12.2,1,16.8,2.9c4.6,1.9,8,4.8,10.4,8.6c2.3,3.8,3.5,8.4,3.5,13.8
			s-1.5,10.3-4.5,14.1c-3,3.8-7.2,6.5-12.5,7.9l-0.1-2.9c4.5,1,8.5,2.7,11.8,5.1s6,5.5,7.9,9.1c1.9,3.6,2.8,7.7,2.8,12.3
			c0,4.9-0.8,9.2-2.4,13s-3.9,6.9-7,9.4c-3.1,2.5-6.7,4.4-11,5.7c-4.2,1.3-9,2-14.3,2L-526.5,279.7L-526.5,279.7z M-508.2,220.1
			h22.9c2.8,0,5.2-0.5,7.3-1.6s3.7-2.5,4.8-4.3s1.7-3.9,1.7-6.3c0-3.8-1.3-6.8-3.9-9c-2.6-2.2-6.4-3.2-11.4-3.2h-21.5V220.1
			L-508.2,220.1z M-508.2,262.8h25.2c3.5,0,6.6-0.5,9-1.6s4.3-2.6,5.6-4.7c1.3-2.1,2-4.5,2-7.4c0-2.7-0.7-5-2.1-6.9s-3.4-3.4-6-4.4
			c-2.6-1-5.7-1.5-9.2-1.5h-24.5V262.8z"/>
		<path class="st0" d="M-429.1,279.7V178.8h18.7v83.6h46.6v17.3H-429.1z"/>
		<path class="st0" d="M-306.5,280.6c-8,0-15.1-1.7-21.3-5.1s-11.2-8.1-14.8-14.1c-3.6-6-5.4-12.8-5.4-20.4v-62.3h18.9v61
			c0,4.5,1,8.5,3.1,12c2.1,3.5,4.8,6.3,8.3,8.4c3.5,2.1,7.2,3.2,11.2,3.2c4.4,0,8.4-1.1,12-3.2c3.5-2.1,6.4-4.9,8.4-8.4
			c2.1-3.5,3.1-7.5,3.1-12v-61h18.2v62.3c0,7.6-1.8,14.4-5.4,20.4c-3.6,6-8.5,10.7-14.8,14.1C-291.3,278.8-298.5,280.6-306.5,280.6
			L-306.5,280.6z"/>
		<path class="st0" d="M-240.7,279.7V178.8h66v17h-47.6v66.9h48.2v17L-240.7,279.7L-240.7,279.7z M-232,236.4v-16.7h50v16.7H-232
			L-232,236.4z"/>
	</g>
	<g>
		<path class="st0" d="M-811.3,362.2V344h2.8l6.6,10.8l-1.3,0l6.7-10.8h2.6v18.2h-2.8v-7.5c0-1.6,0-3,0.1-4.2s0.2-2.5,0.4-3.7l0.4,1
			l-5.9,9.2h-1.7l-5.8-9.1l0.3-1.1c0.2,1.2,0.3,2.3,0.4,3.6c0.1,1.2,0.1,2.7,0.1,4.3v7.5L-811.3,362.2L-811.3,362.2z"/>
		<path class="st0" d="M-788.4,362.2V344h11.5v2.7h-8.7v12.8h8.7v2.7L-788.4,362.2L-788.4,362.2z M-787.1,354.2v-2.7h8.8v2.7H-787.1
			z"/>
		<path class="st0" d="M-771.9,362.2V344h7.1c1.3,0,2.5,0.2,3.5,0.7c1.1,0.4,2,1.1,2.7,1.9s1.3,1.8,1.7,2.9s0.6,2.3,0.6,3.7
			s-0.2,2.6-0.6,3.7s-1,2.1-1.7,2.9c-0.7,0.8-1.6,1.4-2.7,1.9s-2.2,0.7-3.5,0.7L-771.9,362.2L-771.9,362.2z M-769.1,359.7l-0.1-0.3
			h4.3c0.9,0,1.7-0.2,2.5-0.4s1.3-0.7,1.8-1.3s0.9-1.2,1.1-2s0.4-1.7,0.4-2.7s-0.1-1.9-0.4-2.7s-0.6-1.5-1.1-2s-1.1-1-1.8-1.3
			c-0.7-0.3-1.5-0.4-2.4-0.4h-4.3l0.2-0.2L-769.1,359.7L-769.1,359.7z"/>
		<path class="st0" d="M-753.1,362.2v-2.6h2.9v-13h-2.9V344h8.7v2.6h-2.9v13h2.9v2.6H-753.1z"/>
		<path class="st0" d="M-732.2,362.4c-1.3,0-2.5-0.2-3.6-0.7c-1.1-0.5-2-1.1-2.8-2c-0.8-0.8-1.4-1.8-1.9-3s-0.7-2.4-0.7-3.7
			s0.2-2.6,0.7-3.7s1.1-2.1,1.9-3c0.8-0.8,1.8-1.5,2.8-2c1.1-0.5,2.3-0.7,3.6-0.7c1.3,0,2.5,0.2,3.5,0.7c1.1,0.5,2,1.1,2.8,2
			c0.8,0.8,1.4,1.8,1.9,3c0.4,1.1,0.7,2.4,0.7,3.7s-0.2,2.6-0.7,3.7c-0.4,1.1-1.1,2.1-1.9,3s-1.8,1.5-2.8,2
			C-729.8,362.2-731,362.5-732.2,362.4L-732.2,362.4z M-732.2,359.7c0.9,0,1.7-0.2,2.4-0.5s1.4-0.8,1.9-1.4c0.5-0.6,1-1.3,1.3-2.1
			s0.5-1.7,0.5-2.6s-0.1-1.8-0.5-2.6c-0.3-0.8-0.7-1.5-1.3-2.1s-1.2-1.1-1.9-1.4s-1.5-0.5-2.4-0.5s-1.7,0.2-2.4,0.5
			c-0.7,0.3-1.4,0.8-1.9,1.4c-0.5,0.6-1,1.3-1.3,2.1c-0.3,0.8-0.4,1.7-0.4,2.7s0.2,1.8,0.4,2.7c0.3,0.8,0.7,1.5,1.3,2.1
			s1.2,1,1.9,1.4C-733.9,359.5-733.1,359.7-732.2,359.7z"/>
		<path class="st0" d="M-721.4,362.2l7-18.2h2.9l7,18.2h-3l-4.2-11c0-0.1-0.1-0.4-0.3-0.9c-0.2-0.5-0.3-1-0.5-1.6
			c-0.2-0.6-0.4-1.1-0.5-1.6s-0.3-0.8-0.3-0.9l0.6,0c-0.1,0.3-0.2,0.7-0.4,1.1c-0.2,0.5-0.3,0.9-0.5,1.4s-0.3,1-0.5,1.4
			c-0.2,0.4-0.3,0.8-0.4,1.1l-4.1,10.9L-721.4,362.2L-721.4,362.2z M-718.3,357.6l1-2.7h8.3l1.2,2.7H-718.3L-718.3,357.6z"/>
		<path class="st0" d="M-700.8,362.2V344h2.8l6.6,10.8l-1.3,0l6.7-10.8h2.6v18.2h-2.8v-7.5c0-1.6,0-3,0.1-4.2s0.2-2.5,0.4-3.7l0.4,1
			l-5.9,9.2h-1.7l-5.8-9.1l0.3-1.1c0.2,1.2,0.3,2.3,0.4,3.6c0.1,1.2,0.1,2.7,0.1,4.3v7.5L-700.8,362.2L-700.8,362.2z"/>
		<path class="st0" d="M-677.9,362.2V344h7.6c1.2,0,2.1,0.2,2.9,0.5c0.8,0.3,1.4,0.9,1.8,1.5c0.4,0.7,0.6,1.5,0.6,2.5
			s-0.3,1.8-0.8,2.5c-0.6,0.7-1.3,1.2-2.3,1.4V352c0.8,0.2,1.5,0.5,2.1,0.9c0.6,0.4,1.1,1,1.4,1.7c0.3,0.7,0.5,1.4,0.5,2.3
			s-0.1,1.6-0.4,2.3s-0.7,1.2-1.2,1.7s-1.2,0.8-1.9,1c-0.8,0.2-1.6,0.3-2.6,0.3H-677.9z M-675.1,351.5h4.6c0.5,0,1-0.1,1.4-0.3
			s0.7-0.5,1-0.9c0.2-0.4,0.3-0.8,0.3-1.2c0-0.8-0.3-1.4-0.8-1.8c-0.5-0.4-1.3-0.6-2.2-0.6h-4.3L-675.1,351.5L-675.1,351.5z
			 M-675.1,359.5h4.9c0.7,0,1.3-0.1,1.8-0.3c0.5-0.2,0.9-0.5,1.1-0.9c0.3-0.4,0.4-0.9,0.4-1.5c0-0.5-0.1-1-0.4-1.4
			c-0.3-0.4-0.7-0.7-1.2-0.9s-1.1-0.3-1.8-0.3h-4.8L-675.1,359.5L-675.1,359.5z"/>
		<path class="st0" d="M-660.4,362.2v-2.6h2.9v-13h-2.9V344h8.7v2.6h-2.9v13h2.9v2.6H-660.4z"/>
		<path class="st0" d="M-646.8,362.2V344h11.5v2.7h-8.7v12.8h8.7v2.7L-646.8,362.2L-646.8,362.2z M-645.5,354.2v-2.7h8.8v2.7H-645.5
			z"/>
		<path class="st0" d="M-630.3,362.2V344h2.5l11.1,14.9l-0.4,0.2c-0.1-0.4-0.1-0.9-0.2-1.4s-0.1-1.1-0.1-1.6s-0.1-1.2-0.1-1.8
			c0-0.7-0.1-1.3-0.1-2c0-0.7,0-1.5,0-2.2v-6h2.8v18.2h-2.6l-11-14.3l0.3-0.4c0.1,1.1,0.2,2,0.2,2.7s0.1,1.4,0.2,1.9
			c0,0.5,0.1,0.9,0.1,1.2s0,0.6,0,0.8c0,0.2,0,0.4,0,0.5v7.6L-630.3,362.2L-630.3,362.2z"/>
		<path class="st0" d="M-605.7,362.2v-15.5h-5.1V344h13.2v2.7h-5.2v15.5H-605.7L-605.7,362.2z"/>
		<path class="st0" d="M-593.7,362.2V344h11.5v2.7h-8.7v12.8h8.7v2.7L-593.7,362.2L-593.7,362.2z M-592.5,354.2v-2.7h8.8v2.7H-592.5
			z"/>
		<path class="st0" d="M-563.9,362.4c-1,0-1.9-0.1-2.7-0.4c-0.8-0.3-1.6-0.7-2.3-1.2c-0.7-0.5-1.3-1.2-1.8-2l1.9-2.2
			c0.8,1.2,1.7,2,2.4,2.5s1.7,0.7,2.8,0.7c0.7,0,1.3-0.1,1.8-0.3c0.5-0.2,1-0.5,1.3-0.9c0.3-0.4,0.5-0.8,0.5-1.2
			c0-0.3,0-0.6-0.2-0.9c-0.1-0.3-0.3-0.5-0.5-0.8s-0.5-0.4-0.8-0.6s-0.7-0.4-1.2-0.5s-1-0.3-1.6-0.4c-0.9-0.2-1.8-0.4-2.4-0.8
			s-1.3-0.7-1.7-1.2s-0.8-1-1-1.6c-0.2-0.6-0.3-1.3-0.3-2s0.2-1.4,0.5-2c0.3-0.6,0.8-1.2,1.3-1.6c0.6-0.5,1.2-0.8,2-1.1
			s1.6-0.4,2.5-0.4c0.9,0,1.8,0.1,2.6,0.4s1.5,0.6,2.1,1.1c0.6,0.5,1.1,1.1,1.5,1.8l-2,2c-0.3-0.6-0.7-1-1.2-1.4s-0.9-0.7-1.4-0.9
			s-1.1-0.3-1.7-0.3c-0.7,0-1.3,0.1-1.8,0.3s-0.9,0.5-1.2,0.9c-0.3,0.4-0.4,0.8-0.4,1.3c0,0.4,0.1,0.7,0.2,1s0.3,0.6,0.6,0.8
			c0.3,0.2,0.7,0.4,1.2,0.6s1.1,0.3,1.7,0.5c1,0.2,1.8,0.5,2.5,0.8s1.4,0.7,1.9,1.1s0.9,0.9,1.2,1.5c0.3,0.5,0.4,1.1,0.4,1.7
			c0,1.2-0.3,2.2-0.8,3c-0.5,0.8-1.3,1.5-2.3,2S-562.5,362.4-563.9,362.4L-563.9,362.4z"/>
		<path class="st0" d="M-545.2,362.4c-1.3,0-2.5-0.2-3.5-0.7c-1.1-0.5-2-1.1-2.8-2c-0.8-0.8-1.4-1.8-1.9-3s-0.7-2.4-0.7-3.7
			s0.2-2.6,0.7-3.7s1.1-2.1,1.9-3c0.8-0.8,1.8-1.5,2.8-2c1.1-0.5,2.3-0.7,3.5-0.7s2.5,0.2,3.5,0.7c1.1,0.5,2,1.1,2.8,2
			c0.8,0.8,1.4,1.8,1.9,3c0.4,1.1,0.7,2.4,0.7,3.7s-0.2,2.6-0.7,3.7c-0.4,1.1-1.1,2.1-1.9,3s-1.8,1.5-2.8,2
			S-543.9,362.5-545.2,362.4L-545.2,362.4z M-545.2,359.7c0.9,0,1.7-0.2,2.4-0.5s1.4-0.8,1.9-1.4c0.5-0.6,1-1.3,1.3-2.1
			s0.5-1.7,0.5-2.6s-0.2-1.8-0.5-2.6c-0.3-0.8-0.7-1.5-1.3-2.1c-0.5-0.6-1.2-1.1-1.9-1.4s-1.5-0.5-2.4-0.5s-1.7,0.2-2.4,0.5
			c-0.7,0.3-1.4,0.8-1.9,1.4c-0.5,0.6-1,1.3-1.3,2.1c-0.3,0.8-0.4,1.7-0.4,2.7s0.2,1.8,0.4,2.7c0.3,0.8,0.7,1.5,1.3,2.1
			s1.2,1,1.9,1.4C-546.9,359.5-546,359.7-545.2,359.7z"/>
		<path class="st0" d="M-526.3,362.4c-1,0-1.9-0.1-2.7-0.4c-0.8-0.3-1.6-0.7-2.3-1.2c-0.7-0.5-1.3-1.2-1.8-2l1.9-2.2
			c0.8,1.2,1.7,2,2.4,2.5s1.7,0.7,2.8,0.7c0.7,0,1.3-0.1,1.8-0.3c0.5-0.2,1-0.5,1.3-0.9c0.3-0.4,0.5-0.8,0.5-1.2
			c0-0.3,0-0.6-0.2-0.9c-0.1-0.3-0.3-0.5-0.5-0.8s-0.5-0.4-0.8-0.6s-0.7-0.4-1.2-0.5s-1-0.3-1.6-0.4c-0.9-0.2-1.8-0.4-2.4-0.8
			s-1.3-0.7-1.7-1.2s-0.8-1-1-1.6c-0.2-0.6-0.3-1.3-0.3-2s0.2-1.4,0.5-2c0.3-0.6,0.8-1.2,1.3-1.6c0.6-0.5,1.2-0.8,2-1.1
			s1.6-0.4,2.5-0.4c0.9,0,1.8,0.1,2.6,0.4s1.5,0.6,2.1,1.1c0.6,0.5,1.1,1.1,1.5,1.8l-2,2c-0.3-0.6-0.7-1-1.2-1.4s-0.9-0.7-1.4-0.9
			s-1.1-0.3-1.7-0.3c-0.7,0-1.3,0.1-1.8,0.3s-0.9,0.5-1.2,0.9c-0.3,0.4-0.4,0.8-0.4,1.3c0,0.4,0.1,0.7,0.2,1s0.3,0.6,0.6,0.8
			c0.3,0.2,0.7,0.4,1.2,0.6s1.1,0.3,1.7,0.5c1,0.2,1.8,0.5,2.5,0.8s1.4,0.7,1.9,1.1s0.9,0.9,1.2,1.5c0.3,0.5,0.4,1.1,0.4,1.7
			c0,1.2-0.3,2.2-0.8,3c-0.5,0.8-1.3,1.5-2.3,2S-525,362.4-526.3,362.4L-526.3,362.4z"/>
		<path class="st0" d="M-511.8,362.2v-15.5h-5.1V344h13.2v2.7h-5.2v15.5H-511.8z"/>
		<path class="st0" d="M-499.8,362.2V344h11.5v2.7h-8.7v12.8h8.7v2.7L-499.8,362.2L-499.8,362.2z M-498.5,354.2v-2.7h8.8v2.7H-498.5
			z"/>
		<path class="st0" d="M-483.3,362.2V344h2.5l11.1,14.9l-0.4,0.2c-0.1-0.4-0.1-0.9-0.2-1.4s-0.1-1.1-0.1-1.6c0-0.6-0.1-1.2-0.1-1.8
			c0-0.7,0-1.3-0.1-2c0-0.7,0-1.5,0-2.2v-6h2.8v18.2h-2.6l-11-14.3l0.3-0.4c0.1,1.1,0.2,2,0.2,2.7s0.1,1.4,0.2,1.9
			c0,0.5,0.1,0.9,0.1,1.2s0,0.6,0,0.8c0,0.2,0,0.4,0,0.5v7.6L-483.3,362.2L-483.3,362.2z"/>
		<path class="st0" d="M-462.9,362.2v-2.6h2.9v-13h-2.9V344h8.7v2.6h-2.9v13h2.9v2.6H-462.9z"/>
		<path class="st0" d="M-449.3,362.2V344h7.6c1.2,0,2.1,0.2,2.9,0.5s1.4,0.9,1.8,1.5s0.6,1.5,0.6,2.5s-0.3,1.8-0.8,2.5
			s-1.3,1.2-2.3,1.4V352c0.8,0.2,1.5,0.5,2.1,0.9c0.6,0.4,1.1,1,1.4,1.7c0.3,0.7,0.5,1.4,0.5,2.3s-0.1,1.6-0.4,2.3s-0.7,1.2-1.2,1.7
			s-1.2,0.8-1.9,1c-0.8,0.2-1.6,0.3-2.5,0.3H-449.3L-449.3,362.2z M-446.5,351.5h4.6c0.5,0,1-0.1,1.4-0.3c0.4-0.2,0.7-0.5,1-0.9
			c0.2-0.4,0.3-0.8,0.3-1.2c0-0.8-0.3-1.4-0.8-1.8c-0.5-0.4-1.3-0.6-2.2-0.6h-4.3L-446.5,351.5L-446.5,351.5z M-446.5,359.5h4.9
			c0.7,0,1.3-0.1,1.8-0.3c0.5-0.2,0.9-0.5,1.1-0.9c0.3-0.4,0.4-0.9,0.4-1.5c0-0.5-0.1-1-0.4-1.4s-0.7-0.7-1.2-0.9s-1.1-0.3-1.8-0.3
			h-4.8L-446.5,359.5L-446.5,359.5z"/>
		<path class="st0" d="M-431.8,362.2v-2.6h2.9v-13h-2.9V344h8.7v2.6h-2.9v13h2.9v2.6H-431.8z"/>
		<path class="st0" d="M-418.2,362.2V344h2.8v15.5h8.5v2.7H-418.2z"/>
		<path class="st0" d="M-402.8,362.2v-2.6h2.9v-13h-2.9V344h8.7v2.6h-2.9v13h2.9v2.6H-402.8z"/>
		<path class="st0" d="M-389.2,362.2V344h7.1c1.3,0,2.5,0.2,3.5,0.7s2,1.1,2.7,1.9s1.3,1.8,1.7,2.9c0.4,1.1,0.6,2.3,0.6,3.7
			s-0.2,2.6-0.6,3.7c-0.4,1.1-1,2.1-1.7,2.9c-0.7,0.8-1.6,1.4-2.7,1.9s-2.2,0.7-3.5,0.7L-389.2,362.2L-389.2,362.2z M-386.4,359.7
			l-0.1-0.3h4.3c0.9,0,1.7-0.2,2.5-0.4c0.7-0.3,1.3-0.7,1.8-1.3s0.9-1.2,1.1-2c0.3-0.8,0.4-1.7,0.4-2.7s-0.1-1.9-0.4-2.7
			s-0.6-1.5-1.1-2s-1.1-1-1.8-1.3c-0.7-0.3-1.5-0.4-2.4-0.4h-4.3l0.2-0.2L-386.4,359.7L-386.4,359.7z"/>
		<path class="st0" d="M-371.6,362.2l7-18.2h2.9l7,18.2h-3l-4.2-11c0-0.1-0.2-0.4-0.3-0.9c-0.2-0.5-0.3-1-0.5-1.6s-0.4-1.1-0.5-1.6
			c-0.2-0.5-0.3-0.8-0.3-0.9l0.6,0c-0.1,0.3-0.2,0.7-0.4,1.1s-0.3,0.9-0.5,1.4s-0.3,1-0.5,1.4c-0.2,0.4-0.3,0.8-0.4,1.1l-4.1,10.9
			L-371.6,362.2L-371.6,362.2z M-368.5,357.6l1-2.7h8.3l1.2,2.7H-368.5L-368.5,357.6z"/>
		<path class="st0" d="M-351,362.2V344h7.1c1.3,0,2.5,0.2,3.5,0.7s2,1.1,2.7,1.9s1.3,1.8,1.7,2.9c0.4,1.1,0.6,2.3,0.6,3.7
			s-0.2,2.6-0.6,3.7c-0.4,1.1-1,2.1-1.7,2.9c-0.7,0.8-1.6,1.4-2.7,1.9s-2.2,0.7-3.5,0.7L-351,362.2L-351,362.2z M-348.2,359.7
			l-0.1-0.3h4.3c0.9,0,1.7-0.2,2.5-0.4c0.7-0.3,1.3-0.7,1.8-1.3s0.9-1.2,1.1-2s0.4-1.7,0.4-2.7s-0.1-1.9-0.4-2.7s-0.6-1.5-1.1-2
			s-1.1-1-1.8-1.3c-0.7-0.3-1.5-0.4-2.4-0.4h-4.3l0.2-0.2L-348.2,359.7L-348.2,359.7z"/>
		<path class="st0" d="M-857.2,393.6c-1.3,0-2.4-0.2-3.5-0.7c-1.1-0.5-2-1.1-2.8-1.9s-1.4-1.8-1.8-3s-0.6-2.4-0.6-3.8
			c0-1.3,0.2-2.5,0.7-3.6c0.5-1.1,1.1-2.1,1.9-3c0.8-0.8,1.8-1.5,2.8-2c1.1-0.5,2.2-0.7,3.5-0.7c0.9,0,1.8,0.1,2.6,0.4
			c0.8,0.3,1.6,0.6,2.3,1.1c0.7,0.5,1.2,1,1.7,1.6l-1.9,2c-0.5-0.5-1-0.9-1.5-1.3s-1-0.6-1.6-0.8c-0.5-0.2-1.1-0.3-1.6-0.3
			c-0.8,0-1.6,0.2-2.4,0.5s-1.4,0.8-1.9,1.3c-0.5,0.6-1,1.2-1.3,2c-0.3,0.8-0.5,1.7-0.5,2.6c0,1,0.2,1.9,0.5,2.7
			c0.3,0.8,0.7,1.5,1.3,2.1c0.5,0.6,1.2,1,2,1.3c0.8,0.3,1.6,0.5,2.6,0.5c0.6,0,1.1-0.1,1.7-0.2c0.5-0.1,1.1-0.4,1.6-0.7
			s0.9-0.6,1.3-1l1.4,2.3c-0.4,0.5-0.9,0.9-1.6,1.3c-0.7,0.4-1.4,0.7-2.3,0.9C-855.5,393.5-856.4,393.6-857.2,393.6L-857.2,393.6z"
			/>
		<path class="st0" d="M-838.9,393.6c-1.3,0-2.5-0.2-3.6-0.7c-1.1-0.5-2-1.1-2.8-2c-0.8-0.8-1.4-1.8-1.9-3s-0.7-2.4-0.7-3.7
			s0.2-2.6,0.7-3.7c0.4-1.1,1.1-2.1,1.9-3c0.8-0.8,1.8-1.5,2.8-2c1.1-0.5,2.3-0.7,3.6-0.7c1.3,0,2.5,0.2,3.5,0.7
			c1.1,0.5,2,1.1,2.8,2c0.8,0.8,1.4,1.8,1.9,3c0.4,1.1,0.7,2.4,0.7,3.7s-0.2,2.6-0.7,3.7s-1.1,2.1-1.9,3c-0.8,0.8-1.8,1.5-2.8,2
			C-836.4,393.4-837.6,393.7-838.9,393.6L-838.9,393.6z M-838.9,390.9c0.9,0,1.7-0.2,2.4-0.5c0.7-0.3,1.4-0.8,1.9-1.4
			c0.5-0.6,1-1.3,1.3-2.1s0.5-1.7,0.5-2.6s-0.1-1.8-0.5-2.6c-0.3-0.8-0.7-1.5-1.3-2.1s-1.2-1.1-1.9-1.4s-1.5-0.5-2.4-0.5
			s-1.7,0.2-2.4,0.5s-1.4,0.8-1.9,1.4c-0.5,0.6-1,1.3-1.3,2.1c-0.3,0.8-0.4,1.7-0.4,2.7s0.2,1.8,0.4,2.7s0.7,1.5,1.3,2.1
			s1.2,1,1.9,1.4C-840.6,390.7-839.7,390.9-838.9,390.9L-838.9,390.9z"/>
		<path class="st0" d="M-825.7,393.4v-18.2h2.8l6.6,10.8l-1.3,0l6.7-10.8h2.6v18.2h-2.8v-7.5c0-1.6,0-3,0.1-4.2s0.2-2.5,0.4-3.7
			l0.4,1l-6,9.2h-1.7l-5.8-9.1l0.3-1.1c0.2,1.2,0.3,2.3,0.4,3.6c0.1,1.2,0.1,2.7,0.1,4.4v7.5H-825.7z"/>
		<path class="st0" d="M-795.6,393.5c-1.4,0-2.7-0.3-3.8-0.9s-2-1.5-2.6-2.5c-0.6-1.1-0.9-2.3-0.9-3.7v-11.2h2.8v11
			c0,0.9,0.2,1.7,0.6,2.4c0.4,0.7,1,1.3,1.7,1.7s1.4,0.6,2.2,0.6c0.9,0,1.7-0.2,2.3-0.6c0.7-0.4,1.3-1,1.7-1.7
			c0.4-0.7,0.6-1.5,0.6-2.4v-11h2.7v11.2c0,1.4-0.3,2.6-0.9,3.7s-1.5,1.9-2.6,2.5S-794.2,393.5-795.6,393.5z"/>
		<path class="st0" d="M-783,393.4v-18.2h2.5l11.1,14.9l-0.4,0.2c-0.1-0.4-0.1-0.9-0.2-1.4c0-0.5-0.1-1.1-0.1-1.6
			c0-0.6-0.1-1.2-0.1-1.8c0-0.7,0-1.3-0.1-2c0-0.7,0-1.5,0-2.2v-6h2.8v18.2h-2.6l-11-14.3l0.3-0.4c0.1,1.1,0.2,2,0.2,2.7
			c0.1,0.7,0.1,1.4,0.2,1.9c0,0.5,0.1,0.9,0.1,1.2c0,0.3,0,0.6,0,0.8c0,0.2,0,0.4,0,0.5v7.6L-783,393.4L-783,393.4z"/>
		<path class="st0" d="M-762.5,393.4v-2.6h2.9v-13h-2.9v-2.6h8.7v2.6h-2.9v13h2.9v2.6H-762.5z"/>
		<path class="st0" d="M-741.9,393.6c-1.3,0-2.4-0.2-3.5-0.7c-1.1-0.5-2-1.1-2.8-1.9c-0.8-0.8-1.4-1.8-1.8-3
			c-0.4-1.1-0.6-2.4-0.6-3.8c0-1.3,0.2-2.5,0.7-3.6c0.5-1.1,1.1-2.1,1.9-3c0.8-0.8,1.8-1.5,2.8-2c1.1-0.5,2.2-0.7,3.5-0.7
			c0.9,0,1.8,0.1,2.6,0.4c0.8,0.3,1.6,0.6,2.3,1.1s1.2,1,1.7,1.6l-1.9,2c-0.5-0.5-1-0.9-1.5-1.3s-1-0.6-1.6-0.8
			c-0.5-0.2-1.1-0.3-1.6-0.3c-0.9,0-1.6,0.2-2.4,0.5s-1.4,0.8-1.9,1.3c-0.5,0.6-1,1.2-1.3,2c-0.3,0.8-0.5,1.7-0.5,2.6
			c0,1,0.1,1.9,0.5,2.7c0.3,0.8,0.7,1.5,1.3,2.1c0.5,0.6,1.2,1,2,1.3c0.8,0.3,1.6,0.5,2.6,0.5c0.6,0,1.1-0.1,1.7-0.2
			c0.6-0.1,1.1-0.4,1.6-0.7c0.5-0.3,0.9-0.6,1.3-1l1.4,2.3c-0.4,0.5-0.9,0.9-1.6,1.3c-0.7,0.4-1.4,0.7-2.3,0.9
			S-741.1,393.6-741.9,393.6L-741.9,393.6z"/>
		<path class="st0" d="M-733.1,393.4l7-18.2h2.9l7,18.2h-3l-4.2-11c0-0.1-0.1-0.4-0.3-0.9c-0.2-0.5-0.3-1-0.5-1.6
			c-0.2-0.6-0.4-1.1-0.5-1.6c-0.2-0.5-0.3-0.8-0.3-0.9l0.6,0c-0.1,0.3-0.2,0.7-0.4,1.1c-0.2,0.5-0.3,0.9-0.5,1.4s-0.3,1-0.5,1.4
			c-0.2,0.4-0.3,0.8-0.4,1.1l-4.1,10.9L-733.1,393.4L-733.1,393.4z M-730,388.8l1-2.7h8.3l1.2,2.7H-730L-730,388.8z"/>
		<path class="st0" d="M-705.6,393.6c-1.3,0-2.4-0.2-3.5-0.7c-1.1-0.5-2-1.1-2.8-1.9c-0.8-0.8-1.4-1.8-1.8-3
			c-0.4-1.1-0.6-2.4-0.6-3.8c0-1.3,0.2-2.5,0.7-3.6c0.5-1.1,1.1-2.1,1.9-3c0.8-0.8,1.8-1.5,2.8-2c1.1-0.5,2.2-0.7,3.5-0.7
			c0.9,0,1.8,0.1,2.6,0.4c0.8,0.3,1.6,0.6,2.3,1.1c0.7,0.5,1.2,1,1.7,1.6l-1.9,2c-0.5-0.5-1-0.9-1.5-1.3c-0.5-0.3-1-0.6-1.6-0.8
			c-0.5-0.2-1.1-0.3-1.6-0.3c-0.8,0-1.6,0.2-2.4,0.5s-1.4,0.8-1.9,1.3c-0.5,0.6-1,1.2-1.3,2c-0.3,0.8-0.5,1.7-0.5,2.6
			c0,1,0.2,1.9,0.5,2.7c0.3,0.8,0.7,1.5,1.3,2.1c0.6,0.6,1.2,1,2,1.3c0.8,0.3,1.6,0.5,2.6,0.5c0.6,0,1.1-0.1,1.7-0.2
			c0.6-0.1,1.1-0.4,1.6-0.7s0.9-0.6,1.3-1l1.4,2.3c-0.4,0.5-0.9,0.9-1.6,1.3c-0.7,0.4-1.5,0.7-2.3,0.9S-704.8,393.6-705.6,393.6
			L-705.6,393.6z"/>
		<path class="st0" d="M-695.5,393.4v-2.6h2.9v-13h-2.9v-2.6h8.7v2.6h-2.9v13h2.9v2.6H-695.5z"/>
		<path class="st0" d="M-674.7,393.6c-1.3,0-2.5-0.2-3.5-0.7c-1.1-0.5-2-1.1-2.8-2c-0.8-0.8-1.4-1.8-1.9-3c-0.4-1.1-0.7-2.4-0.7-3.7
			s0.2-2.6,0.7-3.7c0.4-1.1,1.1-2.1,1.9-3c0.8-0.8,1.8-1.5,2.8-2c1.1-0.5,2.3-0.7,3.5-0.7s2.5,0.2,3.5,0.7c1.1,0.5,2,1.1,2.8,2
			c0.8,0.8,1.4,1.8,1.9,3c0.4,1.1,0.7,2.4,0.7,3.7s-0.2,2.6-0.7,3.7c-0.4,1.1-1.1,2.1-1.9,3c-0.8,0.8-1.8,1.5-2.8,2
			S-673.4,393.7-674.7,393.6L-674.7,393.6z M-674.7,390.9c0.9,0,1.7-0.2,2.4-0.5c0.7-0.3,1.4-0.8,1.9-1.4c0.5-0.6,1-1.3,1.3-2.1
			c0.3-0.8,0.5-1.7,0.5-2.6s-0.2-1.8-0.5-2.6c-0.3-0.8-0.7-1.5-1.3-2.1c-0.5-0.6-1.2-1.1-1.9-1.4s-1.5-0.5-2.4-0.5s-1.7,0.2-2.4,0.5
			s-1.4,0.8-1.9,1.4c-0.5,0.6-1,1.3-1.3,2.1c-0.3,0.8-0.4,1.7-0.4,2.7s0.1,1.8,0.4,2.7c0.3,0.8,0.7,1.5,1.3,2.1
			c0.6,0.6,1.2,1,1.9,1.4C-676.4,390.7-675.6,390.9-674.7,390.9L-674.7,390.9z M-676.5,373.7l-0.7-1.3l4.8-2.9l1.2,2.3L-676.5,373.7
			L-676.5,373.7z"/>
		<path class="st0" d="M-661.5,393.4v-18.2h2.5l11.1,14.9l-0.4,0.2c-0.1-0.4-0.1-0.9-0.2-1.4c0-0.5-0.1-1.1-0.1-1.6
			c0-0.6-0.1-1.2-0.1-1.8c0-0.7,0-1.3-0.1-2c0-0.7,0-1.5,0-2.2v-6h2.8v18.2h-2.6l-11-14.3l0.3-0.4c0.1,1.1,0.2,2,0.2,2.7
			c0.1,0.7,0.1,1.4,0.2,1.9c0,0.5,0.1,0.9,0.1,1.2c0,0.3,0,0.6,0,0.8c0,0.2,0,0.4,0,0.5v7.6L-661.5,393.4L-661.5,393.4z"/>
		<path class="st0" d="M-634.5,393.4l7-18.2h2.9l7,18.2h-3l-4.2-11c-0.1-0.1-0.2-0.4-0.3-0.9c-0.1-0.5-0.3-1-0.5-1.6
			c-0.2-0.6-0.4-1.1-0.5-1.6c-0.2-0.5-0.3-0.8-0.3-0.9l0.6,0c-0.1,0.3-0.2,0.7-0.4,1.1c-0.1,0.5-0.3,0.9-0.5,1.4s-0.3,1-0.5,1.4
			c-0.2,0.4-0.3,0.8-0.4,1.1l-4.1,10.9L-634.5,393.4L-634.5,393.4z M-631.4,388.8l1-2.7h8.3l1.2,2.7H-631.4L-631.4,388.8z"/>
		<path class="st0" d="M-613.9,393.4v-18.2h2.8l6.6,10.8l-1.3,0l6.7-10.8h2.6v18.2h-2.8v-7.5c0-1.6,0-3,0.1-4.2s0.2-2.5,0.4-3.7
			l0.4,1l-6,9.2h-1.7l-5.8-9.1l0.3-1.1c0.2,1.2,0.3,2.3,0.4,3.6c0.1,1.2,0.1,2.7,0.1,4.4v7.5H-613.9z"/>
		<path class="st0" d="M-591,393.4v-18.2h7.6c1.2,0,2.1,0.2,2.9,0.5c0.8,0.3,1.4,0.9,1.8,1.5s0.6,1.5,0.6,2.5s-0.3,1.8-0.8,2.5
			s-1.3,1.2-2.3,1.4v-0.5c0.8,0.2,1.5,0.5,2.1,0.9c0.6,0.4,1.1,1,1.4,1.7c0.3,0.7,0.5,1.4,0.5,2.3s-0.1,1.6-0.4,2.3
			s-0.7,1.2-1.2,1.7s-1.2,0.8-1.9,1c-0.8,0.2-1.6,0.3-2.5,0.3H-591L-591,393.4z M-588.2,382.7h4.6c0.5,0,1-0.1,1.4-0.3
			c0.4-0.2,0.7-0.5,1-0.9c0.2-0.4,0.3-0.8,0.3-1.2c0-0.8-0.3-1.4-0.8-1.8c-0.5-0.4-1.3-0.6-2.2-0.6h-4.3L-588.2,382.7L-588.2,382.7z
			 M-588.2,390.7h4.9c0.7,0,1.3-0.1,1.8-0.3c0.5-0.2,0.9-0.5,1.1-0.9c0.3-0.4,0.4-0.9,0.4-1.5c0-0.5-0.1-1-0.4-1.4s-0.7-0.7-1.2-0.9
			s-1.1-0.3-1.8-0.3h-4.8L-588.2,390.7L-588.2,390.7z"/>
		<path class="st0" d="M-573.4,393.4v-2.6h2.9v-13h-2.9v-2.6h8.7v2.6h-2.9v13h2.9v2.6H-573.4z"/>
		<path class="st0" d="M-559.8,393.4v-18.2h11.5v2.7h-8.7v12.8h8.7v2.7L-559.8,393.4L-559.8,393.4z M-558.6,385.4v-2.7h8.8v2.7
			H-558.6z"/>
		<path class="st0" d="M-543.4,393.4v-18.2h2.5l11.1,14.9l-0.4,0.2c-0.1-0.4-0.1-0.9-0.2-1.4s-0.1-1.1-0.1-1.6s-0.1-1.2-0.1-1.8
			c0-0.7,0-1.3-0.1-2s0-1.5,0-2.2v-6h2.8v18.2h-2.6l-11-14.3l0.3-0.4c0.1,1.1,0.2,2,0.2,2.7s0.1,1.4,0.2,1.9c0,0.5,0.1,0.9,0.1,1.2
			s0,0.6,0,0.8c0,0.2,0,0.4,0,0.5v7.6L-543.4,393.4L-543.4,393.4z"/>
		<path class="st0" d="M-518.8,393.4v-15.5h-5.1v-2.7h13.2v2.7h-5.2v15.5H-518.8z"/>
		<path class="st0" d="M-510,393.4l7-18.2h2.9l7,18.2h-3l-4.2-11c0-0.1-0.2-0.4-0.3-0.9c-0.2-0.5-0.3-1-0.5-1.6s-0.4-1.1-0.5-1.6
			c-0.2-0.5-0.3-0.8-0.3-0.9l0.6,0c-0.1,0.3-0.2,0.7-0.4,1.1s-0.3,0.9-0.5,1.4s-0.3,1-0.5,1.4c-0.2,0.4-0.3,0.8-0.4,1.1l-4.1,10.9
			L-510,393.4L-510,393.4z M-506.9,388.8l1-2.7h8.3l1.2,2.7H-506.9L-506.9,388.8z"/>
		<path class="st0" d="M-489.4,393.4v-18.2h2.8v15.5h8.5v2.7H-489.4z"/>
		<path class="st0" d="M-458.2,393.6c-1.3,0-2.4-0.2-3.5-0.7c-1.1-0.5-2-1.1-2.8-1.9s-1.4-1.8-1.8-3s-0.6-2.4-0.6-3.8
			c0-1.3,0.2-2.5,0.7-3.6s1.1-2.1,1.9-3c0.8-0.8,1.8-1.5,2.8-2c1.1-0.5,2.2-0.7,3.5-0.7c0.9,0,1.8,0.1,2.6,0.4s1.6,0.6,2.3,1.1
			c0.7,0.5,1.2,1,1.7,1.6l-1.9,2c-0.5-0.5-1-0.9-1.5-1.3s-1-0.6-1.6-0.8c-0.5-0.2-1.1-0.3-1.6-0.3c-0.8,0-1.6,0.2-2.4,0.5
			s-1.4,0.8-1.9,1.3c-0.5,0.6-1,1.2-1.3,2c-0.3,0.8-0.5,1.7-0.5,2.6c0,1,0.2,1.9,0.5,2.7c0.3,0.8,0.7,1.5,1.3,2.1
			c0.5,0.6,1.2,1,2,1.3s1.6,0.5,2.6,0.5c0.6,0,1.1-0.1,1.7-0.2s1.1-0.4,1.6-0.7s0.9-0.6,1.3-1l1.4,2.3c-0.4,0.5-0.9,0.9-1.6,1.3
			c-0.7,0.4-1.5,0.7-2.3,0.9S-457.3,393.6-458.2,393.6L-458.2,393.6z"/>
		<path class="st0" d="M-439.8,393.6c-1.3,0-2.5-0.2-3.5-0.7c-1.1-0.5-2-1.1-2.8-2c-0.8-0.8-1.4-1.8-1.9-3s-0.7-2.4-0.7-3.7
			s0.2-2.6,0.7-3.7c0.4-1.1,1.1-2.1,1.9-3c0.8-0.8,1.8-1.5,2.8-2c1.1-0.5,2.3-0.7,3.5-0.7s2.5,0.2,3.5,0.7c1.1,0.5,2,1.1,2.8,2
			c0.8,0.8,1.4,1.8,1.9,3c0.4,1.1,0.7,2.4,0.7,3.7s-0.2,2.6-0.7,3.7s-1.1,2.1-1.9,3c-0.8,0.8-1.8,1.5-2.8,2
			S-438.5,393.7-439.8,393.6L-439.8,393.6z M-439.8,390.9c0.9,0,1.7-0.2,2.4-0.5c0.7-0.3,1.4-0.8,1.9-1.4c0.5-0.6,1-1.3,1.3-2.1
			s0.5-1.7,0.5-2.6s-0.2-1.8-0.5-2.6c-0.3-0.8-0.7-1.5-1.3-2.1s-1.2-1.1-1.9-1.4s-1.5-0.5-2.4-0.5s-1.7,0.2-2.4,0.5
			s-1.4,0.8-1.9,1.4c-0.5,0.6-1,1.3-1.3,2.1c-0.3,0.8-0.4,1.7-0.4,2.7s0.2,1.8,0.4,2.7s0.7,1.5,1.3,2.1s1.2,1,1.9,1.4
			C-441.5,390.7-440.7,390.9-439.8,390.9L-439.8,390.9z"/>
		<path class="st0" d="M-426.6,393.4v-18.2h7.8c1,0,2,0.3,2.9,0.8s1.6,1.2,2.1,2.1c0.5,0.9,0.8,1.9,0.8,3c0,1-0.3,1.9-0.8,2.8
			c-0.5,0.8-1.2,1.5-2.1,2c-0.9,0.5-1.8,0.8-2.9,0.8h-4.9v6.8L-426.6,393.4L-426.6,393.4z M-423.8,383.8h5.2c0.5,0,1-0.1,1.3-0.4
			c0.4-0.2,0.7-0.6,0.9-1c0.2-0.4,0.3-0.9,0.3-1.5c0-0.6-0.1-1.1-0.4-1.6s-0.7-0.8-1.2-1.1c-0.5-0.3-1.1-0.4-1.7-0.4h-4.5
			L-423.8,383.8L-423.8,383.8z M-415.8,393.4l-4.6-8.2l2.9-0.7l5.2,8.9L-415.8,393.4L-415.8,393.4z"/>
		<path class="st0" d="M-408,393.4v-18.2h7.4c1,0,1.9,0.2,2.7,0.7s1.5,1.2,1.9,2c0.5,0.8,0.7,1.8,0.7,2.8s-0.2,2-0.7,2.8
			c-0.5,0.8-1.1,1.5-1.9,2c-0.8,0.5-1.7,0.8-2.7,0.8h-4.6v7L-408,393.4L-408,393.4z M-405.2,383.7h4.5c0.5,0,0.9-0.1,1.3-0.4
			s0.7-0.6,0.9-1.1c0.2-0.4,0.3-0.9,0.3-1.5s-0.1-1-0.3-1.5c-0.2-0.4-0.5-0.8-0.9-1c-0.4-0.3-0.8-0.4-1.3-0.4h-4.5V383.7
			L-405.2,383.7z"/>
		<path class="st0" d="M-383.4,393.6c-1.3,0-2.5-0.2-3.5-0.7c-1.1-0.5-2-1.1-2.8-2c-0.8-0.8-1.4-1.8-1.9-3s-0.7-2.4-0.7-3.7
			s0.2-2.6,0.7-3.7c0.4-1.1,1.1-2.1,1.9-3c0.8-0.8,1.8-1.5,2.8-2c1.1-0.5,2.3-0.7,3.5-0.7s2.5,0.2,3.5,0.7c1.1,0.5,2,1.1,2.8,2
			c0.8,0.8,1.4,1.8,1.9,3c0.4,1.1,0.7,2.4,0.7,3.7s-0.2,2.6-0.7,3.7s-1.1,2.1-1.9,3c-0.8,0.8-1.8,1.5-2.8,2
			S-382.2,393.7-383.4,393.6L-383.4,393.6z M-383.4,390.9c0.9,0,1.7-0.2,2.4-0.5c0.7-0.3,1.4-0.8,1.9-1.4c0.5-0.6,1-1.3,1.3-2.1
			s0.5-1.7,0.5-2.6s-0.2-1.8-0.5-2.6c-0.3-0.8-0.7-1.5-1.3-2.1s-1.2-1.1-1.9-1.4s-1.5-0.5-2.4-0.5s-1.7,0.2-2.4,0.5
			s-1.4,0.8-1.9,1.4c-0.5,0.6-1,1.3-1.3,2.1c-0.3,0.8-0.4,1.7-0.4,2.7s0.2,1.8,0.4,2.7s0.7,1.5,1.3,2.1s1.2,1,1.9,1.4
			C-385.1,390.7-384.3,390.9-383.4,390.9L-383.4,390.9z"/>
		<path class="st0" d="M-370.2,393.4v-18.2h7.8c1,0,2,0.3,2.9,0.8c0.9,0.5,1.6,1.2,2.1,2.1c0.5,0.9,0.8,1.9,0.8,3
			c0,1-0.3,1.9-0.8,2.8c-0.5,0.8-1.2,1.5-2.1,2c-0.9,0.5-1.8,0.8-2.9,0.8h-4.9v6.8L-370.2,393.4L-370.2,393.4z M-367.4,383.8h5.2
			c0.5,0,1-0.1,1.3-0.4c0.4-0.2,0.7-0.6,0.9-1c0.2-0.4,0.3-0.9,0.3-1.5c0-0.6-0.1-1.1-0.4-1.6s-0.7-0.8-1.2-1.1s-1.1-0.4-1.7-0.4
			h-4.5L-367.4,383.8L-367.4,383.8z M-359.4,393.4l-4.6-8.2l2.9-0.7l5.2,8.9L-359.4,393.4L-359.4,393.4z"/>
		<path class="st0" d="M-353.5,393.4l7-18.2h2.9l7,18.2h-3l-4.2-11c0-0.1-0.2-0.4-0.3-0.9c-0.2-0.5-0.3-1-0.5-1.6s-0.4-1.1-0.5-1.6
			s-0.3-0.8-0.3-0.9l0.6,0c-0.1,0.3-0.2,0.7-0.4,1.1s-0.3,0.9-0.5,1.4s-0.3,1-0.5,1.4c-0.2,0.4-0.3,0.8-0.4,1.1l-4.1,10.9
			L-353.5,393.4L-353.5,393.4z M-350.4,388.8l1-2.7h8.3l1.2,2.7H-350.4L-350.4,388.8z"/>
		<path class="st0" d="M-330.8,393.4v-15.5h-5.1v-2.7h13.2v2.7h-5.2v15.5H-330.8z"/>
		<path class="st0" d="M-319.5,393.4v-2.6h2.9v-13h-2.9v-2.6h8.7v2.6h-2.9v13h2.9v2.6H-319.5z"/>
		<path class="st0" d="M-300.5,393.4l-7.3-18.2h3.2l4.3,11c0.2,0.5,0.4,1,0.6,1.5c0.2,0.4,0.3,0.8,0.4,1.2s0.2,0.7,0.3,1
			c0.1,0.3,0.2,0.6,0.3,0.9l-0.7,0c0.1-0.4,0.2-0.8,0.4-1.3s0.3-0.9,0.5-1.5s0.4-1.1,0.7-1.8l4-11h3.3l-7.3,18.2L-300.5,393.4
			L-300.5,393.4z"/>
		<path class="st0" d="M-290.6,393.4l7-18.2h2.9l7,18.2h-3l-4.2-11c0-0.1-0.2-0.4-0.3-0.9c-0.2-0.5-0.3-1-0.5-1.6s-0.4-1.1-0.5-1.6
			s-0.3-0.8-0.3-0.9l0.6,0c-0.1,0.3-0.2,0.7-0.4,1.1s-0.3,0.9-0.5,1.4s-0.3,1-0.5,1.4c-0.2,0.4-0.3,0.8-0.4,1.1l-4.1,10.9
			L-290.6,393.4L-290.6,393.4z M-287.5,388.8l1-2.7h8.3l1.2,2.7H-287.5L-287.5,388.8z"/>
	</g>
	<g>
		
			<rect x="-950.1" y="364.9" transform="matrix(1 -9.773688e-03 9.773688e-03 1 -3.6154 -9.0263)" class="st1" width="49.5" height="1"/>
		
			<rect x="-239.1" y="364.9" transform="matrix(1 -9.773688e-03 9.773688e-03 1 -3.5814 -2.0772)" class="st1" width="49.5" height="1"/>
	</g>
</g>
<g>
	<path class="st0" d="M278.1,162.1c13.1,0,16.1-6.5,16.1-11.1c0-9.1-14.1-11.1-23.6-13.9c-9.6-2.8-34-6.8-34-32
		c0-22.4,17.9-31.5,36.7-31.5c18.9,0,30,6.3,39.8,13.4L301,104.5c-5.1-4.3-16.8-10.5-28.2-10.5c-11.5,0-13.8,6.8-13.8,9.6
		c0,6.3,3.8,10,22.6,14.6c20.9,5,34.9,13.8,34.9,32c0,19.1-14.3,32.5-38.8,32.5c-23.2,0-35.7-9-45.1-17.1l13.8-16.6
		C251.6,153.8,262.2,162.1,278.1,162.1z"/>
	<path class="st0" d="M445.5,128.1c0,30.2-24.4,54.8-54.6,54.8s-54.8-24.6-54.8-54.8c0-30.2,24.6-54.6,54.8-54.6
		S445.5,97.9,445.5,128.1z M424.5,128.1c0-18.4-15.1-33.5-33.5-33.5s-33.5,15.1-33.5,33.5s15.1,33.5,33.5,33.5
		S424.5,146.5,424.5,128.1z"/>
	<path class="st0" d="M480.2,181h-22.7l42.3-105.9h10.5h10.6L563.4,181h-22.9L532,160h-43.3L480.2,181z M510.3,105.7l-13.1,33h26.4
		L510.3,105.7z"/>
	<path class="st0" d="M605.7,181h-21.1V75.2h52.9c21.4,0,38.8,17.4,38.8,38.8c0,16.3-10,30.2-24.2,36l23.7,31h-26.7l-21.4-28.2
		h-22.1V181z M605.7,131.6h31.9c9.6,0,17.6-7.8,17.6-17.6c0-9.8-8-17.6-17.6-17.6h-31.9V131.6z"/>
	<path class="st0" d="M734.1,181V75.2h35.2c15.6,0,28.4,12.6,28.4,28.2c0,4.5-1.2,8.5-2.8,12.3c10.1,6.1,16.9,17.3,16.9,30
		c0,19.6-15.9,35.3-35.3,35.3H734.1z M769.3,96.4h-14.1v14.1h14.1c4,0,7.1-3.2,7.1-7.1C776.4,99.5,773.3,96.4,769.3,96.4z
		 M790.5,145.7c0-7.8-6.3-14.1-14.1-14.1h-21.2v28.2h21.2C784.2,159.8,790.5,153.5,790.5,145.7z"/>
	<path class="st0" d="M906.9,160V181h-49.3h-21.2V160V75.2h21.2V160H906.9z"/>
	<path class="st0" d="M1021.2,75.2v60.1c0,26.2-21.4,47.6-47.6,47.6c-26.4,0-47.6-21.4-47.6-47.6V75.2H947v60.1
		c0,14.6,11.9,26.4,26.6,26.4c14.6,0,26.6-11.8,26.6-26.4V75.2H1021.2z"/>
	<path class="st0" d="M1071,96.4v21.1h42.5v21.2H1071V160h56.6V181H1071h-21.1V160V96.4V75.2h21.1h56.6v21.2H1071z"/>
</g>
<g>
	<path class="st0" d="M176.7,161.5c-1.5-7.1-4.4-13.8-8.3-20.1c-7.7-12.5-19.8-19.8-34.5-23.5c-14.3-3.6-28.8-6.4-43.2-9.7
		c-10.9-2.5-21.8-5.1-32.8-7.7c0-18.9,0-37.7,0.1-56.6c0-3.4,0.1-6.8,0-10.2c0-1.5,0.4-2.1,2.2-1.6c19.2,4.6,38.6,8.7,57.3,14.8
		c15.6,5.1,28.4,13.8,38.8,25.7c8.3,9.5,14.3,19.9,17.5,31.7c2.2,8.2,3,16.6,3,25.1C176.8,140.1,176.8,150.8,176.7,161.5
		L176.7,161.5z"/>
	<path class="st1" d="M55,99.3c8.6,1.9,16.8,3.7,24.9,5.5c15.5,3.4,31,6.9,46.5,10.3c10.8,2.4,21.1,5.9,29.9,12.4
		c7.3,5.4,12,12.6,15.9,20.3c3.2,6.4,4.5,13.1,4.5,20.1c-0.1,17,0,33.9,0,50.9c0,0.2-0.1,0.4-0.1,0.4c-3.5-2.5-6.8-5.4-10.6-7.6
		c-9.1-5.3-19.3-7.6-30.1-8c-7.8-0.3-15.8-0.5-23.4-1.9c-14.5-2.8-27.1-9.3-37.2-19.3c-10.9-10.8-17.3-23.7-19.6-38.2
		c-0.5-3-0.6-6.1-0.7-9.2c-0.1-10.9,0-21.8,0-32.7C55,101.5,55,100.6,55,99.3L55,99.3z"/>
</g>
</svg>
