<?xml version="1.0" encoding="utf-8"?>
<!-- Generator: Adobe Illustrator 28.4.1, SVG Export Plug-In . SVG Version: 6.00 Build 0)  -->
<svg version="1.1" id="Layer_1" xmlns="http://www.w3.org/2000/svg" xmlns:xlink="http://www.w3.org/1999/xlink" x="0px" y="0px"
	 viewBox="0 0 1256.2 249.5" style="enable-background:new 0 0 1256.2 249.5;" xml:space="preserve">
<style type="text/css">
	.st0{fill:#CCE0F4;}
	.st1{fill:#0075BE;}
	
		.st2{fill:url(#SVGID_1_);stroke:url(#SVGID_00000036956258889905912490000001075355097449884311_);stroke-width:1.4451;stroke-miterlimit:10;}
	
		.st3{fill:url(#SVGID_00000054948594812763662430000001233490821267488702_);stroke:url(#SVGID_00000057132170601056758870000008854539397718616194_);stroke-width:1.4451;stroke-miterlimit:10;}
	.st4{fill:url(#SVGID_00000076571471787436071450000012206740368061247108_);}
	.st5{fill:url(#SVGID_00000085956900855299871270000010699243140007765690_);}
	.st6{fill:url(#SVGID_00000144301956524336986500000013948101937085404569_);}
	.st7{fill:url(#SVGID_00000075855333443643224530000016587760008723786647_);}
	.st8{fill:url(#SVGID_00000121982460665640836910000007057102961183767743_);}
	.st9{fill:url(#SVGID_00000135662927405642729690000014824024017069894052_);}
	.st10{fill:url(#SVGID_00000016764846917052435350000004526602740513797021_);}
	.st11{fill:url(#SVGID_00000008868634688452573360000006218112338115710651_);}
	.st12{fill:url(#SVGID_00000003073159506945796990000011099488077144804751_);}
	.st13{fill:url(#SVGID_00000080927724482307480000000013063874000064383150_);stroke:#112629;stroke-miterlimit:10;}
</style>
<g>
	<g>
		<linearGradient id="SVGID_1_" gradientUnits="userSpaceOnUse" x1="266.9257" y1="125.0705" x2="352.9415" y2="125.0705">
			<stop  offset="0" style="stop-color:#DCECF1"/>
			<stop  offset="0.5" style="stop-color:#BADCE5"/>
			<stop  offset="0.7293" style="stop-color:#B0D7E1"/>
			<stop  offset="1" style="stop-color:#A9D4DE"/>
		</linearGradient>
		<path style="fill:url(#SVGID_1_);" d="M268.6,101.1c0-6.9,1.8-13.1,5.4-18.4c3.6-5.3,8.6-9.5,15-12.6c6.4-3.1,13.6-4.6,21.8-4.6
			c8.3,0,15.4,1.5,21.4,4.3c6,2.9,10.6,7,13.9,12.3c3.3,5.3,4.9,11.5,4.9,18.8h-25c0-4-1.4-7.2-4.2-9.5c-2.8-2.3-6.6-3.5-11.3-3.5
			c-5.1,0-9.1,1.1-12.2,3.3c-3.1,2.2-4.6,5.2-4.6,9c0,3.5,0.9,6.2,2.8,8.1c1.9,1.9,4.8,3.2,8.9,4l17.2,3.6
			c10.2,2.1,17.9,5.7,22.8,10.8c5,5.1,7.5,12.2,7.5,21.3c0,7.4-1.8,13.8-5.4,19.3c-3.6,5.5-8.7,9.8-15.3,12.8
			c-6.6,3-14.3,4.5-23.1,4.5c-8.5,0-15.9-1.5-22.3-4.3c-6.4-2.9-11.3-7-14.8-12.3c-3.5-5.3-5.2-11.6-5.2-18.7h25
			c0,4.1,1.5,7.4,4.5,9.6c3,2.3,7.3,3.4,12.9,3.4c5.7,0,10.2-1.1,13.5-3.2c3.3-2.1,5-5,5-8.6c0-3.2-0.8-5.7-2.4-7.5
			c-1.6-1.8-4.3-3-8.2-3.7l-17.5-3.6c-10.2-2.1-18-6-23.2-11.8C271.2,118.1,268.6,110.5,268.6,101.1z"/>
	</g>
	<g>
		<g>
			
				<linearGradient id="SVGID_00000048500139403504853300000005661581872294818470_" gradientUnits="userSpaceOnUse" x1="371.9333" y1="125.0672" x2="484.5004" y2="125.0672">
				<stop  offset="0" style="stop-color:#DCECF1"/>
				<stop  offset="0.5" style="stop-color:#BADCE5"/>
				<stop  offset="0.7293" style="stop-color:#B0D7E1"/>
				<stop  offset="1" style="stop-color:#A9D4DE"/>
			</linearGradient>
			<path style="fill:url(#SVGID_00000048500139403504853300000005661581872294818470_);" d="M484.5,125c0,11.7-2.4,22-7.1,31
				c-4.8,9-11.4,15.9-19.9,21c-8.5,5-18.3,7.5-29.5,7.5c-11.1,0-20.8-2.5-29.3-7.5c-8.4-5-15-12-19.7-20.9
				c-4.7-8.9-7.1-19.2-7.1-30.9c0-11.7,2.4-22,7.1-31c4.8-9,11.4-15.9,19.8-21c8.4-5,18.2-7.5,29.3-7.5c11.2,0,21,2.5,29.4,7.5
				c8.4,5,15,12,19.8,20.9C482.1,103,484.5,113.3,484.5,125z M458,125c0-7.3-1.2-13.6-3.6-18.9c-2.4-5.2-5.8-9.2-10.2-12
				c-4.4-2.8-9.7-4.2-15.9-4.2s-11.5,1.4-16,4.2c-4.5,2.8-7.9,6.8-10.2,12c-2.4,5.2-3.6,11.5-3.6,18.9c0,7.4,1.2,13.7,3.6,18.9
				c2.4,5.3,5.8,9.3,10.2,12.1c4.4,2.8,9.8,4.2,16,4.2s11.5-1.4,15.9-4.3c4.4-2.8,7.8-6.9,10.2-12.2C456.8,138.5,458,132.2,458,125z
				"/>
		</g>
	</g>
	<g>
		<g>
			
				<linearGradient id="SVGID_00000026856604375341684260000016149050882506252436_" gradientUnits="userSpaceOnUse" x1="501.1601" y1="125.146" x2="607.5164" y2="125.146">
				<stop  offset="0" style="stop-color:#DCECF1"/>
				<stop  offset="0.5" style="stop-color:#BADCE5"/>
				<stop  offset="0.7293" style="stop-color:#B0D7E1"/>
				<stop  offset="1" style="stop-color:#A9D4DE"/>
			</linearGradient>
			<path style="fill:url(#SVGID_00000026856604375341684260000016149050882506252436_);" d="M527.4,182.6h-26.2l41-114.9h24.5
				l40.8,114.9h-26.7l-8.1-24.2h-37.1L527.4,182.6z M551.2,112.7l-8.2,24.5h22.7l-8.2-24.5c-0.6-2-1.2-4-1.9-6.1
				c-0.6-2.1-1-3.8-1.2-5.1c-0.2,1.3-0.6,3-1.2,5C552.5,108.6,551.9,110.7,551.2,112.7z"/>
		</g>
	</g>
	<g>
		<g>
			
				<linearGradient id="SVGID_00000129893731330194376130000000208152724912151999_" gradientUnits="userSpaceOnUse" x1="628.837" y1="125.1449" x2="718.1142" y2="125.1449">
				<stop  offset="0" style="stop-color:#DCECF1"/>
				<stop  offset="0.5" style="stop-color:#BADCE5"/>
				<stop  offset="0.7293" style="stop-color:#B0D7E1"/>
				<stop  offset="1" style="stop-color:#A9D4DE"/>
			</linearGradient>
			<path style="fill:url(#SVGID_00000129893731330194376130000000208152724912151999_);" d="M654,182.6h-25.2V67.7h44.4
				c14,0,24.8,3.2,32.4,9.7c7.6,6.5,11.4,15.7,11.4,27.6c0,7.5-1.6,13.8-4.7,19.1c-3.2,5.3-7.9,9.6-14.4,12.9l20.2,45.6h-27.5
				l-17.2-40.2H654V182.6z M654,90.1v30.3h19.1c5.5,0,9.8-1.3,12.8-4c3.1-2.7,4.6-6.5,4.6-11.3c0-4.9-1.5-8.6-4.4-11.1
				c-2.9-2.5-7.2-3.8-12.8-3.8H654z"/>
		</g>
	</g>
	<g>
		<g>
			
				<linearGradient id="SVGID_00000155139984499531789460000015239165283461476008_" gradientUnits="userSpaceOnUse" x1="744.2494" y1="125.1449" x2="830.5761" y2="125.1449">
				<stop  offset="0" style="stop-color:#DCECF1"/>
				<stop  offset="0.5" style="stop-color:#BADCE5"/>
				<stop  offset="0.7293" style="stop-color:#B0D7E1"/>
				<stop  offset="1" style="stop-color:#A9D4DE"/>
			</linearGradient>
			<path style="fill:url(#SVGID_00000155139984499531789460000015239165283461476008_);" d="M769.4,67.7v114.9h-25.2V67.7H769.4z
				 M790.7,135.9h-29.3v-21.1h28.1c4.6,0,8-1.1,10.4-3.3c2.4-2.2,3.6-5.3,3.6-9.5c0-4-1.2-7.1-3.6-9.2c-2.4-2.1-5.9-3.1-10.4-3.1
				H763v-22h29c11.6,0,20.7,2.8,27.2,8.5c6.6,5.7,9.9,13.5,9.9,23.3c0,6.7-1.7,12.4-5,17.1c-3.3,4.7-8.1,8-14.4,9.9v-2.2
				c6.7,1.5,11.9,4.5,15.4,9c3.6,4.6,5.4,10.4,5.4,17.5c0,6.7-1.5,12.5-4.4,17.2c-2.9,4.8-7.3,8.4-13,10.8c-5.7,2.4-12.8,3.6-21,3.6
				h-29v-22h27.6c4.7,0,8.2-1.1,10.6-3.2c2.4-2.1,3.6-5.3,3.6-9.5c0-3.9-1.2-6.9-3.6-8.9C798.7,136.9,795.2,135.9,790.7,135.9z"/>
		</g>
	</g>
	<g>
		<g>
			
				<linearGradient id="SVGID_00000003073982459626177890000018420646879325429126_" gradientUnits="userSpaceOnUse" x1="856.7047" y1="125.146" x2="927.1948" y2="125.146">
				<stop  offset="0" style="stop-color:#DCECF1"/>
				<stop  offset="0.5" style="stop-color:#BADCE5"/>
				<stop  offset="0.7293" style="stop-color:#B0D7E1"/>
				<stop  offset="1" style="stop-color:#A9D4DE"/>
			</linearGradient>
			<path style="fill:url(#SVGID_00000003073982459626177890000018420646879325429126_);" d="M881.9,67.7v114.9h-25.2V67.7H881.9z
				 M861.2,182.6v-23.3h66v23.3H861.2z"/>
		</g>
	</g>
	<g>
		<g>
			
				<linearGradient id="SVGID_00000087371462177288254100000018092626189063301788_" gradientUnits="userSpaceOnUse" x1="950.8375" y1="126.0764" x2="1045.5488" y2="126.0764">
				<stop  offset="0" style="stop-color:#DCECF1"/>
				<stop  offset="0.5" style="stop-color:#BADCE5"/>
				<stop  offset="0.7293" style="stop-color:#B0D7E1"/>
				<stop  offset="1" style="stop-color:#A9D4DE"/>
			</linearGradient>
			<path style="fill:url(#SVGID_00000087371462177288254100000018092626189063301788_);" d="M950.8,139.4V67.7H976v70
				c0,7.2,1.9,12.8,5.7,16.6c3.8,3.8,9.3,5.7,16.3,5.7c7.1,0,12.7-2,16.5-5.9c3.9-3.9,5.8-9.4,5.8-16.5v-70h25.2v71.7
				c0,9.1-1.9,17-5.8,23.8c-3.9,6.7-9.4,12-16.5,15.7c-7.1,3.7-15.5,5.6-25.2,5.6c-9.5,0-17.8-1.8-24.9-5.5
				c-7.1-3.7-12.6-8.9-16.5-15.7C952.8,156.5,950.8,148.5,950.8,139.4z"/>
		</g>
	</g>
	<g>
		<g>
			
				<linearGradient id="SVGID_00000104671530279020744090000015090526301790772151_" gradientUnits="userSpaceOnUse" x1="1076.4932" y1="125.1482" x2="1149.4668" y2="125.1482">
				<stop  offset="0" style="stop-color:#DCECF1"/>
				<stop  offset="0.5" style="stop-color:#BADCE5"/>
				<stop  offset="0.7293" style="stop-color:#B0D7E1"/>
				<stop  offset="1" style="stop-color:#A9D4DE"/>
			</linearGradient>
			<path style="fill:url(#SVGID_00000104671530279020744090000015090526301790772151_);" d="M1149.5,182.6h-73V67.7h73V91h-54.8
				l7-6.5v29h42.4v22h-42.4v30.3l-7-6.5h54.8V182.6z"/>
		</g>
	</g>
	
		<linearGradient id="SVGID_00000131346396475838334070000012548406139682611880_" gradientUnits="userSpaceOnUse" x1="132.9183" y1="91.6045" x2="249.1217" y2="91.6045">
		<stop  offset="0" style="stop-color:#DCECF1"/>
		<stop  offset="0.5" style="stop-color:#BADCE5"/>
		<stop  offset="0.7293" style="stop-color:#B0D7E1"/>
		<stop  offset="1" style="stop-color:#A9D4DE"/>
	</linearGradient>
	<path style="fill:url(#SVGID_00000131346396475838334070000012548406139682611880_);" d="M249,166c-1.5-8.2-4.3-15.8-8.1-23.1
		c-7.5-14.3-19.4-22.7-33.7-27c-14-4.2-28.2-7.4-42.2-11.2c-10.7-2.9-21.4-5.9-32-8.8c0-21.6,0-43.3,0.1-64.9c0-3.9,0-7.8,0-11.7
		c0-1.8,0.4-2.4,2.2-1.8c18.8,5.3,37.7,9.9,56,17c15.3,5.9,27.8,15.9,38,29.5c8.2,10.9,14,22.9,17.1,36.4c2.1,9.5,2.9,19.1,2.9,28.8
		C249.1,141.4,249,153.7,249,166z"/>
	
		<linearGradient id="SVGID_00000105387407819556148370000005865111089021095327_" gradientUnits="userSpaceOnUse" x1="129.9511" y1="163.4079" x2="248.8992" y2="163.4079">
		<stop  offset="0" style="stop-color:#DCECF1"/>
		<stop  offset="0.5" style="stop-color:#BADCE5"/>
		<stop  offset="0.7293" style="stop-color:#B0D7E1"/>
		<stop  offset="1" style="stop-color:#A9D4DE"/>
	</linearGradient>
	<path style="fill:url(#SVGID_00000105387407819556148370000005865111089021095327_);stroke:#112629;stroke-miterlimit:10;" d="
		M130,94.6c8.5,2.2,16.4,4.3,24.4,6.4c15.2,4,30.3,7.9,45.5,11.9c10.6,2.8,20.6,6.8,29.2,14.2c7.2,6.2,11.8,14.5,15.5,23.3
		c3.1,7.3,4.4,15,4.4,23.1c-0.1,19.5,0,38.9,0,58.4c0,0.2-0.1,0.5-0.1,0.5c-3.4-2.9-6.6-6.2-10.3-8.7c-8.9-6-18.9-8.7-29.4-9.2
		c-7.6-0.4-15.4-0.5-22.8-2.2c-14.2-3.2-26.5-10.7-36.4-22.2c-10.7-12.4-16.9-27.2-19.2-43.8c-0.5-3.5-0.6-7-0.6-10.5
		c-0.1-12.5,0-25,0-37.5C130,97.1,130,96,130,94.6z"/>
</g>
</svg>
