<?xml version="1.0" encoding="utf-8"?>
<!-- Generator: Adobe Illustrator 28.4.1, SVG Export Plug-In . SVG Version: 6.00 Build 0)  -->
<svg version="1.1" id="Layer_1" xmlns="http://www.w3.org/2000/svg" xmlns:xlink="http://www.w3.org/1999/xlink" x="0px" y="0px"
	 viewBox="0 0 1256.2 249.5" style="enable-background:new 0 0 1256.2 249.5;" xml:space="preserve">
<style type="text/css">
	.st0{fill:#CCE0F4;}
	.st1{fill:#0075BE;}
	
		.st2{fill:url(#SVGID_1_);stroke:url(#SVGID_00000016788641560902524340000001259897415695759025_);stroke-width:1.4451;stroke-miterlimit:10;}
	
		.st3{fill:url(#SVGID_00000036933895768352099520000002721890334787042176_);stroke:url(#SVGID_00000160160905174634509600000017247516862238490507_);stroke-width:1.4451;stroke-miterlimit:10;}
</style>
<g>
	<g id="Objeto_generativo_00000019672367861770806080000018206782058375468437_">
		<g>
			<path class="st0" d="M699.4,128l-46.6-4c11.9-2.2,22.1-10.1,14.9-23.3c-6.6-12-29.5-5.1-40.2-8.4L627,125
				c-11.9,0.2-23.8-0.2-35.7,0c0-21.5-2.5-43,0.5-64.5c29.3,2.8,87.9-9.7,106.7,19.4C707.7,94.3,706.4,113.2,699.4,128z"/>
			<path class="st0" d="M694.4,135c-4.2,5.2-8.3,8.7-12.9,13.4c6.7,9.8,12.8,20,18.9,30.3h-40.7c-7.6-10.6-15.2-36.4-32.3-28.8
				c-3.8,1.7,0.5,35.3-2.5,40.7l-0.5-12.9l-33.2,2c-0.6-14.5,0.2-29.2,0-43.7L694.4,135z"/>
			<path class="st0" d="M652.7,124.1l46.6,4c-1.9,4.1-2.6,4-5,6.9l-103.2,1c0-3.6,0-7.3,0-10.9c11.9-0.2,23.8,0.2,35.7,0
				C635.5,124.9,644.2,125.6,652.7,124.1z"/>
			<path class="st0" d="M700.3,178.7c2,3.4,6.9,7.6,7.4,11.9c-9.3-1.9-32.1,2.5-39.7,0c-1.4-0.5-7-9.9-8.4-11.9H700.3z"/>
			<path class="st0" d="M624.9,190.6h-34.2c0.6-3.6,0.6-7.3,0.5-10.9l33.2-2L624.9,190.6z"/>
		</g>
		<g>
			<g>
				<path class="st1" d="M1227.3,126.1H1130c-0.1-21.7-0.4-43.7,0.5-65.5h104.2l-1,32.7l-68,0.5c0.6,3.1-1.5,16.1,1.5,17.4
					c6.1,2.7,58.5-2.9,60,0.5C1227.4,116.5,1227.3,121.3,1227.3,126.1z"/>
				<path class="st1" d="M1227.3,134c-0.2,1.4-0.1,5.5-1.5,6h-59.5l-0.5,19.4l69,0.5v30.8h-104.2c-1-17.8-0.3-35.7-0.5-53.6
					L1227.3,134z"/>
				<path class="st1" d="M1227.3,126.1c0,2.5,0.3,5.6,0,7.9l-97.3,3c0-3.6,0-7.3,0-10.9H1227.3z"/>
			</g>
			<g>
				<g>
					<path class="st1" d="M900.8,134c0.2,8.4,1.5,17.3,1.5,25.8h61.5l1,30.8h-98.2c-1.2-18.2-0.2-36.5-0.5-54.6L900.8,134z"/>
					<path class="st1" d="M901.8,125.1l-35.7,1c-0.1-21.7-2.4-43.7-0.5-65.5l36.2,1.5C902,83.1,901.6,104.1,901.8,125.1z"/>
					<path class="st1" d="M901.8,125.1c0,3-1,7.4-1,8.9l-34.7,2c-0.1-3.3,0-6.6,0-9.9L901.8,125.1z"/>
				</g>
				<g>
					<path class="st1" d="M1018.9,135c3.8,36.1,46.5,36,48.6,0h35.7c-5.5,81.5-114.8,80.4-120.1,1L1018.9,135z"/>
					<path class="st1" d="M1103.3,126.1h-36.7c0.5-21.6-0.4-43.4,0-65l36.2-1.5C1103,81.6,1104.1,104,1103.3,126.1z"/>
					<path class="st1" d="M1018.9,127.1l-35.7-2c-0.8-21.3,0.6-42.7,0-64l35.2-0.5C1020.3,82.6,1017.6,105,1018.9,127.1z"/>
					<path class="st1" d="M1018.9,127.1c0.1,2.6-0.3,5.4,0,7.9l-35.7,1c-0.2-3.6,0.1-7.3,0-10.9L1018.9,127.1z"/>
					<path class="st1" d="M1103.3,126.1c-0.1,3,0.2,6,0,8.9h-35.7c0.2-3.3-1-7.1-1-8.9H1103.3z"/>
				</g>
			</g>
		</g>
		<g>
			<path class="st1" d="M821.4,126.1c-28.8-3.6-63.8,3.4-93.3-1c0.1-21.5-0.5-43,0.5-64.5c26.8,3.6,97.2-11.9,108.7,21.3
				c6.4,18.4-3.6,34.1-20.8,40.7L821.4,126.1z"/>
			<g>
				<path class="st1" d="M821.4,126.1c7.4,0.9,10,2.4,14.9,7.9l-107.2,2c0-3.3-1-7.3-1-10.9C757.6,129.4,792.6,122.5,821.4,126.1z"
					/>
				<g>
					<path class="st1" d="M836.3,134c22.1,25-5.2,59.2-35.2,56.6h-71.5c-3.6-2-0.4-47.7-0.5-54.6L836.3,134z"/>
					<path class="st1" d="M734.6,185.6c1.7-0.8,2.1,2.5,1,3C733.9,189.3,733.5,186.1,734.6,185.6z"/>
					<polygon class="st1" points="749.5,186.6 751,187.1 749.5,188.6 749,188.1 					"/>
					<polygon class="st1" points="772.3,186.6 773.8,187.1 772.3,188.6 771.8,188.1 					"/>
				</g>
			</g>
		</g>
		<g>
			<g>
				<g>
					<path class="st0" d="M247.8,126.1l-84.4,2c-16.8-12.1-18.1-35-6-51.1c19.2-25.5,75.3-21.6,97.3-1l-19.4,25.3
						c-6.3-12-61.4-19-51.1,0.5C188.6,109.9,232.7,110.7,247.8,126.1z"/>
					<path class="st0" d="M253.8,135c23.9,63-77.3,73-108.2,36.2l18.4-23.3c8.4,8.3,51.8,22.9,56.1,7.4
						c4.1-15.1-32.3-15.4-40.7-20.3C203.1,138.4,229.7,130.3,253.8,135z"/>
					<path class="st0" d="M247.8,126.1c3.9,4,3.9,3.4,6,8.9c-24.1-4.7-50.7,3.4-74.4,0c-6.8-1-10.5-3.1-15.9-6.9L247.8,126.1z"/>
				</g>
				<g>
					<path class="st0" d="M413.5,125.1l-35.7,1c-0.5-45.3-64.8-48.2-65.5,0c-11.6,1.2-26.1-2.5-36.7,2
						C272.2,36.8,413.6,35.6,413.5,125.1z"/>
					<path class="st0" d="M312.3,134c5.1,35.3,58,36,64.5,1h35.7c-10,78.5-126.5,77.7-137,2C286.8,132.5,300.5,134.5,312.3,134z"/>
					<path class="st0" d="M413.5,125.1c0,3.9-0.5,6.3-1,9.9h-35.7c0.2-1.1,1-8.1,1-8.9L413.5,125.1z"/>
					<path class="st0" d="M312.3,126.1c0,2.4-0.3,5.7,0,7.9c-11.8,0.5-25.5-1.5-36.7,3c-0.4-2.7,0.1-6.1,0-8.9
						C286.2,123.6,300.7,127.3,312.3,126.1z"/>
				</g>
			</g>
			<g>
				<path class="st0" d="M486,136c-0.5,1.8-1.8,3.5,0.5,5h25.8c2.1-0.9,0.8-4.5,0.5-6l34.7-1c7.9,18.8,17.2,37.1,24.8,56.1
					l-38.2,0.5c-1.1-0.5-7.7-18.9-9.4-21.8c-0.2-0.3-0.6-3.7-1.5-4c-11.9,1.9-45.8-4.3-53.1,4.5c-1.2,1.5-2.8,9.5-4.5,10.4
					c-1.5,0.9-30.6,0.3-35.2,3c5.7-16.7,14-32.4,20.8-48.6L486,136z"/>
				<path class="st0" d="M544.5,126.1l-34.7,2c-2.6-7.3-7.4-14.6-10.4-21.8c-3,6.5-6.9,13.2-9.4,19.8h-35.7
					c3.5-8.1,25.1-61.8,27.8-64c5.1-4.2,27.2,0.8,34.2-2.5C526.2,81.5,535.1,103.9,544.5,126.1z"/>
				<path class="st0" d="M490,126.1c-0.9,2.5-3.6,8.4-4,9.9l-34.7-2c1.1-2.5,1.9-5.4,3-7.9H490z"/>
				<path class="st0" d="M544.5,126.1c1.1,2.6,1.9,5.4,3,7.9l-34.7,1c-0.1-0.4-2.4-5.3-3-6.9L544.5,126.1z"/>
				<g>
					<path class="st0" d="M524.7,168.7c-10.6,0.4-41.7-3.8-50.1-1c-3.2,1.1-9.4,22.1-10.9,22.8c-3.9,1.9-29.4-1.4-35.7,0
						c-2.2-1.2,2.2-7,2.5-7.9c4.6-2.6,33.7-2.1,35.2-3c1.7-1,3.3-9,4.5-10.4c7.3-8.8,41.2-2.6,53.1-4.5
						C524.1,165,524.5,168.5,524.7,168.7z"/>
					<path class="st0" d="M437.9,185.6c0.5,0,0.7,0.9,0.5,1.5C437.8,190.8,436.6,185.7,437.9,185.6z"/>
				</g>
			</g>
		</g>
	</g>
	
		<linearGradient id="SVGID_1_" gradientUnits="userSpaceOnUse" x1="35.3693" y1="150.05" x2="115.3693" y2="150.05" gradientTransform="matrix(1 0 0 -1 0 252)">
		<stop  offset="5.618000e-03" style="stop-color:#89C9F7"/>
		<stop  offset="0.1348" style="stop-color:#1E5176"/>
		<stop  offset="0.4326" style="stop-color:#3FA9F5"/>
		<stop  offset="0.6124" style="stop-color:#408CC2"/>
		<stop  offset="0.7842" style="stop-color:#407499"/>
		<stop  offset="0.919" style="stop-color:#41657F"/>
		<stop  offset="1" style="stop-color:#416076"/>
	</linearGradient>
	
		<linearGradient id="SVGID_00000009560576636908071670000010837524920946875047_" gradientUnits="userSpaceOnUse" x1="34.6467" y1="150.3478" x2="116.0919" y2="150.3478" gradientTransform="matrix(1 0 0 -1 0 252)">
		<stop  offset="0" style="stop-color:#416076"/>
		<stop  offset="8.104095e-02" style="stop-color:#41657F"/>
		<stop  offset="0.2158" style="stop-color:#407499"/>
		<stop  offset="0.3876" style="stop-color:#408CC2"/>
		<stop  offset="0.5674" style="stop-color:#3FA9F5"/>
		<stop  offset="0.8652" style="stop-color:#1E5176"/>
		<stop  offset="0.9944" style="stop-color:#89C9F7"/>
	</linearGradient>
	
		<path style="fill:url(#SVGID_1_);stroke:url(#SVGID_00000009560576636908071670000010837524920946875047_);stroke-width:1.4451;stroke-miterlimit:10;" d="
		M115.4,153.2c-1-5.6-3-10.9-5.6-15.9c-5.2-9.9-13.3-15.6-23.2-18.6c-9.6-2.9-19.4-5.1-29.1-7.7c-7.4-2-14.7-4.1-22.1-6.1
		c0-14.9,0-29.8,0-44.7c0-2.7,0-5.4,0-8.1c0-1.2,0.3-1.6,1.5-1.3c12.9,3.7,26,6.8,38.6,11.7c10.5,4,19.1,10.9,26.1,20.3
		c5.6,7.5,9.7,15.8,11.8,25.1c1.5,6.5,2,13.2,2,19.9C115.4,136.3,115.4,144.7,115.4,153.2z"/>
	
		<linearGradient id="SVGID_00000104692233897487144810000010295297245489532081_" gradientUnits="userSpaceOnUse" x1="33.3693" y1="100.6023" x2="115.2693" y2="100.6023" gradientTransform="matrix(1 0 0 -1 0 252)">
		<stop  offset="5.618000e-03" style="stop-color:#89C9F7"/>
		<stop  offset="0.1348" style="stop-color:#1E5176"/>
		<stop  offset="0.4326" style="stop-color:#3FA9F5"/>
		<stop  offset="0.6124" style="stop-color:#408CC2"/>
		<stop  offset="0.7842" style="stop-color:#407499"/>
		<stop  offset="0.919" style="stop-color:#41657F"/>
		<stop  offset="1" style="stop-color:#416076"/>
	</linearGradient>
	
		<linearGradient id="SVGID_00000121259620154567783660000002970490256152692149_" gradientUnits="userSpaceOnUse" x1="32.6467" y1="100.276" x2="115.9918" y2="100.276" gradientTransform="matrix(1 0 0 -1 0 252)">
		<stop  offset="0" style="stop-color:#416076"/>
		<stop  offset="8.104095e-02" style="stop-color:#41657F"/>
		<stop  offset="0.2158" style="stop-color:#407499"/>
		<stop  offset="0.3876" style="stop-color:#408CC2"/>
		<stop  offset="0.5674" style="stop-color:#3FA9F5"/>
		<stop  offset="0.8652" style="stop-color:#1E5176"/>
		<stop  offset="0.9944" style="stop-color:#89C9F7"/>
	</linearGradient>
	
		<path style="fill:url(#SVGID_00000104692233897487144810000010295297245489532081_);stroke:url(#SVGID_00000121259620154567783660000002970490256152692149_);stroke-width:1.4451;stroke-miterlimit:10;" d="
		M33.4,104c5.8,1.5,11.3,3,16.8,4.4c10.4,2.7,20.9,5.4,31.3,8.2c7.3,1.9,14.2,4.7,20.1,9.8c4.9,4.3,8.1,9.9,10.7,16
		c2.1,5.1,3,10.3,3,15.9c-0.1,13.4,0,26.8,0,40.2c0,0.2,0,0.3,0,0.3c-2.3-2-4.6-4.3-7.1-6c-6.2-4.2-13-6-20.3-6.3
		c-5.3-0.3-10.6-0.4-15.7-1.5c-9.8-2.2-18.3-7.4-25-15.3c-7.3-8.5-11.7-18.7-13.2-30.2c-0.3-2.4-0.4-4.8-0.4-7.3
		c-0.1-8.6,0-17.2,0-25.8C33.4,105.7,33.4,105,33.4,104z"/>
</g>
</svg>
