<?xml version="1.0" encoding="UTF-8"?>
<svg id="Layer_1" data-name="Layer 1" xmlns="http://www.w3.org/2000/svg" viewBox="0 0 1080 589.8067">
  <defs>
    <style>
      .cls-1 {
        fill: #070707;
      }

      .cls-1, .cls-2, .cls-3 {
        stroke-width: 0px;
      }

      .cls-2 {
        fill: #206231;
      }

      .cls-3 {
        fill: #fff;
      }
    </style>
  </defs>
  <g>
    <path class="cls-3" d="M588.4639,375.2851c-.5447-.3922-.886-1.0385-1.4162-1.91l-16.8632-38.2001c-9.2668-20.7413-17.1247-42.5285-23.5737-57.0532h-10.8065l-19.5067,46.2904c-11.2712,26.0937-18.3593,42.1581-21.0464,46.8351-1.4089,2.353-.7553,3.653-2.0698,4.3937-1.3217.7408-9.5646,3.2608-9.5646,3.2608v8.1556h36.3119v-8.1266s-9.5064-2.5999-10.3489-2.8614c.1961-.6391.9005-1.8374,1.8083-3.9725l7.1389-16.8778,18.2649-.138c4.4155,0,11.2494.0436,20.7704.138l6.7613,16.2314c1.2564,3.0066,1.3363,3.987,1.3363,4.1613-.0073.0363,1.3145.1743,1.0894.3486-.2179.138-10.5014,2.9195-10.5014,2.9195v8.1774h43.5743v-8.1266c-.0145,0-10.9662-3.4569-11.3583-3.6457ZM534.1776,342.7424c-2.2586,0-5.7736-.0581-10.4869-.1816l14.4158-34.3293,14.4231,34.2712c-11.8958.167-17.604.2397-18.352.2397Z"/>
    <path class="cls-3" d="M698.7867,374.7114c-1.6558-.6246-3.3262-1.3581-4.263-2.1424-.2905-.2469-1.5541-1.3944-5.5049-6.5652l-22.0486-28.6791c3.9943-1.3145,7.1389-2.767,9.6445-4.4155,4.4518-2.9703,7.8797-6.6886,10.2545-11.0461,2.3893-4.372,3.5803-9.4338,3.5803-15.0549,0-8.4607-2.7016-16.3113-8.0395-21.3877-3.239-3.0139-7.6109-7.306-12.4986-7.306h-62.8341v9.7171s11.4746,2.963,13.6532,4.125c.0581.2687-.9368,1.6631-.8788,8.4244l-.305,34.4164c-.1816,29.3255-.5883,36.5879-.6536,37.5174-.138,2.0916,1.5178,2.6508,1.5106,2.658-.2396.1525-13.3265,3.9507-13.3265,3.9507v8.1266h46.6898l.0436-7.9233s-14.5901-3.8708-14.9677-4.1178c-.2033-.2469-.276-.7698-.3195-1.4089l-.5011-33.8064c3.0066.2978,6.0278.4866,8.9908.581l15.2728,20.9955c.4721.6899.995,1.3653,1.5106,1.9899.5374.6609,2.1351,3.1156,6.7395,9.9204,3.6602,5.4032,6.6015,6.5071,8.7512,13.7695h36.7258v-8.2501c-.0072.0073-14.5973-3.0575-17.2263-4.0887ZM664.9077,323.3518c-3.7256,3.4642-9.7316,5.2216-17.8509,5.2216-2.215,0-5.2434-.1816-9.0198-.5447l.3849-35.7672s10.8863-.0436,13.0796-.0436c6.4635,0,10.8863.9151,14.1181,3.9798,3.2463,3.0575,4.815,7.1898,4.815,12.6293,0,6.3183-1.8011,11.0679-5.5267,14.5247Z"/>
    <path class="cls-3" d="M795.95,296.5609c1.7139-3.9507,2.7669-5.1563,3.1955-5.4758.4938-.3559,11.2712-3.5731,11.2712-3.5731v-9.3903h-43.5743v9.3757s13.1304,3.5731,13.3846,3.8491c0,0,.7771.1089.6972.4503-.2542,1.162-1.6195,6.8339-8.5986,27.2775-3.791,11.1913-7.9886,23.3558-12.8907,36.261l-11.293-31.4824c-6.3618-17.4152-9.9713-28.0037-10.8282-31.4751-.0872-.3631-.1089-.6827-.1089-.9514,0-.1089-1.6268-.3268-1.6268-.3268.1743-.1307,9.4774-3.3915,9.4774-3.3915v-9.5863h-43.5743v9.5645s11.8667,3.7401,12.0773,3.8781c.6754.4648,1.5106,1.1838,2.0117,2.0843.7045,1.3145,3.6167,8.1557,12.9924,32.1288,8.7657,22.4698,16.4711,39.4855,22.6368,61.2727h11.3148l11.0461-30.7053c11.9247-32.8187,19.4557-53.117,22.3898-59.7839Z"/>
    <path class="cls-3" d="M892.5832,375.1907c-.5447-.3922-.8061-1.0313-1.3435-1.9027l-16.8269-38.1493c-9.2741-20.7486-17.0957-42.4922-23.5373-57.0169h-10.8137l-19.5067,46.2396c-11.2712,26.0937-18.3593,42.1363-21.0464,46.8133-1.4089,2.353-.2251,2.491-2.0552,4.1105-1.8301,1.6268-8.8238,3.6384-8.8238,3.6384v8.1266h36.3119v-8.0758l-10.6684-2.9994s.6754-.3922,1.5832-2.5346l7.059-15.4326h38.9263l6.7468,14.7935c1.2564,3.0066,1.3217,3.2608,1.3217,3.4424-.0073.029-2.6217-.1888-2.8468-.0145-.2179.1453-13.0796,2.6653-13.0796,2.6653v8.1702h50.8366v-8.0975c.0071-.0073-11.8523-3.5876-12.2372-3.7764ZM827.9553,342.4664l14.4158-34.3293,14.4885,34.3365-28.9043-.0073Z"/>
    <path class="cls-3" d="M999.4127,376.1493l7.1534-18.1414h-11.7215l-.7625-.4067c-5.2289,9.826-7.5238,12.4986-8.526,13.784-1.5614,2.0044-2.7089,1.467-3.3988,1.743-.5011.2033-2.3603-.5955-8.4171-.5955h-29.5579c-.1307-7.2624-.1888-16.5655-.1888-22.4843,0-32.7896.0509-50.6042.1452-53.7561.1234-3.9507.719-4.6407.7843-4.7496.1307-.1888,3.2027-.276,3.6747-.4285.9513-.305,21.5983-3.1954,21.5983-3.1954v-9.8042h-65.3614v9.6227s17.6113,3.7474,18.1124,4.0379c.0944.2614,1.0966,1.0095,1.0966,2.7307l.6318,28.9115-.1598,44.9614c0,5.2507-.276,6.3909-.2832,6.4272-.0509.1017-1.8665.4503-2.8105.8134-.5229.2033-16.5946,3.2899-16.5946,3.2899v8.1266h90.7652l.1453-.0581c1.4453-4.8585,2.687-7.8869,3.6747-10.8282Z"/>
    <path class="cls-3" d="M367.4117,378.9308s-17.3789-4.7787-18.1923-5.0909c-.8134-.3123-1.053-1.496-1.191-3.7401-.9223-15.6867-1.5033-76.9449-1.5033-76.9449,16.0353,34.7069,41.3011,93.9025,41.3011,93.9025h9.4483s33.8644-80.409,40.662-94.2584l-.7553,66.182c0,10.4506-.2179,14.2488-1.4743,14.7208-.6028.2251-17.4515,5.2289-17.4515,5.2289v8.1266h65.3614v-8.3082s-19.681-4.2848-20.676-4.8948c-.9877-.61-1.8809-1.4888-1.9028-2.2295-.2832-7.611.3922-99.9666.3922-100.5767s-.0363-1.4597.61-1.6195c.6464-.167,21.5765-4.5245,21.5765-4.5245v-8.5696h-46.1742l-41.7296,95.5874c-4.7423-10.131-41.795-95.5874-41.795-95.5874h-44.5982v8.6277s20.5162,4.0815,21.838,4.6334c.5084.2106.1598.5156.3849,1.0095.0508.1307-.3123,90.1188-.9369,98.6013-.1743,2.4765-1.5178,4.2848-2.5854,4.6407-1.0676.3559-18.6934,5.0909-18.6934,5.0909v8.1266h58.099v-8.1339h-.0145Z"/>
  </g>
  <g>
    <path class="cls-3" d="M240.8648,306.0165c-25.3457-5.7736-35.4404-3.1809-69.2831,3.9435-30.393,6.3982-54.3371,8.6422-77.8454-1.5687-12.9416-5.6211-21.4531-16.2968-24.6703-25.8541l10.7556,36.37c3.21,4.3792,11.598,12.1717,32.3902,16.9068,25.353,5.7809,35.4404,3.1809,69.2831-3.9435,30.393-6.3982,54.3371-8.6422,77.8527,1.5687,12.8544,5.5775,21.3296,16.1588,24.6049,25.658l-10.6902-36.1812-.4285-.5592c-3.5077-4.4373-12.041-11.7941-31.969-16.3403Z"/>
    <path class="cls-2" d="M93.729,308.3986c23.5083,10.2109,47.4596,7.9668,77.8454,1.5687,33.8427-7.1244,43.9374-9.7243,69.2831-3.9435,20.7922,4.7423,29.1875,12.5349,32.3902,16.9141,0,0-4.2921-11.7287-8.8746-25.4619-4.5826-13.7259-18.8894-33.4868-65.3178-33.4868s-58.1934,11.874-86.2189,11.6416c-36.7767-.3268-49.2099-12.3896-49.2099-12.3896,0,0,2.1569,8.3227,5.0619,18.1559,2.905,9.8333,11.569,21.148,25.0407,27.0015Z"/>
    <path class="cls-1" d="M259.3403,333.4538c-23.5083-10.2109-47.4596-7.9668-77.8527-1.5687-33.8427,7.1244-43.9301,9.7243-69.2831,3.9435-20.7922-4.7351-29.1802-12.5276-32.3902-16.9068,0,0,4.2921,11.736,8.8819,25.4619,4.5826,13.7332,18.8822,33.4868,65.3106,33.4868s58.1934-11.874,86.2189-11.6416c36.7912.3123,49.2171,12.3896,49.2171,12.3896,0,0-2.1569-8.3227-5.0619-18.1559-2.9049-9.8405-11.569-21.1553-25.0407-27.0088Z"/>
  </g>
</svg>