<?xml version="1.0" encoding="UTF-8"?>
<svg id="Layer_1" data-name="Layer 1" xmlns="http://www.w3.org/2000/svg" viewBox="0 0 1080 589.8067">
  <defs>
    <style>
      .cls-1 {
        fill: #6f6f6e;
      }

      .cls-1, .cls-2, .cls-3 {
        stroke-width: 0px;
      }

      .cls-2 {
        fill: #0069b3;
      }

      .cls-3 {
        fill: #fff;
      }
    </style>
  </defs>
  <path class="cls-2" d="M302.2091,372.6955c154.4965-2.7238,313.2098-2.6541,467.72-.3071,0,.0003,15.0877.3071,15.0877.3071l-15.0877.3069c-154.5135,2.3472-313.2215,2.4172-467.72-.3069h0Z"/>
  <g>
    <path class="cls-1" d="M331.8979,426.4194c0,2.5254-.3866,4.8848-1.1599,7.078-.7733,2.1934-1.8243,4.0985-3.1547,5.7149-1.3292,1.621-2.8936,2.8838-4.6904,3.7924-1.7979.9089-3.7027,1.359-5.7161,1.359h-7.1173v17.35h-8.3374v-53.1076h15.4646c2.0122,0,3.9148.4543,5.7118,1.3632,1.7968.9087,3.3587,2.1583,4.6881,3.7573,1.3292,1.5948,2.38,3.4779,3.1522,5.6494.7724,2.1715,1.159,4.5179,1.159,7.0433ZM323.5605,426.2884c0-1.3764-.2065-2.6609-.6183-3.858-.413-1.1928-.9776-2.237-1.6952-3.124-.7176-.8825-1.5599-1.5948-2.5276-2.1234-.9677-.5331-2.0086-.7997-3.1195-.7997h-5.5402v20.0722h5.5402c1.1109,0,2.1518-.2752,3.1195-.8302.9677-.5548,1.81-1.2977,2.5276-2.2283.7176-.9306,1.2823-2.001,1.6952-3.22.4118-1.2192.6183-2.5167.6183-3.8886Z"/>
    <path class="cls-1" d="M374.0161,461.7138h-9.1439l-3.9812-10.6346h-20.8706l-4.0338,10.6346h-9.1448l20.333-53.1731h6.5091l20.3322,53.1731ZM357.6097,442.5024l-7.1536-19.1414-7.2616,19.1414h14.4152Z"/>
    <path class="cls-1" d="M410.6463,461.7138h-9.1819l-3.0585-12.0983c-.3212-1.3281-.7241-2.5473-1.2071-3.6571-.4828-1.1053-1.0648-2.0578-1.7433-2.8574-.6805-.7953-1.4941-1.4156-2.4424-1.8612-.9481-.4414-2.0655-.6642-3.3533-.6642h-3.1119v21.1382h-8.2294v-53.1076l16.9668-.0655c1.8252,0,3.5258.3888,5.1009,1.1621,1.5751.7778,2.935,1.8525,4.081,3.2245,1.1447,1.372,2.0393,2.9929,2.6838,4.8541.6443,1.857.9666,3.8757.9666,6.0471,0,1.5509-.1966,3.0585-.5877,4.5177-.3922,1.4637-.9438,2.8137-1.657,4.0546-.7123,1.2409-1.5588,2.3375-2.5375,3.29-.9798.9525-2.0578,1.6735-3.2321,2.1628,1.3534.6203,2.4576,1.516,3.3128,2.6914.8555,1.1753,1.5326,2.5822,2.0317,4.2206.2481.7516.4807,1.5075.6937,2.259.2141.7514.4369,1.538.6684,2.3594.2315.8214.4819,1.7039.7494,2.6565.2664.9568.5604,2.0055.8814,3.1589.3944,1.4637.7615,2.7133,1.1022,3.7531.3407,1.0442.7078,1.9619,1.1033,2.7614ZM399.7799,424.558c0-1.2407-.1877-2.3681-.5646-3.3904-.3769-1.0181-.887-1.9048-1.5326-2.6565-.6454-.7514-1.408-1.3413-2.286-1.7608-.8794-.4237-1.8209-.6335-2.8247-.6335h-6.0241v16.5505h6.0241c1.0037,0,1.9453-.1877,2.8247-.5635.878-.3758,1.6406-.9219,2.286-1.6297.6456-.7078,1.1557-1.5599,1.5326-2.5605.3769-.9962.5646-2.1147.5646-3.3555Z"/>
    <path class="cls-1" d="M459.542,435.1273c0,3.1457-.4042,6.1254-1.2102,8.9392-.8074,2.814-1.9641,5.3962-3.4703,7.7424l4.3036,5.2517-4.9492,6.1127-4.4108-5.5141c-1.8283,1.5512-3.8372,2.7701-6.0239,3.6526-2.188.887-4.5014,1.3326-6.9395,1.3326-3.1195,0-6.0514-.7208-8.794-2.1628-2.7439-1.4373-5.147-3.4079-7.2082-5.9158-2.0623-2.4992-3.6844-5.4134-4.8685-8.7383-1.1829-3.3251-1.7749-6.8903-1.7749-10.7002s.5919-7.3885,1.7749-10.7353c1.1841-3.3423,2.8061-6.2697,4.8685-8.7734,2.0612-2.5035,4.4642-4.4741,7.2082-5.9158,2.7426-1.4375,5.6745-2.1583,8.794-2.1583s6.0601.7208,8.8215,2.1583c2.7614,1.4418,5.1731,3.4124,7.2355,5.9158,2.061,2.5037,3.6842,5.4311,4.8682,8.7734,1.1829,3.3468,1.7751,6.9252,1.7751,10.7353ZM451.4196,435.1273c0-2.4381-.3866-4.7407-1.1568-6.9122-.7711-2.1715-1.8109-4.0765-3.1196-5.7149-1.3096-1.6429-2.8509-2.9361-4.626-3.8886-1.7749-.9523-3.6667-1.4286-5.6756-1.4286s-3.8906.4763-5.6472,1.4286c-1.7574.9525-3.2998,2.2458-4.626,3.8886-1.327,1.6384-2.367,3.5435-3.1207,5.7149-.7525,2.1715-1.1295,4.4741-1.1295,6.9122s.3769,4.7405,1.1295,6.912c.7537,2.1715,1.7937,4.0678,3.1207,5.6843,1.3261,1.6167,2.8685,2.9012,4.626,3.8537,1.7565.9523,3.6385,1.4286,5.6472,1.4286,1.3632,0,2.6632-.2228,3.9007-.664,1.2364-.4414,2.4106-1.0662,3.5227-1.8614l-4.0338-4.8541,4.9481-6.1125,3.9803,5.0508c1.5062-2.8793,2.2598-6.0252,2.2598-9.4374Z"/>
    <path class="cls-1" d="M503.7026,408.5406v28.8454c0,3.5479-.4304,6.8467-1.291,9.9051-.8608,3.054-2.1071,5.7279-3.7379,8.0086-1.6319,2.2809-3.6233,4.0765-5.9706,5.383-2.3496,1.3064-5.03,1.9617-8.0414,1.9617-2.9417,0-5.5948-.6423-7.9618-1.9268-2.3659-1.2845-4.3835-3.0497-6.0514-5.2868-1.6668-2.237-2.9502-4.8716-3.8459-7.9081-.8968-3.0368-1.3447-6.3048-1.3447-9.8045v-29.1776h8.3376v29.2431c0,2.0404.2327,3.954.6991,5.7498.4664,1.7957,1.148,3.3555,2.0446,4.6881.8957,1.3281,2.0165,2.3811,3.3611,3.1544,1.3445.7778,2.8782,1.1624,4.5996,1.1624,1.8285,0,3.4157-.3628,4.7604-1.0968,1.3445-.7297,2.4554-1.7476,3.3347-3.054.8783-1.3064,1.5411-2.8489,1.9901-4.6226.4478-1.7695.6729-3.7182.6729-5.846v-29.3785h8.4446Z"/>
    <path class="cls-1" d="M539.0964,461.7138h-28.4009v-53.1076h28.4009v8.5068h-20.225v12.6969h19.9563v8.3059h-19.9563v14.6237h20.225v8.9743Z"/>
    <path class="cls-1" d="M590.8956,461.7138h-28.4009v-53.1076h28.4009v8.5068h-20.2252v12.6969h19.9563v8.3059h-19.9563v14.6237h20.2252v8.9743Z"/>
    <path class="cls-1" d="M641.3509,435.1273c0,3.8099-.6006,7.4012-1.7999,10.7657-1.2017,3.3685-2.8401,6.2917-4.9177,8.7732-2.0775,2.4818-4.4937,4.4436-7.2529,5.8854-2.7592,1.4375-5.6953,2.1583-8.8103,2.1583s-6.0624-.7208-8.839-2.1583c-2.7746-1.4418-5.2015-3.4036-7.2791-5.8854-2.0775-2.4815-3.7162-5.3915-4.9154-8.7383-1.2015-3.3468-1.8001-6.9471-1.8001-10.8006s.5986-7.467,1.8001-10.8357c1.1993-3.3643,2.8379-6.2917,4.9154-8.7734,2.0775-2.4815,4.5045-4.4302,7.2791-5.846,2.7766-1.4198,5.7237-2.1276,8.839-2.1276s6.0512.7078,8.8103,2.1276c2.7592,1.4158,5.1754,3.3775,7.2529,5.8812,2.0775,2.5035,3.7159,5.4264,4.9177,8.7732,1.1993,3.3468,1.7999,6.9471,1.7999,10.8008ZM633.0124,435.1273c0-2.4381-.3778-4.732-1.1317-6.8816-.7557-2.1453-1.787-4.0284-3.0999-5.6494-1.3107-1.6167-2.8466-2.9012-4.6074-3.8537-1.7585-.9523-3.6265-1.4286-5.6033-1.4286-2.0122,0-3.8996.4763-5.6581,1.4286-1.761.9525-3.2967,2.237-4.6074,3.8537-1.3129,1.621-2.3442,3.5041-3.1001,5.6494-.7537,2.1496-1.1315,4.4434-1.1315,6.8816,0,2.3943.3778,4.6749,1.1315,6.8464.7559,2.1715,1.7872,4.0633,3.1001,5.68,1.3107,1.621,2.8464,2.9055,4.6074,3.858,1.7585.9525,3.6459,1.4286,5.6581,1.4286,1.9769,0,3.8448-.476,5.6033-1.4286,1.7608-.9525,3.2967-2.237,4.6074-3.858,1.3129-1.6167,2.3442-3.5086,3.0999-5.68.7539-2.1715,1.1317-4.4521,1.1317-6.8464ZM627.1663,390.9938l-7.7357,12.828h-5.6953l4.8347-12.828h8.5962Z"/>
    <path class="cls-1" d="M676.96,461.7138h-29.1011v-53.1076h8.4983v43.1371h20.6028v9.9704Z"/>
    <path class="cls-1" d="M690.1374,461.7138h-8.3363v-53.1076h8.3363v53.1076Z"/>
    <path class="cls-1" d="M737.5258,452.1408c-2.1518,3.2377-4.7602,5.8067-7.8274,7.7117-3.065,1.9048-6.4467,2.8574-10.1387,2.8574-3.1918,0-6.1867-.7208-8.983-2.1583-2.7963-1.4418-5.2322-3.4036-7.301-5.8854-2.0688-2.4815-3.7007-5.3915-4.8935-8.7383-1.195-3.3468-1.7914-6.9471-1.7914-10.8006s.5964-7.454,1.7914-10.8008c1.1928-3.3468,2.8247-6.2697,4.8935-8.7732,2.0688-2.5037,4.5047-4.4653,7.301-5.8812,2.7963-1.4198,5.7912-2.1276,8.983-2.1276,3.692,0,7.0737.9525,10.1387,2.8574,3.0672,1.9051,5.621,4.3868,7.6659,7.4451l-5.7566,7.3097c-1.3259-2.3462-3.0388-4.2425-5.136-5.6843-2.0972-1.4375-4.4018-2.1583-6.912-2.1583-2.01,0-3.8996.4763-5.6756,1.4286-1.774.9525-3.3271,2.237-4.6532,3.8537-1.3261,1.621-2.3746,3.5041-3.1459,5.6494-.7711,2.1496-1.1557,4.4434-1.1557,6.8816,0,2.3943.3845,4.6617,1.1557,6.8115.7713,2.1496,1.8198,4.0327,3.1459,5.6494,1.3261,1.6165,2.8793,2.9055,4.6532,3.8535,1.776.957,3.6656,1.433,5.6756,1.433,2.652,0,5.0027-.7427,7.0453-2.2281,2.0449-1.4856,3.7488-3.443,5.1121-5.8812l5.8087,7.3753Z"/>
    <path class="cls-1" d="M784.1082,435.1273c0,3.8099-.6009,7.4012-1.8001,10.7657-1.2015,3.3685-2.8379,6.2917-4.9154,8.7732-2.0775,2.4818-4.4958,4.4436-7.2549,5.8854-2.7571,1.4375-5.6932,2.1583-8.8105,2.1583-3.1153,0-6.0624-.7208-8.8367-2.1583-2.7766-1.4418-5.2038-3.4036-7.2813-5.8854-2.0775-2.4815-3.7159-5.3915-4.9154-8.7383-1.2015-3.3468-1.7999-6.9471-1.7999-10.8006s.5984-7.467,1.7999-10.8357c1.1995-3.3643,2.8379-6.2917,4.9154-8.7734,2.0775-2.4815,4.5047-4.4302,7.2813-5.846,2.7744-1.4198,5.7214-2.1276,8.8367-2.1276,3.1173,0,6.0534.7078,8.8105,2.1276,2.7592,1.4158,5.1774,3.3775,7.2549,5.8812,2.0775,2.5035,3.7139,5.4264,4.9154,8.7732,1.1993,3.3468,1.8001,6.9471,1.8001,10.8008ZM775.7694,435.1273c0-2.4381-.3756-4.732-1.1315-6.8816-.7537-2.1453-1.7872-4.0284-3.0978-5.6494-1.3107-1.6167-2.8486-2.9012-4.6074-3.8537-1.7607-.9523-3.6285-1.4286-5.6056-1.4286-2.012,0-3.8974.4763-5.6581,1.4286-1.7608.9525-3.2965,2.237-4.6074,3.8537-1.3107,1.621-2.344,3.5041-3.0999,5.6494-.7537,2.1496-1.1295,4.4434-1.1295,6.8816,0,2.3943.3758,4.6749,1.1295,6.8464.7559,2.1715,1.7892,4.0633,3.0999,5.68,1.3109,1.621,2.8466,2.9055,4.6074,3.858,1.7607.9525,3.6461,1.4286,5.6581,1.4286,1.9771,0,3.8448-.476,5.6056-1.4286,1.7588-.9525,3.2967-2.237,4.6074-3.858,1.3107-1.6167,2.3442-3.5086,3.0978-5.68.7559-2.1715,1.1315-4.4521,1.1315-6.8464Z"/>
  </g>
  <g>
    <path class="cls-3" d="M78.8742,271.4339c0-43.3532,23.2103-67.563,51.0039-67.563s51.1502,24.2098,51.1502,67.563-23.0618,67.1863-51.1502,67.1863-51.0039-23.8351-51.0039-67.1863ZM152.0529,271.8097c0-29.6539-9.1656-42.6018-22.1748-42.6018s-22.1759,12.9479-22.1759,42.6018c0,29.4637,9.1656,42.224,22.1759,42.224s22.1748-12.7603,22.1748-42.224Z"/>
    <path class="cls-3" d="M182.0528,214.0053v-8.4437h27.645l22.0274,90.0821h.296l22.3233-90.0821h23.8013v8.4437l-32.8193,122.9253h-30.4545l-32.8193-122.9253Z"/>
    <path class="cls-3" d="M289.0733,205.5616h71.2573v25.1471h-43.0203v27.9629h30.306v23.6461h-30.306v30.2151h44.4981v24.3977h-72.7351v-131.369Z"/>
    <path class="cls-3" d="M369.7811,330.7371v-24.2098h9.7564c2.6609,3.1918,6.5046,6.1934,13.3054,6.1934,7.0965,0,10.9404-4.6926,10.9404-13.5119v-93.6473h28.3846v93.6473c0,25.7106-11.8274,39.4113-37.1077,39.4113-11.3829,0-19.3664-3.1905-25.2791-7.8831Z"/>
    <path class="cls-3" d="M448.1231,205.5616h71.2573v25.1471h-43.0201v27.9629h30.3057v23.6461h-30.3057v30.2151h44.4981v24.3977h-72.7353v-131.369Z"/>
    <path class="cls-3" d="M573.1827,288.6988h-10.7919v48.2317h-28.3846v-131.369h38.8816c27.4973,0,41.3938,13.8877,41.3938,40.1619,0,16.5133-5.7653,28.1508-15.3753,35.0934l20.5505,47.668v8.4457h-26.3155l-19.9586-48.2317ZM562.0958,265.2407h9.0182c10.497,0,15.0803-6.0055,15.0803-17.6408s-4.5832-17.6428-15.0803-17.6428h-9.0182v35.2836Z"/>
    <path class="cls-3" d="M625.8011,328.4849l32.9656-122.9233h30.7505l33.4112,122.9233v8.4457h-27.4974l-7.2442-29.6516h-32.9678l-6.9493,29.6516h-22.4685v-8.4457ZM660.984,282.8812h21.4375l-10.6456-44.2905h-.2949l-10.497,44.2905Z"/>
    <path class="cls-1" d="M728.8466,328.2227v-24.6422h10.5514c4.1618,5.5575,11.5916,10.3745,22.4426,10.3745,10.7002,0,16.1988-4.6313,16.1988-12.7842,0-11.1174-8.3233-12.2272-19.915-16.1203-19.0235-6.1125-29.1293-15.563-29.1293-40.0196,0-26.495,16.1988-39.4648,39.0868-39.4648,13.0793,0,23.4823,3.3359,30.9122,8.7079v23.9016h-10.2546c-4.7559-4.4477-11.2943-7.9672-19.6176-7.9672-10.106,0-15.159,3.7052-15.159,12.0437,0,8.5222,5.7957,10.9317,17.0923,14.2655,24.5221,7.0408,33.2913,16.8607,33.2913,41.1339,0,25.9399-14.2678,40.9471-41.4661,40.9471-15.1588,0-25.5641-4.0777-34.0337-10.3758Z"/>
    <path class="cls-1" d="M879.2453,287.4602v-80.2273h23.6309v80.413c0,32.7953-12.9307,50.7647-42.3573,50.7647s-44.7341-18.1551-44.7341-50.7647v-80.413h28.5353v80.2273c0,19.4539,6.2413,25.1993,17.9815,25.1993,11.2965,0,16.9437-5.7454,16.9437-25.1993Z"/>
    <path class="cls-1" d="M958.6053,289.3127h-10.8487v47.6179h-28.5353v-129.6977h39.087c27.6439,0,41.6143,13.7105,41.6143,39.6505,0,16.3059-5.7957,27.7927-15.4581,34.6478l20.6597,47.0607v8.3388h-26.4556l-20.0633-47.6179ZM947.4595,266.1538h9.066c10.5516,0,15.159-5.929,15.159-17.418s-4.6074-17.4155-15.159-17.4155h-9.066v34.8335Z"/>
  </g>
</svg>