<?xml version="1.0" encoding="UTF-8"?>
<svg id="Layer_1" data-name="Layer 1" xmlns="http://www.w3.org/2000/svg" viewBox="0 0 1080 589.8067">
  <defs>
    <style>
      .cls-1 {
        fill-rule: evenodd;
      }

      .cls-1, .cls-2 {
        fill: #fff;
        stroke-width: 0px;
      }
    </style>
  </defs>
  <path id="Path_20" data-name="Path 20" class="cls-1" d="M533.7696,306.3328v-19.9656h88.8341v-24.3955h-88.8341v-20.261h94.669v-27.9215h-132.2646v120.6037h132.2644v-28.0602h-94.6689M764.6944,313.8501l11.0432,20.5831h41.739l-65.517-120.6439h-48.2003l-66.1211,120.6037h41.7345l11.2089-20.5831,74.1128.0402ZM727.5553,244.4939l23.3261,43.4035h-46.6433l23.3172-43.4035ZM862.2762,242.7936l.4475,1.0739,73.0343,90.0691h60.9172v-120.1473h-35.4432v90.9908l-.613-1.5348-72.408-89.456h-61.3779v120.1473h35.4432v-91.143Z"/>
  <path id="Path_21" data-name="Path 21" class="cls-2" d="M437.36,334.3975l-33.2194-34.2709-33.2239,34.2709h-50.4778l58.8409-59.9148-58.8409-60.6934h48.9475l34.7542,35.3851,34.7542-35.3851h48.9475l-58.8454,60.6934,58.8454,59.9148h-50.4823"/>
  <path id="Path_22" data-name="Path 22" class="cls-2" d="M318.8996,334.3975l-33.2194-34.2709-33.2239,34.2709h-50.4779l58.8364-59.9148-58.8364-60.6934h48.9475l34.7542,35.3851,34.7497-35.3851h48.9475l-58.8409,60.6934,58.8409,59.9148h-50.4778"/>
  <path id="Path_23" data-name="Path 23" class="cls-2" d="M203.9115,305.241c-.2033,16.146-13.3492,29.1284-29.4965,29.1296h-99.2331c-9.9043-.0131-19.1439-4.9856-24.6103-13.2448-.9475-1.4391-1.7695-2.9571-2.4565-4.5372-1.5515-3.5844-2.3729-7.4421-2.4163-11.3476v-62.9128c.5354-15.9072,13.5803-28.5287,29.4965-28.5389h99.2331c15.9185-.0012,28.9663,12.6288,29.4831,28.5389v62.9128M159.0269,242.3462h-68.3897c-3.0027-.2515-6.0084.4482-8.5912,2.0001-1.6231,1.2993-2.5331,3.292-2.4521,5.3695v48.7731c-.2222,2.0684.6494,4.1032,2.3,5.3695,2.7647,1.1492,5.7635,1.6231,8.7478,1.3826h68.3181c2.9844.2405,5.9831-.2335,8.7478-1.3826,1.6508-1.2664,2.5238-3.3005,2.3044-5.3695v-48.7731c.0789-2.0771-.8307-4.0689-2.4521-5.3695-2.5643-1.5448-5.5494-2.2444-8.5331-2.0001Z"/>
  <path id="Path_24" data-name="Path 24" class="cls-2" d="M64.4832,357.7504v6.779h22.4446v1.8972h-22.4446v7.4413h23.4334v1.8972h-28.4092v-19.9299h28.4092v1.8927h-23.42"/>
  <path id="Path_25" data-name="Path 25" class="cls-1" d="M158.1051,355.8621v19.8985h-4.9892v-17.1198l.0358-.5951.0313-.6041h-.1342l-.3893.4475c-.1924.2372-.3222.3893-.3893.4475l-.8412.9307-15.0615,16.462h-4.9892l-15.0928-16.2696-.8949-.9218-.3848-.4475c-.1429-.1385-.2746-.2881-.3938-.4475h-.1298l.0313.5414.0358.5549v17.0035h-4.9892v-19.8806h8.6494l11.7905,12.8689,1.8793,2.0852.9441,1.0381.8949,1.0381h.1342l.8949-1.0381c.4475-.4967.7562-.8412.8949-1.0381l1.9107-2.0673,11.7279-12.8868h8.7792"/>
  <path id="Path_26" data-name="Path 26" class="cls-1" d="M186.7425,366.0149h11.8219c3.1813.1575,6.3699-.0738,9.4951-.6891,1.3646-.4003,2.249-1.7176,2.1031-3.1322,0-1.9211-.4743-3.1352-1.4229-3.6423-2.1532-.6926-4.4213-.9571-6.6761-.7786h-15.3299v8.269M181.7443,375.783v-19.9209h20.2475c3.4533-.2277,6.9182.2098,10.2066,1.2887,1.8307.8943,2.9134,2.8315,2.7161,4.8594.167,2.0058-.9869,3.8881-2.8503,4.6491-3.4403,1.0429-7.0392,1.4626-10.6272,1.2395l-1.9375.0224h-12.766v7.8395l-4.9892.0224Z"/>
  <path id="Path_27" data-name="Path 27" class="cls-1" d="M241.1312,365.8046h14.4216c2.6138.1375,5.2334-.125,7.7679-.7786,1.2895-.3862,2.1473-1.6045,2.0762-2.9487.2065-1.3738-.4005-2.7431-1.5572-3.5126-2.1162-.7007-4.3499-.9775-6.5732-.8144h-16.1354v8.0543M236.1465,375.7606v-19.8985h21.053c3.3975-.1991,6.8027.2286,10.0454,1.2618,1.8256.6775,3.0035,2.4579,2.913,4.403.1594,1.4707-.4389,2.9217-1.5885,3.8526-1.8839.929-3.9581,1.4069-6.0586,1.3961v.0403c4.6865.1581,7.0296,1.4438,7.0296,3.8571v5.0876h-4.9891v-4.582c0-2.3208-2.2373-3.4827-6.7119-3.4857h-16.7171v8.0543l-4.9757.0134Z"/>
  <path id="Path_28" data-name="Path 28" class="cls-2" d="M295.9449,357.7504v6.779h22.449v1.8972h-22.449v7.4413h23.4245v1.8972h-28.4137v-19.9299h28.4137v1.8927h-23.4245"/>
  <path id="Path_29" data-name="Path 29" class="cls-2" d="M371.3552,361.2361h-4.9534c.1771-1.3058-.5625-2.5631-1.7898-3.0427-2.7544-.5951-5.5762-.8179-8.3899-.6623-3.3821-.1384-6.7694.073-10.1081.6309-1.346.2101-2.3213,1.395-2.2686,2.7563,0,1.6019.5996,2.5773,1.7898,2.9264,3.5036.5403,7.047.7798,10.5914.716,4.4046-.1299,8.8089.2667,13.1195,1.1813,1.8546.6101,3.0286,2.4355,2.8145,4.3761.2024,2.1557-1.1585,4.1501-3.2396,4.7475-4.6754.9593-9.4536,1.3216-14.2202,1.0784-4.2726.2163-8.5549-.1465-12.7302-1.0784-1.9531-.5351-3.2614-2.3687-3.1322-4.3896l-.0358-.8949h4.9579v.4967c0,1.7898.604,2.898,1.8122,3.3246,3.0606.5884,6.1813.8033,9.2937.6399,3.5328.1702,7.0736-.0443,10.56-.6399,1.3424-.4475,1.9778-1.593,1.9822-3.4678.1136-1.0165-.4362-1.9917-1.3647-2.4208-1.8135-.5475-3.7045-.7939-5.5977-.7294l-5.186-.1119-4.9221-.1208c-7.4905-.2327-11.2356-1.9807-11.2357-5.2442-.1249-2.0971,1.2419-3.9929,3.2709-4.5372,4.2798-.9741,8.6733-1.355,13.0569-1.1321,4.3368-.2247,8.6842.1304,12.9271,1.056,1.9479.6134,3.2027,2.504,3.0114,4.5372"/>
  <path id="Path_30" data-name="Path 30" class="cls-1" d="M419.1394,369.8541l-9.8128-12.1664-9.7009,12.1664h19.5003M420.5846,371.5411h-22.373l-3.4007,4.2151h-5.2755l16.1935-19.8985h6.9982l16.5201,19.8985h-5.2129l-3.4498-4.2151Z"/>
  <path id="Path_31" data-name="Path 31" class="cls-2" d="M479.3585,361.2361h-4.9534c.1789-1.3061-.5614-2.5644-1.7898-3.0427-2.7528-.5957-5.5732-.8185-8.3854-.6623-3.3822-.1384-6.7695.073-10.1081.6309-1.346.2102-2.3211,1.3951-2.2686,2.7563,0,1.6019.5996,2.5773,1.7898,2.9264,3.5036.5403,7.047.7798,10.5914.716,4.4045-.1296,8.8089.267,13.1195,1.1813,1.8545.6101,3.0286,2.4355,2.8145,4.3761.2024,2.1557-1.1585,4.1501-3.2396,4.7475-4.6755.9593-9.4536,1.3216-14.2203,1.0784-4.2726.216-8.5548-.1468-12.7302-1.0784-1.9531-.535-3.2616-2.3687-3.1323-4.3896l-.0403-.8949h4.9488v.4967c0,1.7898.6041,2.898,1.8122,3.3246,3.0621.5884,6.1844.8032,9.2982.6399,3.5313.1697,7.0706-.0449,10.5556-.6399,1.3423-.4475,1.9777-1.593,1.9822-3.4678.1144-1.0106-.4245-1.9826-1.3423-2.4208-1.8151-.547-3.7076-.7934-5.6023-.7294l-5.186-.1119-4.9221-.1208c-7.4934-.2327-11.2401-1.9807-11.2401-5.2442-.123-2.0965,1.2429-3.9914,3.2709-4.5372,4.2799-.9741,8.6732-1.355,13.0569-1.1321,4.3353-.2247,8.6813.1305,12.9226,1.056,1.9479.6134,3.2027,2.504,3.0114,4.5372"/>
  <path id="Path_32" data-name="Path 32" class="cls-1" d="M581.7998,355.8621v19.8985h-4.9891v-17.1198l.0358-.5951.0269-.6041h-.1254l-.3938.4475c-.1924.2372-.3221.3893-.3848.4475l-.8457.9307-15.0615,16.462h-4.9891l-15.0972-16.2696-.895-.9218-.3848-.4475c-.1445-.1382-.2776-.2879-.3982-.4475h-.1254l.0269.5414.0403.5549v17.0035h-4.9936v-19.8806h8.6495l11.7906,12.8689,1.8749,2.0852.9441,1.0381.895,1.0381h.1297l.895-1.0381c.4535-.4982.7517-.8442.895-1.0381l1.9195-2.0673,11.7189-12.8868h8.7837"/>
  <path id="Path_33" data-name="Path 33" class="cls-1" d="M631.1636,369.8541l-9.8128-12.1664-9.683,12.1664h19.4958M632.6179,371.5411h-22.373l-3.4007,4.2151h-5.28l16.198-19.8985h6.9982l16.5246,19.8985h-5.2218l-3.4454-4.2151Z"/>
  <path id="Path_34" data-name="Path 34" class="cls-1" d="M666.0519,365.8046h14.4082c2.6168.1375,5.2393-.125,7.7769-.7786,1.2877-.3879,2.1433-1.6058,2.0718-2.9487.2074-1.3729-.3976-2.7419-1.5526-3.5126-2.1179-.7003-4.3529-.977-6.5777-.8144h-16.1086v8.0543M661.0808,375.7606v-19.8985h21.0574c3.3961-.1986,6.7997.2292,10.0409,1.2618,1.8274.6759,3.0073,2.4567,2.9175,4.403.1594,1.4707-.4389,2.9217-1.5885,3.8526-1.8839.929-3.9581,1.4069-6.0586,1.3961v.0403c4.6864.1581,7.0281,1.4438,7.0251,3.8571v5.0876h-4.9848v-4.582c0-2.3208-2.2373-3.4827-6.7119-3.4857h-16.717v8.0543l-4.9801.0134Z"/>
  <rect id="Rectangle_6" data-name="Rectangle 6" class="cls-2" x="717.6574" y="355.8576" width="4.9892" height="19.8985"/>
  <path id="Path_35" data-name="Path 35" class="cls-2" d="M761.8485,357.9428v17.8178h-4.9891v-17.8178h-14.4171v-2.0807h33.6847v2.0807h-14.2828"/>
  <rect id="Rectangle_7" data-name="Rectangle 7" class="cls-2" x="795.824" y="355.8576" width="4.9892" height="19.8985"/>
  <path id="Path_36" data-name="Path 36" class="cls-1" d="M873.1182,355.8621v19.8985h-4.9891v-17.1198l.0358-.5951.0269-.6041h-.1389l-.3938.4475c-.1924.2372-.3178.3893-.3848.4475l-.8412.9307-15.066,16.462h-4.9891l-15.0927-16.2696-.895-.9218-.3893-.4475c-.1396-.139-.2683-.2886-.3848-.4475h-.1342l.0313.5414.0358.5549v17.0035h-4.9848v-19.8806h8.6449l11.7906,12.8689,1.8838,2.0852.9308,1.0381.895,1.0381h.1254l.895-1.0381c.4535-.4982.7517-.8442.895-1.0381l1.9152-2.0673,11.7234-12.8868h8.7792"/>
  <path id="Path_37" data-name="Path 37" class="cls-1" d="M922.4908,369.8541l-9.8037-12.162-9.6875,12.1664h19.5003M923.9585,371.5455h-22.373l-3.4051,4.2151h-5.2755l16.198-19.8985h6.9982l16.5201,19.8985h-5.2129l-3.4499-4.2151Z"/>
  <path id="Path_38" data-name="Path 38" class="cls-2" d="M982.7143,361.2361h-4.9667c.1805-1.3064-.5603-2.5657-1.7898-3.0427-2.7543-.5954-5.5762-.8181-8.3899-.6623-3.3807-.1383-6.7665.0732-10.1036.6309-1.346.2102-2.3211,1.3951-2.2686,2.7563,0,1.6019.5906,2.5773,1.7898,2.9264,3.5021.5403,7.044.7799,10.5869.716,4.406-.1296,8.8119.267,13.124,1.1813,1.8534.6116,3.0269,2.4359,2.8145,4.3761.2024,2.1557-1.1585,4.1501-3.2396,4.7475-4.6755.9593-9.4536,1.3216-14.2203,1.0784-4.2726.2166-8.555-.1461-12.7302-1.0784-1.9531-.535-3.2616-2.3687-3.1323-4.3896l-.0313-.8949h4.9534v.4967c0,1.7898.6056,2.898,1.8167,3.3246,3.0621.5886,6.1844.8034,9.2982.6399,3.5328.1698,7.0735-.0448,10.56-.6399,1.3423-.4475,1.9733-1.593,1.9733-3.4678.1159-1.0109-.4235-1.9836-1.3423-2.4208-1.8152-.5467-3.7076-.7931-5.6023-.7294l-5.186-.1119-4.9221-.1208c-7.4904-.2327-11.2356-1.9807-11.2356-5.2442-.123-2.0965,1.2429-3.9914,3.2709-4.5372,4.2782-.974,8.6702-1.355,13.0524-1.1321,4.3383-.2249,8.6873.1302,12.9316,1.056,1.9407.6222,3.1851,2.5132,2.9889,4.5418"/>
</svg>