<?xml version="1.0" encoding="UTF-8"?>
<svg id="Layer_1" data-name="Layer 1" xmlns="http://www.w3.org/2000/svg" viewBox="0 0 1080 589.8067">
  <defs>
    <style>
      .cls-1 {
        fill: #ef5138;
      }

      .cls-1, .cls-2, .cls-3, .cls-4, .cls-5, .cls-6, .cls-7, .cls-8 {
        stroke-width: 0px;
      }

      .cls-2 {
        fill: #f7ad90;
      }

      .cls-3 {
        fill: #ef4f35;
      }

      .cls-4 {
        fill: #fefefe;
      }

      .cls-5 {
        fill: #f6a89b;
      }

      .cls-6 {
        fill: #fff;
      }

      .cls-7 {
        fill: #fad0c9;
      }

      .cls-8 {
        fill: #fcfcfc;
      }
    </style>
  </defs>
  <path class="cls-3" d="M311.9195,146.108c2.7333.036,5.4665.0721,8.1998.1081,2.6398.3849,5.3015-.0277,7.9451.2195,2.4666.0469,4.9334.0869,7.3998.1461.534.0128.9247-.1783,1.3013-.5563,3.9642-3.9799,8.5085-7.264,12.9812-10.6161,6.6499-4.9839,13.5977-9.5363,20.7973-13.6959,5.9915-3.4617,12.3129-6.241,18.7599-8.6937,7.1948-2.7371,14.4571-5.3278,22.0537-6.7823,2.5561-.4894,5.1318-.8768,7.6986-1.3108.5377-.1978,1.144.1097,1.6629-.2259.761-.025,1.522-.05,2.283-.075,2.7363-.1634,5.4727-.152,8.2093-.0082,1.0975.0257,2.195.0513,3.2925.077.7362.3921,1.5601-.0185,2.3095.2525q2.411.2583,2.2309-1.5985c-.2358-.8633.1602-1.7823-.2322-2.6318-.0257-1.3168-.0513-2.6336-.077-3.9504-.1421-4.1634-.1575-8.3267.0082-12.4899.025-.9804.0499-1.9608.0749-2.9411.3766-.7447-.0199-1.5713.2464-2.3277.0257-.5481.0513-1.0962.077-1.6443.3564-.5086.0189-1.1194.243-1.6475.0887-.5566.2614-1.1145-.0274-1.6649-.576-.3882-1.2505-.015-1.8478-.2386-.9763-.0367-1.9526-.0733-2.9288-.11-.8673-.3644-1.7991.019-2.6763-.2302-.8725-.0309-1.7451-.0618-2.6176-.0927-.8577-.3861-1.7896.0285-2.6576-.2463-.7618-.0277-1.5235-.0554-2.2853-.0831-.7452-.3717-1.5672.0094-2.3252-.2368-.7555-.0331-1.511-.0662-2.2666-.0994-.6422-.3413-1.3623-.0007-2.0173-.2301-.6528-.0309-1.3056-.0618-1.9585-.0927-.6311-.3669-1.3577.0168-2.001-.2545-7.3545-.4517-14.4348-2.3564-21.5619-4.032-6.7298-1.5822-13.508-2.9661-20.2117-4.6491-4.7059-1.1815-9.4293-2.2844-14.1911-3.1624-3.3082-.61-6.628-1.3125-10.0212-1.4151-.6341-.0192-1.2059-.5208-1.8904-.3171-.5093-.3519-1.114-.0293-1.6444-.2322-.6539-.0345-1.3077-.0689-1.9616-.1034-.8577-.3861-1.7896.0285-2.6577-.2463-3.1957-.1805-6.3915-.193-9.5872,0-.7648.2608-1.595-.1197-2.3497.2396-.534.0272-1.068.0544-1.602.0816-.5238.2591-1.1456-.103-1.6529.2606-5.2051.4765-10.2202,1.7662-15.1052,3.581-1.7653.6558-3.4874,1.4273-5.2369,2.1265-3.8255,1.5289-6.5711.1945-7.7293-3.7431-.1308-.7546-.1141-1.5099-.0108-2.2657.2612-2.9635,2.6423-3.8905,4.8468-4.8338,5.6219-2.4054,11.4529-4.1682,17.4875-5.2051,2.14-.3677,4.2975-.6334,6.447-.9456.5575-.1815,1.1695.0791,1.7135-.2115.854-.0298,1.7079-.0597,2.5619-.0895,3.2844-.1722,6.5691-.1385,9.854-.0177.9752.0331,1.9505.0662,2.9257.0994.6426.3363,1.3572.012,2.0139.2193,10.9315,1.2268,21.698,3.3208,32.3902,5.8972,10.665,2.5698,21.3823,4.9258,32.0946,7.2944,1.4087.3115,2.8818.6219,4.3702.4189.5178.3441,1.1359.0083,1.6693.2462.5482.0257,1.0963.0513,1.6445.077.6229.3745,1.3376.0032,1.9771.2429.6528.0309,1.3056.0618,1.9585.0927.7445.3805,1.5754-.029,2.3305.2545.6573.0229,1.3146.0458,1.9719.0688.8498.3976,1.7809-.0287,2.6414.2607.7609.025,1.5218.0499,2.2828.0749.8581.3796,1.7853-.0146,2.6548.2368.8788.0288,1.7575.0577,2.6363.0865.9624.4023,1.9955-.0258,2.9685.2525.9814.0277,1.9629.0554,2.9443.0832.7608.2309,1.5205.2785,2.2784-.0125.687-4.0346,1.7758-7.9659,3.9367-11.4572,2.9373-4.7458,6.8236-6.0182,12.1175-3.5675,4.34,2.0092,8.139,4.9679,12.1934,7.4803,6.3277,3.921,12.7503,7.6319,20.0221,9.5809,2.1025.5635,4.2055,1.0831,6.4084.955.8274.2236,1.6548.2233,2.4822.0002,5.1821-.0768,9.9979-1.6547,14.701-3.6422,9.4124-3.9777,17.5849-9.9555,25.7514-15.9564,5.7872-4.2526,11.2974-8.9292,17.9993-11.8138,5.2508-2.2601,10.7129-3.664,16.3445-4.5456,2.0587-.3223,4.1937-.1785,6.1784-.9657h.9886c1.4014.3654,2.8291.0746,4.2415.1698.5687.0434,1.1495-.1026,1.707.1105,7.6552.6291,14.8948,2.8408,21.8531,5.9641,10.0456,4.5091,20.3048,8.4273,30.75,11.9134,6.0094,2.0057,12.0188,4.1517,17.2397,7.9217,2.7332,1.9736,4.8947,4.4846,6.5371,7.4216.9761,1.7454.9721,1.8164,2.4622.5684,3.5367-2.962,7.4377-5.3537,11.5961-7.2985,5.5137-2.5786,11.4049-3.9456,17.3669-4.9948,3.1544-.5551,6.3355-.9581,9.5046-1.4298.7592-.2485,1.5824.1319,2.3293-.2368,3.6045-.0021,7.2089-.0043,10.8134-.0064.9644.3929,1.9945-.0159,2.9699.2433.7447.0358,1.4894.0716,2.2341.1073.545.2962,1.1685.0074,1.7232.2315,3.7109.6691,5.323,2.4976,5.5554,6.3011-.0062,3.6534-2.5842,6.0611-6.4306,5.6661-3.076-.3158-6.1487-.3715-9.2091-.2345-10.1871.4561-20.2231,1.8314-29.8072,5.5558-1.3099.509-2.5994,1.0857-3.8892,2.0049,3.0026,1.6784,5.9298,3.1651,8.7923,4.7684,10.8979,6.104,21.1006,13.2539,31.1769,20.6017,6.1693,4.4989,12.2407,9.1203,18.0126,14.1195,2.0716,1.7942,4.207,3.5371,6.0482,5.5761,1.0505,1.1633,2.0423,1.4585,3.6058.8912,3.9395-1.4296,8.1755-1.6137,12.2275-2.6203,3.5121-.8725,7.0531-1.519,10.1408-3.6803,1.4431-1.0101,3.2822-1.204,4.9038.0496,4.2161,2.4227,4.4199,7.0629.5222,9.9368-4.3493,3.2069-9.4288,4.2881-14.5669,5.2475-5.1744.9662-10.3887,1.766-14.7292,5.1613-2.8269,2.2114-5.4269,4.7094-8.4541,6.6678-6.3572,4.1127-13.3933,6.3013-20.8255,7.3765-.5472.1933-1.1567-.0929-1.6885.2193-4.0137-.0024-8.0275-.0048-12.0412-.0072-.9926-.3585-2.0457.0496-3.0437-.2401-.7526-.0274-1.5053-.0548-2.258-.0822-1.2178-.4858-1.2251.2958-1.223,1.1414.0093,3.6942.0077,7.3884,0,11.0826-.0011.5398.0786,1.0869-.0866,1.619-.0324,3.1593-.0648,6.3185-.0972,9.4778-.3751,1.5483.0628,3.1383-.2404,4.6903-.025.9792-.05,1.9584-.0751,2.9376-.3637.7471.0001,1.5649-.2263,2.3254-1.4792,3.7303-4.4257,6.3004-7.2594,8.8976-4.1706,3.8225-8.6937,7.192-13.8485,9.6287-2.127,1.0054-4.3628,1.6306-6.6783,1.9979-1.1954.1381-2.3912.1193-3.5872.0106-1.926-.2377-3.8101-.6494-5.4501-1.7367-1.2277-.8138-2.041-.5492-2.9341.5844-2.972,3.7725-6.6877,6.6386-11.0168,8.7267-2.0223.9754-4.141,1.5986-6.3422,1.9792-.5472.1933-1.1567-.0929-1.6885.2193-.838,0-1.6761,0-2.5141.0001-.5313-.317-1.1467-.0156-1.6919-.23-2.7056-.3058-5.1923-1.1659-7.307-2.9334-.9258-.7737-1.6079-.837-2.5039.2183-3.1968,3.7652-6.7716,7.1237-11.1651,9.4967-2.6842,1.4498-5.5439,2.1729-8.6081,2.0059-.5449-.2963-1.1685-.0074-1.7232-.2315-2.1947-.2434-4.2687-.9062-6.1134-2.0982-.9184-.5934-1.2889-.0378-1.7545.4775-2.178,2.4103-4.6272,4.4453-7.6144,5.8083-3.0924,1.411-6.3592,2.1398-9.6921,2.634-1.28.1898-2.5718.2997-3.8582.446-1.1946.1147-2.3891.1148-3.5836,0-3.6813-.238-7.0934-1.1078-9.7023-3.9841-.6651-.7332-1.1901-1.548-1.6251-2.4113-.3506-.6957-.6907-.8485-1.1237-.1697-5.5308,8.6712-14.1496,11.8447-23.7099,13.4107-3.0972.5073-6.1968.1915-9.2937.2989-.5202-.3372-1.1339-.0155-1.6705-.2368-3.78-.3607-7.411-1.358-10.9714-2.6244-1.3291-.4728-1.7013.0785-1.9164,1.3123-1.8909,10.8487-7.073,19.5104-17.0188,24.7923-2.9823,1.5838-6.3096,1.8288-9.6667,1.1572-.4961-.0992-1.281-.4455-1.3178.6111-.3961,1.1949.0344,2.4434-.237,3.6464-.685,4.8226-1.8692,9.4854-4.7562,13.5167-3.8469,5.3717-9.0857,8.3031-15.7237,8.4879-2.6877.0748-4.8279-2.2391-4.9737-4.9341-.1887-3.4894,1.0072-5.7726,4.459-7.3331,5.1152-2.3123,8.6359-6.2012,9.1034-12.2116.061-.7842.4199-1.5606.2999-2.3891.3542-.9814-.0072-2.0151.2196-3.0059.2285-5.613,4.2428-8.037,9.3362-8.675.6487-.1008,1.2966-.1298,1.9427.02,4.4869.6082,8.4304-.7737,11.6321-3.7883,2.702-2.5441,4.1357-5.9321,4.9138-9.5791.5724-2.683.2996-5.5205,1.0777-8.1024,1.4434-4.79,2.4634-6.4474,8.4371-7.1914.7561-.1529,1.5137-.1217,2.272-.0199,2.7731.1965,5.1633,1.6056,7.7292,2.455,2.3123.7654,4.5932,1.6248,7.0798,1.6013,1.5585.2528,3.1166.2665,4.6743-.0063,5.3906-.9691,10.8726-1.6992,14.9785-5.9242,2.2274-2.2921,3.0097-5.1347,3.2351-8.2144.057-.7793-.3483-1.3032-.9031-1.6269-5.4148-3.1581-10.8755-6.238-16.2756-9.4206-4.9938-2.9431-10.023-5.8178-15.1353-8.5509-8.0547-4.3063-16.1507-8.533-24.3852-12.4845-8.2927-3.9794-16.6082-7.9125-24.9521-11.7832-5.5858-2.5912-11.1716-5.2059-16.8867-7.486-3.4019-1.3572-7.0116-2.1568-10.6634-2.8499-3.1788-.6033-4.3614,1.7091-6.2367,2.9845-2.3837,1.6211-4.5371,3.58-6.7974,5.3836-.5206.4154-1.1294.654-1.7924.7447-.5362.127-1.0734.1134-1.6111.0105-2.2811-.1416-4.1929-1.0983-5.5551-2.8942-1.7271-2.2768-1.5807-5.6813.7977-7.572,5.8881-4.6809,12.0115-9.0605,18.2085-13.3346,5.5049-3.7968,11.1126-7.4312,17.0224-11.0413-5.6713-3.2909-11.6413-4.8122-17.8817-5.4673-.545-.296-1.1685-.0074-1.7231-.2314-.7665-.0256-1.533-.0512-2.2995-.0768-2.6632-.2703-5.327-.2528-7.991-.0132-.754.0331-1.5081.0662-2.2621.0993-.5293.2263-1.1415-.1104-1.652.2432-4.2735.1766-8.4011,1.2236-12.4782,2.3542-8.9399,2.4791-17.6626,5.6132-25.9004,9.912-7.6178,3.9752-14.6402,8.9032-21.4441,14.134-5.7088,4.389-11.2539,8.9767-16.5418,13.8694-1.211,1.1204-2.6193,1.6897-4.2947,1.5847-.8729-.0547-1.7513-.0219-2.6273-.0287-1.2042-.3808-2.4609.0423-3.6716-.2396-1.183-.0325-2.3659-.0649-3.5489-.0974-1.2158-.364-2.4826.0568-3.7028-.2401-1.0954-.0229-2.1908-.0458-3.2861-.0687-1.1878-.4008-2.4282.0181-3.6256-.2327-1.2018-.0344-2.4036-.0687-3.6054-.1031-1.1952-.396-2.4441.0342-3.6474-.2369-1.2007-.0308-2.4014-.0617-3.6021-.0925-1.1954-.3986-2.4473.0414-3.6502-.2463-1.1926-.03-2.3853-.0599-3.5779-.0899-1.2044-.3818-2.4638.0515-3.6738-.2477-1.1822-.0298-2.3645-.0596-3.5467-.0893-1.1042-.3477-2.2536.0211-3.365-.212-1.208-.0323-2.4159-.0645-3.6239-.0968-.9629-.4084-2.0006.0412-2.973-.2588-4.5103-.7684-5.5909-5.9918-3.1788-9.0178,1.0221-1.2823,2.4738-1.8306,4.1054-1.8623,1.3134-.0255,2.6274-.0237,3.9411-.034,2.6412.3845,5.3045-.0323,7.9493.2196,2.7324.0366,5.4648.0732,8.1972.1098,2.6412.3845,5.3045-.0323,7.9494.2196Z"/>
  <path class="cls-3" d="M120.1583,519.7801c.9885-3.1915,1.3505-6.5107,1.9549-9.7777,2.9503-15.9472,5.8419-31.9053,8.7715-47.8563.2658-1.4473-.0086-3.3677,1.0094-4.2055,1.0819-.8904,2.9502-.2581,4.4724-.2713,4.3176-.0376,4.3126-.011,5.9989,4.0293,4.5569,10.9179,9.1184,21.8338,13.6794,32.75.1672.4002.3484.7946.57,1.2983.7057-.5584.8268-1.348,1.1141-2.0076,5.0312-11.5493,10.0553-23.1018,15.0282-34.6763.4614-1.074,1.0138-1.4902,2.1857-1.4339,2.0268.0973,4.0646.0919,6.0921.0011,1.1093-.0496,1.5324.3366,1.7005,1.4109,1.0842,6.9295,2.2139,13.852,3.3423,20.7745,2.1159,12.9806,4.2185,25.9635,6.3975,38.9335.2167,1.29.0004,1.6075-1.2936,1.5767-3.3474-.0796-6.6986-.0673-10.0467-.004-1.1215.0212-1.5843-.2156-1.7605-1.4652-1.5759-11.1762-3.2441-22.3395-4.8913-33.5492-.6828.3107-.7176.9808-.9436,1.4968-4.813,10.9874-9.6609,21.9602-14.354,32.9987-.7801,1.8348-2.0597,1.0992-3.2183,1.2977-1.0919.1871-1.6123-.2649-2.0472-1.3072-4.514-10.8175-9.0921-21.6083-13.6536-32.4059-.2659-.6294-.5427-1.2541-1.2174-1.8305-.4701,2.8214-.9493,5.6413-1.4084,8.4645-1.3545,8.3298-2.6942,16.662-4.0672,24.9887-.0859.5211.0126,1.309-.9212,1.285-4.1638-.107-8.3344.241-12.4935-.1856v-.3294Z"/>
  <path class="cls-5" d="M586.4523,29.1956c-1.4359-.077-2.9075.3989-4.3046-.2783h4.2838c.1006.0547.1371.1141.1099.1783-.0282.0666-.0578.0999-.0891.0999Z"/>
  <path class="cls-7" d="M586.4523,29.1956c-.0122-.0924-.0191-.1851-.0208-.2783h1.6476c-.0019.094.0037.1875.0171.2804-.5479-.0008-1.0959-.0015-1.6439-.0022Z"/>
  <path class="cls-6" d="M695.9357,273.6899c9.5602,0,19.0034.0158,28.4463-.0242.9576-.0041,1.339.3924,1.6555,1.1894,5.1694,13.0213,10.3585,26.0347,15.5417,39.0505,5.7036,14.3229,11.4099,28.6448,17.1059,42.9707,1.8028,4.5344,3.5752,9.0809,5.3651,13.6204.1507.3823.2312.8152.7901,1.1506,1.9507-4.8219,3.8786-9.5915,5.8096-14.3598,1.9587-4.8366,3.9158-9.6737,5.8818-14.5073,1.9488-4.7913,3.9311-9.5692,5.8558-14.3701,1.9583-4.8846,3.829-9.8045,5.8025-14.6829,2.1923-5.4193,4.472-10.8031,6.6871-16.2133,2.3465-5.731,4.6629-11.4744,6.9901-17.2133.7993-1.9712,1.6783-3.9168,2.3384-5.9338.2241-.6849.5168-.6777,1.0072-.6776,9.5502.0009,19.1004.0007,28.8661.0007-1.2136,2.9643-2.3574,5.7997-3.5329,8.6221-4.051,9.7269-8.1077,19.4514-12.1722,29.1727-4.593,10.9855-9.201,21.9648-13.7948,32.9501-4.508,10.7804-9.0096,21.5635-13.5075,32.3482-4.6216,11.0815-9.2305,22.1684-13.854,33.2491-4.1481,9.9414-8.3092,19.8773-12.46,29.8175-.1548.3707-.065.9871-.6559.9334-.5074-.0462-.2852-.6224-.4206-.9497-2.7886-6.7433-5.6109-13.4728-8.3656-20.2299-2.8555-7.0042-5.6153-14.0474-8.4743-21.0501-2.7623-6.7657-5.6293-13.4887-8.3904-20.2549-2.1326-5.226-4.132-10.5064-6.264-15.7327-2.9193-7.1561-5.943-14.2697-8.8578-21.4276-3.2914-8.0827-6.4803-16.207-9.7724-24.2893-2.7583-6.7719-5.634-13.4961-8.3964-20.2664-2.3167-5.6781-4.5375-11.3952-6.8161-17.0889-.7681-1.9193-1.5834-3.8197-2.4083-5.8037Z"/>
  <path class="cls-6" d="M639.8141,349.9576c0-24.8143.0148-49.6286-.0363-74.4428-.0031-1.509.3853-1.8766,1.8731-1.8616,7.7969.0782,15.5955.0888,23.392-.0069,1.5856-.0194,1.8222.499,1.8209,1.9133-.0357,41.0094-.0194,82.0189-.0658,123.0283-.0018,1.5452.2975,1.9887,1.9278,1.9792,13.3434-.0773,26.6874-.0233,40.0311-.0756,1.31-.0051,1.6153.3522,1.605,1.6246-.0611,7.5207-.0547,15.0422-.0041,22.5631.0078,1.1605-.1827,1.5768-1.4882,1.5741-22.5141-.0467-45.0284-.0498-67.5425.0045-1.4326.0035-1.5329-.544-1.5318-1.6926.0249-24.8692.019-49.7384.019-74.6075Z"/>
  <path class="cls-2" d="M776.6031,108.6021c-2.1849-.622-4.0882-.3245-6.0132,1.0971-2.5208,1.8617-5.708,2.1118-8.663,2.8967-4.5931,1.22-9.4567,1.2623-13.8843,3.1941-.6943.3029-1.1206-.0876-1.5789-.5241-15.8793-15.1255-33.8165-27.5009-52.3619-39.0484-4.2732-2.6608-8.7717-4.9472-13.4414-7.2804,3.3304-2.09,6.7901-3.4439,10.3895-4.3933,6.8888-1.8169,13.8698-3.0622,21.0158-3.4113,4.1109-.2008,8.1979-.3275,12.304.0244,3.7102.318,5.6024-1.2321,6.6616-5.2533.3438,1.8177,1.9277,2.7645,2.9949,4.0206,4.2778,5.0347,8.741,9.9113,13.1022,14.8757,5.1882,5.9057,10.3283,11.8536,15.5151,17.7605,4.3244,4.9249,8.6868,9.8164,13.0295,14.7253.357.4036.8459.7184.9301,1.3163Z"/>
  <path class="cls-3" d="M933.0909,487.7882c.2317,2.2079-.1825,3.8997-2.1873,5.4759-4.5448,3.573-8.7761,7.5446-13.132,11.3574-.1471.1287-.2632.293-.5904.6633,4.7627,0,9.2393.0781,13.7107-.0421,1.5775-.0424,1.89.4788,1.8487,1.9219-.0972,3.3892-.0284,3.3911-3.4622,3.3911-6.6405,0-13.2814-.0464-19.9209.0371-1.4177.0178-1.6789-.4105-1.6961-1.7341-.0196-1.4991.3692-2.6346,1.5243-3.5702,4.1075-3.3267,7.8499-7.0801,12.039-10.3142.5993-.4627,1.0926-1.0626,1.6349-1.599-.223-.8366-.9028-.425-1.3537-.4291-3.9461-.0354-7.8935-.0586-11.8389.0036-1.1425.018-1.4847-.3182-1.48-1.4717.0155-3.8131-.0305-3.8134,3.7112-3.8134,6.4678,0,12.9356-.0035,19.4034.006.5963.0009,1.2062-.1149,1.7895.1175Z"/>
  <path class="cls-3" d="M933.1671,471.9945c-.7613,5.471-3.4243,9.5473-8.8565,11.2277-8.0119,2.4783-14.871-2.2708-16.4804-9.8652-.5422-2.5588-.3553-5.3294.9971-7.8018.2386-.4364.4132-.7851,1.0569-.7624,1.7977.0634,3.5992.0221,5.732.0221-2.204,2.2505-3.5074,4.6499-2.8989,7.6219.3199,1.5631,1.0637,3.0282,2.3223,4.0504,3.375,2.7414,8.2685,2.4635,10.9689-.441,2.4443-2.6292,3.5869-6.131-.6621-11.2296,1.9677,0,3.7989.0351,5.6275-.0184.6687-.0196.8584.4155,1.0455.8387.5751,1.3014.9009,2.6797,1.1302,4.0811.1646.7576.1375,1.5167.0175,2.2764Z"/>
  <path class="cls-1" d="M920.3492,520.6338c-3.5668,0-7.1344-.0401-10.7001.0241-1.0891.0196-1.514-.1826-1.5029-1.4043.0356-3.9506-.0201-3.951,3.9464-3.951,6.2557,0,12.5117.0329,18.7668-.0269,1.2942-.0124,1.8335.229,1.8013,1.6835-.0813,3.6731-.0076,3.6747-3.7511,3.6747-2.8535,0-5.7069,0-8.5604,0Z"/>
  <path class="cls-3" d="M929.1548,462.2158c-1.5697-.2293-2.184-1.3024-2.2875-2.7232-.111-1.5223.3122-2.7981,1.947-3.3325.7624-.1895,1.5248-.1895,2.2872,0,2.7127,1.5928,2.599,4.501.0003,6.0067-.6441.2121-1.2953.1391-1.947.0491Z"/>
  <g>
    <path class="cls-3" d="M441.7731,460.8563c.0052-.0801-.0022-.1527,0-.2306v.2306Z"/>
    <path class="cls-3" d="M441.4854,460.9223c-.0007-.8357.0326-1.3317-.0133-1.6454-.0697-.1216-.0949-.2684-.2017-.3693-.0534-.0497-.1379-.0534-.1972-.0934-.3166-.0638-.8572-.0208-1.7944-.0222-3.5614-.0074-7.1229.0356-10.685.0578-.0007,12.4995.0015,24.9989-.0178,37.4992-.0007.4412.3144,1.0974-.2907,1.2991-.4493.1498-.7148-.4316-.9892-.7393-2.504-2.8125-4.9947-5.6376-7.4728-8.4739-5.2061-5.9587-10.4092-11.9196-15.5997-17.8917-3.755-4.32-7.4862-8.6607-11.2285-12.9926-2.7873-.3767-5.5872-.0712-8.3797-.1705-.6117-.0215-.9306.2047-.8883.8542.0215.3277-.0007.6585-.0007.9877,0,19.7039.0222,39.4085-.0408,59.1124-.0059,1.6424.4709,2.0072,2.0154,1.9472,2.9393-.1149,5.8875-.0994,8.8298-.0133.0816,0,.1631.0007.2447.0007.1728,0,.3122-.0015.4568-.003,1.1938-.0007,1.4756-.456,1.4711-1.6558-.0445-12.0753-.0267-24.1507-.026-36.2253,0-.439-.1209-.9358.0445-1.3021.1965-.436.3663-.0512.4701.1794,1.7655,1.9843,3.4917,4.0011,5.278,5.9683,3.5666,3.9277,6.8908,8.0742,10.4255,12.0323,2.6724,2.9927,5.2728,6.0477,7.9904,9.004,3.5155,3.8239,6.8055,7.8562,10.1586,11.8269.8468,1.0018,1.8004,1.42,3.1351,1.3621,2.4121-.1038,4.8309-.0311,7.2467-.0319.0222-1.1493.0623-2.2987.0623-3.448.0044-19.018.0082-38.036-.003-57.054Z"/>
    <path class="cls-3" d="M439.579,458.4939c-.0541.0022-.1031-.0037-.1587,0h.1587Z"/>
  </g>
  <path class="cls-6" d="M325.9322,424.6088c.0111-7.4639.0082-14.9279.0067-22.3918q0-1.85-1.8626-1.853c-18.5004-.0007-37.0009.0015-55.5013-.0082-.5917,0-1.2094.1602-1.7752-.1646l-.0015-.003c-.0015-.0022-.0007-.0044-.0015-.0059-.2996-.3863-.1794-.8401-.1794-1.2643-.0067-13.8312-.0074-27.6624.0015-41.4936,0-.4227-.149-.8816.1794-1.2635v.0015-.0015c.6258-.3114,1.2961-.1557,1.9427-.1565,17.8375-.0096,35.6751-.0304,53.5126.0319,1.572.0052,1.8686-.4775,1.8582-1.9257-.0534-7.8999-.0037-15.8006.0104-23.7021-.5391-.2662-1.1093-.2328-1.6743-.2084-.0237.0007-.0489.0037-.0719.0037h-.0653c-.0979.0044-.1958.0096-.2929.0096-17.8064-.0082-35.6128-.0037-53.4192-.0171-.5791-.0007-1.2027.2113-1.7433-.1987l-.0341-.0341v-.0007.0007c-.1898-.1713-.2113-.3819-.2091-.5962-.0037-.0756-.0022-.1498.0022-.2262.0007-.0326,0-.066,0-.0986-.003-9.4615-.0044-18.9231.0052-28.3846h0c-.0178-.3218-.0282-.6451.1787-.9373l.0015-.003c.548-.5576,1.2398-.2655,1.8538-.2655,18.4522-.0193,36.9045-.0371,55.3567.023,1.5505.0052,1.8701-.4486,1.853-1.9049-.0905-7.9585-.0771-15.9185-.0994-23.8778-28.22-.0007-56.4408.0067-84.6608-.0311-1.2783-.0015-1.6365.3033-1.6357,1.6157.0356,49.7851.0356,99.5694,0,149.3545-.0007,1.3132.3574,1.618,1.6357,1.6157,28.2208-.0378,56.4408-.0304,84.6608-.0311.3203-.5072.1676-1.0715.1683-1.6076Z"/>
  <g>
    <polygon class="cls-6" points="847.0461 426.223 847.0461 426.2238 847.0468 426.2238 847.0461 426.223"/>
    <path class="cls-6" d="M932.1414,400.4663c-.3796.0415-.7675.0067-1.1523.0067-18.3425-.0007-36.685.003-55.0275-.0156-.6132-.0007-1.3058.2914-1.853-.2655l-.0022-.0037c-.304-.3878-.1809-.8438-.1809-1.2702-.0059-13.8312-.0067-27.6624.0015-41.4936.0007-.4227-.149-.8816.1794-1.2635.6258-.3114,1.2961-.1557,1.9435-.1557,17.8383-.0104,35.6773-.0245,53.5163.0222,1.437.0037,1.9338-.2699,1.916-1.8419-.0897-7.9563-.0393-15.9133-.0386-23.8704-.6525-.0356-1.3058-.1031-1.959-.1031-17.859-.0059-35.7181-.0022-53.5778-.0156-.5784-.0007-1.2027.2113-1.7425-.1987l-.0341-.0341c-.1898-.1713-.2106-.3811-.2091-.5954-.0037-.0771-.0022-.1535.0015-.2321.0015-.0311.0007-.0623.0007-.0934-.0037-9.4601-.0044-18.9209.0052-28.3817-.0178-.3226-.0297-.6466.178-.9402l.0022-.003c.5472-.5583,1.239-.2655,1.853-.2655,18.4522-.0193,36.9045-.0371,55.3567.023,1.5505.0052,1.8701-.4486,1.8538-1.9049-.0912-7.9585-.0771-15.9185-.0986-23.8778-28.676-.0015-57.3513-.0044-86.0274-.0067-.0356.5991-.1038,1.1983-.1038,1.7974-.0052,49.6472-.0052,99.2951,0,148.943,0,.5991.0682,1.1983.1046,1.7974,28.6753-.003,57.3506-.0052,86.0266-.0074.0215-8.2336.0356-16.468.0771-24.7016.0037-.7571-.1935-1.1382-1.0092-1.0485Z"/>
  </g>
  <path class="cls-3" d="M499.602,467.0404c-.0445-1.7826-.0437-3.5674-.0015-5.3507.0096-.4227-.0133-.8453,0-1.2672.0393-1.2539-.2758-1.6765-1.6142-1.6691-10.4277.0564-20.8569.0601-31.2846-.003-1.4111-.0082-1.7032.4167-1.6995,1.7529.0467,15.2541.0297,30.5083.0297,45.7632,0,4.1702.0371,8.3411-.0237,12.5106-.0171,1.1434.3151,1.4956,1.4771,1.4912,10.5382-.04,21.0764-.0386,31.6146-.0007,1.1338.0037,1.5305-.2988,1.4986-1.4704-.0771-2.7962-.0845-5.5983.003-8.3938.0386-1.2161-.2877-1.5876-1.5438-1.5742-6.147.066-12.2941.0386-18.4411.0141-.4998-.0022-1.0959.2951-1.5127-.2662-.1394-4.8301-.1394-9.661,0-14.4911.4746-.5776,1.1182-.2603,1.6684-.2647,6.3339-.0489,12.6693-.0608,19.0032-.0823.0022-3.7409.0044-7.481.0059-11.2211-6.2968-.0334-12.5936-.0601-18.8905-.1105-.5813-.0052-1.2027.2069-1.7477-.1869-.2054-3.9507-.2054-7.9014,0-11.8521.4886-.3826,1.0589-.1861,1.5861-.1869,6.0922-.0163,12.1851-.04,18.2765.0141.2966.0022.5472-.0133.7556-.0578.0267-.0067.0423-.0222.0682-.0304.1728-.0452.327-.1038.4382-.2032.0111-.0096.0133-.0304.0237-.0408.2321-.2321.3322-.6043.3114-1.2124-.0185-.5361.0104-1.0737-.0007-1.6105Z"/>
  <path class="cls-3" d="M352.9117,520.2579c.5873.0015,1.1753.0007,1.7633,0,1.8982-.0185,3.7965-.0682,5.6947-.2039h.0007c-.003-20.3801-.0052-40.761-.0082-61.1419-4.3823-.2121-8.7645-.2113-13.1461,0,.0111,8.8758.0326,17.7508.0304,26.6265-.003,11.5051-.0252,23.0102-.0386,34.5154,1.9012.1357,3.8024.1861,5.7036.2039Z"/>
  <path class="cls-6" d="M442.5087,377.8068c-.0304-1.09-.0608-2.18-.0919-3.27-.3381-.5205-.0156-1.1345-.2373-1.6713-.178-1.0173-.3337-2.0391-.5368-3.0505-2.3313-11.6082-8.9195-20.263-18.4589-26.9899-7.2534-5.1141-15.3224-8.5058-23.4655-11.8247-5.6473-2.3016-11.5214-4.0783-16.5444-7.8095-4.8791-3.6245-6.9026-8.2277-5.8319-13.4775,1.6172-7.9341,9.6009-12.8287,17.2688-12.9763,1.2279-.2692,2.4558-.2684,3.6838-.0022.0067.0007.0133.0007.0193.0022.9432-.2529,1.8182.1757,2.7154.3062,3.2493.4723,6.0388,1.9168,8.4435,4.1405,2.9712,2.7487,5.123,6.13,7.1673,9.555.7712,1.291,1.3206,1.1278,2.3439.502,6.0136-3.6756,12.0598-7.2993,18.08-10.9646,2.3758-1.4459,2.4091-1.5023,1.0433-3.8892-3.5503-6.1997-7.8592-11.8047-13.4197-16.3442-6.8196-5.5672-14.8026-8.2225-23.4648-9.0774-.984-.2343-2.0147.1453-2.9875-.2269-1.1738.0022-2.3476.0052-3.5221.0074-.3492.129-.7074.1527-1.0663.1542-.6466.066-1.2954.0905-1.9479.0756-2.352.3596-4.7226.6266-7.0524,1.0959-10.3869,2.0918-19.2278,6.9619-26.0118,15.157-4.7271,5.711-7.63,12.3267-8.5391,19.7462-.2454.5279.1046,1.1456-.2529,1.6565-.026.766-.0512,1.5312-.0771,2.2972-.152,1.0885-.1357,2.1778-.0089,3.2671.0734,3.8484.8001,7.5537,2.0806,11.1989,2.5055,7.1318,7.0724,12.7286,12.9244,17.271,4.4972,3.491,9.3985,6.3999,14.698,8.5903,5.6317,2.3276,11.2678,4.6514,16.8328,7.1303,4.4623,1.988,8.9247,4.0923,12.5885,7.395,3.6156,3.2582,5.6235,7.4639,6.2071,12.3193.3893.7385-.0208,1.5638.2521,2.315.003.4464.0059.8935.0089,1.3406-.2862.7563.1231,1.5883-.2551,2.335-.1372.829-.2232,1.6699-.4197,2.4848-1.1085,4.5973-3.3271,8.5235-6.9657,11.6252-3.4865,2.9719-7.4491,4.7248-12.0486,4.9651-1.3458.2781-2.6924.2477-4.039.0141-1.1501.0764-2.269-.0793-3.3916-.3403-6.4948-1.5075-11.5563-4.9354-14.5809-10.9965-2.3654-4.7412-2.7643-9.9554-3.3701-15.1044-.1179-1.004-.0037-1.6988-1.5542-1.3295-7.6397,1.8189-15.3253,3.4443-22.9798,5.2038-1.024.2351-2.7228.112-2.8978.9106-.1772.806.2136,2.0554.3782,3.0869.9884,6.1989,2.6538,12.1702,5.3373,17.8583,4.2718,9.053,10.5278,16.2744,19.4644,20.9615,6.1634,3.2322,12.7523,5.0763,19.718,5.5027.8646.2595,1.7907-.149,2.6427.244,1.9383-.0074,3.8758-.0148,5.8141-.0222.7719-.3344,1.6142.0319,2.3921-.2388,6.7929-.7541,13.2247-2.6434,19.1908-6.0351,8.5947-4.8857,15.0369-11.7906,19.4221-20.6278,2.6479-5.3366,4.0879-11.0328,4.9562-16.8943.2781-.6369-.1194-1.3636.2603-1.988.026-1.0945.0519-2.1897.0771-3.2848.1476-.7593.1335-1.5193.0089-2.2794Z"/>
  <g>
    <path class="cls-3" d="M792.0586,460.7228v.0897c.0015-.0304-.0015-.0586,0-.0897Z"/>
    <path class="cls-3" d="M828.602,498.6061c.003-13.2313.0067-26.4627.0104-39.694-4.3823-.2113-8.7638-.2113-13.1453,0h0c.0104,2.8526.0771,5.7066.023,8.5577-.2009,10.6746.4605,21.3582-.3515,32.0261-.2684,3.5288-1.9049,6.2182-4.8383,8.1239-3.9759,2.5819-8.2106,2.7836-12.3586.6896-4.0901-2.0658-6.0647-5.6072-5.8957-10.2512-.2336-.4345-.2009-.895-.1728-1.3525-.0771-.9031-.089-1.81-.0905-2.7139-.0171-11.1307-.0452-22.2613.0304-33.392.0111-1.569-.4775-1.8908-1.9205-1.8463-3.6697.1149-7.3446.0742-11.0172.0964-.0015,12.8813-.0007,25.7619-.0044,38.6433-.0007,2.4306.175,4.8361.7133,7.2192,1.2235,5.4167,4.0753,9.753,8.7304,12.7538,3.6245,2.3365,7.6508,3.7164,11.993,4.0397.5954.0015,1.1901.0156,1.7803.0771.3137.0037.6251.0282.9291.1453.4026.0067.8053.0141,1.2072.0208.3544-.1505.72-.1728,1.0878-.1705.6266-.0534,1.2576-.0601,1.8871-.0897,5.3484-.6889,10.2208-2.5196,14.311-6.1189,4.3237-3.8061,6.1129-8.8505,6.8515-14.3807-.0059-.5472.0185-1.0915.0971-1.6306.0082-.2543.0349-.5079.1431-.7526Z"/>
  </g>
  <path class="cls-3" d="M613.2651,487.8002c.0037-.1735-.0074-.3233-.0378-.4486-.003-.0163-.0104-.0237-.0141-.04-.1105-.3826-.4071-.5376-.9832-.5354-9.2576.04-18.5145.0549-27.7722.0756h0c-.0022,3.7401-.0037,7.481-.0059,11.2211,4.013.0334,8.0267.0578,12.0397.1097.5791.0074,1.1938-.1906,1.7388.1817h-.0007c.3307.6065.0334,1.1656-.1513,1.721-1.9049,5.7259-7.7576,9.4437-13.2551,9.4957-.9046.287-1.81.287-2.7154,0-8.9885-.0119-17.0159-8.1461-17.446-17.0834-.0942-.1832-.1305-.3722-.1468-.5643-.1008-.476-.1046-.9625-.0727-1.4526v-1.3584c-.0371-.5042-.0282-1.0032.0756-1.4926.0163-.1876.0519-.373.1364-.5539.0415-2.9445,1.0144-5.6339,2.464-8.1268,3.0528-5.252,7.481-8.5614,13.6503-9.2643.1439-.0882.2959-.1246.4508-.1416.4049-.109.8238-.1164,1.2457-.106.6674.003,1.3354.0059,2.0028.0082.4353-.0208.8653-.0104,1.2828.1016.1505.0171.2981.0526.4405.1298,1.0989.2239,2.2512.3048,3.2863.697,3.7372,1.4148,6.6335,3.9033,8.769,7.2697.479.7556.9335.9017,1.7759.4308,3.1143-1.741,6.2686-3.4094,9.4274-5.0689.6814-.3589.8765-.7096.4308-1.3955-1.4266-2.1948-2.9831-4.2992-4.8783-6.0996-5.2016-4.9384-11.5036-7.4091-18.5835-8.0549h-5.5776c-1.6706.2477-3.359.413-5.0096.7578-7.3053,1.5267-13.4204,4.9955-18.057,10.9749-4.0486,5.2231-6.2204,11.1062-6.6713,17.6625v5.9016c.1654,1.8137.3329,3.6148.7675,5.4048,1.8145,7.4691,5.889,13.3626,12.1235,17.8086,4.6529,3.3182,9.8849,4.9962,15.5292,5.5234h7.5544c.8601-.135,1.7225-.2566,2.5797-.4071,6.8122-1.1975,12.4453-4.4505,16.7972-9.8197,4.2851-5.2876,5.9876-11.5696,6.7462-18.1831.0185-1.7307.0141-3.4613.0653-5.1905-.0007-.0282-.0007-.0615-.0015-.0882Z"/>
  <path class="cls-8" d="M725.4758,49.6026c-.5912.0498-1.1725.0261-1.7227-.2316.5809.0255,1.1987-.2203,1.7227.2316Z"/>
  <path class="cls-6" d="M208.8608,325.7309c-.0273-.5757-.0204-1.1463.2546-1.6762-.0436.5649.2055,1.1744-.2546,1.6762Z"/>
  <path class="cls-8" d="M167.5992,274.617c-.5703.0238-1.1378.0301-1.6586-.2608.5584.052,1.1643-.1982,1.6586.2608Z"/>
  <path class="cls-4" d="M637.7681,82.286c-9.3243-.2356-18.3921-2.0688-27.3591-4.4677-3.6492-.9763-7.2593-2.1031-10.8698-3.218-4.0301-1.2445-6.7961.2731-7.7243,4.3613-.1374.6054-.266.9409-.9753,1.0315-11.4676,1.4651-20.9366,7.1231-29.7003,14.2334-1.192.9671-2.3781,1.9584-3.445,3.0569-.7971.8207-1.5799.9387-2.6508.7099-10.7877-2.3044-21.433-2.4311-31.7777,2.1161-6.4289,2.8259-12.2537,6.5965-17.6382,11.0713-1.3073,1.0864-2.5887,2.2114-3.8012,3.401-.5653.5547-1.0228.6145-1.7291.3325-10.4161-4.1588-20.889-3.8234-31.375-.2931-.8583.289-1.5153.2492-2.3148-.1738-4.6497-2.4601-9.3098-4.9097-14.3077-6.6149-.7318-.2497-.9843-.6922-1.1455-1.4032-.9153-4.0385-1.1195-8.1572-1.1812-12.2589-.1502-9.9922.2299-19.9617,2.2246-29.8.3595-1.7733.8555-3.5102,1.6771-5.1386.5712-1.1321,1.2205-1.4303,2.4347-.6657,5.937,3.7386,11.7151,7.738,17.9406,11.0086,5.8478,3.0723,11.8886,5.6013,18.4342,6.7831,7.7895,1.4063,15.285.097,22.6265-2.4659,9.8362-3.4338,18.5224-8.9703,26.9357-14.9685,4.6458-3.3122,9.1993-6.7534,13.8248-10.0943,9.2803-6.7029,19.5911-10.1368,31.1053-9.6978,4.4467.1695,8.6449,1.3413,12.7006,3.1106,5.471,2.3867,11.0373,4.576,16.4011,7.1823,7.6935,3.7383,15.9764,5.7139,23.9853,8.5055,2.6898.9376,5.3577,1.9419,8.0121,2.9759,1.4354.5592,2.7403,1.3721,3.9128,2.3896,3.4833,3.0226,4.2745,6.9581,1.9431,10.9255-2.9731,5.0593-7.5563,7.6245-13.3639,8.0558-.9283.0689-1.8662.0097-2.7996.0097Z"/>
  <path class="cls-2" d="M450.4899,138.0517c8.9025-7.0709,18.549-12.5281,30.1103-13.966,8.5166-1.0592,16.5974.5645,24.377,3.8645,11.379,4.8268,22.3473,10.4576,32.5147,17.5322,6.271,4.3633,12.1647,9.1534,16.7309,15.4028,1.8502,2.5323,3.0134,5.0536,2.3259,8.342-.4654,2.226-.3514,4.5777-.444,6.8753-.0508,1.2615-.4794,1.9915-1.8696,2.1969-5.1376.759-10.2605,1.6171-15.3895,2.4348-.811.1293-1.3145-.4788-1.8947-.8524-11.8066-7.6008-23.8108-14.8596-36.2438-21.4072-10.9007-5.7407-22.4017-10.0246-33.9152-14.2899-5.0859-1.8841-10.2089-3.6683-15.3159-5.4954-.3495-.125-.7746-.11-.9861-.6377Z"/>
  <path class="cls-2" d="M640.6288,93.8471c5.3567.1436,10.1327-1.4246,14.6242-3.9535,3.9861-2.2443,7.3192-5.1765,9.6225-9.2022,1.7885-3.1262,3.6887-3.8457,7.1438-2.7564,4.7604,1.5008,8.8865,4.2562,13.0946,6.8092,9.3749,5.6877,18.6743,11.4968,27.6396,17.8249,8.3417,5.8879,16.3629,12.1554,23.6363,19.3485.9734.9626,1.0611,1.4092-.1432,2.3224-7.2629,5.5071-15.4693,8.0383-24.5136,8.1259-4.1136.0398-8.2093-.1712-12.304-.5699-1.1199-.109-1.3137-.5483-1.307-1.5347.0441-6.4749.005-12.9505.0761-19.4249.0134-1.2251-.3901-1.9653-1.3076-2.7731-4.5699-4.0231-9.8392-5.8327-15.8968-5.353-4.5492.3603-8.4926,2.4523-12.4348,4.4829-2.3358,1.2032-4.634,2.5086-6.6747,4.1909-.7926.6534-1.2976.3733-1.9418-.241-3.8086-3.6315-7.4577-7.4358-11.4856-10.8306-2.2191-1.8703-4.5372-3.6235-6.8202-5.4174-.331-.2601-.7428-.4255-1.0078-1.0479Z"/>
  <path class="cls-2" d="M590.4442,129.6213c-9.2908-1.1649-17.5264,1.0396-24.2635,7.7537-3.1975,3.1866-5.341,7.0723-6.7183,11.3539-.3275,1.0182-.5228,1.141-1.3315.4069-3.7302-3.3866-7.3628-6.8874-11.4081-9.9127-6.4154-4.7977-13.089-9.1967-20.1075-13.0674-4.1315-2.2786-8.3788-4.3137-12.7604-6.0617-1.047-.4177-.9434-.8294-.1778-1.4361,7.7526-6.1424,16.1963-10.5281,26.3492-11.0719,7.652-.4099,14.8786,1.309,21.9933,3.7595,10.5397,3.6301,19.6291,9.6271,27.7079,17.2332.2745.2585.641.4194.9646.6258-.0826.1389-.1652.2778-.2479.4167Z"/>
  <path class="cls-2" d="M645.2727,112.4503c-2.6752.7754-5.3247,1.7258-7.7693,3.2007-3.3498,2.0212-6.3766,4.4546-9.279,7.0506-.698.6243-1.2192.75-2.1557.3724-6.4665-2.6067-12.9622-3.0656-19.3817.1705-1.068.5384-2.0632,1.2567-3.0012,2.0057-.7773.6207-1.2326.5033-1.9138-.1858-7.8597-7.9504-16.3383-15.0955-26.4993-19.9983-1.7262-.8329-3.4959-1.5774-5.2577-2.3342-.8692-.3734-1.3623-.5922-.2586-1.4539,6.1793-4.8246,12.8932-8.5364,20.6944-9.9081,6.9679-1.2252,13.8368-.4838,20.6597,1.2614,11.3307,2.8983,21.1856,8.5294,30.1042,15.9461,1.3857,1.1524,2.7074,2.3817,4.0547,3.58.0263.0234.0033.1021.0033.293Z"/>
  <path class="cls-4" d="M654.6934,149.497c-.1259,8.3383.0538,16.6805-.33,25.0156-.2164,4.7005-.9713,9.2697-3.3037,13.4417-2.9015,5.1898-8.8337,8.2277-14.3388,7.3553-.695-.1101-1.3926-.31-2.0427-.5798-2.9826-1.2378-3.2719-1.7861-3.1636-5.0164.2039-6.0833.3664-12.168.5278-18.2527.291-10.9664.6061-21.9326.5162-32.9048-.0139-1.6988-.1074-3.3969-.165-5.0953-.0205-.6027-.0726-1.186.4581-1.6662,4.2527-3.8477,8.6195-7.5068,14.4278-8.7941,1.6627-.3685,3.3311-.6604,5.0448-.2162,1.2536.325,1.9749.94,2.0599,2.3565.4537,7.5664.2373,15.1395.3086,22.7094.0051.5489.0006,1.0978.0006,1.6468Z"/>
  <path class="cls-4" d="M687.213,137.5045c0,10.917-.0301,21.8341.0223,32.7508.0123,2.5591-.7356,4.6579-2.5369,6.5155-4.2246,4.3565-8.8266,8.0801-14.9248,9.4175-3.1438.6894-4.5586-.499-4.5302-3.6945.1296-14.536.2083-29.0729.4475-43.6072.0894-5.4315.0564-10.8611.0793-16.2913.0041-.9846.2418-1.5767,1.1315-2.0972,3.8376-2.2451,7.7846-4.2623,11.8679-6.0182,2.3476-1.0096,4.7397-1.2436,7.2261-.5567.9999.2762,1.3537.7861,1.3463,1.8588-.05,7.2406-.0261,14.4817-.0261,21.7226-.0344,0-.0687,0-.103-.0001Z"/>
  <path class="cls-4" d="M589.1186,163.3833c0,10.3112-.0023,20.6225.0019,30.9338.0008,2.0782.297,4.1502-.0421,6.2355-.7562,4.65-3.1982,7.8735-7.8063,9.1904-2.952.8437-5.9655,1.5215-9.0714,1.1422-2.8289-.3455-3.7701-1.3526-4.2225-4.1628-.9893-6.1458-1.0207-12.3148-.7438-18.5227.3883-8.7057.4831-17.4241.8213-26.1325.1566-4.0334.1408-8.1451,2.2319-11.829,3.1754-5.5941,7.7797-9.1026,14.3252-9.7569.0545-.0054.108-.021.1625-.0261,3.7933-.3511,4.3434.1361,4.3434,3.8459v19.0822Z"/>
  <path class="cls-4" d="M621.7133,140.857c-.0039,16.7789-.6035,33.5469-1.1511,50.3164-.0407,1.248-.4008,2.3094-1.2171,3.2922-2.5337,3.0502-5.1861,5.9691-8.5557,8.1261-2.7369,1.7521-5.5622,2.3113-8.4542.3324-1.2033-.8234-1.7966-1.8797-1.7392-3.4585.4241-11.67.7558-23.3433,1.1385-35.0149.2462-7.5059.5281-15.0106.7986-22.5157.0255-.7073.0159-1.4109.5703-1.9947,3.7929-3.9943,8.0054-7.3252,13.4867-8.7092.8118-.205,1.6251-.2628,2.4472-.2301,1.833.0729,2.6128.7884,2.6606,2.6225.0627,2.4097.0154,4.8222.0154,7.2335Z"/>
  <path class="cls-6" d="M616.4869,346.508c-.0252-.8757-.0504-1.7514-.0764-2.6264-.3767-.6251.0089-1.3466-.2529-1.9857-.3537-2.249-.657-4.5068-1.0692-6.7454-1.3317-7.2289-3.6882-14.1397-7.019-20.6701-4.2599-8.353-9.7893-15.7858-16.6852-22.2065-5.2157-4.8561-10.9475-8.9425-17.211-12.3022-8.6555-4.6448-17.9339-7.3216-27.6283-8.6667-.5302-.2269-1.1427.1105-1.6543-.2432-.6577-.0319-1.3154-.0645-1.9731-.0964-1.0952-.2365-2.2319.1461-3.3175-.2269-1.6024.0052-3.2048.0104-4.8071.0156-1.1071.3567-2.266-.0452-3.379.2306-.6421.0304-1.2843.0608-1.9264.0912-.5317.3226-1.1575-.0022-1.7003.2469-2.6145.4582-5.2424.8119-7.8443,1.3666-14.7373,3.1403-27.4392,10.0955-38.3675,20.3749-2.7243,2.5626-5.0422,5.4938-7.3987,8.4005-5.5583,6.8567-9.6566,14.4963-12.5558,22.7826-2.2215,6.348-3.7068,12.8784-4.0938,19.6231-.281.8891.1083,1.8374-.2388,2.7213-.0052,2.5901-.0104,5.1809-.0156,7.7709.3789.8601-.02,1.7892.2373,2.6598.2632,2.5678.3226,5.1764.8297,7.6953,1.1412,5.6584,2.6857,11.2056,4.9488,16.5518,3.8825,9.1724,9.3347,17.2962,16.2314,24.431,2.6827,2.7747,5.6732,5.2506,8.7727,7.5885,7.7909,5.8779,16.425,10.0681,25.7575,12.7686,5.4367,1.5735,11.0083,2.6442,16.703,2.8585,1.0841.3033,2.229-.1446,3.3056.261,2.1578-.0074,4.3155-.0148,6.4733-.0222.8839-.3315,1.8211.0104,2.7139-.2113.6525-.0341,1.3043-.0682,1.9561-.1023.5198-.3418,1.1397-.0059,1.675-.2462,1.7737-.2744,3.5614-.4805,5.3203-.8327,10.5827-2.1229,20.3972-6.1285,29.3501-12.1732,10.9475-7.3913,19.5059-16.9529,25.7619-28.5774,4.8294-8.9736,7.5678-18.5953,8.8402-28.6671.2736-.6444-.1097-1.3725.2543-2.005.0252-.869.0504-1.7381.0756-2.6071.1698-2.4077.1498-4.816.0074-7.2244ZM535.9956,403.3522c-27.2865-.4968-51.6225-21.8824-51.5862-53.1055.0371-31.7481,24.6319-53.8062,52.6428-53.6438,29.904-.1068,53.0269,23.5285,52.3559,54.9741-.6147,28.8192-24.5251,52.301-53.4125,51.7753Z"/>
  <path class="cls-6" d="M223.8447,425.6306c-5.3121-7.3038-10.6405-14.5964-15.9378-21.9113-9.7114-13.4108-19.3939-26.8431-29.1276-40.2375-.743-1.0225-.4938-1.2146.5643-1.5601,2.9734-.9706,5.8245-2.2119,8.5265-3.8425,7.4877-4.518,13.083-10.6835,16.8736-18.5649,2.1118-4.3926,3.2582-9.0359,4.1168-13.783.2566-.5331-.0905-1.1575.2551-1.6765.0274-.76.0549-1.5193.083-2.2794.1468-1.6387.1468-3.2782,0-4.9169-.3967-3.7231-.9069-7.4209-2.0414-11.0128-4.3237-13.6925-13.1668-23.1029-26.6288-28.1296-4.1776-1.5601-8.5547-2.3365-12.9295-3.0995-.525-.261-1.1486.1008-1.658-.2603-.4367-.026-.8735-.0512-1.3095-.0771-.6466-.2566-1.3703.1142-2.0043-.2462-.7608-.0304-1.5208-.0615-2.2816-.0927-1.1026-.2595-2.2497.1379-3.3442-.2291-11.7439-.0082-23.4885-.0171-35.2324-.0252v.0007h0c-.0363.5984-.1046,1.1975-.1046,1.7967-.0044,49.6479-.0044,99.2951,0,148.943,0,.5991.0682,1.1983.1046,1.7974,8.3478-.0015,16.6964-.0437,25.0427.0326,1.529.0141,2.0117-.2758,2.0058-1.9279-.0675-18.9424-.0452-37.8847-.0356-56.8271.0007-.5539-.1461-1.1538.2558-1.8285.439.6214.786,1.1063,1.1271,1.5972,13.4048,19.2879,26.8223,38.5684,40.176,57.8926.6703.9699,1.3703,1.0618,2.3194,1.0611,9.9406-.0074,19.8811-.0015,29.8217-.0133.5153,0,1.0633.1579,1.6098-.1527-.0949-.1661-.1587-.3055-.2469-.4271ZM165.8074,340.206c-5.2706,1.2531-10.6294,1.3985-16.012,1.374-1.1464-.0052-1.0255-.6318-1.0248-1.3569.0059-6.5808.0037-13.1616.0037-19.7424-.0007-6.5259-.0059-13.0519.0089-19.5778.0015-.6362-.3159-1.4682.912-1.4771,6.2575-.043,12.5188-.0578,18.5939,1.7136,6.2353,1.8182,11.4621,5.0785,13.4174,11.6497,3.0906,10.3832.5947,23.4937-15.8993,27.417Z"/>
  <path class="cls-3" d="M758.4279,491.4091c.0022-1.2976.0044-2.5953.0067-3.8929-.1268-.2121-.1565-.4367-.1646-.6636-.0719-.4338-.0882-.8742-.0793-1.3176-.1364-.6911-.2736-1.3829-.4093-2.0747-1.5586-7.9533-5.5086-14.4192-11.9634-19.3591-5.2402-4.01-11.2263-5.9935-17.7122-6.6742-1.7462.0067-3.4917.0133-5.238.02-16.5926,1.3644-28.4706,13.0964-30.079,28.7472-.2595.9751.149,2.005-.244,2.969.0074.4026.0141.8045.0215,1.2072.3396.8809-.0222,1.8196.2225,2.708.2217,2.7369.8683,5.3677,1.8196,7.9474,2.0095,5.4493,5.3336,9.9828,9.8212,13.5657,5.0726,4.0516,10.9572,6.3094,17.4497,6.9049.6466.0178,1.2947.0282,1.9383.0845.3626,0,.723.0215,1.0744.1557.4115.0044.8238.0082,1.2361.0126.3552-.1446.7207-.1683,1.0885-.1691.6243-.0526,1.2531-.0586,1.8804-.0742,7.9081-.8802,14.741-4.0745,20.3127-9.7455,4.9999-5.0874,7.7287-11.3375,8.7808-18.3521-.0119-.4501.0074-.8972.0801-1.3369.0089-.2262.0378-.4493.1572-.6622ZM725.5319,509.6181c-10.9127.0007-19.5104-9.0745-19.4837-20.5663.0245-10.7117,8.9366-19.6794,19.5519-19.6757,10.6895.0037,19.3984,9.0634,19.3821,20.1629-.0163,11.1062-8.7074,20.0783-19.4503,20.0791Z"/>
  <path class="cls-3" d="M678.5067,518.743c-5.6925-7.6404-11.3576-15.3009-17.0834-22.9153-.7015-.9321-.6021-1.2294.4671-1.5171,1.6847-.4538,3.2478-1.2398,4.6974-2.1867,4.5202-2.9541,6.5771-7.3653,7.2563-12.5558.1001-1.6357.1424-3.2715-.02-4.9065-.8549-5.8845-3.5533-10.4589-9.0419-13.2313-3.3234-1.6795-6.8559-2.2912-10.4811-2.6575h-.0126c-6.801.026-13.6021.0512-20.4031.0771-.0015,20.432-.0037,40.8641-.0059,61.2954,3.9989.0326,7.9978.0482,11.9953.106.2002.003.3018-.0512.4323-.0882.3722-.1572.5354-.4857.5806-1.001-.0104-.1728-.0274-.3485-.0274-.5116.0156-6.9056.003-13.8112.0208-20.7175.0015-.5806-.2076-1.2027.1861-1.7485.3989-.0356.5161.2662.697.5354,5.2624,7.8317,10.5323,15.6575,15.8014,23.4841,4.9955.149,9.9917.026,14.9872.0638.3856.003.7882.0356.9565-.4382-.3359-.3604-.7096-.6933-1.0025-1.0863ZM653.3484,486.183c-1.7959.3277-3.6.2936-5.4085.3433-.9239.026-1.09-.3715-1.0789-1.1723.0356-2.4692.0133-4.9384.0133-7.4076-.0007-2.4143.0386-4.8301-.0185-7.243-.0245-1.0166.3344-1.3125,1.3303-1.2991,1.9235.026,3.8454.0341,5.7244.4775,4.5536,1.0752,6.787,3.8647,6.6602,8.2492-.1261,4.3459-2.7391,7.2326-7.2222,8.052Z"/>
  <g>
    <path class="cls-3" d="M329.6227,520.2112c.2402.0007.3804-.172.3989-.4212-1.9435-2.5552-3.8951-5.1037-5.8282-7.6664-4.0649-5.3907-8.1268-10.7844-12.1725-16.1892-.5398-.7207-1.004-1.2064.5139-1.6706,4.3593-1.3347,7.9051-3.8499,9.9457-8.1179,1.8893-3.9522,2.3194-8.072,1.675-12.389-.6407-4.2933-2.4937-7.8599-5.8986-10.5464-3.9685-3.1328-8.7304-3.9581-13.5835-4.4557-6.1997.0104-12.3994.0549-18.5983.0007-1.2576-.0111-1.6365.3196-1.6454,1.5772,0,.0875.0015.1565.0015.2543-.0022,19.2657-.0015,38.5313-.0015,57.797,0,.1001-.0022.1995,0,.2988.0074,1.262.41,1.6076,1.6187,1.5853.1268-.0015.2543-.0015.3811-.0022,3.6697-.0964,7.3431-.0882,11.0142-.1209v-23.8889c.1335-.0497.2662-.1001.3997-.1498,5.367,7.9489,10.734,15.8985,16.1009,23.8474.1483.0697.2966.1995.4449.2002,5.0778.0282,10.1556.046,15.2334.0571ZM306.803,485.2235c-2.7532,1.348-5.7147,1.3317-8.6807,1.2835-.9209-.0148-.6688-.6896-.6718-1.1738-.02-2.4633-.0089-4.9273-.0089-7.3905s.0096-4.9273-.0067-7.3905c-.0044-.6644.0237-1.1434.9269-1.1404,2.5218.0074,5.0333.023,7.458.8572,3.3434,1.1493,5.0489,3.4302,5.3091,7.1184.244,3.4539-1.3614,6.3851-4.3259,7.8362Z"/>
    <path class="cls-3" d="M313.9444,519.9539c.0638.0734.112.1579.1839.221-.0615-.0756-.1223-.1594-.1839-.221Z"/>
  </g>
  <path class="cls-3" d="M267.1246,518.3478c-2.3061-5.6102-4.5966-11.2263-6.9004-16.8365-5.8423-14.2264-11.6972-28.4469-17.5165-42.6822-.413-1.0107-.9484-1.4237-2.0666-1.3399-1.4726.1105-2.9793.1787-4.4371-.0052-2.8177-.3559-4.3267.4671-5.4026,3.4139-2.424,6.6335-5.4174,13.0593-8.178,19.5704-5.5946,13.195-11.1885,26.39-16.7824,39.585,4.6092.4219,9.2228.2343,13.8357.0919,1.6276-3.8291,3.2759-7.6501,4.865-11.4947.3381-.8164.7526-1.1397,1.6765-1.1338,7.0628.043,14.1248.0423,21.1876.0022,1.0359-.0059,1.5668.3426,1.945,1.3028,1.5023,3.8165,3.0765,7.6041,4.624,11.4035,4.277.1023,8.5554.0208,12.8324.0334.3834.0015.9343.2232,1.0322-.4679-.2395-.4805-.5116-.9476-.7148-1.443ZM243.7258,496.7783c-4.4401-.0171-8.8802-.0104-13.3196-.0074-.5509,0-1.0322-.02-.7155-.8016,2.4551-6.061,4.9043-12.1235,7.4936-18.5264,2.4929,6.4125,4.8383,12.4535,7.1933,18.4915.2669.6851.0037.8461-.6518.8438Z"/>
  <path class="cls-3" d="M892.9761,477.632c-.1401-1.024-.2373-2.0554-.4271-3.0698-.9328-5.0111-3.3101-9.1242-7.4625-12.1969-3.5829-2.6509-7.7531-3.1922-11.9856-3.6007-7.0235.0289-14.0477.0571-21.072.0853-.0015,20.432-.0037,40.8641-.0052,61.2961,3.987.0319,7.9756.046,11.9626.1075.2069.003.3211-.0467.4493-.0882.0994-.0393.2054-.0749.2773-.1387.0363-.0349.063-.0749.0875-.1157.0452-.0586.0764-.135.1083-.2098.0564-.2744.0111-.6058.0119-.9076.0104-6.3406-.003-12.6819.023-19.0217.0022-.5532-.3048-1.1968.264-1.6758,2.8407-.2276,5.6843-.0875,8.5273-.0727.2195-.1216.4501-.1498.6822-.1572.4338-.0653.8727-.0779,1.3139-.069,4.257-.5791,8.224-1.8263,11.4866-4.8049,4.053-3.6993,5.3707-8.5206,5.7385-13.7467.1453-.5361.1194-1.0744.02-1.6135ZM873.3567,486.1229c-2.4937.5368-5.0237.3292-7.5411.396-.9439.0245-.8913-.5443-.8891-1.1738.0082-2.3587.003-4.7167.003-7.0747,0-2.3038.0104-4.6069-.0059-6.91-.0052-.6614.0245-1.1901.912-1.1901,2.7421.0007,5.4916-.0845,8.1684.6451,3.798,1.0344,5.7585,3.7112,5.6443,7.6308-.1223,4.2132-2.2519,6.807-6.2916,7.6768Z"/>
</svg>