<?xml version="1.0" encoding="UTF-8"?>
<svg id="Layer_1" data-name="Layer 1" xmlns="http://www.w3.org/2000/svg" viewBox="0 0 1080 589.8067">
  <defs>
    <style>
      .cls-1 {
        fill: #238186;
      }

      .cls-1, .cls-2, .cls-3, .cls-4, .cls-5, .cls-6, .cls-7, .cls-8, .cls-9, .cls-10, .cls-11, .cls-12, .cls-13, .cls-14, .cls-15, .cls-16, .cls-17, .cls-18, .cls-19, .cls-20, .cls-21, .cls-22, .cls-23, .cls-24, .cls-25, .cls-26, .cls-27, .cls-28, .cls-29, .cls-30, .cls-31, .cls-32, .cls-33, .cls-34, .cls-35, .cls-36, .cls-37, .cls-38, .cls-39, .cls-40, .cls-41, .cls-42, .cls-43, .cls-44, .cls-45, .cls-46, .cls-47, .cls-48, .cls-49, .cls-50, .cls-51, .cls-52, .cls-53, .cls-54, .cls-55, .cls-56, .cls-57, .cls-58, .cls-59, .cls-60, .cls-61, .cls-62, .cls-63, .cls-64, .cls-65, .cls-66, .cls-67, .cls-68, .cls-69, .cls-70, .cls-71, .cls-72, .cls-73, .cls-74, .cls-75, .cls-76, .cls-77, .cls-78 {
        stroke-width: 0px;
      }

      .cls-2 {
        fill: #2b386c;
      }

      .cls-3 {
        fill: #1d98d0;
      }

      .cls-4 {
        fill: #1c626d;
      }

      .cls-5 {
        fill: #239294;
      }

      .cls-6 {
        fill: #75cbec;
      }

      .cls-7 {
        fill: #2279ad;
      }

      .cls-8 {
        fill: #1da5a3;
      }

      .cls-9 {
        fill: #238e90;
      }

      .cls-10 {
        fill: #293e71;
      }

      .cls-11 {
        fill: #7acced;
      }

      .cls-12 {
        fill: #0aafde;
      }

      .cls-13 {
        fill: #2282b7;
      }

      .cls-14 {
        fill: #62c4e9;
      }

      .cls-15 {
        fill: #1fb7e4;
      }

      .cls-16 {
        fill: #1f5b68;
      }

      .cls-17 {
        fill: #1f787f;
      }

      .cls-18 {
        fill: #2188bf;
      }

      .cls-19 {
        fill: #7fcded;
      }

      .cls-20 {
        fill: #2b3266;
      }

      .cls-21 {
        fill: #245d91;
      }

      .cls-22 {
        fill: #02a8d8;
      }

      .cls-23 {
        fill: #196772;
      }

      .cls-24 {
        fill: #206b9e;
      }

      .cls-25 {
        fill: #5cc3e9;
      }

      .cls-26 {
        fill: #217d83;
      }

      .cls-27 {
        fill: #2170a4;
      }

      .cls-28 {
        fill: #1a6f78;
      }

      .cls-29 {
        fill: #0bacdb;
      }

      .cls-30 {
        fill: #2a2e62;
      }

      .cls-31 {
        fill: #218dc4;
      }

      .cls-32 {
        fill: #6ec9eb;
      }

      .cls-33 {
        fill: #66c6ea;
      }

      .cls-34 {
        fill: #1f5260;
      }

      .cls-35 {
        fill: #2185bc;
      }

      .cls-36 {
        fill: #16a6df;
      }

      .cls-37 {
        fill: #1f4c5b;
      }

      .cls-38 {
        fill: #238a8e;
      }

      .cls-39 {
        fill: #226195;
      }

      .cls-40 {
        fill: #17a3dc;
      }

      .cls-41 {
        fill: #196b75;
      }

      .cls-42 {
        fill: #1fa09f;
      }

      .cls-43 {
        fill: #2275aa;
      }

      .cls-44 {
        fill: #1aaba7;
      }

      .cls-45 {
        fill: #1c737b;
      }

      .cls-46 {
        fill: #52c0e7;
      }

      .cls-47 {
        fill: #2280b4;
      }

      .cls-48 {
        fill: #16b2ac;
      }

      .cls-49 {
        fill: #207a81;
      }

      .cls-50 {
        fill: #1f3e50;
      }

      .cls-51 {
        fill: #26588b;
      }

      .cls-52 {
        fill: #1ca8a5;
      }

      .cls-53 {
        fill: #1a6570;
      }

      .cls-54 {
        fill: #1da4a1;
      }

      .cls-55 {
        fill: #2a2a5e;
      }

      .cls-56 {
        fill: #284175;
      }

      .cls-57 {
        fill: #12b4e2;
      }

      .cls-58 {
        fill: #1d5f6b;
      }

      .cls-59 {
        fill: #19aea9;
      }

      .cls-60 {
        fill: #45bee6;
      }

      .cls-61 {
        fill: #2a265b;
      }

      .cls-62 {
        fill: #28497c;
      }

      .cls-63 {
        fill: #249697;
      }

      .cls-64 {
        fill: #219d9c;
      }

      .cls-65 {
        fill: #23878a;
      }

      .cls-66 {
        fill: #284578;
      }

      .cls-67 {
        fill: #08acdb;
      }

      .cls-68 {
        fill: #249999;
      }

      .cls-69 {
        fill: #0bafdd;
      }

      .cls-70 {
        fill: #1d767d;
      }

      .cls-71 {
        fill: #227cb1;
      }

      .cls-72 {
        fill: #fff;
      }

      .cls-73 {
        fill: #205664;
      }

      .cls-74 {
        fill: #2a5f8f;
      }

      .cls-75 {
        fill: #11a7d3;
      }

      .cls-76 {
        fill: #284d81;
      }

      .cls-77 {
        fill: #295285;
      }

      .cls-78 {
        fill: #57c1e8;
      }
    </style>
  </defs>
  <path class="cls-72" d="M119.4731,192.2503c18.1339-.2378,32.8359,7.7765,46.1673,19.1215,1.4646,1.2464,1.8481,2.2193.5826,4.0258-4.3339,6.1868-8.5079,12.4884-12.6018,18.8369-1.1043,1.7124-1.7447,1.9555-3.0942.291-1.4901-1.838-3.1987-3.509-4.89-5.1738-8.7534-8.6163-22.6491-11.0895-33.8405-5.9243-6.9022,3.1856-11.1028,8.6683-11.3501,16.2388-.2547,7.7945,1.4736,15.2758,9.1061,19.4269,8.193,4.456,16.6391,8.4481,24.9639,12.6641,7.2941,3.694,14.3689,7.7255,20.4517,13.284,18.6583,17.0503,21.0769,38.1085,14.9245,61.1209-6.4092,23.9728-32.1739,40.8414-59.1006,39.113-23.2393-1.4917-38.7954-14.4883-51.2529-32.6417-1.5605-2.2739-1.0252-3.4653.8584-5.1005,5.4907-4.7667,10.9055-9.6309,16.1499-14.6644,2.2545-2.1638,3.0124-2.3096,4.7498.7526,7.138,12.5807,17.5418,21.0277,32.5279,21.6325,20.7935.8391,32.7343-18.7379,23.0621-37.149-3.3687-6.4123-8.5649-10.8515-14.7709-14.3502-6.4845-3.6557-13.5391-5.9971-20.3073-8.996-16.5844-7.3483-28.7386-18.7504-33.453-36.7695-7.4777-28.5808,9.0527-57.5324,36.5196-64.1543,4.7866-1.154,9.6688-1.5523,14.5975-1.5842Z"/>
  <path class="cls-72" d="M317.8231,354.6619c.0006,4.8918-.3106,9.8098.1007,14.6669.3193,3.7701-1.3053,5.6639-4.3835,7.1704-27.9598,13.6826-55.5766,13.2456-81.5935-4.0388-25.8244-17.1565-39.0836-42.3857-41.8126-72.9826-2.5989-29.1388,4.8316-55.4447,23.7644-78.19,24.8167-29.8141,67.5192-37.8983,99.7898-18.9406,2.9744,1.7473,4.3485,3.6501,4.2402,7.3172-.3018,10.2194-.0914,20.4535-.1266,30.6816-.0033.9754.5595,2.3976-.4467,2.8412-1.0787.4756-1.6099-.9907-2.2779-1.6714-8.0906-8.2438-17.4192-14.2797-29.0652-16.0479-19.094-2.8991-34.3746,4.3172-46.6752,18.3538-23.5236,26.8435-21.0891,71.6633,4.9831,96.0652,19.8832,18.6094,48.5827,18.4578,68.254-.3687,1.0712-1.0252,2.0504-2.1471,3.1358-3.1562.482-.4481.8425-1.5287,1.6489-1.0018.408.2666.4416,1.2808.4454,1.958.0321,5.781.0184,11.5623.019,17.3435Z"/>
  <path class="cls-72" d="M611.1754,305.1408c0-25.3455-.0636-50.6913.0753-76.0361.0187-3.4045-.7454-4.5448-4.3592-4.4601-10.8392.254-21.6895.0052-32.5327.1521-2.6931.0365-3.5624-.6245-3.5-3.4286.1916-8.5925.3135-17.2018-.038-25.7842-.1646-4.0167,1.3874-4.4757,4.8206-4.458,25.2553.1303,50.5116.0704,75.7676.0704,10.8452,0,21.695.1771,32.5332-.0969,3.7455-.0947,4.4115,1.25,4.3296,4.565-.2051,8.2952-.2117,16.6026.0046,24.8973.0839,3.2149-.6378,4.3497-4.1228,4.265-10.3933-.2525-20.8013.0828-31.194-.1834-3.7021-.0949-4.6621.9061-4.6527,4.6078.1269,50.246.0124,100.4927.2069,150.7383.0179,4.6254-1.2434,5.6706-5.6472,5.5018-9.1974-.3526-18.4223-.2701-27.6266-.0228-3.463.093-4.1539-1.0593-4.1372-4.2915.1309-25.3448.0726-50.6906.0726-76.0361Z"/>
  <path class="cls-72" d="M779.848,305.5584c0,25.0498-.0684,50.1.0775,75.1489.0207,3.5381-.6665,4.8986-4.5572,4.7739-9.3502-.2996-18.7244-.3185-28.0729.0067-4.0231.1399-4.4513-1.4249-4.4444-4.8404.1014-50.2477.006-100.4958.1815-150.7431.0154-4.3862-1.1555-5.4076-5.3937-5.2748-10.3896.3256-20.7973.0281-31.1954.1608-2.6186.0334-3.6244-.5202-3.5614-3.3921.1952-8.8892.2338-17.7898-.0145-26.6763-.0904-3.2326,1.2657-3.573,3.902-3.5643,21.2452.0698,42.4907.0389,63.7361.0389,14.8569,0,29.7172.1736,44.5685-.1128,4.1027-.0791,4.8975,1.19,4.7696,4.9552-.2867,8.4391-.2152,16.8974-.0194,25.3416.0652,2.8126-.8125,3.4544-3.5006,3.4169-10.6948-.1493-21.3961.0824-32.0883-.1432-3.5016-.0739-4.4919.8752-4.4703,4.4214.1549,25.4936.0829,50.9885.0829,76.483Z"/>
  <path class="cls-36" d="M345.4499,251.3135c11.6921-31.4666,33.0706-53.6855,64.0306-66.7569,2.1384.4917,2.9857,2.3365,3.9968,3.9315,18.2384,28.7724-.3096,67.7114-34.1697,72.0948-10.9128,1.4127-20.8987-.7194-30.3542-6.0227-1.4104-.7911-2.9099-1.5495-3.5035-3.2467Z"/>
  <path class="cls-50" d="M358.4686,351.9114c-10.2919-14.1494-16.1134-30.0615-18.5054-47.2692-1.7845-12.8379-1.3519-25.6444,1.1653-38.3702,3.8674-.3731,5.059,3.636,7.9703,4.8307,1.3306,1.2051,2.5321,2.5448,3.8826,3.7306,1.6375,1.427,3.5046,2.5767,5.0399,4.1236.8644.7426,1.8449,1.3268,2.7773,1.9758.9223.6417,1.8982,1.208,2.7766,1.9137,1.2478,1.1589,2.7887,1.8546,4.2578,2.6648,1.3883,1.0205,2.8798,1.8631,4.4497,2.5738,1.5816.8189,3.0207,1.8789,4.6186,2.6704,2.4604,1.4961,5.2338,2.2862,7.8378,3.458,2.5228,1.5014,5.3287,2.3672,8.0005,3.534,2.4522,1.2357,5.01,2.2082,7.6203,3.0533,3.9472,1.2506,8.109,1.9179,11.6469,4.272.8451,1.3393-.1705,1.8152-1.0987,2.3139-6.2992,3.3847-12.5258,6.8336-18.5005,10.8329-7.8007,5.2216-14.4711,11.5456-20.7475,18.3814-3.7948,4.133-7.391,8.4261-10.2495,13.2977-.5915,1.0081-1.1297,2.571-2.9421,2.0125Z"/>
  <path class="cls-33" d="M532.4279,210.1514c1.9378,2.1142,3.8757,4.2283,5.8136,6.3424-.9277,1.1141-2.1214.933-3.2727.5714-5.8209-1.828-10.4292.5916-14.7122,4.1387-6.7514,5.5915-10.671,13.0608-13.5961,21.068-4.2623,11.6677-5.8534,23.7509-6.0731,36.1925-.2791,15.8021,1.6924,31.0989,8.0899,45.5869,3.2404,7.3385,7.3153,14.1931,15.0237,18.1065,6.731,3.4172,12.6481,2.0095,18.2748-2.189,7.225-5.3912,10.9643-13.1751,13.9113-21.3133,4.9649-13.7107,6.3011-27.9695,5.9009-42.467-.0578-2.0932-1.1604-4.8074,1.8087-6.1435,2.6933,20.5794,1.3341,40.7883-6.0018,60.3422-2.6468,7.055-5.8434,13.9128-10.6413,19.8673-4.1205,2.8955-8.1585,5.8479-13.4867,6.304-9.6347.8248-16.4467-4.0064-22.161-10.8828-6.1596-7.4124-9.875-16.1399-12.5783-25.2695-4.3979-14.8522-6.3895-30.1015-5.6046-45.5384.7675-15.0926,3.2882-29.9436,9.2128-44.0288,2.7238-6.4756,6.7654-12.1244,10.9291-17.7116,6.0996-2.8279,12.4317-4.1851,19.163-2.9759Z"/>
  <path class="cls-32" d="M563.5967,270.0449c-1.4238,2.0247-.7346,4.3286-.6699,6.4665.4505,14.8817-1.0555,29.481-6.2743,43.5172-3.1225,8.398-7.5228,16.0067-14.6497,21.7974-6.8878,5.5964-19.5454,3.7573-25.5879-3.3886-10.0543-11.8903-14.2525-25.9809-15.972-40.9927-2.1708-18.9521-1.6169-37.734,5.2442-55.8443,3.7152-9.8064,8.6623-18.707,18.1993-24.3652,4.8599-2.8833,9.514-1.668,14.3532-.7412,13.0467,13.9942,20.7151,30.6732,24.6612,49.204.3052,1.4334.4674,2.8972.696,4.3468Z"/>
  <path class="cls-3" d="M413.1108,183.0058c2.9513-.9067,5.9026-1.8134,8.854-2.72,5.9859,7.5516,8.9718,16.3326,10.0188,25.7333,1.9884,17.854-2.5497,33.8489-14.8937,47.173-13.6828,14.7692-30.714,21.2851-50.8321,19.3891-6.5572-.618-12.7759-2.6626-18.8032-5.2732-2.0476-.8869-4.0897-1.79-5.5648-3.5689.5137-2.7668.984-5.5455,2.2445-8.1065,1.9622-.8046,3.4166.4663,4.9501,1.2631,34.4668,17.9078,74.2675-6.5475,73.4458-45.2068-.1894-8.9108-3.0224-17.1273-7.5666-24.7751-.7362-1.2389-2.0087-2.2423-1.853-3.9079Z"/>
  <path class="cls-60" d="M525.3575,374.8548c-2.9957,2.7688-5.953,5.5881-9.7041,7.3663-17.2035-12.3082-25.1398-30.3629-30.398-49.8183-9.2363-34.1752-9.0677-68.482-.2909-102.7599.441-1.7221.9326-3.4315,1.7552-5.0241.2254-.4455.5154-.8457.8553-1.211,2.4747-1.2484,4.5292-4.0651,7.8744-2.1372.7296,3.1349-1.0589,5.7427-1.8516,8.5444-10.559,37.3203-10.3797,74.318,3.3946,110.8762,2.6252,6.9676,6.3479,13.374,10.8979,19.3137,3.6883,4.8148,8.2022,8.519,13.6292,11.1991,1.6175.7988,3.8886,1.0513,3.8381,3.6509Z"/>
  <path class="cls-61" d="M495.0138,220.7674c-2.3314,1.023-4.6628,2.0459-6.9942,3.0689-1.6198-1.5033-1.3927-3.5104-1.3492-5.392.2599-11.238-.2758-22.3799-3.423-33.2749-.3882-1.3439-.8464-2.8957.2708-4.2384,15.1273,3.7323,28.1397,11.5187,40.1892,21.0637,3.112,2.4652,6.3594,4.8605,8.7204,8.1574-6.1934,1.2999-12.677,1.1493-18.62,3.7034-1.0101.7932-2.1906,1.2319-3.3884,1.636-1.7673.5202-3.5327,1.0499-5.2329,1.7702-1.4804.6375-3.0135,1.1402-4.5009,1.7607-1.8907.5786-3.4599,2.21-5.6717,1.745Z"/>
  <path class="cls-15" d="M487.9385,224.4765c-3.9113,11.8079-5.9101,23.951-7.2465,36.3101-1.1372,10.5175-1.157,21.0385-.6014,31.477,1.3376,25.1283,6.3061,49.4578,19.6372,71.3526,3.7048,6.0849,8.2999,11.5109,14.2805,15.6145.9796.6722,2.6115,1.1726,1.645,2.9902-2.4598,2.0737-4.9678,4.07-8.1154,5.0415-3.138-1.0827-4.89-3.7381-6.8643-6.1068-4.5749-5.4887-7.7871-11.8758-11.6848-17.8113-.2802-.314-.5091-.6623-.7042-1.0336-.5508-1.3444-.5398-2.8235-1.0138-4.1877-.2997-1.1722-.5055-2.3676-.8849-3.5208-.2961-.9737-.6007-1.9438-.9495-2.9016-.5908-1.8148-1.1513-3.6384-1.9618-5.377-.5634-1.3059-1.0567-2.6291-1.2323-4.0515-6.485-21.286-9.2145-43.1438-8.8241-65.2811.2789-15.8139,1.8004-31.6096,6.0117-46.9829.1184-.4573.2821-.9079.4694-1.3432.9896-1.9033,2.9889-2.5358,4.6235-3.6334.5198-.3603,1.0646-.6796,1.6609-.9012.6367-.1562,1.2266-.0587,1.7548.3461Z"/>
  <path class="cls-48" d="M485.2173,396.8977c-18.1718,5.267-36.5606,6.0759-55.1543,2.6707-.528-2.3632,1.0492-3.9304,2.2646-5.5342,12.5101-16.5083,37.1675-17.3622,50.8958-1.7933,1.166,1.3223,2.5073,2.6035,1.9939,4.6568Z"/>
  <path class="cls-31" d="M341.89,263.739c6.123,2.015,11.7692,5.2424,18.1822,6.583,18.7241,3.9141,35.4626-.1588,50.1314-12.2594,12.7896-10.5504,19.769-24.0639,20.7829-40.8119.7455-12.3145-1.8417-23.5813-8.1907-34.0589-.5722-.9443-.8546-1.8513-.831-2.9061,1.2013-.2956,2.4025-.5912,3.6038-.8869,1.8317.6111,2.78,2.0614,3.6687,3.6539,12.1873,21.8385,9.7037,50.6753-6.1152,70.0029-14.221,17.3754-32.6696,25.4281-55.0454,24.2177-6.7935-.3675-13.5498-1.604-19.4736-5.4313-2.9742-1.2102-4.3058-4.6167-7.4753-5.5674.2544-.847.5082-1.6914.762-2.5357Z"/>
  <path class="cls-46" d="M495.0138,220.7674c1.6314-1.204,3.3998-2.1034,5.4266-2.4281,1.1654,1.6374.2237,3.1504-.3776,4.6058-6.0461,14.6356-9.0463,29.8601-10.2048,45.6581-1.7491,23.8505,1.1208,46.8742,9.9846,69.1212,2.9959,7.5194,7.2308,14.3067,12.7341,20.1944,4.4369,4.7467,9.8062,8.1371,16.5631,8.7012,1.3181.11,2.7029.1021,3.6501,1.289-2.1766,2.6357-4.5378,5.0748-7.4323,6.9459-2.572-2.8292-6.5214-3.1658-9.5244-5.3598-9.6083-7.0197-15.1523-16.9133-19.6648-27.4215-10.4555-24.348-12.1446-50.1008-10.7008-76.0688.7672-13.7988,3.3596-27.4753,8.2809-40.5589.5662-1.5054.8504-3.1164,1.2652-4.6784Z"/>
  <path class="cls-25" d="M504.9071,216.5932c1.6107-1.1106,3.4168-1.6409,5.35-1.7937.5393,1.2552.0053,2.2919-.664,3.3095-10.3018,15.6629-14.1735,33.2316-15.4721,51.5951-1.3273,18.7705.2994,37.1927,6.3521,55.0933,2.9123,8.6129,6.8738,16.6992,13.1788,23.4228,7.7851,8.3019,16.7463,11.5663,26.7129,6.8611.7916-.3737,2.3536-2.1357,2.961.4227-2.0072,3.2506-4.2593,6.3015-7.2005,8.7905-6.5136,2.6924-12.2481.3067-17.695-2.9591-8.64-5.1804-13.8307-13.3221-17.9013-22.156-8.6468-18.7657-11.6631-38.8327-11.4802-59.1864.1784-19.8592,2.7085-39.5434,11.6737-57.7772,1.0466-2.1287,2.0359-4.3069,4.1845-5.6224Z"/>
  <path class="cls-27" d="M384.4074,294.9532c-2.8403-.7849-5.6637-1.6065-7.9363-3.6275,2.412-1.814,5.3781-1.4602,8.0952-1.9291,22.5812-3.8972,40.3956-15.1504,52.9777-34.2859,8.1828-12.445,12.3807-26.3428,12.5343-41.1553.1144-11.0324-2.4141-21.7408-6.7524-31.9847-.6922-1.6344-2.9518-4.1501.9058-5.2657.9021-.0074,1.8042-.0148,2.7063-.0223,1.2658.9075,1.84,2.2607,2.4402,3.6286,20.7864,47.3793-7.4065,102.9989-57.9289,114.298-2.3451.5245-4.6738.6492-7.0417.3438Z"/>
  <path class="cls-40" d="M413.1108,183.0058c5.6894,5.6941,8.1359,13.0356,9.6431,20.5594,3.4343,17.1434-1.3222,32.4285-13.1092,44.9586-8.4729,9.0071-19.3069,14.3015-32.1001,15.3028-12.1554.9514-23.1115-2.0634-33.4099-8.1942.4383-1.4396.8768-2.8793,1.3152-4.319,7.5777,4.8835,15.852,8.082,24.8311,8.6335,11.3318.696,21.5896-2.9026,30.6858-9.577,19.657-14.4234,25.3264-43.9425,8.5137-65.8134.9853-1.0408,2.3804-1.1265,3.6303-1.5507Z"/>
  <path class="cls-24" d="M384.4074,294.9532c8.9624-1.9257,17.8624-4.1519,25.9601-8.5652,24.6917-13.4573,39.5726-33.846,43.7829-61.8415,2.2587-15.0191-.0008-29.3276-5.6933-43.2515-.6111-1.4948-1.0177-3.0728-1.5192-4.6122,1.1967-.0027,2.3934-.0053,3.5902-.008,2.015.8346,2.639,2.7105,3.3204,4.5055,8.9629,23.6117,8.1322,46.904-2.3402,69.8685-.4915,1.0779-1.0068,2.1456-1.4831,3.2242-2.1162,5.9905-7.4447,9.476-11.388,13.9658-7.2984,8.3098-15.1708,16.1514-23.9641,22.9665-1.2729.9865-2.5023,2.1046-4.167,2.4571-4.2392.8593-8.1636,2.7063-12.2919,3.9203-1.8697.5499-3.7074,1.0612-5.6744.8502-2.9222-.6679-5.7388-1.5818-8.1323-3.4797Z"/>
  <path class="cls-37" d="M358.4686,351.9114c5.8255-8.4857,12.2315-16.4692,19.6806-23.6309,5.3315-5.1259,11.2757-9.3573,17.4203-13.4199,5.3008-3.5047,10.9431-6.3144,16.5829-9.1659,4.5483-1.1429,8.3441.9819,12.2115,2.7919,1.1178,2.4969-1.1304,2.5992-2.4095,3.0759-7.6065,2.8346-15.102,6.0396-21.9091,10.3753-12.9737,8.2633-23.3984,19.2429-32.046,31.9359-1.2252,1.7984-1.8821,4.5301-4.9892,4.2237-1.9982-1.7081-3.3749-3.8702-4.5416-6.1859Z"/>
  <path class="cls-43" d="M444.2315,176.7051c-1.5601.9175-1.0804,2.0466-.4917,3.3523,4.2817,9.4963,6.8981,19.497,7.4655,29.8412.6114,11.1477-1.3964,22.0708-5.6464,32.4111-7.6653,18.6499-20.5412,32.6535-38.8051,41.4127-9.5245,4.5678-19.6036,7.3887-30.2826,7.6032-1.9488-.1393-3.1422-1.6034-4.597-2.609,3.4251-2.3117,7.4744-1.4461,11.1917-1.9392,32.6233-4.3273,60.2067-31.8544,63.3552-64.2096,1.3774-14.1548.1653-28.15-6.7586-41.0847-.6798-1.2698-1.5558-2.5959-.8166-4.1841,1.7317-.7713,3.5569-.6992,5.3858-.594Z"/>
  <path class="cls-5" d="M487.1414,354.4812c1.1495.9563.7519,2.289.8555,3.4997.6639,3.3018-1.6049,2.0471-2.827,1.6099-3.3475-1.1973-6.5762-2.7241-10.0506-3.5742-22.0736-5.4007-41.7141-1.2159-58.4402,14.6634-4.9906,4.738-9.306,9.9381-12.3687,16.1423-.7507,1.5208-1.523,3.449-3.9634,2.4557-1.3295-.2647-2.5175-.7977-3.4514-1.8123,4.3312-11.0698,11.8811-19.7301,21.1101-26.8657,13.5857-10.504,29.268-14.632,46.297-13.3978,6.6419.4814,13.1736,1.9772,19.3418,4.6904,1.3675.6015,2.6959,1.2348,3.4969,2.5884Z"/>
  <path class="cls-59" d="M485.2173,396.8977c-11.2014-18.8271-39.9996-19.6241-52.5509-1.4451-.9217,1.3349-1.7381,2.7422-2.6034,4.1158-1.8325-.4102-3.8103-.238-5.4657-1.3578-1.2082-1.8901-.0641-3.4737.8453-4.9202,13.8517-22.0331,46.2803-25.4881,63.9872-3.0964,1.2135,1.5345,3.0612,3.3032.3191,5.2031-1.5105.5002-3.0211,1.0004-4.5316,1.5006Z"/>
  <path class="cls-38" d="M484.4259,346.4739c1.25,1.5575,1.679,3.4007,1.8635,5.329-1.5114,1.2298-2.7741.0483-4.1107-.4214-18.491-6.4982-36.6499-5.7164-54.198,3.0494-12.6541,6.3211-22.1362,16.0891-28.9998,28.4216-.863,1.5506-1.0595,3.9252-3.7539,3.6681-1.164-.1585-2.0223-.8061-2.728-1.6977-.7678-1.9414.3794-3.4731,1.2282-4.9662,15.1827-26.7055,38.4135-39.4846,68.9437-38.8125,7.4568.1641,15.1238,1.166,21.755,5.4298Z"/>
  <path class="cls-78" d="M504.9071,216.5932c-9.7521,17.5674-13.4975,36.5355-14.4254,56.4647-.9309,19.9895,1.2375,39.3657,8.072,58.1469,4.0767,11.2028,9.3921,21.7229,19.773,28.6241,5.0396,3.3502,10.4158,5.6498,16.7106,3.8505.2807-.0802.7217.3973,1.088.6151-.7974,1.4941-1.921,2.6885-3.3362,3.6144-12.1409.6429-19.8031-6.3558-26.1883-15.4015-8.891-12.5954-13.1905-26.9972-15.8807-41.9031-1.9624-10.8739-3.1231-21.8939-2.7222-32.9685.7135-19.7079,3.6339-38.9989,11.8208-57.1894.2978-.6617.4184-1.4028.6216-2.1069,1.3152-1.0245,2.8198-1.5665,4.4667-1.7461Z"/>
  <path class="cls-1" d="M388.1591,382.0525c-.9865-.1663-1.6178-.82-2.1741-1.5767,1.6135-6.5154,5.6483-11.7306,9.7082-16.7507,12.1664-15.0439,27.9343-24.4206,46.8873-28.4354,12.2573-2.5964,24.4414-1.8918,36.5717.9046,2.2479,1.0287,2.7355,3.0531,2.9627,5.225-1.6796,2.3721-3.8206.9243-5.65.4825-15.7935-3.8145-31.1832-2.6032-46.2155,3.451-16.3059,6.5671-28.4562,17.8-37.1902,32.9126-1.0562,1.8275-1.4821,4.8446-4.9002,3.7871Z"/>
  <path class="cls-65" d="M388.1591,382.0525c1.8582.0103,2.3804-1.4456,3.0993-2.7446,12.7765-23.0836,32.0136-36.581,58.4358-40.1113,9.2956-1.242,18.1529-.1421,27.1427,1.6074,1.5316.2981,3.2068,1.9445,4.9104.262,1.6759-.368.9867,1.4217,1.7384,1.8968.3133,1.1704.6265,2.3409.94,3.5112-5.9556-.9913-11.6315-3.0471-17.6964-3.8574-9.3237-1.2458-18.3183-.3517-27.174,2.1003-21.868,6.055-37.4018,19.6937-47.0563,40.1059-1.7326-.4776-3.0932-1.5351-4.3399-2.7703Z"/>
  <path class="cls-71" d="M367.4031,286.0529c-1.7651-.4202-3.3192-1.1826-4.4057-2.7036,1.1394-1.2956,2.6489-1.1436,4.1303-1.0182,20.8785,1.7672,39.0045-4.7555,53.9745-19.0764,20.7465-19.8469,26.6932-49.448,15.9862-76.0633-.7736-1.923-1.5282-3.8545-2.3171-5.7721-.5373-1.306-1.4146-2.8094.5491-3.8218.6017-.0293,1.2033-.0587,1.8049-.088,4.8857,6.4206,7.1314,13.9586,8.5518,21.6655,7.3679,39.9786-16.7301,76.9669-56.332,86.4237-7.1864,1.7161-14.5779,2.8544-21.942.4542Z"/>
  <path class="cls-18" d="M348.6032,271.8422c8.6623,2.467,17.2883,4.8794,26.4926,4.4023,14.0368-.7276,26.454-5.3172,37.4167-14.1458,12.559-10.1142,20.0317-23.181,22.4686-38.9112,2.426-15.66-.4324-30.4429-9.4124-43.7886,1.4645-.3546,2.8299-1.1822,4.4232-.9222.2902.3702.4548.7895.506,1.2561,1.6849,4.4281,4.0604,8.5755,5.408,13.1325,7.3157,24.738,2.591,46.7906-14.945,65.9033-12.7513,13.8978-28.9712,20.432-47.5198,20.8273-7.1122.1516-14.6212-.0541-21.0584-4.2832-1.5548-.8371-2.7323-2.0831-3.7794-3.4705Z"/>
  <path class="cls-13" d="M429.9916,179.2118c.0001-.245.0002-.4901.0003-.7351.8695-.1002,1.7391-.2003,2.6086-.3005,2.4941,1.7331,3.0907,4.5992,4.187,7.1324,11.833,27.3435,6.0849,57.9916-15.4617,78.4495-15.6484,14.8577-34.6671,21.1088-56.2793,19.0575-1.6128-.1531-3.1791-.6601-4.7003-1.2486-.8849-.5718-1.7697-1.1436-2.6546-1.7155.0756-2.48,1.9451-1.8869,3.2265-1.6404,11.885,2.2863,23.5836,1.4671,34.7787-2.9617,23.6159-9.3425,37.9817-26.4596,42.3509-51.6323,2.6298-15.1516-.3015-29.3148-7.5816-42.7119-.2889-.5316-.4437-1.0935-.4745-1.6935Z"/>
  <path class="cls-7" d="M367.4031,286.0529c14.6496.787,28.6277-1.5959,41.4215-9.0932,20.6513-12.1019,32.7597-29.9293,36.4008-53.6517,2.3767-15.4847-.8326-29.8342-7.4324-43.7067-.3116-.6551-.4491-1.3926-.6677-2.0917.5735-.0701,1.147-.1402,1.7204-.2104,10.3684,18.8977,12.2983,38.8617,5.5937,59.0953-8.8527,26.7162-27.5911,43.4783-54.9937,50.3824-5.7395,1.4461-11.6246,2.0893-17.5705,1.9394-1.764-.4323-3.349-1.1619-4.4722-2.6634Z"/>
  <path class="cls-14" d="M543.3258,355.5039c-2.4467-.3367-4.1362,1.5439-6.284,2.1694-9.9716,2.9041-18.1817-1.9139-23.9868-8.4173-10.4996-11.7622-14.8281-26.3138-17.8552-41.3487-2.7968-13.8907-2.715-28.0413-1.6224-41.9593,1.378-17.556,5.7043-34.6024,15.8637-49.5714.3302-.4864.5466-1.0497.8161-1.5772,1.0106-.9625,2.2895-.9205,3.5508-.944-4.7769,7.2721-9.8654,14.3716-12.4923,22.8184-3.2434,10.4289-5.294,21.0215-6.3903,31.9461-1.9191,19.1244.3926,37.6318,6.4058,55.7003,3.5215,10.5812,8.4775,20.4169,17.9895,27.2692,6.9249,4.9886,16.8314,5.2064,23.6305.0936,1.1594-.8719,2.0292-2.7476,4.0022-1.4292-.7548,2.0626-1.9996,3.7881-3.6273,5.2501Z"/>
  <path class="cls-68" d="M488.935,362.4742c.2539.0038.5074.0155.7605.0351.7124,1.3258,1.0812,2.6889.4567,4.1596-2.803,1.5411-4.7863-.6803-6.8782-1.7081-12.6794-6.23-25.838-7.6723-39.414-3.8647-14.8431,4.1629-26.1592,12.9615-33.7581,26.4648-.9773,1.7367-1.1875,4.5558-4.281,4.3485-.7007.0092-1.3543-.0896-1.7571-.7631-1.3947-3.5227,1.1701-5.9983,2.6629-8.4775,15.5598-25.8405,49.1204-36.1671,76.6093-23.7266,2.0218.915,4.0695,1.8239,5.5989,3.5321Z"/>
  <path class="cls-42" d="M412.159,394.4959c-1.0548.1462-1.8771-.3684-2.68-.9383-1.3587-3.0178.8522-5.1118,2.1397-7.2632,15.2379-25.4617,47.2034-34.0502,73.417-19.8382,1.6634.9018,3.1334,2.3519,5.2731,2.1,1.8411,1.3815,1.4647,3.2911,1.2479,5.1643-.1204.4524-.3355.8598-.6333,1.2212-2.1951.9324-3.7073-.5846-5.2072-1.6406-15.9266-11.2124-40.8627-10.7904-56.3186,1.442-5.5411,4.3854-10.4161,9.5099-13.9226,15.7661-.8538,1.5232-1.4144,3.3187-3.316,3.9866Z"/>
  <path class="cls-52" d="M490.614,374.9477c.0095-.2964.02-.5927.0316-.889,1.8318.0015,1.6914,1.4919,2.014,2.6383.089,1.4711.0537,2.9469.0944,4.4211-.0573,1.4518.0184,2.9064-.0463,4.3595-.0693.9636-.2353,1.8999-.8417,2.695-2.3753.9161-3.4837-1.026-4.7672-2.2635-12.4658-12.0193-27.0374-14.4255-43.0881-9.146-7.6705,2.523-13.5265,7.7142-18.2807,14.1836-1.5623,2.1259-2.5137,4.7032-4.6915,6.3762-1.2693-.0357-2.5312-.0963-3.5345-1.0356-.9512-1.1324-.4693-2.2765.1085-3.3061,8.1249-14.4804,20.3822-22.8868,37.0019-24.4611,12.0756-1.1439,22.8973,2.362,32.4894,9.7479.6984.5378,1.7978,2.3979,2.3565-.2056.0891-1.157.2581-2.2719,1.1536-3.1145Z"/>
  <path class="cls-64" d="M489.7775,368.6675c-.6809,2.7923-2.0877.7215-2.848.2491-9.7245-6.0426-20.3161-8.8664-31.7068-8.1521-20.3272,1.2748-39.0026,14.6602-45.7438,32.7932-1.3441-.2737-2.6178-.7029-3.6578-1.6484,3.5363-3.7595,5.2016-8.7218,8.5012-12.7115,10.9726-13.2673,24.8438-20.2669,42.0794-21.2164,12.2081-.6725,22.9504,3.3039,33.3374,8.9702.4698.5617.5406,1.1324.0384,1.7158Z"/>
  <path class="cls-44" d="M421.0385,397.3229c5.1599-12.3158,14.4864-20.1162,27.2721-23.0707,14.8866-3.44,28.4478-.3667,39.5535,10.8241,1.1383,1.147,2.4173,2.155,3.631,3.2274,1.871,2.1441,1.4261,4.3361.1361,6.5456-.4776.6952-1.1876.5953-1.8824.5478.3863-.9245,1.0039-1.7328.2026-2.8505-7.9902-11.1454-19.238-17.0135-32.5454-16.4163-14.2615.64-26.0036,7.1659-32.5603,20.7816-.1849.3839-.1701.8636-.2485,1.2987-1.2332-.1087-2.5496.1145-3.5588-.8878Z"/>
  <path class="cls-34" d="M363.0102,358.0973c2.3561-1.0563,3.2679-3.384,4.4851-5.3455,4.9749-8.0165,11.3985-14.9589,18.0244-21.4265,8.1569-7.9621,18.439-13.3308,28.8581-18.0314,3.3242-1.4997,7.0007-2.2736,10.2596-4.0443,2.2855-1.3852,3.948-.2828,5.4744,1.3609.1748,2.3701-1.8893,2.4362-3.274,2.8861-14.9078,4.8441-28.0845,12.6658-39.8206,22.95-6.971,6.1086-12.3867,13.5252-17.6055,21.1165-.9858,1.434-1.4095,4.3014-4.4262,3.1305-.6584-.8655-1.3168-1.7309-1.9752-2.5964Z"/>
  <path class="cls-41" d="M377.2626,373.4319c-1.0974-.3583-1.8515-1.1096-2.4047-2.0909,3.0096-8.9213,8.9295-16.0262,15.2999-22.5402,15.9463-16.3059,35.3503-26.0091,58.2049-28.4662,1.9198-.2064,3.7427-.9104,5.675-1.0484,2.3445.3523,4.5389.9584,5.6239,3.3907-.8749,2.2156-2.9008,1.66-4.5699,1.8129-10.3704.9505-20.5117,2.8242-30.2335,6.7355-18.5413,7.4596-32.5576,20.1408-43.1811,36.8211-1.2501,1.9628-2.0416,4.3278-4.4144,5.3855Z"/>
  <path class="cls-16" d="M368.9851,365.3295c-.5028-.5832-1.0056-1.1664-1.5084-1.7497-.7065-1.9689.4883-3.4334,1.4168-4.8959,14.2803-22.4918,34.1348-37.7187,59.7074-45.44,1.7087-.5159,3.3025-1.2899,4.9812-1.8677,2.1343-.0436,4.0518.4957,5.5782,2.0772.4955,3.5842-2.6275,3.1607-4.4382,3.5757-10.4022,2.3846-20.0198,6.5627-29.0507,12.1439-13.2282,8.1751-23.9101,18.9099-32.2398,32.0195-1.0839,1.7058-1.4913,4.349-4.4467,4.1369Z"/>
  <path class="cls-8" d="M490.6309,378.516c-.1438.9715.5025,2.3351-.5631,2.8168-.9567.4326-1.8951-.5091-2.6927-1.1876-17.5577-14.9378-42.0753-14.2206-59.7598,1.3733-4.4781,3.9487-8.021,8.9734-10.1114,14.7687-1.0172.0993-1.9085-.1904-2.6758-.8626-1.2701-1.9201.0717-3.38.9525-4.8384,5.4557-9.0341,12.5451-16.2781,22.4157-20.5772,16.6545-7.2537,32.5506-5.6269,47.8152,3.851,1.8819,1.1685,3.6279,2.5635,4.6193,4.656Z"/>
  <path class="cls-45" d="M379.9959,375.8697c-.6551-.5686-1.3102-1.1373-1.9654-1.7059,7.2218-12.9955,16.3314-24.3714,28.6395-32.953,15.1446-10.5592,31.9271-16.1557,50.4563-16.3467,2.5253-.026,5.053.0522,7.573-.2297,1.948.3864,3.6731,1.0436,4.0164,3.3464-.941,2.1621-2.8522,1.826-4.5764,1.6274-12.3417-1.4213-24.1674.9776-35.6129,5.2161-19.5067,7.2238-34.153,20.2404-44.4886,38.201-.8419,1.4631-1.2158,4.0102-4.042,2.8443Z"/>
  <path class="cls-54" d="M490.6309,378.516c-6.8303-5.0465-14.0637-9.302-22.5565-10.871-19.8924-3.6749-39.0708,4.1607-49.8374,21.1536-1.3121,2.071-3.2227,3.9386-3.4087,6.626-1.0313.0956-1.9184-.2217-2.6692-.9288,1.7072-3.6169,3.5319-7.1884,6.0804-10.2846,9.8329-11.9459,21.8709-19.4174,37.9423-20.0534,12.9579-.5127,24.0613,3.6864,34.4326,10.7901.0054,1.1893.011,2.3787.0167,3.5681Z"/>
  <path class="cls-28" d="M464.762,325.4261c-1.9414,1.1321-4.0688.5693-6.0993.5665-21.3733-.0294-40.1469,6.8281-56.7527,20.3118-8.6614,7.0329-15.1175,15.652-20.8854,24.9625-.7636,1.2325-1.1222,2.8269-2.9941,2.8969-.2559-.244-.5119-.488-.7679-.732,13.6224-25.1552,34.1712-41.4687,62.1815-47.9529,6.5307-1.5118,13.3084-1.9617,19.9725-2.9002,2.6035-.5863,4.4048.3263,5.3454,2.8474Z"/>
  <path class="cls-63" d="M488.935,362.4742c-5.5679-1.936-10.7888-4.8185-16.5808-6.1358-18.409-4.1868-35.0829-.2803-50.1563,10.8521-8.3932,6.1988-14.6821,14.017-18.134,23.9557-1.4083-.2871-2.6722-.8604-3.7168-1.8681,2.2993-.1685,2.5028-2.2532,3.3569-3.7075,11.9891-20.4128,29.2679-32.163,53.4727-32.8954,9.9567-.3013,19.316,1.7357,28.2908,5.9008.8826.4096,2.1961,1.7213,2.529-.5944,1.3504,1.2815.6941,2.9806.9385,4.4925Z"/>
  <path class="cls-26" d="M479.0336,336.8019c-3.4202,1.0264-6.5778-.7383-9.8063-1.1834-22.2229-3.0635-42.0052,2.8701-59.6846,15.963-8.9647,6.639-15.9796,15.2691-21.1075,25.2893-.6616,1.2927-1.0151,2.8237-2.4502,3.605-.4922-.3555-.9845-.711-1.4767-1.0664.0551-3.1268,1.7914-5.648,3.3206-8.1068,13.0579-20.9961,31.9786-33.6395,56.1663-38.3481,9.0502-1.7618,18.2552-1.4321,27.4026-.2574,1.1825.1519,2.3657.098,3.5461-.0478,1.5141-.0787,2.6147.6937,3.585,1.7369.5004.7336,1.1239,1.4474.5048,2.4157Z"/>
  <path class="cls-23" d="M454.065,319.9408c-6.2052,2.5379-12.9839,2.1795-19.3932,4.0005-25.4716,7.2372-44.9902,21.8528-57.8786,45.0563-.5086.9156-.9122,1.8712-1.9352,2.3433-.885-.3038-1.4811-.9084-1.8404-1.7595.9063-4.2116,3.7036-7.4095,6.1154-10.7195,16.2963-22.3641,37.8796-36.2733,65.5484-40.2439,1.9139-.2747,3.7418-.9522,5.6784-1.0945,1.6751.1322,3.1793.5315,3.7054,2.4172Z"/>
  <path class="cls-9" d="M395.2269,386.5205c3.7999-3.8018,5.427-9.0095,8.738-13.1869,13.439-16.9562,30.5742-26.2729,52.4737-26.9408,10.4376-.3183,20.2494,1.6868,29.8498,5.4101.9385.686.7779,1.7193.8523,2.6784-10.5479-4.7098-21.5753-7.0507-33.1339-6.1835-14.6999,1.1028-27.7983,6.2617-38.8599,16.1345-6.7773,6.0489-12.4204,12.9975-16.4216,21.2118-.3558.7305-1.2081,1.2202-1.8298,1.8218-.5562-.3151-1.1124-.6302-1.6686-.9453Z"/>
  <path class="cls-47" d="M360.3462,281.567c14.0476,2.1304,27.6405.8052,40.6934-5.1067,17.0683-7.7307,29.1685-20.1549,36.191-37.5271,3.4696-8.5831,5.3987-17.5709,5.0842-26.7028-.3657-10.6201-2.6505-21.0041-7.9167-30.4884-.6457-1.1628-1.2004-2.3759-1.7974-3.5658.8142-.625,1.7429-.7145,2.7199-.5788-.8798,3.2356,1.4546,5.6027,2.5466,8.1542,12.1702,28.438,4.2261,59.984-17.497,79.884-11.4024,10.4455-25.0801,16.1592-40.6601,17.909-5.7132.6416-11.149-.2517-16.7118-.1956-.8845-.5939-1.7682-1.1879-2.652-1.782Z"/>
  <path class="cls-39" d="M448.8453,255.2074c1.5859-6.449,5.1313-12.171,6.7885-18.6177,5.2925-20.5889,3.9348-40.5655-5.1057-59.9149.8911.0006,1.7823.0013,2.6734.0019,2.4094,1.1339,3.1082,3.4394,3.9036,5.6773,7.983,22.46,7.3066,44.6846-1.8137,66.6801-1.4388,2.7913-3.0744,5.3858-6.4461,6.1733Z"/>
  <path class="cls-4" d="M372.1245,368.6882c-.8178-.366-1.4502-.9111-1.7374-1.7898,8.1916-16.0777,20.4042-28.3747,35.5675-37.9875,11.5466-7.32,24.4149-11.0219,37.5164-14.1875,1.9951-.0734,3.629.542,4.5972,2.413-.2946,1.8742-1.8754,1.5868-3.1002,1.7471-18.0804,2.3662-34.0897,9.6665-47.9838,21.1834-8.7498,7.2527-16.3166,15.7936-22.0143,25.7913-.6583,1.1551-.7282,3.0692-2.8453,2.8298Z"/>
  <path class="cls-73" d="M433.5575,312.0021c-5.0881,3.3705-11.1974,4.1602-16.6851,6.6093-21.4823,9.5872-38.0905,24.3364-49.3956,44.9684-1.1155-.7171-1.9598-1.6673-2.4913-2.8862,4.3809-2.6444,5.9608-7.5217,8.8401-11.3284,13.2914-17.5726,30.7813-29.0726,51.2841-36.4478,1.6496-.5934,3.4808-.742,4.879-1.9597,1.6032-1.0587,2.7004-.396,3.5688,1.0444Z"/>
  <path class="cls-58" d="M443.3632,315.5137c-7.7797,2.7099-15.9221,4.1886-23.5566,7.4736-19.7827,8.5123-35.2577,21.8343-46.3359,40.2449-.8461,1.4061-1.5361,2.8765-3.0836,3.6661-.4673-.523-.9347-1.0461-1.402-1.569,3.3684-4.6353,6.5681-9.4044,10.1348-13.8825,14.1912-17.818,32.2695-29.7084,54.4775-35.2714,1.8317-.4588,4.2667.0384,5.3061-2.3493,2.0942-1.0358,3.549-.3897,4.4597,1.6876Z"/>
  <path class="cls-2" d="M480.8876,228.1848c-.0522.2274-.0931.4569-.1227.6883-1.3935,1.403-2.5393,3.625-5.0036,1.5075-.6896-1.3832-.6673-2.8654-.4775-4.3268,1.8817-14.4863.7274-28.7198-3.458-42.7182-.4956-1.6573-1.276-3.3828.0807-5.039,1.5808-.0651,3.1541-.0911,4.5349.8751,5.2652,15.9961,7.2801,32.2857,4.4462,49.0131Z"/>
  <path class="cls-49" d="M475.4567,333.2156c-1.0621,1.1893-2.4858.9173-3.7552.7367-13.2122-1.88-26.3459-1.5422-38.9586,2.9577-15.7548,5.621-29.2477,14.5854-39.4195,28.2333-3.3823,4.5383-5.5708,9.7048-8.8151,14.266-.6488-.5241-1.2975-1.0481-1.9463-1.5722.0414-.229.0829-.4581.1215-.6883,7.2898-14.0634,17.36-25.6956,30.8704-34.0735,17.0443-10.5692,35.5789-14.9244,55.6053-12.2275,1.4871.2003,2.9507.1111,4.4288.0419,1.2227.294,2.3305.6848,1.8686,2.3258Z"/>
  <path class="cls-77" d="M458.5314,176.6894c2.1753-.0686,4.3699-.335,6.4441.6283-.1913.4217-.4562.7909-.7822,1.1153-.7025.7548-.6169,1.5872-.2942,2.4752,7.037,19.3617,7.1986,38.9937,2.3179,58.8279-.9116,2.0307-2.2786,3.3262-4.7106,2.8898-1.5755-1.3938-.7295-3.0147-.3269-4.5121,4.9931-18.5727,4.5188-36.9348-1.8917-55.1277-.6958-1.9746-2.1424-4.0103-.7564-6.2967Z"/>
  <path class="cls-70" d="M379.9959,375.8697c3.2532-.9017,3.4837-4.2397,4.8723-6.4673,14.3627-23.0398,35.2718-36.2064,61.7798-40.4453,5.794-.9265,11.9567-2.4888,18.03-.3704,1.1454.3995,2.69.4777,3.6774-.8319,1.6983-.3526,2.7888.1989,3.0256,2.0216-.632,1.694-1.9367,1.3861-3.3217,1.2295-22.9413-2.5947-43.4878,3.5437-61.6374,17.489-9.0005,6.9155-16.2923,15.4931-21.5351,25.6581-.6153,1.1931-1.391,2.2691-2.1115,3.3875l-.2133.2965c-1.0274-.4324-2.0317-.8948-2.5661-1.9673Z"/>
  <path class="cls-51" d="M458.5314,176.6894c4.6586,12.9665,7.835,26.1595,7.1979,40.1138-.3373,7.3888-1.5429,14.5645-3.3599,21.6975-.31,1.2169-1.9232,2.6134-.0995,3.955-.3259,2.6168-1.5862,4.1033-4.445,3.6583-1.5144-1.5456-.3422-3.128.1161-4.5487,6.6459-20.5997,6.0015-40.9735-1.7059-61.1653-.4551-1.1924-1.4395-2.3576-.3787-3.7148.8917.0014,1.7834.0029,2.6751.0043Z"/>
  <path class="cls-21" d="M455.8564,176.6851c4.7049,11.0343,7.5038,22.6072,7.8349,34.5184.2808,10.1014-1.394,20.1314-4.4873,29.8546-.4881,1.5341-2.0899,3.0072-.768,4.8635.245,3.0876-1.848,3.6676-4.2359,3.9314,1.5074-6.7238,4.5624-12.9869,5.6761-19.8496,2.9939-18.4495,1.6771-36.3137-6.6746-53.3265.885.0028,1.7699.0055,2.6549.0083Z"/>
  <path class="cls-69" d="M489.7775,368.6675c-.0128-.572-.0255-1.1439-.0384-1.7158-.0143-1.4808-.0285-2.9616-.0432-4.4423,3.9799,5.7423,6.8827,12.1898,11.5036,17.5121,2.103,2.4222,4.225,4.8278,6.3384,7.241-2.0693,1.1528-4.1386,2.3055-6.2079,3.4583-4.5795-3.7505-7.951-8.3452-9.8221-13.9886-.0618-.9635.1404-2.0119-.8624-2.6732-.2595-1.8019.6247-3.7871-.868-5.3914Z"/>
  <path class="cls-20" d="M480.8876,228.1848c-1.3087-.9726-1.0813-2.4058-.8838-3.6606,2.1415-13.6081.2366-26.8713-3.1591-40.048-.4301-1.6691-1.9173-3.4265-.4033-5.3045,1.2867-.0188,2.5862-.0935,3.6548.8363,1.2035,6.0588,2.8033,12.0262,3.7917,18.142,1.0919,6.7555.7215,13.518.8436,20.2843.0424,2.3529-.1821,4.7276.5159,7.0335-1.4532.9057-2.9065,1.8114-4.3597,2.717Z"/>
  <path class="cls-53" d="M372.1245,368.6882c3.9679-4.5667,6.4872-10.122,10.3806-14.7774,15.5568-18.6017,34.8064-30.8823,58.9564-35.0507,2.1475-.3707,4.242-1.0468,6.3612-1.5811,1.4054-1.0491,2.1973-.4505,2.6751.9915-5.98,2.1414-12.3794,2.2595-18.4833,4.059-19.3506,5.7049-35.1142,16.4414-47.9644,31.8695-4.0739,4.8912-6.868,10.6093-11.0326,15.3825-.2977-.2978-.5953-.5955-.893-.8933Z"/>
  <path class="cls-55" d="M487.9385,224.4765c-.514.0845-1.028.169-1.542.2535-2.3853.0398-1.9101-1.8152-1.9565-3.1391-.1194-3.4016-.1466-6.8125-.0227-10.2125.3255-8.9286-1.3472-17.5713-3.4444-26.1798-.3928-1.6127-1.6493-3.3242-.1472-5.0397.9993-.0965,1.9508-.0265,2.6924.7719,4.4005,13.9989,4.7835,28.4174,4.5013,42.9053-.0184.2145-.0454.4279-.0808.6402Z"/>
  <path class="cls-62" d="M463.9001,177.5859c.3586-.0894.7171-.1787,1.0755-.2682.2561-.166.4848-.1343.686.0948,3.6279,4.2199,4.3833,9.5761,5.512,14.6816,2.9577,13.3785,2.6614,26.8569.4921,40.3263-.1425.8845-.1655,1.753-.1054,2.638-.6831,2.2997-1.7874,3.8591-4.5155,2.5355-.4827-4.2849,1.0384-8.3535,1.5473-12.522,1.8155-14.8699.236-29.2759-4.5877-43.389-.473-1.3838-1.3655-2.6957-.1042-4.0971Z"/>
  <path class="cls-10" d="M471.9064,178.2966c1.583,7.619,4.1517,15.0124,4.8355,22.8444.6952,7.9611.8654,15.8852-.0393,23.8342-.2321,2.0396-.1365,4.1164-.1914,6.1761.0782.5138-.0736.9476-.4554,1.3039-.9198.6563-1.8084.781-2.6383-.1522-.6295-6.0345.9644-11.9376.9644-17.977,0-10.8694-1.7682-21.3495-4.7618-31.726-.4497-1.5587-2.6285-4.446,1.7312-4.3868.2168-.1826.4019-.1548.5551.0834Z"/>
  <path class="cls-56" d="M471.3513,178.2132c-2.4497.183-1.4145,1.8244-1.0466,2.8734,4.4977,12.8234,5.6418,26.0598,5.2112,39.5357-.1284,4.015-1.9447,7.877-.9694,11.9648.2163,1.0456-.479,1.2896-1.2774,1.4456-.5306-.0141-1.001-.1878-1.4145-.5194-.8698-3.8446.7823-7.485.9186-11.2399.5051-13.9124-.0606-27.6993-5.0369-40.9569-.4282-1.1408-1.2341-2.4429-.2871-3.7714,1.3624-.1355,2.7107-.1899,3.9022.668Z"/>
  <path class="cls-66" d="M467.4491,177.5452c4.7672,13.6192,7.1058,27.6078,6.2068,42.0462-.236,3.7911-.8265,7.5663-1.3991,11.3269-.1698,1.1151-.3404,2.0228.7636,2.6834.1368.3737.1131.7369-.0689,1.0915-.5401.5636-1.0813,1.1297-1.9519.5721-2.1224-2.6833-.0684-5.453.2233-7.9884,1.8793-16.3299.8409-32.2594-4.9734-47.7484-.2563-.6828-.3947-1.4096-.588-2.1159.5958.0442,1.1917.0884,1.7875.1326Z"/>
  <path class="cls-30" d="M480.8257,180.159c3.7263,13.5637,5.2028,27.3677,4.4692,41.4117-.0614,1.1763-.0929,2.3937,1.1013,3.159-.3827.2463-.7658.4922-1.1489.7381-2.7091-.5968-1.729-2.7999-1.6973-4.3429.2272-11.0653-.2147-22.0403-2.6262-32.9194-.5779-2.6072-3.4739-5.2079-.8277-8.1975.2826-.1395.5258-.0892.7296.151Z"/>
  <path class="cls-67" d="M491.5079,376.732c3.2741,4.6629,6.5481,9.3257,9.8221,13.9885-.6099.2983-1.2197.5966-1.8296.8949-4.1949-2.298-5.8857-6.4958-7.9403-10.4175-.0174-1.4886-.0348-2.9772-.0523-4.4659Z"/>
  <path class="cls-22" d="M491.5602,381.1979c2.6468,3.4725,5.2935,6.945,7.9403,10.4176-.2813.0834-.5626.1669-.8439.2503-4.3279.4696-4.7577.0926-7.0928-6.2216-.0013-1.4821-.0024-2.9642-.0036-4.4463Z"/>
  <path class="cls-75" d="M491.5638,385.6442c2.6604,1.7379,2.4745,6.7055,7.0929,6.2216-2.1214,1.5109-4.6176,2.1431-7.0253,2.9833-.0453-2.1816-.0904-4.3635-.1359-6.5453.0225-.8865.0454-1.7731.0683-2.6596Z"/>
  <path class="cls-72" d="M974.9555,381.8955c-5.4439-13.9045-10.6802-27.8901-15.9625-41.8573-18.2535-48.2636-36.5209-96.5223-54.6769-144.8227-1.0764-2.8637-2.5055-3.7684-5.4914-3.621-5.3354.2633-10.7025.2601-16.0383.0011-2.982-.1446-4.3269.7409-5.3824,3.6453-5.5553,15.286-11.4024,30.4663-17.134,45.6886-17.6106,46.7675-35.1884,93.5472-52.8738,140.2867-1.3166,3.4794-1.3028,4.7842,3.0865,4.6251,9.1991-.3336,18.421-.2092,27.629-.0358,2.7829.0523,4.1124-.6708,5.0877-3.4528,4.0594-11.5782,8.5294-23.0127,12.6333-34.5759.9808-2.7628,2.1344-3.8746,5.2888-3.8459,19.7579.1799,39.5193.165,59.2776.0125,3.0281-.0234,4.4096.8619,5.4458,3.7079,4.2491,11.6701,8.8538,23.2113,13.1158,34.877.9248,2.5307,2.1444,3.39,4.787,3.2716,4.7444-.2124,9.5057-.0599,14.26-.0599s9.5181-.1867,14.2591.062c3.4838.1828,3.9291-.7391,2.6887-3.9064ZM911.1489,316.8428c-6.6807-.1314-13.3659-.045-20.0497-.045s-13.3674-.0528-20.0502.03c-2.2008.0272-3.2777-.1143-2.3534-2.8744,7.135-21.3019,14.1258-42.6516,21.1751-63.982.2056-.6218.5632-1.1937.8495-1.7888.3884.603.9208,1.1573,1.1433,1.8159,7.1825,21.2889,14.3041,42.5983,21.5332,63.8715.848,2.4953.217,3.0212-2.2479,2.9727Z"/>
  <path class="cls-35" d="M429.9916,179.2118c5.2263,6.5519,7.4349,14.3792,8.8213,22.3563,3.3835,19.4671-.9349,37.2863-13.1385,52.8535-11.7534,14.9929-27.2074,23.4599-46.3977,25.5062-6.6101.7049-12.869-.0023-19.2508-.9784-.9302-.1423-1.7714.046-2.334.9018-1.7699-1.5126-3.5395-3.0256-5.3092-4.5385,20.0887,5.6701,39.2978,3.9341,56.7478-7.9505,15.6028-10.6266,25.1991-25.2985,28.0978-44.278,2.2825-14.9444-.6431-28.7127-7.6134-41.8636-.4147-.7825-1.8266-1.7252.3767-2.0087Z"/>
  <path class="cls-74" d="M410.3284,292.8961c-3.5258,2.8938-7.7035,5.03-10.3913,8.8983-2.4665-1.1208-5.3279-1.3738-7.3976-3.3614,5.8911-1.9691,11.5832-4.5741,17.7888-5.5369Z"/>
  <path class="cls-6" d="M559.3491,286.265c-.1734,11.5769-2.6658,28.0034-12.558,42.2957-6.8961,9.9634-17.1843,13.2914-26.421,5.267-4.5388-3.9431-7.7025-8.8996-10.1245-14.4037-6.8594-15.5881-8.184-32.0682-6.9421-48.6628.9127-12.195,3.6844-24.1497,10.1818-34.9542,4.1364-6.8783,9.6105-12.5699,17.6343-12.5822,8.4628-.013,14.1093,6.0616,18.1006,13.2707,7.6534,13.8233,10.2179,28.8087,10.1289,49.7696Z"/>
  <path class="cls-57" d="M478.1665,335.0894c-1.4333-5.1157-2.8665-10.2315-4.2998-15.3472-.2141-6.4888-2.5777-12.6484-2.8015-19.1611-.4663-13.5708-.8909-27.12.2563-40.6913.6217-7.354,1.6618-14.6263,2.8053-21.9025.3535-2.2489,1.0637-4.2802,2.2679-6.1751.057-.2179.0955-.439.116-.6621,1.4184-.7579,2.8364-1.517,4.2542-2.2765-2.582,12.8035-4.5511,25.6376-5.4646,38.7329-1.7614,25.2489,1.3041,49.8035,8.1325,74.0304.1167.414.0396.8823.0529,1.3256-.5797-.6315-1.1594-1.2634-1.7388-1.8958-.8275-1.4713-1.3069-3.1624-2.7135-4.2657-.289-.5699-.5781-1.1408-.8671-1.7116Z"/>
  <path class="cls-17" d="M471.0152,329.5817c.8734.6723,1.7468,1.3447,2.6201,2.017-2.4776,1.6133-4.8542-.0576-7.283-.2002-25.1804-1.4784-47.2918,5.5845-65.6387,23.3404-6.1133,5.9164-11.399,12.388-15.2155,20.0068-.6136,1.2249-1.4189,2.2485-2.7231,2.7954,3.824-10.1984,10.5334-18.4531,18.3823-25.6765,7.9831-7.3469,17.188-13.0579,27.4974-16.7097,12.6545-4.4824,25.5791-7.0839,39.0932-4.7844,1.1465.1951,2.3958.3615,3.2673-.7889Z"/>
  <path class="cls-76" d="M467.4847,238.0554c-.4242.808-1.0575,1.3644-1.9479,1.6114-.4699-5.2861,1.5644-10.2425,2.17-15.4041,1.485-12.6575.3442-24.9244-3.079-37.0802-.6752-2.3975-1.6297-4.7154-2.4031-7.087-.4831-1.4815-1.0097-3.0892,1.6751-2.5107,2.0802,7.3504,4.4856,14.5901,5.4392,22.249,1.5108,12.1328,1.1783,24.1142-1.6648,36.0171-.1695.7095-.1312,1.4685-.1896,2.2044Z"/>
  <path class="cls-12" d="M476.3947,231.8122c-1.433,10-3.2523,19.9648-4.1731,30.0115-.6983,7.6189-.1838,15.3436-.3314,23.0188-.2041,10.6127.5556,21.1343,2.5674,31.5643.2198,1.1398.4016,2.3657-.5909,3.3354-1.9859-6.108-3.4696-12.3348-4.4395-18.6832.0807-3.9649-.3583-7.9021-.5883-11.8522-1.0911-18.7421-.0116-37.3072,4.8583-55.5358.2832-.3613.5664-.7225.8494-1.0838.616-.2584,1.232-.5167,1.8481-.775Z"/>
  <path class="cls-29" d="M473.6972,233.671c-.4481,8.506-2.7334,16.7851-3.1204,25.3144-.0779,1.7181-.4283,3.4862-.4495,5.2485-.1284,10.7103-.7305,21.4186-.0435,32.1338.0997,1.5538.535,3.2683-.6567,4.6913-4.3292-22.4177-3.1839-44.5697,3.2398-66.4658.117-.331.2344-.6618.3527-.9921.2292-.0039.4548.0192.6775.0699Z"/>
  <path class="cls-11" d="M507.5769,281.9922c-.2641-14.5237,1.9694-26.8674,8.2618-38.2944,1.4967-2.718,3.1333-5.4144,5.6335-7.2947,8.9127-6.703,16.5221-5.0316,23.5236,4.9965,5.123,7.3374,7.4327,15.7949,8.8173,24.3679,1.8399,11.393,1.6229,22.8829-.7426,34.2745-1.8213,8.7707-4.8937,17.3468-10.8016,23.8052-6.3158,6.9042-16.0224,7.4999-22.7615-.8734-6.4753-8.0454-9.325-17.6057-11.0648-27.6136-.867-4.9875-.934-9.9738-.8657-13.368Z"/>
  <path class="cls-19" d="M510.1925,283.5845c.0086-14.4799,1.7087-25.3084,7.3223-35.2572,1.4521-2.5736,3.0169-5.0555,5.3868-6.9083,8.4665-6.6193,14.7662-3.732,21.247,5.77,4.5036,6.6031,5.856,14.556,7.1004,22.4219,1.538,9.7223,1.0597,19.462-1.1162,28.8509-1.7391,7.5041-4.4743,14.9272-10.177,20.8972-6.3349,6.6318-14.9666,4.2628-19.9745-2.4824-8.0641-10.8616-9.5577-23.5478-9.7888-33.2921Z"/>
</svg>