<?xml version="1.0" encoding="UTF-8"?>
<svg id="Capa_1" data-name="Capa 1" xmlns="http://www.w3.org/2000/svg" viewBox="0 0 363.5722 376.8801">
  <defs>
    <style>
      .cls-1 {
        fill: none;
        stroke: aqua;
        stroke-miterlimit: 10;
      }
    </style>
  </defs>
  <path class="cls-1" d="M239.7184,90.0676c-.8011-3.3198-1.7922-6.0406-.0289-9.3005,3.1684-5.8574,11.819-6.2725,15.2504-.5035,5.5185,9.2779-6.5222,18.285-14.142,10.6409l-30.373,21.7852-.6559,1.1847c6.956,9.6342,2.5069,24.3616-8.245,29.0247-1.3147.5702-5.997,1.3354-6.3003,2.2249l.5185,15.9013c3.5629,2.3378,6.7184,1.7111,8.5437,6.4998,1.7553,4.6052-.194,7.5479-3.0431,11.0403l46.3719,78.515c4.6696-1.9331,8.8175-2.0684,13.4307.1206,1.6041.7612,2.8944,2.9229,4.4816,1.8955l46.5136-42.8075c1.2377-1.4188-.6195-2.724-.9244-4.1409-2.5758-11.9724,14.9748-15.0459,17.2141-4.183,1.7858,8.663-7.9602,14.2117-14.6617,8.6195l-48.2162,44.3135c1.7013,1.1159,2.5432,6.1276,4.1298,6.2424l51.9832-8.212,1.7407-.7667c-.2874-9.2453,11.9009-13.0498,16.4719-4.9723,5.8923,10.4124-8.8813,17.9573-14.7387,9.7239-.8339-1.1721-.9312-3.1864-2.2437-3.282l-53.8943,8.5646-1.3159,8.5073,26.8426,14.8438c2.4759-1.5832,3.6133-3.4444,6.8574-3.7633,12.3229-1.2115,13.0238,16.1857,2.3972,17.4597-6.8869.8257-12.1764-5.8691-9.384-12.257l-26.7859-15.2226c-1.5142-.3055-1.8245,1.5307-2.8748,2.4687-8.8953,7.9448-21.8752,3.8206-24.641-7.5815l-84.9597,12.069c.1847,1.7859-.184,3.2515-.9148,4.8524-.9518,2.0848-2.554,2.5466-3.5196,4.3352l18.5241,38.9264c4.568-1.573,10.926.8011,11.8733,5.9147,2.2396,12.0889-13.1826,15.0241-16.6682,5.6378-1.9273-5.1898.5925-7.8873,3.6675-11.6787l-18.0427-38.3887c-4.7115.2698-9.6802-.1267-11.7132-5.0862-.8678-2.1169-.2421-4.716-1.8902-5.6321l-39.6544-9.9449c-1.6937,4.0263-4.3074,6.9422-8.1416,9.06l11.869,33.5509c4.2698-.281,8.9617.6178,10.9297,4.8687,4.5813,9.8958-8.294,17.1955-14.6986,9.6834-3.9626-4.6479-1.6483-11.1411,3.0755-14.2454l-11.9882-32.5039c-.7239-1.6986-2.4147-.3574-3.6708-.3516-3.0928.0143-5.7685-.3872-8.5274-1.8773l-38.8059,60.201c8.6279,7.23-1.1349,20.1965-10.3379,14.3994-5.1782-3.2618-5.3392-11.3307-.2103-14.7648,3.2459-2.1733,6.3257-1.1584,9.9347-.8439l38.103-59.4558c-1.1649-2.218-3.4362-3.4507-4.5397-5.8348-3.4549-7.4644-.0456-16.4055,7.5522-19.4842l-13.4174-40.2425c-.4159-.5883-3.2052-.2344-4.2015-.4167-10.3796-1.8996-9.1638-17.4372,1.3878-17.4748,9.8296-.0351,12.1891,12.6875,3.8342,16.6788l-.0839.6158,14.2716,40.2792c5.6184-1.4746,10.0233.4378,14.5,3.5932,25.2329-22.0927,50.8335-43.7812,76.0568-65.8821,2.379-2.0845,18.7326-15.8733,18.97-17.1298.1144-.6052-1.1205-2.4853-1.3056-3.5568-.1808-1.0467.1696-4.298-.4161-4.7023l-53.4553-20.1583-2.3211-.2559c-5.0974,9.2656-19.0278,3.8803-16.3012-6.5193,2.2618-8.6267,15.5943-8.3583,17.1683.7041.2769,1.5942-.608,3.6896.8451,4.6712l54.2413,20.536,1.1154-.1518c1.3818-2.9959,3.9817-3.4939,6.4591-5.1053l-.9347-16.7339c-14.7649.018-25.0601-14.8337-18.8052-28.5816.423-.9297,2.8386-3.8363,2.5278-4.5232l-32.0237-28.0116c-7.3077,6.0024-17.6732-1.0386-14.1287-10.0867,3.47-8.858,18.3231-6.3207,16.7467,5.2168-.1718,1.2571-1.6421,3.5564-1.2462,4.3039l31.6334,27.6013c1.3871-.6628,2.3879-1.8519,3.8019-2.7355,1.4723-.9199,4.597-1.6005,4.3945-3.4215l-13.7499-43.9415c-9.1582,2.076-14.4494-10.6672-6.6987-15.8309,7.7662-5.174,17.3585,3.4669,12.9371,11.4325-1.2272,2.2109-4.6751,3.0399-4.4329,5.5226l12.969,43.1384c.5917.8263,4.4244-.2686,5.8255-.2333,1.3636.0344,5.549,1.3847,6.2013.9757l26.0631-68.9894-.3758-.9283c-10.183-5.9484-2.1155-21.0162,8.509-15.5566,6.0812,3.1249,5.8702,12.1511-.1792,15.428-2.7465,1.4878-4.5903.3376-7.131,1.3942l-25.7807,68.9127,8.6444,6.2522,30.3608-22.078ZM239.788,271.6818c-.3733-5.7747,2.3909-10.1447,6.4434-13.8596l-45.5345-78.1855c-.9975-1.3237-2.3806-.2008-3.7616-.2021-3.1387-.003-4.4505-.28-7.0776-2.0463l-95.507,83.0048c2.1415,3.3879,3.54,7.5094,2.5537,11.4797l.4585.5638,40.5377,10.1957c2.4306-6.411,11.1731-7.9781,15.3516-2.3894.7792,1.0422,1.1324,3.3867,2.5377,3.4937l83.9981-12.0549Z"/>
</svg>