<?xml version="1.0" encoding="UTF-8"?>
<svg id="Capa_1" data-name="Capa 1" xmlns="http://www.w3.org/2000/svg" viewBox="0 0 1156.1914 1160.3689">
  <defs>
    <style>
      .cls-1 {
        fill: #c6c1b8;
      }

      .cls-1, .cls-2, .cls-3, .cls-4, .cls-5 {
        stroke-width: 0px;
      }

      .cls-2 {
        fill: #f5f7f7;
      }

      .cls-3 {
        fill: #b164a5;
      }

      .cls-4 {
        fill: #92a8b4;
      }

      .cls-5 {
        fill: #0072b0;
      }
    </style>
  </defs>
  <path class="cls-3" d="M580.9636,238.2879c86.384,84.3092,148.1128,200.3734,147.6002,323.0709.6134,125.1979-66.5428,239.0218-167.8259,310.0067-28.2673,20.0127-58.5283,36.9991-90.0991,50.7154,30.2428-16.4185,59.323-34.7998,86.1137-56.0322,110.3059-85.6175,173.6179-214.8792,155.5582-355.3397-12.4986-102.3057-64.5088-195.3735-131.3471-272.4211h0Z"/>
  <path class="cls-4" d="M504.5951,269.4173c85.8071,101.7763,142.6242,238.4893,116.7913,372.7829-19.3555,102.2299-86.1266,185.6468-176.3182,235.5356-29.3256,16.3231-60.4045,29.2382-92.3724,38.8153,46.7301-17.612,91.3426-40.7075,130.5369-71.5879,110.1546-85.6655,154.0091-216.2187,125.9827-351.8894-16.5531-81.5032-55.7938-156.8959-104.6203-223.6565h0Z"/>
  <path class="cls-1" d="M366.6048,254.7117c68.8768,72.0195,124.8381,159.707,146.2212,258.0283,30.9999,138.3155-21.5748,272.2156-140.9158,349.5942-24.399,16.0138-50.4134,29.4137-77.4588,40.3018,0,0-11.6268,4.5107-11.6268,4.5107l11.4319-4.9702c26.4592-11.895,52.1034-25.8347,75.8347-42.523,169.2034-117.4863,180.0116-314.1776,83.5399-483.9467-24.3311-43.4279-54.0912-83.7053-87.0262-120.9951h0Z"/>
  <path class="cls-5" d="M309.8296,256.4915c64.6769,75.6715,115.5982,166.5464,129.9227,266.1118,21.1699,139.358-41.235,268.1868-161.3012,341.014-28.3921,17.5006-58.7867,31.5709-90.1343,42.7565,31.2009-11.5903,61.3719-26.041,89.4493-43.853,33.3569-21.0385,63.8266-46.8571,88.8905-77.3213,134.7914-164.8499,68.955-380.1011-56.8271-528.708h0Z"/>
  <g>
    <path class="cls-2" d="M799.9683,606.7991h-8.1055v-46.2881h17.667c5.2334,0,9.3184,1.2666,12.2529,3.7988,2.9336,2.5332,4.4004,6.0791,4.4004,10.6387,0,3.082-.707,5.71-2.1211,7.8838-1.415,2.1738-3.4932,3.8301-6.2373,4.9707l8.8018,18.9961h-8.8652l-7.8516-17.2871h-9.9414v17.2871ZM799.9683,567.7298v14.627h9.5615c2.5742,0,4.5801-.6533,6.0156-1.9629,1.4346-1.3076,2.1523-3.123,2.1523-5.4453s-.7178-4.1055-2.1523-5.3506c-1.4355-1.2451-3.4414-1.8682-6.0156-1.8682h-9.5615Z"/>
    <path class="cls-2" d="M863.0367,606.7991h-28.748v-46.2881h28.748v7.4717h-23.4922l2.8496-2.5957v14.5h18.4902v7.1553h-18.4902v14.8809l-2.8496-2.5957h23.4922v7.4717Z"/>
    <path class="cls-2" d="M869.1148,573.429c0-2.7012.6963-5.0869,2.0898-7.1562,1.3926-2.0674,3.3242-3.6816,5.7939-4.8438,2.4688-1.1602,5.3281-1.7412,8.5801-1.7412,3.123,0,5.835.5488,8.1367,1.6465,2.2998,1.0977,4.0938,2.6592,5.3818,4.6855,1.2871,2.0264,1.9727,4.4326,2.0586,7.2188h-8.1055c-.085-1.9834-.8027-3.5352-2.1533-4.6543-1.3516-1.1182-3.166-1.6777-5.4453-1.6777-2.4912,0-4.4863.5596-5.9844,1.6777-1.499,1.1191-2.2471,2.6494-2.2471,4.5908,0,1.6465.4531,2.9443,1.3613,3.8945.9072.9502,2.332,1.6572,4.2734,2.1211l7.2822,1.6465c3.9678.8447,6.9229,2.29,8.8652,4.3379,1.9414,2.0479,2.9131,4.8018,2.9131,8.2627,0,2.8291-.6973,5.3193-2.0898,7.4727-1.3936,2.1523-3.3672,3.8096-5.9209,4.9707-2.5547,1.1602-5.54,1.7412-8.96,1.7412-3.251,0-6.1006-.5605-8.5479-1.6777-2.4492-1.1182-4.3594-2.6914-5.7314-4.7178s-2.0996-4.4111-2.1846-7.1553h8.1055c.042,1.9424.8125,3.4727,2.3115,4.5908,1.498,1.1191,3.5352,1.6777,6.1104,1.6777,2.7012,0,4.8438-.5586,6.4268-1.6777,1.583-1.1182,2.375-2.6064,2.375-4.4639,0-1.6045-.4229-2.8818-1.2666-3.8311-.8447-.9502-2.2158-1.6152-4.1162-1.9951l-7.3447-1.6465c-3.9258-.8438-6.9023-2.374-8.9287-4.5908-2.0264-2.2158-3.0391-5.1182-3.0391-8.7061Z"/>
    <path class="cls-2" d="M951.4332,583.6233c0,4.6855-.9502,8.833-2.8496,12.4424-1.9004,3.6094-4.5391,6.4277-7.915,8.4541-3.3779,2.0264-7.2822,3.0391-11.7148,3.0391-4.3916,0-8.2744-1.0127-11.6514-3.0391-3.3779-2.0264-6.0059-4.834-7.8838-8.4219-1.8789-3.5879-2.8174-7.7256-2.8174-12.4111,0-4.7275.9492-8.8965,2.8496-12.5059,1.8994-3.6094,4.5273-6.4277,7.8828-8.4541,3.3564-2.0264,7.251-3.0391,11.6836-3.0391s8.3262,1.0127,11.6826,3.0391,5.9834,4.835,7.8838,8.4219c1.8994,3.5889,2.8496,7.7471,2.8496,12.4746ZM942.9478,583.6233c0-3.293-.5703-6.1426-1.71-8.5488s-2.7441-4.2734-4.8125-5.6035-4.5381-1.9951-7.4082-1.9951c-2.8291,0-5.2881.665-7.377,1.9951-2.0898,1.3301-3.7051,3.1973-4.8447,5.6035s-1.709,5.2559-1.709,8.5488.5693,6.1533,1.709,8.5801c1.1396,2.4277,2.7549,4.2959,4.8447,5.6045,2.0889,1.3086,4.5479,1.9629,7.377,1.9629,2.8701,0,5.3398-.665,7.4082-1.9951s3.6729-3.208,4.8125-5.6357c1.1396-2.4268,1.71-5.2656,1.71-8.5166Z"/>
    <path class="cls-2" d="M967.0093,606.7991h-7.9785v-46.2881h8.042l24.0625,36.4102h-2.3428v-36.4102h7.9785v46.2881h-7.9785l-24.126-36.3467h2.3428v36.3467Z"/>
    <path class="cls-2" d="M1010.9546,606.7991h-8.3584l16.7168-46.2881h8.2959l16.7168,46.2881h-8.5488l-3.7354-10.7012h-17.2871l-3.7998,10.7012ZM1022.4166,574.3147l-5.3193,14.9443h12.6006l-5.3184-14.9443c-.1699-.6328-.3594-1.2656-.5703-1.8994-.2119-.6328-.3379-1.1816-.3799-1.6465-.085.4229-.2217.9609-.4111,1.6152-.1904.6543-.3916,1.2979-.6016,1.9307Z"/>
    <path class="cls-2" d="M1041.983,567.9827v-7.4717h35.207v7.4717h-35.207ZM1063.6392,564.3733v42.4258h-8.1055v-42.4258h8.1055Z"/>
    <path class="cls-2" d="M1112.1431,606.7991h-28.748v-46.2881h28.748v7.4717h-23.4922l2.8496-2.5957v14.5h18.4902v7.1553h-18.4902v14.8809l-2.8496-2.5957h23.4922v7.4717Z"/>
  </g>
  <g>
    <path class="cls-2" d="M65.4419,606.7987h-7.8521v-46.2881h7.8521l14.9438,36.8535,14.9438-36.8535h7.9785v46.2881h-7.8516v-20.1045c0-1.583.0205-2.9229.063-4.0215.0415-1.0967.0845-2.0674.127-2.9121.0415-.8447.1265-1.6885.2529-2.5332l-11.7778,29.5713h-7.4717l-11.7144-29.5078c.2104,1.3926.3481,3.166.4111,5.3193.0635,2.1523.0952,4.6855.0952,7.5986v16.5898Z"/>
    <path class="cls-2" d="M155.7378,583.6229c0,4.6855-.9497,8.833-2.8496,12.4424-1.8994,3.6094-4.5381,6.4277-7.915,8.4541-3.3779,2.0264-7.2822,3.0391-11.7144,3.0391-4.3911,0-8.2744-1.0127-11.6514-3.0391-3.3779-2.0264-6.0059-4.834-7.8833-8.4219-1.8789-3.5879-2.8179-7.7256-2.8179-12.4111,0-4.7275.9497-8.8965,2.8491-12.5059,1.8999-3.6094,4.5278-6.4277,7.8838-8.4541s7.2505-3.0391,11.6826-3.0391,8.3271,1.0127,11.6831,3.0391,5.9839,4.835,7.8833,8.4219c1.8999,3.5889,2.8496,7.7471,2.8496,12.4746ZM147.253,583.6229c0-3.293-.5703-6.1426-1.71-8.5488s-2.7446-4.2734-4.8125-5.6035c-2.0688-1.3301-4.5381-1.9951-7.4087-1.9951-2.8286,0-5.2871.665-7.377,1.9951-2.0894,1.3301-3.7041,3.1973-4.8438,5.6035-1.1401,2.4062-1.71,5.2559-1.71,8.5488s.5698,6.1533,1.71,8.5801c1.1396,2.4277,2.7544,4.2959,4.8438,5.6045,2.0898,1.3086,4.5483,1.9629,7.377,1.9629,2.8706,0,5.3398-.665,7.4087-1.9951,2.0679-1.3301,3.6729-3.208,4.8125-5.6357,1.1396-2.4268,1.71-5.2656,1.71-8.5166Z"/>
    <path class="cls-2" d="M179.9898,606.7987h-16.6538v-46.2881h16.2104c4.5591,0,8.5693.9814,12.0312,2.9443,3.4609,1.9629,6.1738,4.6855,8.1367,8.1689,1.9629,3.4824,2.9443,7.5254,2.9443,12.126,0,4.5176-.9604,8.5166-2.8809,11.999-1.9214,3.4824-4.5811,6.1953-7.9785,8.1367-3.3989,1.9424-7.3354,2.9131-11.8096,2.9131ZM171.4414,564.2469v38.8789l-3.8628-3.7988h11.6514c3.0811,0,5.7402-.6338,7.9785-1.9004,2.2368-1.2656,3.9468-3.0596,5.1289-5.3818,1.1812-2.3213,1.7729-5.0869,1.7729-8.2949,0-3.293-.6123-6.1104-1.8364-8.4541-1.2246-2.3428-2.9761-4.1475-5.2554-5.4141-2.2798-1.2656-5.0244-1.8994-8.2319-1.8994h-11.208l3.8628-3.7354Z"/>
    <path class="cls-2" d="M238.9414,606.7987h-28.748v-46.2881h28.748v7.4717h-23.4922l2.8496-2.5957v14.5h18.4897v7.1553h-18.4897v14.8809l-2.8496-2.5957h23.4922v7.4717Z"/>
    <path class="cls-2" d="M255.7852,560.5106v46.2881h-8.1055v-46.2881h8.1055ZM249.0728,606.7987v-7.4717h26.0254v7.4717h-26.0254Z"/>
    <path class="cls-2" d="M321.7036,583.6229c0,4.6855-.9502,8.833-2.8496,12.4424-1.9004,3.6094-4.5391,6.4277-7.915,8.4541-3.3779,2.0264-7.2822,3.0391-11.7148,3.0391-4.3916,0-8.2744-1.0127-11.6514-3.0391-3.3779-2.0264-6.0059-4.834-7.8838-8.4219-1.8789-3.5879-2.8174-7.7256-2.8174-12.4111,0-4.7275.9492-8.8965,2.8496-12.5059,1.8994-3.6094,4.5273-6.4277,7.8828-8.4541,3.3564-2.0264,7.251-3.0391,11.6836-3.0391s8.3262,1.0127,11.6826,3.0391,5.9834,4.835,7.8838,8.4219c1.8994,3.5889,2.8496,7.7471,2.8496,12.4746ZM313.2183,583.6229c0-3.293-.5703-6.1426-1.71-8.5488s-2.7441-4.2734-4.8125-5.6035-4.5381-1.9951-7.4082-1.9951c-2.8291,0-5.2881.665-7.377,1.9951-2.0898,1.3301-3.7051,3.1973-4.8447,5.6035s-1.709,5.2559-1.709,8.5488.5693,6.1533,1.709,8.5801c1.1396,2.4277,2.7549,4.2959,4.8447,5.6045,2.0889,1.3086,4.5479,1.9629,7.377,1.9629,2.8701,0,5.3398-.665,7.4082-1.9951s3.6729-3.208,4.8125-5.6357c1.1396-2.4268,1.71-5.2656,1.71-8.5166Z"/>
  </g>
</svg>