<?xml version="1.0" encoding="utf-8"?>
<!-- Generator: Adobe Illustrator 28.4.1, SVG Export Plug-In . SVG Version: 6.00 Build 0)  -->
<svg version="1.1" id="Capa_1" xmlns="http://www.w3.org/2000/svg" xmlns:xlink="http://www.w3.org/1999/xlink" x="0px" y="0px"
	 viewBox="0 0 1156.2 1160.4" style="enable-background:new 0 0 1156.2 1160.4;" xml:space="preserve">
<style type="text/css">
	.st0{fill:#FFFFFF;}
	.st1{fill:#E99300;}
	.st2{fill:none;stroke:#FFFFFF;stroke-width:0.5978;stroke-miterlimit:10;}
	.st3{fill:#8D9399;}
	.st4{fill:#80676C;}
	.st5{fill:#ADADAD;}
	.st6{fill:#E1DECE;}
	.st7{fill:#91A7B3;}
	.st8{fill:#06AEBD;}
	.st9{fill:#467572;}
	.st10{fill:#ECD0A5;}
	.st11{fill:#FBCA7D;}
	.st12{fill:none;stroke:url(#SVGID_1_);stroke-miterlimit:10;}
	.st13{fill:url(#SVGID_00000031209765155037181830000001121457593761373568_);}
</style>
<g>
	<g>
		<path class="st0" d="M661.1,388.5C661.1,388.5,661.1,388.5,661.1,388.5c-0.1,0-0.1,0-0.1,0c0,0,0,0-0.1,0c0,0,0,0,0,0
			c0,0,0,0-0.1,0c0,0,0,0,0,0c0,0,0,0-0.1,0c0,0,0,0,0,0c0,0,0,0-0.1,0c0,0,0,0,0,0c0,0-0.1,0-0.1,0c0,0,0,0,0,0c0,0,0,0-0.1,0
			c0,0,0,0,0,0c0,0,0,0-0.1,0c0,0,0,0,0,0c0,0,0,0,0,0c0,0,0,0,0,0c0,0,0,0-0.1,0c0,0,0,0,0,0c0,0-0.1,0-0.1,0c0,0,0,0,0,0
			c0,0,0,0-0.1,0c0,0,0,0,0,0c0,0,0,0,0,0c0,0,0,0,0,0c0,0,0,0,0,0c0,0,0,0,0,0c0,0,0,0,0,0c0,0,0,0,0,0c0,0,0,0-0.1,0c0,0,0,0,0,0
			c0,0,0,0,0,0c0,0,0,0,0,0c0,0,0,0,0,0c0,0,0,0,0,0c0,0,0,0,0,0c0,0,0,0,0,0c0,0,0,0,0,0c0,0,0,0-0.1,0c0,0,0,0,0,0c0,0,0,0,0,0
			c0,0,0,0,0,0c0,0,0,0,0,0c0,0,0,0,0,0c0,0,0,0-0.1,0c0,0,0,0,0,0c0,0,0,0-0.1,0c0,0,0,0,0,0c-0.1,0-0.1,0-0.2,0c0,0,0,0,0,0
			c0,0,0,0-0.1,0c0,0,0,0,0,0c0,0,0,0-0.1,0c0,0,0,0,0,0c0,0,0,0-0.1,0c0,0,0,0,0,0c-0.1,0-0.1,0-0.2,0c0,0,0,0,0,0c0,0,0,0-0.1,0
			c0,0,0,0,0,0c0,0,0,0-0.1,0c0,0,0,0,0,0c0,0,0,0-0.1,0c0,0,0,0,0,0c-0.1,0-0.2,0-0.3,0c0,0,0,0,0,0c0,0,0,0-0.1,0c0,0,0,0,0,0
			c0,0,0,0-0.1,0c0,0,0,0,0,0c-0.1,0-0.2,0-0.3,0c0,0,0,0,0,0c0,0,0,0-0.1,0c0,0,0,0,0,0c-1.8,0-3.7,0.1-5.5,0.2c0,0,0,0,0,0
			c0,0,0,0-0.1,0c0,0,0,0,0,0c-0.1,0-0.2,0-0.3,0c0,0,0,0,0,0c0,0,0,0-0.1,0c0,0,0,0,0,0c0,0,0,0-0.1,0c0,0,0,0,0,0c0,0,0,0-0.1,0
			c0,0,0,0,0,0c0,0-0.1,0-0.1,0c0,0,0,0,0,0c0,0,0,0,0,0c0,0,0,0,0,0c0,0,0,0,0,0c0,0,0,0,0,0c0,0,0,0,0,0c0,0,0,0,0,0c0,0,0,0,0,0
			c0,0,0,0-0.1,0c0,0,0,0,0,0c0,0-0.1,0-0.1,0c0,0,0,0,0,0c0,0,0,0-0.1,0c0,0,0,0,0,0c0,0,0,0-0.1,0c0,0,0,0,0,0c0,0,0,0-0.1,0
			c0,0,0,0,0,0c-0.2,0-0.4,0-0.6,0l0.3,4.8c3.7-0.2,7.5-0.3,11.3-0.3V388.5L661.1,388.5L661.1,388.5z M638.1,389.8
			c-0.3,0-0.6,0.1-0.9,0.1c0,0,0,0,0,0c0,0,0,0-0.1,0c0,0,0,0,0,0c0,0,0,0-0.1,0c0,0,0,0,0,0c0,0,0,0-0.1,0c0,0,0,0,0,0
			c0,0-0.1,0-0.1,0c0,0,0,0,0,0c0,0,0,0,0,0c0,0,0,0,0,0c0,0,0,0,0,0c0,0,0,0,0,0c0,0,0,0,0,0c0,0,0,0,0,0c0,0,0,0,0,0
			c0,0-0.1,0-0.1,0c0,0,0,0,0,0c0,0,0,0-0.1,0c0,0,0,0,0,0c0,0,0,0-0.1,0c0,0,0,0,0,0c0,0,0,0-0.1,0c0,0,0,0,0,0c-0.1,0-0.1,0-0.2,0
			l0,0c0,0,0,0-0.1,0c0,0,0,0,0,0c0,0,0,0-0.1,0c0,0,0,0,0,0c-0.1,0-0.1,0-0.2,0c0,0,0,0,0,0c0,0-0.1,0-0.1,0c0,0,0,0,0,0
			c0,0,0,0-0.1,0c0,0,0,0,0,0c0,0-0.1,0-0.1,0l0,0c-0.1,0-0.1,0-0.2,0l0,0c0,0-0.1,0-0.1,0l0,0c0,0-0.1,0-0.1,0l0,0
			c-0.1,0-0.2,0-0.3,0c0,0,0,0,0,0c0,0-0.1,0-0.1,0l0,0c-0.1,0-0.2,0-0.4,0l0,0c-0.1,0-0.2,0-0.4,0c0,0,0,0,0,0c0,0-0.1,0-0.1,0
			c0,0,0,0,0,0c-0.1,0-0.2,0-0.3,0c0,0,0,0,0,0c0,0-0.1,0-0.1,0l0,0c0,0-0.1,0-0.1,0l0,0c-0.1,0-0.2,0-0.3,0c0,0,0,0,0,0
			c0,0-0.1,0-0.1,0c0,0,0,0,0,0c-0.1,0-0.2,0-0.3,0c0,0,0,0,0,0c0,0,0,0-0.1,0c0,0,0,0,0,0c0,0-0.1,0-0.1,0l0,0c-0.1,0-0.1,0-0.2,0
			l0,0c0,0,0,0-0.1,0c0,0,0,0,0,0c0,0,0,0-0.1,0c0,0,0,0,0,0c0,0-0.1,0-0.1,0c0,0,0,0,0,0c0,0-0.1,0-0.1,0c0,0,0,0,0,0
			c0,0,0,0-0.1,0c0,0,0,0,0,0c0,0,0,0-0.1,0c0,0,0,0,0,0c0,0,0,0-0.1,0c0,0,0,0,0,0c0,0-0.1,0-0.1,0l0,0c0,0-0.1,0-0.1,0
			c0,0,0,0,0,0c0,0,0,0-0.1,0c0,0,0,0,0,0c0,0,0,0-0.1,0c0,0,0,0,0,0c0,0,0,0-0.1,0c0,0,0,0,0,0c0,0-0.1,0-0.1,0c0,0,0,0,0,0
			c0,0,0,0-0.1,0c0,0,0,0,0,0c0,0,0,0-0.1,0c0,0,0,0,0,0c0,0,0,0-0.1,0c0,0,0,0,0,0c0,0-0.1,0-0.1,0c0,0,0,0,0,0c0,0,0,0-0.1,0
			c0,0,0,0,0,0c0,0,0,0,0,0c0,0,0,0,0,0c0,0,0,0,0,0c0,0,0,0,0,0c0,0,0,0-0.1,0c0,0,0,0,0,0c0,0,0,0-0.1,0c0,0,0,0,0,0c0,0,0,0,0,0
			c0,0,0,0,0,0c0,0,0,0,0,0c0,0,0,0,0,0c0,0,0,0,0,0c0,0,0,0,0,0c0,0-0.1,0-0.1,0c0,0,0,0,0,0c0,0,0,0,0,0c0,0,0,0,0,0c0,0,0,0,0,0
			c0,0,0,0,0,0c0,0,0,0,0,0c0,0,0,0,0,0c0,0,0,0,0,0c0,0,0,0-0.1,0c0,0,0,0,0,0c0,0,0,0,0,0c0,0,0,0,0,0c0,0,0,0,0,0c0,0,0,0,0,0
			c0,0,0,0,0,0c0,0,0,0,0,0c0,0,0,0,0,0c0,0-0.1,0-0.1,0c0,0,0,0,0,0c0,0,0,0,0,0c0,0,0,0,0,0c0,0,0,0,0,0c0,0,0,0,0,0
			c0,0,0,0-0.1,0c0,0,0,0,0,0c0,0-0.1,0-0.1,0c0,0,0,0,0,0c0,0,0,0-0.1,0c0,0,0,0,0,0c0,0,0,0-0.1,0c0,0,0,0,0,0c0,0,0,0-0.1,0
			c0,0,0,0,0,0c0,0,0,0-0.1,0c0,0,0,0,0,0c0,0-0.1,0-0.1,0c0,0,0,0,0,0c0,0,0,0-0.1,0c0,0,0,0,0,0c0,0,0,0-0.1,0c0,0,0,0,0,0
			c0,0-0.1,0-0.1,0l0,0c-0.1,0-0.1,0-0.2,0c0,0,0,0,0,0c0,0-0.1,0-0.1,0l0,0c-0.4,0.1-0.9,0.2-1.3,0.2l0.8,4.7
			c3.7-0.6,7.4-1.2,11.1-1.6L638.1,389.8L638.1,389.8z M615.4,393.8C615.4,393.8,615.4,393.8,615.4,393.8
			C615.4,393.8,615.4,393.8,615.4,393.8C615.3,393.8,615.3,393.8,615.4,393.8c-0.1,0-0.1,0-0.2,0c0,0,0,0,0,0c0,0-0.1,0-0.1,0
			c0,0,0,0,0,0c0,0,0,0-0.1,0c0,0,0,0,0,0c0,0,0,0-0.1,0c0,0,0,0,0,0c-0.1,0-0.2,0-0.3,0.1l0,0c-1.9,0.5-3.7,0.9-5.6,1.4l0,0
			c-0.1,0-0.2,0.1-0.3,0.1l0,0c0,0-0.1,0-0.1,0l0,0c-0.1,0-0.1,0-0.2,0l0,0c0,0,0,0-0.1,0c0,0,0,0,0,0c0,0,0,0-0.1,0c0,0,0,0,0,0
			c0,0,0,0-0.1,0l0,0c0,0-0.1,0-0.1,0c0,0,0,0,0,0c0,0,0,0-0.1,0c0,0,0,0,0,0c0,0,0,0,0,0c0,0,0,0,0,0c0,0,0,0,0,0c0,0,0,0-0.1,0
			c0,0,0,0,0,0c0,0,0,0,0,0c0,0,0,0,0,0c0,0,0,0,0,0c0,0,0,0,0,0c0,0,0,0,0,0c0,0,0,0,0,0c0,0-0.1,0-0.1,0c0,0,0,0,0,0
			c0,0,0,0-0.1,0c0,0,0,0,0,0c0,0,0,0-0.1,0c0,0,0,0,0,0c-1,0.3-2,0.6-3.1,0.9l1.4,4.6c3.6-1.1,7.2-2.1,10.9-2.9L615.4,393.8
			L615.4,393.8z M586.2,403.3c-3.6,1.5-7.1,3.1-10.5,4.7l2.1,4.3c3.4-1.6,6.8-3.2,10.3-4.6L586.2,403.3L586.2,403.3z M565.5,413.4
			c-3.4,1.9-6.6,3.9-9.9,6l2.6,4c3.1-2,6.4-4,9.6-5.8L565.5,413.4L565.5,413.4z M546.1,425.9c-2.4,1.8-4.7,3.6-7,5.4l0,0
			c-0.1,0.1-0.1,0.1-0.2,0.2l0,0c-0.1,0.1-0.1,0.1-0.2,0.2c0,0,0,0,0,0c0,0,0,0-0.1,0l0,0c0,0-0.1,0.1-0.1,0.1c0,0,0,0,0,0
			c0,0,0,0-0.1,0c0,0,0,0,0,0c0,0-0.1,0.1-0.1,0.1c0,0,0,0,0,0c0,0,0,0,0,0c0,0,0,0,0,0c0,0,0,0,0,0c0,0,0,0,0,0c0,0,0,0-0.1,0
			c0,0,0,0,0,0c0,0,0,0,0,0c0,0,0,0,0,0c0,0,0,0,0,0c0,0,0,0,0,0c0,0,0,0,0,0c0,0,0,0-0.1,0c0,0,0,0,0,0c0,0,0,0,0,0c0,0,0,0,0,0
			c0,0,0,0,0,0c0,0,0,0,0,0c-0.1,0-0.1,0.1-0.2,0.1c0,0,0,0,0,0c-0.2,0.1-0.3,0.3-0.5,0.4l3.1,3.7c2.9-2.4,5.8-4.7,8.8-6.9
			L546.1,425.9L546.1,425.9z M523,446.1c0,0-0.1,0.1-0.1,0.1c0,0,0,0,0,0c0,0,0,0,0,0c0,0,0,0,0,0c-2.6,2.7-5.2,5.5-7.6,8.4l3.7,3.1
			c2.4-2.8,5-5.6,7.5-8.3L523,446.1L523,446.1z M508,463.7c-1.4,1.9-2.8,3.9-4.2,5.9c0,0,0,0,0,0c0,0,0,0,0,0.1l0,0
			c0,0-0.1,0.1-0.1,0.1c0,0,0,0,0,0c0,0,0,0,0,0.1c0,0,0,0,0,0c0,0-0.1,0.1-0.1,0.1c0,0,0,0,0,0c0,0,0,0,0,0c0,0,0,0,0,0
			c0,0,0,0,0,0c0,0,0,0,0,0c0,0,0,0,0,0.1c0,0,0,0,0,0c0,0,0,0,0,0c0,0,0,0,0,0c0,0,0,0,0,0c0,0,0,0,0,0c0,0,0,0,0,0c0,0,0,0,0,0
			c0,0,0,0,0,0c0,0,0,0,0,0c0,0,0,0,0,0c0,0,0,0,0,0.1c0,0,0,0,0,0c0,0,0,0,0,0c0,0,0,0,0,0c0,0,0,0,0,0c0,0,0,0,0,0
			c0,0-0.1,0.1-0.1,0.1c0,0,0,0,0,0c0,0,0,0,0,0c0,0,0,0,0,0c0,0.1-0.1,0.1-0.1,0.2c0,0,0,0,0,0c0,0,0,0,0,0.1c0,0,0,0,0,0
			c-0.1,0.1-0.1,0.1-0.1,0.2c0,0,0,0,0,0c-0.4,0.6-0.8,1.1-1.1,1.7l4,2.6c2-3.1,4.2-6.2,6.4-9.2L508,463.7L508,463.7z M495.5,483
			c-0.4,0.7-0.8,1.4-1.1,2.1c0,0,0,0,0,0c0,0-0.1,0.1-0.1,0.2c0,0,0,0,0,0c0,0,0,0,0,0c0,0,0,0,0,0c0,0,0,0,0,0c0,0,0,0,0,0
			c0,0,0,0,0,0.1c0,0,0,0,0,0c0,0,0,0,0,0c0,0,0,0,0,0c0,0,0,0,0,0c0,0,0,0,0,0.1c0,0,0,0,0,0c0,0,0,0,0,0.1c0,0,0,0,0,0
			c0,0,0,0,0,0c0,0,0,0,0,0c0,0,0,0,0,0.1c0,0,0,0,0,0c0,0,0,0,0,0.1c0,0,0,0,0,0c0,0,0,0,0,0.1c0,0,0,0,0,0c0,0,0,0,0,0.1l0,0
			c0,0,0,0.1,0,0.1l0,0c0,0,0,0,0,0.1c0,0,0,0,0,0c0,0.1-0.1,0.2-0.1,0.2l0,0c0,0.1-0.1,0.2-0.1,0.2l0,0c-1.1,2.1-2.2,4.3-3.2,6.4
			l4.3,2.1c1.6-3.4,3.3-6.7,5.2-10L495.5,483L495.5,483z M482.9,511c-0.3,0.9-0.6,1.7-0.9,2.6c0,0,0,0,0,0c0,0,0,0,0,0.1
			c0,0,0,0,0,0c0,0.1,0,0.1-0.1,0.2c0,0,0,0,0,0c0,0,0,0,0,0c0,0,0,0,0,0c0,0,0,0,0,0c0,0,0,0,0,0c0,0,0,0,0,0.1c0,0,0,0,0,0
			c0,0,0,0,0,0c0,0,0,0,0,0c0,0,0,0,0,0c0,0,0,0,0,0c0,0,0,0,0,0c0,0,0,0,0,0.1c0,0,0,0,0,0c0,0,0,0,0,0.1c0,0,0,0,0,0
			c0,0,0,0,0,0.1c0,0,0,0,0,0c0,0,0,0.1,0,0.1c0,0,0,0,0,0c0,0,0,0,0,0.1c0,0,0,0,0,0c0,0,0,0,0,0.1c0,0,0,0,0,0
			c0,0.1,0,0.1-0.1,0.2c0,0,0,0,0,0c0,0,0,0,0,0.1c0,0,0,0,0,0c0,0.1,0,0.1-0.1,0.2l0,0c0,0,0,0.1,0,0.1l0,0c0,0.1-0.1,0.2-0.1,0.3
			l0,0c-0.1,0.3-0.2,0.6-0.3,0.9l0,0c-0.1,0.4-0.2,0.7-0.3,1.1l0,0c0,0.1-0.1,0.2-0.1,0.3l0,0c0,0,0,0.1,0,0.1l0,0
			c0,0.1,0,0.1-0.1,0.2c0,0,0,0,0,0c0,0,0,0,0,0.1c0,0,0,0,0,0c0,0.1,0,0.1,0,0.2c0,0,0,0,0,0c0,0,0,0,0,0.1c0,0,0,0,0,0
			c0,0,0,0,0,0.1c0,0,0,0,0,0c0,0,0,0.1,0,0.1c0,0,0,0,0,0c0,0,0,0,0,0.1c0,0,0,0,0,0c0,0,0,0,0,0c0,0,0,0,0,0c0,0,0,0,0,0.1
			c0,0,0,0,0,0c0,0,0,0,0,0c0,0,0,0,0,0c0,0,0,0,0,0c0,0,0,0,0,0c0,0,0,0,0,0c0,0,0,0.1,0,0.1c0,0,0,0,0,0c0,0,0,0,0,0.1
			c0,0,0,0,0,0c0,0,0,0,0,0.1c0,0,0,0,0,0c0,0,0,0.1,0,0.1c0,0,0,0,0,0c0,0,0,0,0,0.1c0,0,0,0,0,0c-0.2,0.8-0.5,1.6-0.7,2.5l4.6,1.3
			c1-3.6,2.1-7.2,3.3-10.7L482.9,511L482.9,511z M476.8,533.2c-0.7,3.8-1.4,7.5-1.9,11.4l4.8,0.6c0.5-3.7,1.1-7.4,1.8-11.1
			L476.8,533.2L476.8,533.2z M473.9,556.1c-0.1,2.3-0.2,4.7-0.3,7l0,0c0,0,0,0.1,0,0.1l0,0c0,0.1,0,0.3,0,0.4c0,0,0,0,0,0
			c0,0,0,0,0,0.1l0,0c0,0,0,0,0,0.1c0,0,0,0,0,0c0,0,0,0.1,0,0.1l0,0c0,0.1,0,0.2,0,0.2l0,0c0,0,0,0,0,0.1c0,0,0,0,0,0
			c0,0,0,0,0,0.1c0,0,0,0,0,0c0,0,0,0,0,0.1c0,0,0,0,0,0c0,0.1,0,0.2,0,0.2l0,0c0,0,0,0,0,0.1c0,0,0,0,0,0c0,0,0,0,0,0.1
			c0,0,0,0,0,0c0,0,0,0,0,0.1c0,0,0,0,0,0c0,0,0,0,0,0.1l0,0c0,0.1,0,0.1,0,0.2c0,0,0,0,0,0c0,0,0,0,0,0.1c0,0,0,0,0,0
			c0,0,0,0,0,0.1c0,0,0,0,0,0c0,0,0,0,0,0.1c0,0,0,0,0,0c0,0,0,0,0,0.1c0,0,0,0,0,0c0,0,0,0,0,0.1c0,0,0,0,0,0c0,0.1,0,0.1,0,0.2
			c0,0,0,0,0,0c0,0,0,0,0,0.1c0,0,0,0,0,0c0,0,0,0,0,0.1c0,0,0,0,0,0c0,0,0,0,0,0c0,0,0,0,0,0c0,0,0,0,0,0c0,0,0,0,0,0
			c0,0,0,0,0,0.1c0,0,0,0,0,0c0,0,0,0.1,0,0.1c0,0,0,0,0,0c0,0,0,0,0,0.1c0,0,0,0,0,0c0,0,0,0,0,0c0,0,0,0,0,0c0,0,0,0,0,0
			c0,0,0,0,0,0c0,0,0,0,0,0c0,0,0,0,0,0c0,0,0,0,0,0c0,0,0,0,0,0c0,0,0,0.1,0,0.1l0,0l0,0c0,0,0,0,0,0.1c0,0,0,0,0,0c0,0,0,0,0,0.1
			c0,0,0,0,0,0c0,0.3,0,0.5,0,0.8l4.8,0c0-0.3,0-0.6,0-0.9c0-3.4,0.1-6.9,0.3-10.3L473.9,556.1L473.9,556.1z M479.5,586.2l-4.8,0.6
			c0.3,2.8,0.7,5.6,1.2,8.4c0,0,0,0,0,0c0,0,0,0,0,0.1c0,0,0,0,0,0c0,0.1,0,0.1,0,0.2c0,0,0,0,0,0c0,0,0,0,0,0.1c0,0,0,0,0,0
			c0,0,0,0,0,0c0,0,0,0,0,0c0,0,0,0.1,0,0.1c0,0,0,0,0,0c0,0,0,0,0,0c0,0,0,0,0,0c0,0,0,0,0,0c0,0,0,0,0,0c0,0,0,0,0,0
			c0,0,0,0.1,0,0.1c0,0,0,0,0,0c0,0,0,0,0,0.1c0,0,0,0,0,0c0,0,0,0,0,0.1c0,0,0,0,0,0c0,0,0,0.1,0,0.1l0,0c0,0,0,0.1,0,0.1
			c0,0,0,0,0,0c0,0,0,0,0,0.1c0,0,0,0,0,0c0,0.1,0,0.2,0,0.3l0,0c0.1,0.5,0.2,0.9,0.3,1.4l4.7-0.9
			C480.5,593.6,479.9,589.9,479.5,586.2L479.5,586.2z M483.6,608.2l-4.7,1.2c0.8,2.9,1.6,5.8,2.5,8.6c0,0,0,0,0,0
			c0,0.1,0,0.1,0.1,0.2c0,0,0,0,0,0c0,0,0,0,0,0c0,0,0,0,0,0c0,0,0,0,0,0c0,0,0,0,0,0c0,0,0,0,0,0c0,0,0,0,0,0.1c0,0,0,0,0,0
			c0,0,0,0,0,0.1c0,0,0,0,0,0c0,0,0,0,0,0.1c0,0,0,0,0,0c0,0,0,0.1,0,0.1l0,0c0,0,0,0,0,0.1l0,0c0.2,0.5,0.4,1.1,0.5,1.6l4.6-1.5
			C485.6,615.4,484.6,611.8,483.6,608.2L483.6,608.2z M490.7,629.5l-4.4,1.8c1.1,2.6,2.2,5.3,3.4,7.8l0,0c0,0.1,0.1,0.1,0.1,0.2l0,0
			c0,0,0,0,0,0.1c0,0,0,0,0,0c0,0,0,0.1,0.1,0.1c0,0,0,0,0,0c0,0,0,0,0,0.1c0,0,0,0,0,0c0,0,0,0,0,0.1c0,0,0,0,0,0c0,0,0,0,0,0.1
			c0,0,0,0,0,0c0,0,0,0,0,0c0,0,0,0,0,0c0,0,0,0,0,0c0,0,0,0,0,0c0,0,0,0,0,0c0,0,0,0.1,0,0.1c0,0,0,0,0,0c0,0,0,0,0,0.1
			c0,0,0,0,0,0c0.3,0.6,0.5,1.1,0.8,1.7l4.3-2.1C493.7,636.3,492.1,632.9,490.7,629.5L490.7,629.5z M504.5,656l-4.1,2.6
			c0.7,1.1,1.4,2.1,2.1,3.2l0,0c0,0,0.1,0.1,0.1,0.1l0,0c0,0,0,0,0,0.1l0,0c0,0.1,0.1,0.1,0.1,0.2l0,0c0,0,0.1,0.1,0.1,0.1l0,0
			c0,0,0,0,0,0.1l0,0c0,0,0,0,0,0.1l0,0c0,0,0.1,0.1,0.1,0.1l0,0c0,0.1,0.1,0.1,0.1,0.2c0,0,0,0,0,0c0,0,0,0,0,0.1l0,0
			c0,0,0.1,0.1,0.1,0.1c0,0,0,0,0,0c0,0,0,0,0,0.1c0,0,0,0,0,0c0,0,0.1,0.1,0.1,0.1c0,0,0,0,0,0c0,0,0,0,0,0.1c0,0,0,0,0,0
			c0,0,0.1,0.1,0.1,0.1c0,0,0,0,0,0c0,0,0,0,0,0.1c0,0,0,0,0,0c0,0,0.1,0.1,0.1,0.1l0,0c0,0,0,0,0,0.1c0,0,0,0,0,0
			c0,0,0.1,0.1,0.1,0.1l0,0c0,0,0,0,0,0.1c0,0,0,0,0,0c0,0,0.1,0.1,0.1,0.1l0,0c0,0,0,0,0,0.1l0,0c0.1,0.1,0.1,0.1,0.2,0.2l0,0
			c0.1,0.1,0.1,0.1,0.2,0.2l0,0c0.8,1.1,1.6,2.3,2.4,3.4l3.9-2.8C508.6,662.2,506.4,659.1,504.5,656L504.5,656z M517.7,674.1
			l-3.7,3.1c1,1.2,2,2.3,3,3.5c0,0,0,0,0,0c0.1,0.1,0.1,0.1,0.2,0.2c0,0,0,0,0,0c0,0,0,0,0,0c0,0,0,0,0,0c0,0.1,0.1,0.1,0.1,0.1
			c0,0,0,0,0,0c0,0,0,0,0,0c0,0,0,0,0,0c0,0.1,0.1,0.1,0.1,0.1c0,0,0,0,0,0c0,0,0,0,0,0c0,0,0,0,0,0c0,0.1,0.1,0.1,0.1,0.1
			c0,0,0,0,0,0c0,0,0,0,0,0c0,0,0,0,0,0c0,0.1,0.1,0.1,0.1,0.1c0,0,0,0,0,0c0,0,0,0,0,0c0,0,0,0,0,0c0,0,0.1,0.1,0.1,0.1
			c0,0,0,0,0,0c0,0,0,0,0,0c0,0,0,0,0,0c0.1,0.1,0.1,0.1,0.2,0.2c0,0,0,0,0,0c0,0,0,0,0,0c0,0,0,0,0,0c0,0,0.1,0.1,0.1,0.1
			c0,0,0,0,0,0c0,0,0,0,0,0c0,0,0,0,0,0c0,0,0.1,0.1,0.1,0.1c0,0,0,0,0,0c0,0,0,0,0,0c0,0,0,0,0,0c0,0.1,0.1,0.1,0.1,0.1
			c0,0,0,0,0,0c0,0,0,0,0,0c0,0,0,0,0,0c0,0.1,0.1,0.1,0.1,0.1c0,0,0,0,0,0c0,0,0,0,0,0c0,0,0,0,0,0c0.1,0.1,0.1,0.1,0.2,0.2
			c0,0,0,0,0,0c0.8,0.9,1.6,1.7,2.4,2.6l3.5-3.3C522.6,679.8,520.1,677,517.7,674.1L517.7,674.1z M533.1,690.4l-3.3,3.5
			c1.7,1.6,3.4,3.1,5.2,4.6l0,0c0,0,0,0,0.1,0.1l0,0c0,0,0.1,0.1,0.1,0.1c0,0,0,0,0,0c0,0,0,0,0,0c0,0,0,0,0,0c0,0,0,0,0.1,0.1l0,0
			c0,0,0,0,0.1,0.1c0,0,0,0,0,0c0,0,0,0,0,0c0,0,0,0,0,0c0,0,0,0,0,0c0,0,0,0,0,0c0,0,0,0,0.1,0c0,0,0,0,0,0c0,0,0,0,0,0
			c0,0,0,0,0,0c0,0,0,0,0,0c0,0,0,0,0,0c0,0,0,0,0.1,0c0,0,0,0,0,0c0,0,0,0,0,0c0,0,0,0,0,0c0,0,0,0,0,0c0,0,0.1,0.1,0.1,0.1
			c0,0,0,0,0,0c0,0,0,0,0,0c0,0,0,0,0,0c0.8,0.7,1.6,1.3,2.4,2l3-3.7C538.7,695.4,535.8,692.9,533.1,690.4L533.1,690.4z
			 M556.6,708.9l-2.7,4c3.2,2.1,6.5,4.1,9.8,6.1l2.4-4.2C563,712.9,559.7,711,556.6,708.9L556.6,708.9z M576.1,720.1l-2.1,4.3
			c1,0.5,2,1,3.1,1.5l0,0c0.1,0.1,0.2,0.1,0.3,0.2l0,0c0.1,0,0.2,0.1,0.2,0.1l0,0c0,0,0.1,0,0.1,0l0,0c0.1,0,0.1,0.1,0.2,0.1l0,0
			c0,0,0.1,0,0.1,0l0,0c0.1,0,0.2,0.1,0.2,0.1c0,0,0,0,0,0c0,0,0.1,0,0.1,0l0,0c0.1,0,0.1,0.1,0.2,0.1l0,0c0,0,0,0,0.1,0l0,0
			c0,0,0,0,0.1,0l0,0c0.1,0,0.1,0,0.2,0.1c0,0,0,0,0,0c0,0,0,0,0.1,0c0,0,0,0,0,0c0.1,0,0.1,0,0.2,0.1l0,0c0,0,0,0,0.1,0
			c0,0,0,0,0,0c0,0,0,0,0.1,0c0,0,0,0,0,0c0.1,0,0.1,0,0.2,0.1l0,0c0,0,0,0,0.1,0c0,0,0,0,0,0c0,0,0.1,0,0.1,0l0,0
			c0.1,0,0.1,0,0.2,0.1c0,0,0,0,0,0c0,0,0,0,0.1,0c0,0,0,0,0,0c0.1,0,0.1,0,0.2,0.1l0,0c0,0,0,0,0.1,0l0,0c0,0,0,0,0.1,0l0,0
			c0.1,0,0.1,0,0.2,0.1c0,0,0,0,0,0c0,0,0,0,0.1,0c0,0,0,0,0,0c0.1,0,0.1,0,0.2,0.1l0,0c0,0,0,0,0.1,0c0,0,0,0,0,0c0,0,0,0,0.1,0
			c0,0,0,0,0,0c0.1,0,0.1,0,0.2,0.1c0,0,0,0,0,0c0,0,0,0,0.1,0c0,0,0,0,0,0c0,0,0,0,0.1,0c0,0,0,0,0,0c0,0,0.1,0,0.1,0c0,0,0,0,0,0
			c0,0,0,0,0.1,0c0,0,0,0,0,0c0,0,0,0,0.1,0c0,0,0,0,0,0c0.1,0,0.1,0,0.2,0.1c0,0,0,0,0,0c0,0,0,0,0.1,0c0,0,0,0,0,0c0,0,0,0,0.1,0
			c0,0,0,0,0,0c0,0,0,0,0.1,0c0,0,0,0,0,0c0,0,0,0,0.1,0c0,0,0,0,0,0c0,0,0,0,0,0c0,0,0,0,0,0c0,0,0,0,0.1,0c0,0,0,0,0,0
			c0,0,0,0,0.1,0c0,0,0,0,0,0c0,0,0,0,0.1,0c0,0,0,0,0,0c0,0,0,0,0,0c0,0,0,0,0,0c0,0,0,0,0.1,0c0,0,0,0,0,0c0,0,0,0,0,0
			c0,0,0,0,0,0c0,0,0,0,0,0c0,0,0,0,0,0c0,0,0,0,0,0c0,0,0,0,0,0c0,0,0,0,0.1,0c0,0,0,0,0,0c0,0,0,0,0,0c0,0,0,0,0,0c0,0,0,0,0,0
			c0,0,0,0,0,0c0,0,0,0,0,0c0,0,0.1,0,0.1,0c0,0,0,0,0,0c0,0,0,0,0,0c0,0,0,0,0,0c0,0,0,0,0,0c0,0,0,0,0,0c0.1,0,0.1,0.1,0.2,0.1
			c0,0,0,0,0,0c0,0,0,0,0.1,0c0,0,0,0,0,0c0.1,0,0.2,0.1,0.2,0.1c0,0,0,0,0,0c0,0,0,0,0.1,0c0,0,0,0,0,0c0.3,0.1,0.6,0.3,0.9,0.4
			l1.9-4.4C582.9,723.4,579.4,721.8,576.1,720.1L576.1,720.1z M596.8,728.9l-1.6,4.5c1.9,0.7,3.8,1.3,5.7,1.9l0,0
			c0.1,0,0.2,0.1,0.3,0.1c0,0,0,0,0,0c0,0,0,0,0.1,0c0,0,0,0,0,0c0,0,0,0,0.1,0c0,0,0,0,0,0c0,0,0.1,0,0.1,0c0,0,0,0,0,0
			c0,0,0,0,0.1,0c0,0,0,0,0,0c0,0,0,0,0,0c0,0,0,0,0,0c0,0,0,0,0,0c0.1,0,0.1,0,0.2,0c0,0,0,0,0,0c0,0,0,0,0,0c0,0,0,0,0,0
			c0,0,0,0,0.1,0c0,0,0,0,0,0c0.1,0,0.1,0,0.2,0.1c0,0,0,0,0,0c0,0,0,0,0.1,0c0,0,0,0,0,0c1.3,0.4,2.6,0.8,3.9,1.2l1.3-4.6
			C603.9,731.4,600.3,730.2,596.8,728.9L596.8,728.9z M625.7,736.7l-0.9,4.7c3.8,0.7,7.6,1.3,11.4,1.8l0.6-4.8
			C633.1,738,629.4,737.4,625.7,736.7L625.7,736.7z M648,739.6l-0.3,4.8c2.1,0.1,4.2,0.2,6.3,0.3c0,0,0,0,0,0c0,0,0,0,0.1,0
			c0,0,0,0,0,0c0,0,0,0,0.1,0c0,0,0,0,0,0c0.1,0,0.2,0,0.3,0c0,0,0,0,0,0c0,0,0,0,0.1,0c0,0,0,0,0,0c0,0,0,0,0.1,0c0,0,0,0,0,0
			c0,0,0,0,0.1,0c0,0,0,0,0,0c0,0,0.1,0,0.1,0c0,0,0,0,0,0c0,0,0,0,0,0c0,0,0,0,0,0c0,0,0,0,0,0c0,0,0,0,0,0c0,0,0,0,0,0
			c0,0,0,0,0.1,0c0,0,0,0,0,0c0,0,0.1,0,0.1,0l0,0c0,0,0.1,0,0.1,0c0,0,0,0,0,0c0,0,0,0,0.1,0c0,0,0,0,0,0c0,0,0,0,0.1,0
			c0,0,0,0,0,0c0,0,0,0,0.1,0l0,0c0.1,0,0.1,0,0.2,0l0,0c0,0,0.1,0,0.1,0c0,0,0,0,0,0c0,0,0.1,0,0.1,0l0,0c1.1,0,2.2,0,3.3,0.1
			l0-4.8C655.5,739.9,651.7,739.8,648,739.6L648,739.6z M681.7,738.9c-3.7,0.4-7.5,0.7-11.2,0.9l0.2,4.8c0,0,0,0,0,0c0,0,0,0,0,0
			c0,0,0,0,0.1,0c0,0,0,0,0,0c0.1,0,0.1,0,0.2,0c0,0,0,0,0,0c0,0,0,0,0,0c0,0,0,0,0,0c0,0,0,0,0,0c0,0,0,0,0.1,0c0,0,0,0,0,0
			c0.1,0,0.1,0,0.2,0c0,0,0,0,0,0c0,0,0,0,0.1,0c0,0,0,0,0,0c0,0,0,0,0.1,0c0,0,0,0,0,0c1.6-0.1,3.1-0.2,4.7-0.3l0,0
			c0,0,0.1,0,0.1,0c0,0,0,0,0,0c0.1,0,0.2,0,0.3,0l0,0c0,0,0.1,0,0.1,0l0,0c0,0,0.1,0,0.1,0c0,0,0,0,0,0c0.1,0,0.2,0,0.3,0
			c0,0,0,0,0,0c0,0,0,0,0.1,0c0,0,0,0,0,0c0,0,0,0,0.1,0c0,0,0,0,0,0c0.1,0,0.1,0,0.2,0c0,0,0,0,0,0c0,0,0,0,0.1,0c0,0,0,0,0,0
			c0,0,0,0,0.1,0c0,0,0,0,0,0c0,0,0,0,0.1,0c0,0,0,0,0,0c0.1,0,0.1,0,0.2,0c0,0,0,0,0,0c0,0,0,0,0.1,0c0,0,0,0,0,0c0,0,0,0,0.1,0
			c0,0,0,0,0,0c0,0,0,0,0.1,0c0,0,0,0,0,0c0,0,0.1,0,0.1,0l0,0c0,0,0.1,0,0.1,0c0,0,0,0,0,0c0,0,0,0,0.1,0c0,0,0,0,0,0
			c0,0,0,0,0.1,0c0,0,0,0,0,0c0,0,0,0,0.1,0c0,0,0,0,0,0c0,0,0.1,0,0.1,0c0,0,0,0,0,0c0,0,0,0,0.1,0c0,0,0,0,0,0c0,0,0,0,0.1,0
			c0,0,0,0,0,0c0,0,0,0,0.1,0c0,0,0,0,0,0c0,0,0,0,0.1,0c0,0,0,0,0,0c0,0,0.1,0,0.1,0c0,0,0,0,0,0c0,0,0,0,0.1,0c0,0,0,0,0,0
			c0,0,0,0,0.1,0c0,0,0,0,0,0c0,0,0,0,0.1,0c0,0,0,0,0,0c0.1,0,0.1,0,0.2,0l0,0c0,0,0.1,0,0.1,0c0,0,0,0,0,0c0,0,0,0,0.1,0
			c0,0,0,0,0,0c0,0,0.1,0,0.1,0l0,0c0.1,0,0.2,0,0.3,0h0c0.7-0.1,1.4-0.1,2.1-0.2L681.7,738.9L681.7,738.9z M711.2,733.4
			c-3.6,1-7.3,1.8-10.9,2.6l1,4.7c1.1-0.2,2.3-0.5,3.4-0.7c0,0,0,0,0,0c0.1,0,0.2-0.1,0.3-0.1c0,0,0,0,0,0c0,0,0,0,0.1,0
			c0,0,0,0,0,0c0.1,0,0.1,0,0.2,0c0,0,0,0,0,0c0,0,0,0,0.1,0c0,0,0,0,0,0c0,0,0,0,0.1,0c0,0,0,0,0,0c0.1,0,0.1,0,0.2,0c0,0,0,0,0,0
			c0,0,0,0,0.1,0c0,0,0,0,0,0c0,0,0,0,0,0c0,0,0,0,0,0c0,0,0,0,0.1,0c0,0,0,0,0,0c0,0,0.1,0,0.1,0c0,0,0,0,0,0c0,0,0,0,0.1,0
			c0,0,0,0,0,0c0,0,0,0,0,0c0,0,0,0,0,0c0,0,0,0,0.1,0c0,0,0,0,0,0c0,0,0.1,0,0.1,0c0,0,0,0,0,0c0,0,0,0,0,0c0,0,0,0,0,0
			c0,0,0,0,0,0c0,0,0,0,0,0c0,0,0,0,0,0c0,0,0,0,0,0c0,0,0.1,0,0.1,0c0,0,0,0,0,0c0,0,0,0,0,0c0,0,0,0,0,0c0,0,0,0,0,0c0,0,0,0,0,0
			c0,0,0,0,0,0c0,0,0,0,0.1,0c0,0,0,0,0,0c0,0,0,0,0.1,0c0,0,0,0,0,0c0,0,0,0,0,0c0,0,0,0,0,0c0,0,0,0,0,0c0,0,0,0,0,0
			c0,0,0,0,0.1,0c0,0,0,0,0,0c0,0,0.1,0,0.1,0c0,0,0,0,0,0c0,0,0,0,0.1,0c0,0,0,0,0,0c0,0,0,0,0.1,0c0,0,0,0,0,0c0,0,0,0,0.1,0
			c0,0,0,0,0,0c0,0,0.1,0,0.1,0l0,0c0,0,0,0,0.1,0c0,0,0,0,0,0c0,0,0,0,0.1,0c0,0,0,0,0,0c0.1,0,0.1,0,0.2,0l0,0c0,0,0.1,0,0.1,0
			c0,0,0,0,0,0c0,0,0,0,0.1,0c0,0,0,0,0,0c0.1,0,0.2,0,0.3-0.1c0,0,0,0,0,0c0,0,0.1,0,0.1,0c0,0,0,0,0,0c0.1,0,0.2,0,0.3-0.1
			c0,0,0,0,0,0c0,0,0.1,0,0.1,0c0,0,0,0,0,0c0.1,0,0.2-0.1,0.3-0.1l0,0c1-0.3,2.1-0.5,3.1-0.8L711.2,733.4L711.2,733.4z
			 M732.5,726.3c-3.5,1.4-7,2.7-10.6,3.9l1.5,4.6c0.1,0,0.3-0.1,0.4-0.1l0,0c0,0,0.1,0,0.1,0l0,0c0.1,0,0.1,0,0.2-0.1c0,0,0,0,0,0
			c0,0,0,0,0.1,0c0,0,0,0,0,0c0,0,0,0,0.1,0c0,0,0,0,0,0c0,0,0.1,0,0.1,0c0,0,0,0,0,0c0,0,0,0,0.1,0c0,0,0,0,0,0c0,0,0,0,0.1,0
			c0,0,0,0,0,0c0,0,0,0,0.1,0c0,0,0,0,0,0c0,0,0,0,0.1,0c0,0,0,0,0,0c0,0,0,0,0,0c0,0,0,0,0,0c0,0,0,0,0,0c0,0,0,0,0,0c0,0,0,0,0,0
			c0,0,0.1,0,0.1,0c0,0,0,0,0,0c0,0,0,0,0,0c0,0,0,0,0,0c0,0,0,0,0,0c0,0,0,0,0,0c0,0,0,0,0.1,0l0,0c0,0,0.1,0,0.1,0c0,0,0,0,0,0
			c0,0,0,0,0.1,0c0,0,0,0,0,0c0,0,0,0,0.1,0c0,0,0,0,0,0c0.1,0,0.2-0.1,0.3-0.1c0,0,0,0,0,0c2.9-1,5.7-2.1,8.5-3.2L732.5,726.3
			L732.5,726.3z M752.8,716.6c-3.3,1.8-6.6,3.5-10,5.1l2.1,4.3c1.3-0.6,2.6-1.3,3.9-1.9c0,0,0,0,0,0c0,0,0.1,0,0.1,0c0,0,0,0,0,0
			c0.1,0,0.2-0.1,0.2-0.1l0,0c0,0,0,0,0.1,0l0,0c0.1,0,0.1-0.1,0.2-0.1c0,0,0,0,0,0c0,0,0,0,0.1,0c0,0,0,0,0,0
			c0.1,0,0.1-0.1,0.2-0.1l0,0c0,0,0,0,0.1,0c0,0,0,0,0,0c0,0,0,0,0.1,0c0,0,0,0,0,0c0,0,0.1-0.1,0.1-0.1c0,0,0,0,0,0c0,0,0,0,0.1,0
			c0,0,0,0,0,0c0,0,0,0,0.1,0c0,0,0,0,0,0c0,0,0.1,0,0.1,0l0,0c0,0,0,0,0.1,0c0,0,0,0,0,0c0,0,0,0,0.1,0c0,0,0,0,0,0
			c0,0,0.1,0,0.1,0l0,0c0,0,0,0,0.1,0c0,0,0,0,0,0c0,0,0,0,0.1,0c0,0,0,0,0,0c0,0,0,0,0.1,0c0,0,0,0,0,0c0,0,0,0,0.1,0c0,0,0,0,0,0
			c0,0,0,0,0.1,0c0,0,0,0,0,0c0,0,0,0,0.1,0c0,0,0,0,0,0c0,0,0,0,0.1,0l0,0c0,0,0,0,0.1,0c0,0,0,0,0,0c0,0,0,0,0.1,0c0,0,0,0,0,0
			c0,0,0,0,0.1,0c0,0,0,0,0,0c0,0,0,0,0.1,0c0,0,0,0,0,0c0,0,0,0,0.1,0c0,0,0,0,0,0c0,0,0,0,0.1,0c0,0,0,0,0,0c0,0,0,0,0.1,0l0,0
			c0,0,0,0,0.1,0c0,0,0,0,0,0c0,0,0,0,0.1,0c0,0,0,0,0,0c0,0,0,0,0.1,0c0,0,0,0,0,0c0,0,0.1,0,0.1,0l0,0c0,0,0,0,0.1,0c0,0,0,0,0,0
			c0,0,0,0,0.1,0c0,0,0,0,0,0c0,0,0.1-0.1,0.1-0.1c0,0,0,0,0,0c0,0,0,0,0.1,0c0,0,0,0,0,0c0,0,0,0,0.1,0c0,0,0,0,0,0
			c0,0,0.1,0,0.1,0l0,0c0,0,0,0,0.1,0c0,0,0,0,0,0c0,0,0,0,0.1,0l0,0c0.1,0,0.1-0.1,0.2-0.1l0,0c0,0,0,0,0.1,0c0,0,0,0,0,0
			c0.1,0,0.2-0.1,0.2-0.1l0,0c0.7-0.4,1.4-0.8,2.1-1.2L752.8,716.6L752.8,716.6z M777.8,700.1c-2.9,2.3-6,4.5-9,6.7l2.7,4
			c0.6-0.4,1.2-0.8,1.8-1.2c0,0,0,0,0,0c0.1-0.1,0.1-0.1,0.2-0.2l0,0c0,0,0,0,0.1,0l0,0c0,0,0,0,0.1-0.1l0,0c0,0,0,0,0.1,0
			c0,0,0,0,0,0c0,0,0,0,0.1,0c0,0,0,0,0,0c0,0,0,0,0.1,0c0,0,0,0,0,0c0,0,0,0,0.1,0c0,0,0,0,0,0c0,0,0,0,0,0c0,0,0,0,0,0
			c0,0,0,0,0.1,0c0,0,0,0,0,0c0,0,0,0,0.1,0c0,0,0,0,0,0c0,0,0,0,0,0c0,0,0,0,0,0c0,0,0,0,0,0c0,0,0,0,0,0c0,0,0,0,0.1,0
			c0,0,0,0,0,0c0,0,0,0,0,0c0,0,0,0,0,0c0,0,0,0,0,0c0,0,0,0,0,0c0,0,0,0,0,0c0,0,0,0,0.1-0.1c0,0,0,0,0,0c0,0,0,0,0,0c0,0,0,0,0,0
			c0,0,0,0,0,0c0,0,0,0,0,0c0,0,0.1,0,0.1-0.1c0,0,0,0,0,0c0,0,0,0,0,0c0,0,0,0,0,0c0,0,0,0,0,0c0,0,0,0,0,0c0.1,0,0.1-0.1,0.2-0.1
			c0,0,0,0,0,0c0,0,0,0,0.1,0c0,0,0,0,0,0c0.1-0.1,0.1-0.1,0.2-0.2c0,0,0,0,0,0c1.8-1.3,3.6-2.7,5.3-4.1L777.8,700.1L777.8,700.1z
			 M794.5,685.2c-2.6,2.6-5.4,5.2-8.1,7.7l3.2,3.6c1.1-1,2.2-2,3.3-3l0,0c1.5-1.4,3-2.9,4.5-4.4c0,0,0,0,0,0c0,0,0,0,0.1-0.1
			c0,0,0,0,0,0c0,0,0,0,0.1-0.1l0,0c0,0,0,0,0.1-0.1c0,0,0,0,0,0c0,0,0,0,0,0c0,0,0,0,0,0c0,0,0,0,0,0c0,0,0,0,0,0c0,0,0,0,0,0
			c0,0,0,0,0,0c0,0,0,0,0,0c0,0,0,0,0,0c0,0,0,0,0,0c0,0,0,0,0,0L794.5,685.2L794.5,685.2z M809.2,668.2c-2.3,3-4.6,5.9-7.1,8.7
			l3.6,3.2c0.2-0.3,0.5-0.5,0.7-0.8c0,0,0,0,0,0c0,0,0,0,0,0c0,0,0,0,0,0c0,0,0,0,0,0c0,0,0,0,0,0c0,0,0,0,0.1-0.1c0,0,0,0,0,0
			c0,0,0,0,0,0c0,0,0,0,0,0c0,0,0,0,0,0c0,0,0,0,0,0c0,0,0,0,0,0c0,0,0,0,0,0c0,0,0,0,0,0c0,0,0,0,0,0c0,0,0,0,0,0
			c0,0,0.1-0.1,0.1-0.1l0,0c0,0,0,0,0.1-0.1c0,0,0,0,0,0c2.1-2.4,4.1-4.9,6-7.4L809.2,668.2L809.2,668.2z M825.3,643
			c-1.7,3.3-3.6,6.6-5.5,9.8l4.1,2.5c1.4-2.4,2.8-4.8,4.2-7.3l0,0c0-0.1,0.1-0.2,0.1-0.2l0,0c0,0,0,0,0-0.1l0,0c0,0,0-0.1,0-0.1
			c0,0,0,0,0,0c0,0,0,0,0-0.1c0,0,0,0,0,0c0,0,0,0,0-0.1c0,0,0,0,0,0c0,0,0,0,0-0.1c0,0,0,0,0,0c0,0,0,0,0,0c0,0,0,0,0,0
			c0,0,0,0,0,0c0,0,0,0,0,0c0,0,0,0,0,0c0,0,0-0.1,0-0.1c0,0,0,0,0,0c0,0,0,0,0,0c0,0,0,0,0,0c0,0,0,0,0,0c0,0,0,0,0,0
			c0-0.1,0.1-0.1,0.1-0.2c0,0,0,0,0,0c0.3-0.5,0.5-1,0.8-1.6L825.3,643L825.3,643z M834.2,622.5c-1.3,3.5-2.6,7-4.1,10.4l4.4,1.9
			c0.6-1.3,1.1-2.6,1.6-3.9c0,0,0,0,0,0c0,0,0,0,0-0.1c0,0,0,0,0,0c0-0.1,0-0.1,0.1-0.2c0,0,0,0,0,0c0,0,0,0,0-0.1c0,0,0,0,0,0
			c0,0,0,0,0-0.1c0,0,0,0,0,0c0,0,0-0.1,0-0.1c0,0,0,0,0,0c0,0,0,0,0,0c0,0,0,0,0,0c0,0,0,0,0,0c0,0,0,0,0,0c0,0,0,0,0-0.1
			c0,0,0,0,0,0c0,0,0,0,0,0c0,0,0,0,0,0c0,0,0,0,0,0c0,0,0,0,0-0.1c0,0,0,0,0,0c0,0,0,0,0-0.1c0,0,0,0,0,0c0,0,0,0,0-0.1
			c0,0,0,0,0,0c0,0,0,0,0-0.1c0,0,0,0,0,0c0,0,0-0.1,0-0.1l0,0c0,0,0,0,0-0.1c0,0,0,0,0,0c0,0,0,0,0-0.1l0,0c0-0.1,0-0.1,0.1-0.2
			c0,0,0,0,0,0c0.7-1.7,1.3-3.4,1.9-5.1l0,0c0,0,0-0.1,0-0.1c0,0,0,0,0,0c0,0,0-0.1,0-0.1L834.2,622.5L834.2,622.5z M840.3,600.9
			c-0.8,3.6-1.7,7.3-2.7,10.9l4.6,1.3c0.1-0.5,0.3-0.9,0.4-1.4c0,0,0,0,0,0c0,0,0-0.1,0-0.1c0,0,0,0,0,0c0-0.1,0-0.1,0-0.2l0,0
			c0,0,0,0,0-0.1c0,0,0,0,0,0c0,0,0-0.1,0-0.1l0,0c0,0,0-0.1,0-0.1c0,0,0,0,0,0c0,0,0,0,0-0.1c0,0,0,0,0,0c0,0,0,0,0-0.1
			c0,0,0,0,0,0c0,0,0-0.1,0-0.1c0,0,0,0,0,0c0,0,0,0,0-0.1c0,0,0,0,0,0c0,0,0,0,0,0c0,0,0,0,0,0c0,0,0,0,0,0c0,0,0,0,0-0.1
			c0,0,0,0,0,0c0,0,0,0,0,0c0,0,0,0,0,0c0,0,0,0,0,0c0,0,0,0,0,0c0-0.1,0-0.1,0-0.2c0,0,0,0,0,0c0,0,0,0,0,0c0,0,0,0,0,0
			c0-0.1,0-0.1,0-0.2c0,0,0,0,0,0c0,0,0,0,0-0.1c0,0,0,0,0,0c0,0,0,0,0-0.1c0,0,0,0,0,0c0-0.1,0-0.1,0.1-0.2c0,0,0,0,0,0
			c0,0,0,0,0-0.1c0,0,0,0,0,0c0-0.1,0-0.1,0.1-0.2c0,0,0,0,0,0c0,0,0,0,0-0.1c0,0,0,0,0,0c0-0.1,0-0.2,0.1-0.3c0,0,0,0,0,0
			c0-0.1,0-0.2,0.1-0.3c0,0,0,0,0,0c0,0,0,0,0-0.1c0,0,0,0,0,0c0-0.1,0-0.1,0-0.2c0,0,0,0,0,0c0,0,0,0,0-0.1c0,0,0,0,0,0
			c0-0.1,0-0.2,0.1-0.3c0,0,0,0,0,0c0-0.1,0-0.2,0.1-0.2c0,0,0,0,0,0c0,0,0,0,0-0.1c0,0,0,0,0,0c0-0.1,0-0.1,0-0.2c0,0,0,0,0,0
			c0,0,0,0,0-0.1c0,0,0,0,0,0c0-0.1,0-0.1,0-0.2c0,0,0,0,0,0c0,0,0,0,0,0c0,0,0,0,0,0c0,0,0,0,0,0c0,0,0,0,0,0c0,0,0-0.1,0-0.1
			c0,0,0,0,0,0c0,0,0,0,0,0c0,0,0,0,0,0c0,0,0,0,0,0c0,0,0,0,0,0c0,0,0,0,0,0c0,0,0,0,0-0.1c0,0,0,0,0,0c0,0,0,0,0,0c0,0,0,0,0,0
			c0,0,0,0,0-0.1c0,0,0,0,0,0c0,0,0-0.1,0-0.1c0,0,0,0,0,0c0,0,0,0,0-0.1c0,0,0,0,0,0c0,0,0,0,0-0.1c0,0,0,0,0,0c0-0.1,0-0.1,0-0.2
			c0,0,0,0,0,0c0,0,0,0,0-0.1c0,0,0,0,0,0c0-0.1,0-0.1,0-0.2l0,0c0,0,0-0.1,0-0.1l0,0c0.3-1.3,0.6-2.6,0.9-4L840.3,600.9
			L840.3,600.9z M843.9,571.3c-0.1,3.7-0.3,7.5-0.7,11.2l4.8,0.5c0.1-1,0.2-2.1,0.3-3.1l0,0c0-0.1,0-0.2,0-0.3c0,0,0,0,0,0
			c0,0,0,0,0-0.1c0,0,0,0,0,0c0,0,0,0,0-0.1c0,0,0,0,0,0c0,0,0-0.1,0-0.1c0,0,0,0,0,0c0,0,0,0,0-0.1c0,0,0,0,0,0c0,0,0,0,0-0.1
			c0,0,0,0,0,0c0,0,0,0,0-0.1c0,0,0,0,0,0c0,0,0-0.1,0-0.1c0,0,0,0,0,0c0,0,0,0,0,0c0,0,0,0,0,0c0,0,0,0,0,0c0,0,0,0,0,0
			c0,0,0,0,0,0c0,0,0-0.1,0-0.1c0,0,0,0,0,0c0,0,0,0,0,0c0,0,0,0,0,0c0,0,0,0,0-0.1c0,0,0,0,0,0c0,0,0,0,0-0.1c0,0,0,0,0,0
			c0,0,0-0.1,0-0.1c0,0,0,0,0,0c0,0,0,0,0-0.1c0,0,0,0,0,0c0,0,0,0,0-0.1c0,0,0,0,0,0c0-0.1,0-0.1,0-0.2c0,0,0,0,0,0c0,0,0,0,0-0.1
			c0,0,0,0,0,0c0-0.1,0-0.2,0-0.3c0,0,0,0,0,0c0,0,0,0,0-0.1c0,0,0,0,0,0c0-0.4,0.1-0.9,0.1-1.3c0,0,0,0,0,0c0-0.1,0-0.2,0-0.3
			c0,0,0,0,0,0c0,0,0,0,0-0.1c0,0,0,0,0,0c0-0.1,0-0.2,0-0.3c0,0,0,0,0,0c0,0,0,0,0-0.1c0,0,0,0,0,0c0-0.1,0-0.1,0-0.2c0,0,0,0,0,0
			c0,0,0,0,0-0.1c0,0,0,0,0,0c0,0,0,0,0-0.1c0,0,0,0,0,0c0-0.1,0-0.1,0-0.2c0,0,0,0,0,0c0,0,0,0,0,0c0,0,0,0,0,0c0,0,0,0,0,0
			c0,0,0,0,0,0c0,0,0-0.1,0-0.1c0,0,0,0,0,0c0,0,0,0,0,0c0,0,0,0,0,0c0,0,0,0,0,0c0,0,0,0,0,0c0,0,0,0,0,0c0,0,0-0.1,0-0.1
			c0,0,0,0,0,0c0,0,0,0,0-0.1c0,0,0,0,0,0c0,0,0,0,0-0.1c0,0,0,0,0,0c0,0,0,0,0-0.1c0,0,0,0,0,0c0-0.1,0-0.1,0-0.2c0,0,0,0,0,0
			c0,0,0-0.1,0-0.1c0,0,0,0,0,0c0-0.8,0.1-1.5,0.1-2.3L843.9,571.3L843.9,571.3z M847.8,548.4l-4.8,0.5c0.4,3.7,0.7,7.5,0.8,11.2
			l4.8-0.2C848.4,556,848.2,552.2,847.8,548.4L847.8,548.4z M843.7,525.7l-4.7,1.2c0.9,3.6,1.7,7.3,2.3,11l4.7-0.8
			c-0.1-0.4-0.1-0.8-0.2-1.2c0,0,0,0,0,0c0-0.1,0-0.2,0-0.3c0,0,0,0,0,0c0,0,0,0,0-0.1c0,0,0,0,0,0c0-0.1,0-0.1,0-0.2c0,0,0,0,0,0
			c0,0,0,0,0-0.1c0,0,0,0,0,0c0-0.1,0-0.1,0-0.2c0,0,0,0,0,0c0,0,0,0,0-0.1c0,0,0,0,0,0c0,0,0,0,0-0.1c0,0,0,0,0,0c0,0,0-0.1,0-0.1
			c0,0,0,0,0,0c0,0,0,0,0,0c0,0,0,0,0,0c0,0,0,0,0,0c0,0,0,0,0,0c0,0,0-0.1,0-0.1c0,0,0,0,0,0c0,0,0,0,0,0c0,0,0,0,0,0c0,0,0,0,0,0
			c0,0,0,0,0,0c0,0,0,0,0,0c0,0,0,0,0,0c0,0,0-0.1,0-0.1c0,0,0,0,0,0c0,0,0,0,0,0c0,0,0,0,0,0c0,0,0,0,0,0c0,0,0,0,0,0
			c0,0,0-0.1,0-0.1c0,0,0,0,0,0c0,0,0,0,0,0c0,0,0,0,0,0c0,0,0,0,0,0c0,0,0,0,0,0c0,0,0,0,0,0c0,0,0,0,0,0c0,0,0-0.1,0-0.1
			c0,0,0,0,0,0c0,0,0,0,0,0c0,0,0,0,0,0c0,0,0,0,0,0c0,0,0,0,0,0c0,0,0-0.1,0-0.1c0,0,0,0,0,0c0,0,0,0,0,0c0,0,0,0,0,0c0,0,0,0,0,0
			c0,0,0,0,0,0c0,0,0-0.1,0-0.1c0,0,0,0,0,0c0,0,0,0,0,0c0,0,0,0,0,0c0,0,0,0,0,0c0,0,0,0,0,0c0-0.1,0-0.1,0-0.2c0,0,0,0,0,0
			c0,0,0,0,0-0.1c0,0,0,0,0,0c0,0,0,0,0-0.1c0,0,0,0,0,0c0,0,0-0.1,0-0.1c0,0,0,0,0,0c0,0,0,0,0-0.1c0,0,0,0,0,0c0,0,0,0,0-0.1
			c0,0,0,0,0,0c0-0.1,0-0.1,0-0.2c0,0,0,0,0,0c0,0,0,0,0-0.1c0,0,0,0,0,0c0-0.1,0-0.2-0.1-0.3c0,0,0,0,0,0
			C844.7,529.6,844.2,527.7,843.7,525.7L843.7,525.7z M833.7,496.7l-4.4,2c1.5,3.4,3,6.9,4.3,10.4l4.5-1.7c-0.1-0.3-0.2-0.6-0.3-0.8
			l0,0c0-0.1,0-0.1-0.1-0.2l0,0c0,0,0-0.1,0-0.1l0,0c0,0,0,0,0-0.1l0,0c0,0,0-0.1,0-0.1c0,0,0,0,0,0c0,0,0,0,0-0.1c0,0,0,0,0,0
			c0,0,0,0,0-0.1c0,0,0,0,0,0c0,0,0,0,0-0.1c0,0,0,0,0,0c0,0,0,0,0-0.1c0,0,0,0,0,0c0,0,0,0,0,0c0,0,0,0,0,0c0,0,0,0,0-0.1
			c0,0,0,0,0,0c0,0,0,0,0-0.1c0,0,0,0,0,0c0,0,0,0,0,0c0,0,0,0,0,0c0,0,0,0,0,0c0,0,0-0.1,0-0.1c0,0,0,0,0,0c0,0,0,0,0,0
			c0,0,0,0,0,0c0,0,0,0,0,0c0,0,0,0,0,0c0-0.1,0-0.1-0.1-0.2c0,0,0,0,0,0c0,0,0,0,0-0.1c0,0,0,0,0,0c0-0.1,0-0.1-0.1-0.2
			c0,0,0,0,0,0c0,0,0,0,0-0.1c0,0,0,0,0,0c0-0.1,0-0.1-0.1-0.2c0,0,0,0,0,0c0,0,0,0,0-0.1c0,0,0,0,0,0c0-0.1-0.1-0.2-0.1-0.2
			c0,0,0,0,0,0c0-0.1-0.1-0.2-0.1-0.2c0,0,0,0,0,0c0-0.1-0.1-0.2-0.1-0.3c0,0,0,0,0,0c0-0.1-0.1-0.2-0.1-0.3c0,0,0,0,0,0
			c0-0.1-0.1-0.2-0.1-0.3c0,0,0,0,0,0c0-0.1-0.1-0.2-0.1-0.3c0,0,0,0,0,0c0-0.1-0.1-0.2-0.1-0.3c0,0,0,0,0,0c0-0.1-0.1-0.2-0.1-0.2
			c0,0,0,0,0,0c0-0.1-0.1-0.2-0.1-0.2c0,0,0,0,0,0c0-0.1-0.1-0.2-0.1-0.2c0,0,0,0,0,0c0,0,0,0,0-0.1c0,0,0,0,0,0
			c0-0.1,0-0.1-0.1-0.2c0,0,0,0,0,0c0,0,0,0,0,0c0,0,0,0,0,0c0-0.1,0-0.1-0.1-0.2c0,0,0,0,0,0c0,0,0,0,0,0c0,0,0,0,0,0c0,0,0,0,0,0
			c0,0,0,0,0,0c0,0,0,0,0-0.1c0,0,0,0,0,0c0,0,0,0,0,0c0,0,0,0,0,0c0,0,0,0,0,0c0,0,0,0,0,0c0,0,0,0,0,0c0,0,0,0,0,0c0,0,0,0,0,0
			c0,0,0,0,0,0c0,0,0,0,0,0c0,0,0,0,0-0.1c0,0,0,0,0,0c0,0,0,0,0-0.1c0,0,0,0,0,0c0,0,0,0,0,0c0,0,0,0,0,0c0,0,0,0,0-0.1
			c0,0,0,0,0,0c0,0,0,0,0-0.1c0,0,0,0,0,0c0,0,0,0,0-0.1c0,0,0,0,0,0c0,0,0,0,0-0.1c0,0,0,0,0,0c0,0,0-0.1,0-0.1l0,0c0,0,0,0,0-0.1
			c0,0,0,0,0,0c0-0.1-0.1-0.2-0.1-0.2l0,0C834.6,498.7,834.1,497.7,833.7,496.7L833.7,496.7z M822.9,476.3l-4.1,2.5
			c2,3.2,3.8,6.4,5.6,9.7l4.2-2.3c-1.7-3.3-3.6-6.5-5.5-9.6c0,0,0,0,0,0c0-0.1-0.1-0.1-0.1-0.2c0,0,0,0,0,0
			C822.9,476.4,822.9,476.4,822.9,476.3L822.9,476.3z M809.5,457.6l-3.7,3c2.4,2.9,4.7,5.9,6.8,8.9l3.9-2.8c-1.1-1.5-2.2-3-3.4-4.5
			l0,0c0,0,0,0,0-0.1c0,0,0,0,0,0c0-0.1-0.1-0.1-0.1-0.2c0,0,0,0,0,0c0,0,0,0,0,0c0,0,0,0,0,0c0,0-0.1-0.1-0.1-0.1c0,0,0,0,0,0
			c0,0,0,0,0,0c0,0,0,0,0,0c0,0,0,0,0,0c0,0,0,0,0,0c0,0,0,0,0-0.1c0,0,0,0,0,0c0,0,0,0,0,0c0,0,0,0,0,0c0,0,0,0,0,0c0,0,0,0,0,0
			c0,0,0,0,0,0c0,0,0,0,0,0c0,0,0,0,0,0c0,0,0,0,0,0c0,0,0,0,0,0c0,0,0,0,0-0.1c0,0,0,0,0,0c0,0,0,0,0-0.1c0,0,0,0,0,0c0,0,0,0,0,0
			c0,0,0,0,0,0c0,0,0,0,0-0.1c0,0,0,0,0,0c0,0,0,0-0.1-0.1l0,0c0,0,0,0,0-0.1c0,0,0,0,0,0c0,0-0.1-0.1-0.1-0.1l0,0c0,0,0,0-0.1-0.1
			l0,0c-0.1-0.1-0.1-0.1-0.2-0.2l0,0c-0.3-0.4-0.6-0.8-0.9-1.1c0,0,0,0,0,0c-0.1-0.1-0.1-0.1-0.2-0.2l0,0c-0.1-0.1-0.1-0.1-0.2-0.2
			l0,0c0,0-0.1-0.1-0.1-0.1l0,0c0,0,0,0,0-0.1c0,0,0,0,0,0c0,0,0,0,0-0.1c0,0,0,0,0,0c0,0,0,0-0.1-0.1c0,0,0,0,0,0c0,0,0,0,0,0
			c0,0,0,0,0,0c0,0,0,0,0,0c0,0,0,0,0,0c0,0,0,0,0-0.1c0,0,0,0,0,0c0,0,0,0,0,0c0,0,0,0,0,0c0,0,0,0,0,0c0,0-0.1-0.1-0.1-0.1
			c0,0,0,0,0,0c0,0,0,0,0,0c0,0,0,0,0,0C809.7,457.8,809.6,457.7,809.5,457.6L809.5,457.6z M788.1,435.5l-3.2,3.6
			c2.8,2.5,5.6,5,8.2,7.6l3.4-3.4c-2.6-2.6-5.2-5-8-7.4l0,0c0,0,0,0-0.1-0.1l0,0c0,0-0.1-0.1-0.1-0.1c0,0,0,0,0,0c0,0,0,0-0.1,0
			c0,0,0,0,0,0c0,0,0,0-0.1-0.1l0,0C788.2,435.6,788.2,435.6,788.1,435.5C788.2,435.6,788.2,435.6,788.1,435.5
			C788.2,435.5,788.1,435.5,788.1,435.5C788.1,435.5,788.1,435.5,788.1,435.5L788.1,435.5z M769.9,421.4l-2.7,4
			c3.1,2.1,6.2,4.3,9.1,6.6l2.9-3.8c-1.3-1-2.6-2-3.9-2.9c0,0,0,0,0,0c-0.1-0.1-0.1-0.1-0.2-0.2c0,0,0,0,0,0c0,0,0,0,0,0
			c0,0,0,0,0,0c0,0-0.1-0.1-0.1-0.1c0,0,0,0,0,0c0,0,0,0,0,0c0,0,0,0,0,0c0,0,0,0,0,0c0,0,0,0,0,0c0,0-0.1,0-0.1-0.1c0,0,0,0,0,0
			c0,0,0,0,0,0c0,0,0,0,0,0c0,0,0,0,0,0c0,0,0,0,0,0c0,0,0,0-0.1,0c0,0,0,0,0,0c0,0,0,0,0,0c0,0,0,0,0,0c0,0,0,0,0,0c0,0,0,0,0,0
			c0,0,0,0,0,0c0,0,0,0-0.1,0c0,0,0,0,0,0c0,0,0,0,0,0c0,0,0,0,0,0c0,0,0,0,0,0c0,0,0,0,0,0c0,0,0,0-0.1,0c0,0,0,0,0,0
			c0,0,0,0-0.1,0c0,0,0,0,0,0c0,0,0,0-0.1,0c0,0,0,0,0,0c0,0,0,0-0.1,0l0,0c0,0,0,0-0.1,0c0,0,0,0,0,0c0,0,0,0-0.1,0c0,0,0,0,0,0
			c0,0-0.1-0.1-0.1-0.1l0,0c0,0,0,0-0.1,0c0,0,0,0,0,0c0,0,0,0-0.1,0l0,0c0,0,0,0-0.1,0c0,0,0,0,0,0c0,0,0,0-0.1,0c0,0,0,0,0,0
			c0,0,0,0-0.1,0c0,0,0,0,0,0c0,0-0.1-0.1-0.1-0.1c0,0,0,0,0,0c0,0,0,0-0.1,0c0,0,0,0,0,0c0,0-0.1-0.1-0.1-0.1c0,0,0,0,0,0
			c0,0,0,0-0.1,0c0,0,0,0,0,0c0,0,0,0-0.1,0c0,0,0,0,0,0c0,0,0,0-0.1,0l0,0c0,0,0,0-0.1,0c0,0,0,0,0,0c0,0,0,0-0.1,0c0,0,0,0,0,0
			c0,0,0,0-0.1,0c0,0,0,0,0,0c0,0,0,0-0.1,0c0,0,0,0,0,0c0,0,0,0,0,0c0,0,0,0,0,0c0,0-0.1-0.1-0.1-0.1c0,0,0,0,0,0c0,0,0,0,0,0
			c0,0,0,0,0,0c0,0,0,0,0,0c0,0,0,0,0,0c0,0,0,0-0.1,0c0,0,0,0,0,0c0,0,0,0,0,0c0,0,0,0,0,0c0,0,0,0,0,0c0,0,0,0,0,0c0,0,0,0-0.1,0
			c0,0,0,0,0,0c0,0,0,0,0,0c0,0,0,0,0,0s0,0,0,0c0,0,0,0,0,0c0,0,0,0,0,0c0,0-0.1,0-0.1-0.1c0,0,0,0,0,0c0,0,0,0,0,0c0,0,0,0,0,0
			c0,0,0,0,0,0c0,0,0,0,0,0c-0.1,0-0.1-0.1-0.2-0.1c0,0,0,0,0,0C770.6,421.9,770.2,421.7,769.9,421.4L769.9,421.4z M750,409.7
			l-2.2,4.3c3.3,1.7,6.6,3.5,9.8,5.4l2.4-4.1c-0.9-0.5-1.8-1-2.6-1.5l0,0c-0.1,0-0.2-0.1-0.2-0.1l0,0c0,0-0.1,0-0.1,0c0,0,0,0,0,0
			c-0.1,0-0.2-0.1-0.2-0.1l0,0c0,0,0,0-0.1,0l0,0c-0.1,0-0.1-0.1-0.2-0.1c0,0,0,0,0,0c0,0,0,0-0.1,0c0,0,0,0,0,0
			c-0.1,0-0.2-0.1-0.2-0.1l0,0c0,0,0,0-0.1,0l0,0c-0.1,0-0.1-0.1-0.2-0.1c0,0,0,0,0,0c0,0,0,0-0.1,0c0,0,0,0,0,0
			c0,0-0.1-0.1-0.1-0.1l0,0c0,0,0,0-0.1,0c0,0,0,0,0,0c0,0,0,0-0.1,0l0,0c0,0-0.1,0-0.1,0c0,0,0,0,0,0c0,0,0,0-0.1,0c0,0,0,0,0,0
			c0,0,0,0-0.1,0c0,0,0,0,0,0c0,0-0.1-0.1-0.1-0.1c0,0,0,0,0,0c0,0,0,0-0.1,0c0,0,0,0,0,0c0,0,0,0-0.1,0c0,0,0,0,0,0c0,0,0,0-0.1,0
			c0,0,0,0,0,0c0,0,0,0-0.1,0c0,0,0,0,0,0c0,0,0,0-0.1,0c0,0,0,0,0,0c0,0-0.1-0.1-0.1-0.1c0,0,0,0,0,0c0,0,0,0-0.1,0c0,0,0,0,0,0
			c0,0,0,0-0.1,0c0,0,0,0,0,0c0,0,0,0-0.1,0c0,0,0,0,0,0c0,0,0,0-0.1,0c0,0,0,0,0,0c0,0,0,0-0.1,0c0,0,0,0,0,0c0,0,0,0-0.1,0l0,0
			c0,0,0,0-0.1,0c0,0,0,0,0,0c0,0,0,0,0,0c0,0,0,0,0,0c0,0,0,0-0.1,0c0,0,0,0,0,0c0,0,0,0-0.1,0c0,0,0,0,0,0c0,0,0,0,0,0
			c0,0,0,0,0,0c0,0,0,0,0,0c0,0,0,0,0,0c0,0,0,0-0.1,0c0,0,0,0,0,0c0,0,0,0-0.1,0c0,0,0,0,0,0c0,0,0,0,0,0c0,0,0,0,0,0c0,0,0,0,0,0
			c0,0,0,0,0,0c0,0,0,0-0.1,0c0,0,0,0,0,0c0,0,0,0,0,0c0,0,0,0,0,0c0,0,0,0,0,0c0,0,0,0,0,0c0,0,0,0,0,0c0,0-0.1,0-0.1,0
			c0,0,0,0,0,0c0,0,0,0,0,0c0,0,0,0,0,0c0,0,0,0,0,0c0,0,0,0,0,0c-0.1,0-0.1-0.1-0.2-0.1c0,0,0,0,0,0c0,0,0,0-0.1,0c0,0,0,0,0,0
			c-0.1,0-0.2-0.1-0.2-0.1c0,0,0,0,0,0C751.7,410.6,750.9,410.2,750,409.7L750,409.7z M721.6,398l-1.5,4.6c3.6,1.1,7.1,2.4,10.6,3.8
			l1.7-4.5c-0.9-0.3-1.7-0.7-2.6-1c0,0,0,0,0,0c0,0,0,0-0.1,0c0,0,0,0,0,0c-0.1,0-0.1,0-0.2-0.1c0,0,0,0,0,0c0,0,0,0-0.1,0
			c0,0,0,0,0,0c0,0,0,0-0.1,0c0,0,0,0,0,0c0,0,0,0-0.1,0c0,0,0,0,0,0c0,0,0,0-0.1,0c0,0,0,0,0,0c0,0,0,0,0,0c0,0,0,0,0,0
			c0,0,0,0,0,0c0,0,0,0,0,0c0,0,0,0,0,0c0,0-0.1,0-0.1,0c0,0,0,0,0,0c0,0,0,0-0.1,0c0,0,0,0,0,0c0,0,0,0,0,0c0,0,0,0,0,0
			c-0.1,0-0.2-0.1-0.2-0.1c0,0,0,0,0,0c-1.2-0.4-2.4-0.9-3.6-1.3c0,0,0,0,0,0c-0.1,0-0.2-0.1-0.3-0.1c0,0,0,0,0,0c0,0,0,0-0.1,0
			c0,0,0,0,0,0c-0.1,0-0.1,0-0.2-0.1c0,0,0,0,0,0c0,0,0,0,0,0c0,0,0,0,0,0c0,0,0,0,0,0c0,0,0,0,0,0c0,0,0,0,0,0c0,0,0,0-0.1,0
			c0,0,0,0,0,0c0,0,0,0,0,0c0,0,0,0,0,0c0,0,0,0,0,0c0,0,0,0,0,0c0,0,0,0-0.1,0c0,0,0,0,0,0c0,0-0.1,0-0.1,0l0,0c0,0,0,0-0.1,0
			c0,0,0,0,0,0c0,0,0,0-0.1,0l0,0C723,398.4,722.3,398.2,721.6,398L721.6,398z M699.3,392.2l-0.9,4.7c3.7,0.7,7.4,1.6,11,2.5
			l1.2-4.7c0,0,0,0,0,0c0,0,0,0,0,0c-0.1,0-0.1,0-0.2,0c0,0,0,0,0,0c0,0,0,0,0,0c0,0,0,0,0,0c0,0,0,0-0.1,0c0,0,0,0,0,0
			c-0.1,0-0.1,0-0.2,0c0,0,0,0,0,0c0,0,0,0-0.1,0c0,0,0,0,0,0c0,0,0,0-0.1,0c0,0,0,0,0,0c-0.1,0-0.2,0-0.3-0.1c0,0,0,0,0,0
			c-0.5-0.1-1-0.2-1.5-0.4c0,0,0,0,0,0c-0.1,0-0.2-0.1-0.3-0.1c0,0,0,0,0,0c-0.1,0-0.2,0-0.3-0.1c0,0,0,0,0,0c0,0,0,0-0.1,0
			c0,0,0,0,0,0c0,0,0,0-0.1,0c0,0,0,0,0,0c-0.1,0-0.2,0-0.3-0.1c0,0,0,0,0,0c0,0,0,0-0.1,0c0,0,0,0,0,0c-0.1,0-0.1,0-0.2,0
			c0,0,0,0,0,0c0,0,0,0-0.1,0c0,0,0,0,0,0c0,0,0,0-0.1,0c0,0,0,0,0,0c-0.1,0-0.1,0-0.2,0c0,0,0,0,0,0c0,0,0,0-0.1,0c0,0,0,0,0,0
			c0,0,0,0,0,0c0,0,0,0,0,0c0,0,0,0,0,0c0,0,0,0,0,0c0,0,0,0-0.1,0c0,0,0,0,0,0c0,0,0,0,0,0c0,0,0,0,0,0c0,0,0,0,0,0c0,0,0,0,0,0
			c0,0,0,0,0,0c0,0,0,0-0.1,0c0,0,0,0,0,0c0,0-0.1,0-0.1,0c0,0,0,0,0,0c0,0,0,0-0.1,0c0,0,0,0,0,0c0,0,0,0-0.1,0c0,0,0,0,0,0
			c0,0-0.1,0-0.1,0l0,0c0,0-0.1,0-0.1,0c0,0,0,0,0,0c0,0,0,0-0.1,0c0,0,0,0,0,0c0,0,0,0-0.1,0c0,0,0,0,0,0c-0.1,0-0.1,0-0.2,0l0,0
			c0,0-0.1,0-0.1,0c0,0,0,0,0,0c0,0,0,0-0.1,0c0,0,0,0,0,0c-1.7-0.4-3.3-0.7-5-1.1l0,0c0,0-0.1,0-0.1,0l0,0c-0.1,0-0.1,0-0.2,0l0,0
			C699.5,392.2,699.4,392.2,699.3,392.2C699.4,392.2,699.4,392.2,699.3,392.2C699.4,392.2,699.4,392.2,699.3,392.2
			C699.3,392.2,699.3,392.2,699.3,392.2L699.3,392.2z M676.5,389.1l-0.4,4.8c3.7,0.3,7.5,0.7,11.2,1.2l0.6-4.8c0,0,0,0,0,0
			c0,0,0,0-0.1,0c0,0,0,0,0,0c0,0,0,0-0.1,0c0,0,0,0,0,0c0,0,0,0-0.1,0c0,0,0,0,0,0c-0.1,0-0.1,0-0.2,0l0,0c0,0-0.1,0-0.1,0
			c0,0,0,0,0,0c0,0-0.1,0-0.1,0c0,0,0,0,0,0C683.7,389.7,680.1,389.4,676.5,389.1L676.5,389.1z"/>
	</g>
	<g>
		<path class="st1" d="M499.2,896.8c0-1.6,0.4-3,1.3-4.3c0.8-1.2,2-2.2,3.5-2.9c1.5-0.7,3.2-1.1,5.1-1.1c1.9,0,3.6,0.3,5,1
			s2.5,1.6,3.2,2.8c0.8,1.2,1.1,2.7,1.1,4.4h-5.8c0-0.9-0.3-1.7-1-2.2c-0.6-0.5-1.5-0.8-2.6-0.8c-1.2,0-2.1,0.3-2.8,0.8
			c-0.7,0.5-1.1,1.2-1.1,2.1c0,0.8,0.2,1.4,0.6,1.9c0.4,0.4,1.1,0.7,2.1,0.9l4,0.8c2.4,0.5,4.1,1.3,5.3,2.5c1.2,1.2,1.7,2.8,1.7,4.9
			c0,1.7-0.4,3.2-1.3,4.5c-0.8,1.3-2,2.3-3.5,3c-1.5,0.7-3.3,1-5.3,1c-2,0-3.7-0.3-5.2-1c-1.5-0.7-2.6-1.6-3.4-2.9
			c-0.8-1.2-1.2-2.7-1.2-4.3h5.8c0,1,0.3,1.7,1,2.2c0.7,0.5,1.7,0.8,3,0.8c1.3,0,2.4-0.2,3.1-0.7c0.8-0.5,1.2-1.2,1.2-2
			c0-0.7-0.2-1.3-0.6-1.7s-1-0.7-1.9-0.9l-4.1-0.8c-2.4-0.5-4.2-1.4-5.4-2.7C499.8,900.8,499.2,899,499.2,896.8z"/>
		<path class="st1" d="M528.3,915.7h-5.7v-26.6h5.7l7.9,19.9l8-19.9h5.7v26.6h-5.7v-5.6c0-1.4,0-2.6,0-3.6c0-0.9,0-1.7,0-2.3
			c0-0.6,0.1-1.2,0.1-1.6c0-0.5,0.1-1,0.2-1.5l-5.7,14.6h-5.3l-5.6-14.6c0.2,1,0.3,2.1,0.3,3.2s0.1,2.5,0.1,3.9V915.7z"/>
		<path class="st1" d="M559,915.7h-6.1l9.5-26.6h5.7l9.5,26.6h-6.2l-1.9-5.6h-8.6L559,915.7z M564.5,899.5l-1.9,5.7h5.3l-1.9-5.7
			c-0.1-0.5-0.3-0.9-0.4-1.4c-0.1-0.5-0.2-0.9-0.3-1.2c0,0.3-0.1,0.7-0.3,1.2C564.9,898.6,564.7,899.1,564.5,899.5z"/>
	</g>
	<g>
		<path class="st2" d="M922.7,642.3"/>
	</g>
	<g>
		<path class="st3" d="M940,696.9c0-1.6,0.4-3,1.3-4.3c0.8-1.2,2-2.2,3.5-2.9c1.5-0.7,3.2-1.1,5.1-1.1c1.9,0,3.6,0.3,5,1
			s2.5,1.6,3.2,2.8c0.8,1.2,1.1,2.7,1.1,4.4h-5.8c0-0.9-0.3-1.7-1-2.2c-0.6-0.5-1.5-0.8-2.6-0.8c-1.2,0-2.1,0.3-2.8,0.8
			c-0.7,0.5-1.1,1.2-1.1,2.1c0,0.8,0.2,1.4,0.6,1.9c0.4,0.4,1.1,0.7,2.1,0.9l4,0.8c2.4,0.5,4.1,1.3,5.3,2.5c1.2,1.2,1.7,2.8,1.7,4.9
			c0,1.7-0.4,3.2-1.3,4.5c-0.8,1.3-2,2.3-3.5,3c-1.5,0.7-3.3,1-5.3,1c-2,0-3.7-0.3-5.2-1c-1.5-0.7-2.6-1.6-3.4-2.9
			c-0.8-1.2-1.2-2.7-1.2-4.3h5.8c0,1,0.3,1.7,1,2.2c0.7,0.5,1.7,0.8,3,0.8c1.3,0,2.4-0.2,3.1-0.7c0.8-0.5,1.2-1.2,1.2-2
			c0-0.7-0.2-1.3-0.6-1.7s-1-0.7-1.9-0.9l-4.1-0.8c-2.4-0.5-4.2-1.4-5.4-2.7C940.6,700.8,940,699.1,940,696.9z"/>
		<path class="st3" d="M980.3,715.8h-16.9v-26.6h16.9v5.4h-12.7l1.6-1.5v6.7h9.8v5.1h-9.8v7l-1.6-1.5h12.7V715.8z"/>
		<path class="st3" d="M988.8,715.8h-6.1l9.5-26.6h5.7l9.5,26.6h-6.2l-1.9-5.6h-8.6L988.8,715.8z M994.3,699.6l-1.9,5.7h5.3
			l-1.9-5.7c-0.1-0.5-0.3-0.9-0.4-1.4c-0.1-0.5-0.2-0.9-0.3-1.2c0,0.3-0.1,0.7-0.3,1.2C994.6,698.6,994.4,699.1,994.3,699.6z"/>
	</g>
	<g>
		<path class="st4" d="M851.6,253.4c0,2.7-0.6,5.1-1.9,7.2c-1.2,2.1-3,3.7-5.2,4.9c-2.2,1.2-4.8,1.7-7.7,1.7c-2.9,0-5.4-0.6-7.6-1.7
			c-2.2-1.2-3.9-2.8-5.1-4.8c-1.2-2.1-1.8-4.5-1.8-7.2c0-2.7,0.6-5.1,1.9-7.2c1.2-2.1,3-3.7,5.2-4.9c2.2-1.2,4.7-1.7,7.6-1.7
			c2.9,0,5.5,0.6,7.7,1.7c2.2,1.2,3.9,2.8,5.2,4.8C851,248.3,851.6,250.7,851.6,253.4z M844.7,253.4c0-1.7-0.3-3.2-0.9-4.4
			c-0.6-1.2-1.5-2.1-2.6-2.8c-1.1-0.6-2.5-1-4.1-1s-3,0.3-4.2,1c-1.2,0.6-2,1.6-2.7,2.8c-0.6,1.2-0.9,2.7-0.9,4.4
			c0,1.7,0.3,3.2,0.9,4.4c0.6,1.2,1.5,2.2,2.7,2.8c1.2,0.6,2.5,1,4.2,1s3-0.3,4.1-1s2-1.6,2.6-2.8
			C844.4,256.5,844.7,255.1,844.7,253.4z"/>
		<path class="st4" d="M858.6,266.7h-6.8l10.7-26.6h6.4l10.6,26.6h-6.9l-2.1-5.6h-9.7L858.6,266.7z M864.8,250.5l-2.1,5.7h5.9
			l-2.1-5.7c-0.2-0.5-0.3-0.9-0.5-1.4c-0.2-0.5-0.3-0.9-0.3-1.2c-0.1,0.3-0.2,0.7-0.3,1.2S865,250.1,864.8,250.5z"/>
		<path class="st4" d="M901.9,266.7h-19v-26.6h19v5.4h-14.3l1.8-1.5v6.7h11v5.1h-11v7l-1.8-1.5h14.3V266.7z"/>
		<path class="st4" d="M920.2,267.2c-3,0-5.6-0.6-7.8-1.7s-3.9-2.7-5-4.8c-1.2-2.1-1.8-4.5-1.8-7.3c0-2.8,0.6-5.2,1.9-7.3
			c1.2-2.1,3-3.7,5.2-4.8c2.2-1.1,4.8-1.7,7.8-1.7c2.5,0,4.7,0.4,6.7,1.2c2,0.8,3.5,1.9,4.8,3.4c1.2,1.5,2,3.2,2.3,5.2h-6.9
			c-0.4-1.3-1.3-2.4-2.5-3.1s-2.7-1.1-4.5-1.1c-1.6,0-3,0.3-4.2,1c-1.2,0.6-2.1,1.6-2.7,2.8c-0.6,1.2-0.9,2.7-0.9,4.4
			c0,1.7,0.3,3.1,0.9,4.3s1.5,2.2,2.7,2.8c1.2,0.7,2.6,1,4.1,1c1.8,0,3.4-0.4,4.7-1.1c1.3-0.8,2.1-1.8,2.5-3.1h6.8
			c-0.4,2-1.2,3.7-2.4,5.2c-1.3,1.5-2.9,2.6-4.9,3.5C925,266.8,922.7,267.2,920.2,267.2z"/>
		<path class="st4" d="M941.4,266.7h-6.8l10.7-26.6h6.4l10.6,26.6h-6.9l-2.1-5.6h-9.7L941.4,266.7z M947.5,250.5l-2.1,5.7h5.9
			l-2.1-5.7c-0.2-0.5-0.3-0.9-0.5-1.4c-0.2-0.5-0.3-0.9-0.3-1.2c-0.1,0.3-0.2,0.7-0.3,1.2S947.7,250.1,947.5,250.5z"/>
		<path class="st4" d="M964,247.8c0-1.6,0.5-3,1.4-4.3c0.9-1.2,2.2-2.2,3.9-2.9s3.5-1.1,5.7-1.1c2.2,0,4,0.3,5.6,1s2.8,1.6,3.6,2.8
			c0.8,1.2,1.3,2.7,1.3,4.4H979c0-0.9-0.4-1.7-1.1-2.2c-0.7-0.5-1.7-0.8-2.9-0.8c-1.3,0-2.4,0.3-3.2,0.8c-0.8,0.5-1.2,1.2-1.2,2.1
			c0,0.8,0.2,1.4,0.7,1.9c0.5,0.4,1.3,0.7,2.3,0.9l4.5,0.8c2.7,0.5,4.6,1.3,5.9,2.5c1.3,1.2,1.9,2.8,1.9,4.9c0,1.7-0.5,3.2-1.4,4.5
			s-2.3,2.3-4,3c-1.7,0.7-3.7,1-6,1c-2.2,0-4.1-0.3-5.8-1s-2.9-1.6-3.8-2.9c-0.9-1.2-1.4-2.7-1.4-4.3h6.5c0,1,0.4,1.7,1.2,2.2
			c0.8,0.5,1.9,0.8,3.4,0.8c1.5,0,2.7-0.2,3.5-0.7c0.9-0.5,1.3-1.2,1.3-2c0-0.7-0.2-1.3-0.6-1.7c-0.4-0.4-1.1-0.7-2.1-0.9l-4.6-0.8
			c-2.7-0.5-4.7-1.4-6-2.7C964.7,251.8,964,250,964,247.8z"/>
	</g>
	<g>
		<path class="st5" d="M55.8,642.3h-6.1l9.5-26.6h5.7l9.5,26.6h-6.2l-1.9-5.6h-8.6L55.8,642.3z M61.3,626.1l-1.9,5.7h5.3l-1.9-5.7
			c-0.1-0.5-0.3-0.9-0.4-1.4c-0.1-0.5-0.2-0.9-0.3-1.2c0,0.3-0.1,0.7-0.3,1.2C61.6,625.2,61.4,625.6,61.3,626.1z"/>
		<path class="st5" d="M87.5,642.8c-2.7,0-5-0.6-6.9-1.7c-1.9-1.1-3.4-2.7-4.5-4.8s-1.6-4.5-1.6-7.3c0-2.8,0.6-5.2,1.7-7.3
			c1.1-2.1,2.7-3.7,4.6-4.8c2-1.1,4.3-1.7,6.9-1.7c2.2,0,4.2,0.4,6,1.2c1.7,0.8,3.2,1.9,4.3,3.4c1.1,1.5,1.8,3.2,2.1,5.2h-6.2
			c-0.4-1.3-1.1-2.4-2.2-3.1c-1.1-0.7-2.4-1.1-4.1-1.1c-1.4,0-2.7,0.3-3.7,1c-1,0.6-1.8,1.6-2.4,2.8c-0.6,1.2-0.8,2.7-0.8,4.4
			c0,1.7,0.3,3.1,0.8,4.3s1.4,2.2,2.4,2.8s2.3,1,3.7,1c1.6,0,3-0.4,4.2-1.1c1.1-0.8,1.9-1.8,2.2-3.1h6c-0.3,2-1,3.7-2.2,5.2
			c-1.1,1.5-2.6,2.6-4.4,3.5C91.8,642.3,89.8,642.8,87.5,642.8z"/>
		<path class="st5" d="M115.5,642.8c-2.7,0-5-0.6-6.9-1.7c-1.9-1.1-3.4-2.7-4.5-4.8s-1.6-4.5-1.6-7.3c0-2.8,0.6-5.2,1.7-7.3
			c1.1-2.1,2.7-3.7,4.6-4.8c2-1.1,4.3-1.7,6.9-1.7c2.2,0,4.2,0.4,6,1.2c1.7,0.8,3.2,1.9,4.3,3.4c1.1,1.5,1.8,3.2,2.1,5.2h-6.2
			c-0.4-1.3-1.1-2.4-2.2-3.1c-1.1-0.7-2.4-1.1-4.1-1.1c-1.4,0-2.7,0.3-3.7,1c-1,0.6-1.8,1.6-2.4,2.8c-0.6,1.2-0.8,2.7-0.8,4.4
			c0,1.7,0.3,3.1,0.8,4.3s1.4,2.2,2.4,2.8s2.3,1,3.7,1c1.6,0,3-0.4,4.2-1.1c1.1-0.8,1.9-1.8,2.2-3.1h6c-0.3,2-1,3.7-2.2,5.2
			c-1.1,1.5-2.6,2.6-4.4,3.5C119.7,642.3,117.7,642.8,115.5,642.8z"/>
		<path class="st5" d="M143.5,642.8c-2.7,0-5-0.6-6.9-1.7c-1.9-1.1-3.4-2.7-4.5-4.8s-1.6-4.5-1.6-7.3c0-2.8,0.6-5.2,1.7-7.3
			c1.1-2.1,2.7-3.7,4.6-4.8c2-1.1,4.3-1.7,6.9-1.7c2.2,0,4.2,0.4,6,1.2c1.7,0.8,3.2,1.9,4.3,3.4c1.1,1.5,1.8,3.2,2.1,5.2h-6.2
			c-0.4-1.3-1.1-2.4-2.2-3.1c-1.1-0.7-2.4-1.1-4.1-1.1c-1.4,0-2.7,0.3-3.7,1c-1,0.6-1.8,1.6-2.4,2.8c-0.6,1.2-0.8,2.7-0.8,4.4
			c0,1.7,0.3,3.1,0.8,4.3s1.4,2.2,2.4,2.8s2.3,1,3.7,1c1.6,0,3-0.4,4.2-1.1c1.1-0.8,1.9-1.8,2.2-3.1h6c-0.3,2-1,3.7-2.2,5.2
			c-1.1,1.5-2.6,2.6-4.4,3.5C147.7,642.3,145.7,642.8,143.5,642.8z"/>
		<path class="st5" d="M165.8,615.7v26.6h-5.8v-26.6H165.8z"/>
		<path class="st5" d="M195.9,629c0,2.7-0.6,5.1-1.7,7.2c-1.1,2.1-2.6,3.7-4.6,4.9c-2,1.2-4.2,1.7-6.8,1.7c-2.6,0-4.8-0.6-6.8-1.7
			c-2-1.2-3.5-2.8-4.6-4.8c-1.1-2.1-1.6-4.5-1.6-7.2c0-2.7,0.6-5.1,1.7-7.2c1.1-2.1,2.6-3.7,4.6-4.9c2-1.2,4.2-1.7,6.8-1.7
			c2.6,0,4.9,0.6,6.8,1.7c2,1.2,3.5,2.8,4.6,4.8C195.4,623.9,195.9,626.3,195.9,629z M189.8,629c0-1.7-0.3-3.2-0.8-4.4
			c-0.6-1.2-1.3-2.1-2.4-2.8c-1-0.6-2.2-1-3.7-1c-1.4,0-2.7,0.3-3.7,1c-1,0.6-1.8,1.6-2.4,2.8c-0.6,1.2-0.8,2.7-0.8,4.4
			c0,1.7,0.3,3.2,0.8,4.4c0.6,1.2,1.3,2.2,2.4,2.8c1,0.6,2.3,1,3.7,1c1.4,0,2.7-0.3,3.7-1c1-0.7,1.8-1.6,2.4-2.8
			C189.5,632.1,189.8,630.7,189.8,629z"/>
		<path class="st5" d="M205.7,642.3H200v-26.6h5.8l13,19.7H217v-19.7h5.8v26.6H217l-13-19.6h1.8V642.3z"/>
		<path class="st5" d="M234.1,615.7v26.6h-5.8v-26.6H234.1z"/>
		<path class="st5" d="M238.2,623.4c0-1.6,0.4-3,1.3-4.3c0.8-1.2,2-2.2,3.5-2.9c1.5-0.7,3.2-1.1,5.1-1.1c1.9,0,3.6,0.3,5,1
			c1.4,0.7,2.5,1.6,3.2,2.8c0.8,1.2,1.1,2.7,1.1,4.4h-5.8c0-0.9-0.3-1.7-1-2.2s-1.5-0.8-2.6-0.8c-1.2,0-2.1,0.3-2.8,0.8
			c-0.7,0.5-1.1,1.2-1.1,2.1c0,0.8,0.2,1.4,0.6,1.9c0.4,0.4,1.1,0.7,2.1,0.9l4,0.8c2.4,0.5,4.1,1.3,5.3,2.5c1.2,1.2,1.7,2.8,1.7,4.9
			c0,1.7-0.4,3.2-1.3,4.5c-0.8,1.3-2,2.3-3.5,3c-1.5,0.7-3.3,1-5.3,1c-2,0-3.7-0.3-5.2-1s-2.6-1.6-3.4-2.9c-0.8-1.2-1.2-2.7-1.2-4.3
			h5.8c0,1,0.3,1.7,1,2.2c0.7,0.5,1.7,0.8,3,0.8c1.3,0,2.4-0.2,3.1-0.7c0.8-0.5,1.2-1.2,1.2-2c0-0.7-0.2-1.3-0.6-1.7
			c-0.4-0.4-1-0.7-1.9-0.9l-4.1-0.8c-2.4-0.5-4.2-1.4-5.4-2.7C238.8,627.4,238.2,625.6,238.2,623.4z"/>
		<path class="st5" d="M259.2,621.1v-5.4h21v5.4H259.2z M272.6,618.5v23.8h-5.8v-23.8H272.6z"/>
		<path class="st5" d="M284.9,642.3h-6.1l9.5-26.6h5.7l9.5,26.6h-6.2l-1.9-5.6h-8.6L284.9,642.3z M290.4,626.1l-1.9,5.7h5.3
			l-1.9-5.7c-0.1-0.5-0.3-0.9-0.4-1.4c-0.1-0.5-0.2-0.9-0.3-1.2c0,0.3-0.1,0.7-0.3,1.2C290.7,625.2,290.6,625.6,290.4,626.1z"/>
		<path class="st5" d="M305.1,623.4c0-1.6,0.4-3,1.3-4.3c0.8-1.2,2-2.2,3.5-2.9c1.5-0.7,3.2-1.1,5.1-1.1c1.9,0,3.6,0.3,5,1
			c1.4,0.7,2.5,1.6,3.2,2.8c0.8,1.2,1.1,2.7,1.1,4.4h-5.8c0-0.9-0.3-1.7-1-2.2s-1.5-0.8-2.6-0.8c-1.2,0-2.1,0.3-2.8,0.8
			c-0.7,0.5-1.1,1.2-1.1,2.1c0,0.8,0.2,1.4,0.6,1.9c0.4,0.4,1.1,0.7,2.1,0.9l4,0.8c2.4,0.5,4.1,1.3,5.3,2.5c1.2,1.2,1.7,2.8,1.7,4.9
			c0,1.7-0.4,3.2-1.3,4.5c-0.8,1.3-2,2.3-3.5,3c-1.5,0.7-3.3,1-5.3,1c-2,0-3.7-0.3-5.2-1s-2.6-1.6-3.4-2.9c-0.8-1.2-1.2-2.7-1.2-4.3
			h5.8c0,1,0.3,1.7,1,2.2c0.7,0.5,1.7,0.8,3,0.8c1.3,0,2.4-0.2,3.1-0.7c0.8-0.5,1.2-1.2,1.2-2c0-0.7-0.2-1.3-0.6-1.7
			c-0.4-0.4-1-0.7-1.9-0.9l-4.1-0.8c-2.4-0.5-4.2-1.4-5.4-2.7C305.7,627.4,305.1,625.6,305.1,623.4z"/>
	</g>
	<g>
		<path class="st6" d="M918.9,812.7H902V786h16.9v5.4h-12.7l1.6-1.5v6.7h9.8v5.1h-9.8v7l-1.6-1.5h12.7V812.7z"/>
		<path class="st6" d="M929.3,812.7h-5.7V786h5.7l7.9,19.9l8-19.9h5.7v26.6h-5.7v-5.6c0-1.4,0-2.6,0-3.6s0-1.7,0-2.3
			c0-0.6,0.1-1.2,0.1-1.6c0-0.5,0.1-1,0.2-1.5l-5.7,14.6h-5.3l-5.6-14.6c0.2,1,0.3,2.1,0.3,3.2s0.1,2.5,0.1,3.9V812.7z"/>
		<path class="st6" d="M962.3,786v26.6h-5.8V786H962.3z M967.3,803.8h-6.4v-5.2h5.1c1.4,0,2.5-0.3,3.2-0.9c0.7-0.6,1-1.5,1-2.8
			s-0.3-2.2-1-2.8c-0.7-0.6-1.8-0.9-3.2-0.9h-5.1V786h6.4c1.8,0,3.4,0.4,4.8,1.1c1.4,0.7,2.4,1.8,3.2,3.1s1.1,2.9,1.1,4.7
			s-0.4,3.3-1.1,4.7s-1.8,2.4-3.2,3.1C970.7,803.5,969.1,803.8,967.3,803.8z"/>
		<path class="st6" d="M985.8,812.7H980V786h10.3c3.2,0,5.7,0.8,7.5,2.2c1.8,1.5,2.6,3.6,2.6,6.4c0,1.7-0.4,3.2-1.1,4.4
			c-0.7,1.2-1.8,2.2-3.3,3l4.7,10.6h-6.4l-4-9.3h-4.5V812.7z M985.8,791.2v7h4.4c1.3,0,2.3-0.3,3-0.9c0.7-0.6,1.1-1.5,1.1-2.6
			c0-1.1-0.3-2-1-2.6c-0.7-0.6-1.7-0.9-3-0.9H985.8z"/>
		<path class="st6" d="M1021.7,812.7h-16.9V786h16.9v5.4H1009l1.6-1.5v6.7h9.8v5.1h-9.8v7l-1.6-1.5h12.7V812.7z"/>
		<path class="st6" d="M1025,793.8c0-1.6,0.4-3,1.3-4.3s2-2.2,3.5-2.9c1.5-0.7,3.2-1.1,5.1-1.1c1.9,0,3.6,0.3,5,1s2.5,1.6,3.2,2.8
			c0.8,1.2,1.1,2.7,1.1,4.4h-5.8c0-0.9-0.3-1.7-1-2.2c-0.6-0.5-1.5-0.8-2.6-0.8c-1.2,0-2.1,0.3-2.8,0.8c-0.7,0.5-1.1,1.2-1.1,2.1
			c0,0.8,0.2,1.4,0.6,1.9c0.4,0.4,1.1,0.7,2.1,0.9l4,0.8c2.4,0.5,4.1,1.3,5.3,2.5c1.2,1.2,1.7,2.8,1.7,4.9c0,1.7-0.4,3.2-1.3,4.5
			c-0.8,1.3-2,2.3-3.5,3c-1.5,0.7-3.3,1-5.3,1c-2,0-3.7-0.3-5.2-1c-1.5-0.7-2.6-1.6-3.4-2.9c-0.8-1.2-1.2-2.7-1.2-4.3h5.8
			c0,1,0.3,1.7,1,2.2c0.7,0.5,1.7,0.8,3,0.8c1.3,0,2.4-0.2,3.1-0.7c0.8-0.5,1.2-1.2,1.2-2c0-0.7-0.2-1.3-0.6-1.7s-1-0.7-1.9-0.9
			l-4.1-0.8c-2.4-0.5-4.2-1.4-5.4-2.7C1025.6,797.7,1025,796,1025,793.8z"/>
		<path class="st6" d="M1052,812.7h-6.1l9.5-26.6h5.7l9.5,26.6h-6.2l-1.9-5.6h-8.6L1052,812.7z M1057.6,796.5l-1.9,5.7h5.3l-1.9-5.7
			c-0.1-0.5-0.3-0.9-0.4-1.4c-0.1-0.5-0.2-0.9-0.3-1.2c0,0.3-0.1,0.7-0.3,1.2C1057.9,795.5,1057.7,796,1057.6,796.5z"/>
		<path class="st6" d="M1072.2,793.8c0-1.6,0.4-3,1.3-4.3s2-2.2,3.5-2.9c1.5-0.7,3.2-1.1,5.1-1.1c1.9,0,3.6,0.3,5,1s2.5,1.6,3.2,2.8
			c0.8,1.2,1.1,2.7,1.1,4.4h-5.8c0-0.9-0.3-1.7-1-2.2c-0.6-0.5-1.5-0.8-2.6-0.8c-1.2,0-2.1,0.3-2.8,0.8c-0.7,0.5-1.1,1.2-1.1,2.1
			c0,0.8,0.2,1.4,0.6,1.9c0.4,0.4,1.1,0.7,2.1,0.9l4,0.8c2.4,0.5,4.1,1.3,5.3,2.5c1.2,1.2,1.7,2.8,1.7,4.9c0,1.7-0.4,3.2-1.3,4.5
			c-0.8,1.3-2,2.3-3.5,3c-1.5,0.7-3.3,1-5.3,1c-2,0-3.7-0.3-5.2-1c-1.5-0.7-2.6-1.6-3.4-2.9c-0.8-1.2-1.2-2.7-1.2-4.3h5.8
			c0,1,0.3,1.7,1,2.2c0.7,0.5,1.7,0.8,3,0.8c1.3,0,2.4-0.2,3.1-0.7c0.8-0.5,1.2-1.2,1.2-2c0-0.7-0.2-1.3-0.6-1.7s-1-0.7-1.9-0.9
			l-4.1-0.8c-2.4-0.5-4.2-1.4-5.4-2.7C1072.9,797.7,1072.2,796,1072.2,793.8z"/>
	</g>
	<g>
		<path class="st7" d="M260.7,304.5c-2.7,0-5-0.6-6.9-1.7c-1.9-1.1-3.4-2.7-4.5-4.8s-1.6-4.5-1.6-7.3c0-2.8,0.6-5.2,1.7-7.3
			c1.1-2.1,2.7-3.7,4.6-4.8c2-1.1,4.3-1.7,6.9-1.7c2.2,0,4.2,0.4,6,1.2c1.7,0.8,3.2,1.9,4.3,3.4c1.1,1.5,1.8,3.2,2.1,5.2H267
			c-0.4-1.3-1.1-2.4-2.2-3.1c-1.1-0.7-2.4-1.1-4.1-1.1c-1.4,0-2.7,0.3-3.7,1c-1,0.6-1.8,1.6-2.4,2.8c-0.6,1.2-0.8,2.7-0.8,4.4
			c0,1.7,0.3,3.1,0.8,4.3s1.4,2.2,2.4,2.8s2.3,1,3.7,1c1.6,0,3-0.4,4.2-1.1c1.1-0.8,1.9-1.8,2.2-3.1h6c-0.3,2-1,3.7-2.2,5.2
			c-1.1,1.5-2.6,2.6-4.4,3.5C264.9,304.1,262.9,304.5,260.7,304.5z"/>
		<path class="st7" d="M283,277.5v26.6h-5.8v-26.6H283z"/>
		<path class="st7" d="M288.3,294.1v-16.6h5.8v16.2c0,1.7,0.4,3,1.3,3.9c0.9,0.9,2.1,1.3,3.8,1.3c1.7,0,2.9-0.5,3.8-1.4
			s1.4-2.2,1.4-3.8v-16.2h5.8v16.6c0,2.1-0.4,3.9-1.3,5.5c-0.9,1.6-2.2,2.8-3.8,3.6c-1.7,0.9-3.6,1.3-5.8,1.3
			c-2.2,0-4.1-0.4-5.8-1.3s-2.9-2.1-3.8-3.6C288.8,298.1,288.3,296.2,288.3,294.1z"/>
		<path class="st7" d="M326.1,304.1h-10.4v-26.6h10.1c2.6,0,4.9,0.6,6.9,1.7c2,1.1,3.5,2.7,4.7,4.7c1.1,2,1.7,4.3,1.7,7
			c0,2.6-0.5,4.9-1.6,6.9c-1.1,2-2.6,3.6-4.5,4.7C330.9,303.5,328.6,304.1,326.1,304.1z M321.5,280.1v21.4l-2.8-2.8h6.8
			c1.5,0,2.8-0.3,3.9-0.9c1.1-0.6,1.9-1.5,2.5-2.7c0.6-1.2,0.9-2.6,0.9-4.2c0-1.7-0.3-3.1-0.9-4.3c-0.6-1.2-1.5-2.1-2.6-2.7
			c-1.1-0.6-2.5-1-4.1-1h-6.4L321.5,280.1z"/>
		<path class="st7" d="M345.2,304.1h-6.1l9.5-26.6h5.7l9.5,26.6h-6.2l-1.9-5.6h-8.6L345.2,304.1z M350.7,287.9l-1.9,5.7h5.3
			l-1.9-5.7c-0.1-0.5-0.3-0.9-0.4-1.4c-0.1-0.5-0.2-0.9-0.3-1.2c0,0.3-0.1,0.7-0.3,1.2C351.1,287,350.9,287.4,350.7,287.9z"/>
		<path class="st7" d="M377.3,304.1h-10.4v-26.6H377c2.6,0,4.9,0.6,6.9,1.7c2,1.1,3.5,2.7,4.7,4.7c1.1,2,1.7,4.3,1.7,7
			c0,2.6-0.5,4.9-1.6,6.9c-1.1,2-2.6,3.6-4.5,4.7C382.1,303.5,379.9,304.1,377.3,304.1z M372.7,280.1v21.4l-2.8-2.8h6.8
			c1.5,0,2.8-0.3,3.9-0.9c1.1-0.6,1.9-1.5,2.5-2.7c0.6-1.2,0.9-2.6,0.9-4.2c0-1.7-0.3-3.1-0.9-4.3c-0.6-1.2-1.5-2.1-2.6-2.7
			c-1.1-0.6-2.5-1-4.1-1H370L372.7,280.1z"/>
		<path class="st7" d="M396.5,304.1h-6.1l9.5-26.6h5.7l9.5,26.6h-6.2l-1.9-5.6h-8.6L396.5,304.1z M402,287.9l-1.9,5.7h5.3l-1.9-5.7
			c-0.1-0.5-0.3-0.9-0.4-1.4c-0.1-0.5-0.2-0.9-0.3-1.2c0,0.3-0.1,0.7-0.3,1.2C402.3,287,402.2,287.4,402,287.9z"/>
		<path class="st7" d="M423.9,304.1h-5.8v-26.6h5.8l13,19.7h-1.8v-19.7h5.8v26.6h-5.8l-13-19.6h1.8V304.1z"/>
		<path class="st7" d="M452.3,277.5v26.6h-5.8v-26.6H452.3z"/>
		<path class="st7" d="M461.5,304.1h-6.1l9.5-26.6h5.7l9.5,26.6h-6.2l-1.9-5.6h-8.6L461.5,304.1z M467,287.9l-1.9,5.7h5.3l-1.9-5.7
			c-0.1-0.5-0.3-0.9-0.4-1.4c-0.1-0.5-0.2-0.9-0.3-1.2c0,0.3-0.1,0.7-0.3,1.2C467.3,287,467.2,287.4,467,287.9z"/>
	</g>
	<g>
		<path class="st8" d="M247.3,765.8h-10.4v-26.6h10.1c2.6,0,4.9,0.6,6.9,1.7c2,1.1,3.5,2.7,4.7,4.7c1.1,2,1.7,4.3,1.7,7
			c0,2.6-0.5,4.9-1.6,6.9c-1.1,2-2.6,3.6-4.5,4.7C252.1,765.2,249.8,765.8,247.3,765.8z M242.7,741.8v21.4l-2.8-2.8h6.8
			c1.5,0,2.8-0.3,3.9-0.9c1.1-0.6,1.9-1.5,2.5-2.7c0.6-1.2,0.9-2.6,0.9-4.2c0-1.7-0.3-3.1-0.9-4.3c-0.6-1.2-1.5-2.1-2.6-2.7
			c-1.1-0.6-2.5-1-4.1-1h-6.4L242.7,741.8z"/>
		<path class="st8" d="M270.1,739.1v26.6h-5.8v-26.6H270.1z"/>
		<path class="st8" d="M281.4,765.8h-5.8v-26.6h10.3c3.2,0,5.7,0.8,7.5,2.2c1.8,1.5,2.6,3.6,2.6,6.4c0,1.7-0.4,3.2-1.1,4.4
			c-0.7,1.2-1.8,2.2-3.3,3l4.7,10.6h-6.4l-4-9.3h-4.5V765.8z M281.4,744.3v7h4.4c1.3,0,2.3-0.3,3-0.9c0.7-0.6,1.1-1.5,1.1-2.6
			s-0.3-2-1-2.6c-0.7-0.6-1.7-0.9-3-0.9H281.4z"/>
		<path class="st8" d="M317.3,765.8h-16.9v-26.6h16.9v5.4h-12.7l1.6-1.5v6.7h9.8v5.1h-9.8v7l-1.6-1.5h12.7V765.8z"/>
		<path class="st8" d="M333.6,766.2c-2.7,0-5-0.6-6.9-1.7s-3.4-2.7-4.5-4.8c-1.1-2.1-1.6-4.5-1.6-7.3c0-2.8,0.6-5.2,1.7-7.3
			c1.1-2.1,2.7-3.7,4.6-4.8c2-1.1,4.3-1.7,6.9-1.7c2.2,0,4.2,0.4,6,1.2c1.7,0.8,3.2,1.9,4.3,3.4c1.1,1.5,1.8,3.2,2.1,5.2H340
			c-0.4-1.3-1.1-2.4-2.2-3.1c-1.1-0.7-2.4-1.1-4-1.1c-1.4,0-2.7,0.3-3.7,1c-1,0.6-1.8,1.6-2.4,2.8c-0.6,1.2-0.8,2.7-0.8,4.4
			c0,1.7,0.3,3.1,0.8,4.3c0.6,1.2,1.4,2.2,2.4,2.8s2.3,1,3.7,1c1.6,0,3-0.4,4.2-1.1c1.1-0.8,1.9-1.8,2.2-3.1h6c-0.3,2-1,3.7-2.2,5.2
			c-1.1,1.5-2.6,2.6-4.4,3.5S335.8,766.2,333.6,766.2z"/>
		<path class="st8" d="M346.6,744.5v-5.4h21v5.4H346.6z M360,741.9v23.8h-5.8v-23.8H360z"/>
		<path class="st8" d="M394.6,752.4c0,2.7-0.6,5.1-1.7,7.2c-1.1,2.1-2.6,3.7-4.6,4.9c-2,1.2-4.2,1.7-6.8,1.7c-2.6,0-4.8-0.6-6.8-1.7
			c-2-1.2-3.5-2.8-4.6-4.8c-1.1-2.1-1.6-4.5-1.6-7.2c0-2.7,0.6-5.1,1.7-7.2c1.1-2.1,2.6-3.7,4.6-4.9c2-1.2,4.2-1.7,6.8-1.7
			c2.6,0,4.9,0.6,6.8,1.7c2,1.2,3.5,2.8,4.6,4.8C394,747.3,394.6,749.7,394.6,752.4z M388.4,752.4c0-1.7-0.3-3.2-0.8-4.4
			c-0.6-1.2-1.3-2.1-2.4-2.8c-1-0.6-2.2-1-3.7-1c-1.4,0-2.7,0.3-3.7,1c-1,0.6-1.8,1.6-2.4,2.8c-0.6,1.2-0.8,2.7-0.8,4.4
			c0,1.7,0.3,3.2,0.8,4.4c0.6,1.2,1.3,2.2,2.4,2.8c1,0.6,2.3,1,3.7,1c1.4,0,2.7-0.3,3.7-1s1.8-1.6,2.4-2.8
			C388.1,755.5,388.4,754.1,388.4,752.4z"/>
		<path class="st8" d="M404.4,765.8h-5.8v-26.6h10.3c3.2,0,5.7,0.8,7.5,2.2c1.8,1.5,2.6,3.6,2.6,6.4c0,1.7-0.4,3.2-1.1,4.4
			c-0.7,1.2-1.8,2.2-3.3,3l4.7,10.6h-6.4l-4-9.3h-4.5V765.8z M404.4,744.3v7h4.4c1.3,0,2.3-0.3,3-0.9s1.1-1.5,1.1-2.6s-0.3-2-1-2.6
			c-0.7-0.6-1.7-0.9-3-0.9H404.4z"/>
		<path class="st8" d="M429.2,739.1v26.6h-5.8v-26.6H429.2z"/>
		<path class="st8" d="M459.4,752.4c0,2.7-0.6,5.1-1.7,7.2c-1.1,2.1-2.6,3.7-4.6,4.9c-2,1.2-4.2,1.7-6.8,1.7c-2.6,0-4.8-0.6-6.8-1.7
			c-2-1.2-3.5-2.8-4.6-4.8c-1.1-2.1-1.6-4.5-1.6-7.2c0-2.7,0.6-5.1,1.7-7.2c1.1-2.1,2.6-3.7,4.6-4.9c2-1.2,4.2-1.7,6.8-1.7
			c2.6,0,4.9,0.6,6.8,1.7c2,1.2,3.5,2.8,4.6,4.8C458.8,747.3,459.4,749.7,459.4,752.4z M453.2,752.4c0-1.7-0.3-3.2-0.8-4.4
			c-0.6-1.2-1.3-2.1-2.4-2.8c-1-0.6-2.2-1-3.7-1c-1.4,0-2.7,0.3-3.7,1c-1,0.6-1.8,1.6-2.4,2.8c-0.6,1.2-0.8,2.7-0.8,4.4
			c0,1.7,0.3,3.2,0.8,4.4c0.6,1.2,1.3,2.2,2.4,2.8c1,0.6,2.3,1,3.7,1c1.4,0,2.7-0.3,3.7-1s1.8-1.6,2.4-2.8
			C453,755.5,453.2,754.1,453.2,752.4z"/>
	</g>
	<g>
		<path class="st9" d="M970.2,565.3v26.6h-5.8v-26.6H970.2z M975.1,583h-6.4v-5.2h5.1c1.4,0,2.5-0.3,3.2-0.9c0.7-0.6,1-1.5,1-2.8
			s-0.3-2.2-1-2.8c-0.7-0.6-1.8-0.9-3.2-0.9h-5.1v-5.2h6.4c1.8,0,3.4,0.4,4.8,1.1c1.4,0.7,2.4,1.8,3.2,3.1s1.1,2.9,1.1,4.7
			c0,1.8-0.4,3.3-1.1,4.7s-1.8,2.4-3.2,3.1C978.6,582.7,977,583,975.1,583z"/>
		<path class="st9" d="M993.7,591.9h-5.8v-26.6h10.3c3.2,0,5.7,0.8,7.5,2.2c1.8,1.5,2.6,3.6,2.6,6.4c0,1.7-0.4,3.2-1.1,4.4
			c-0.7,1.2-1.8,2.2-3.3,3l4.7,10.6h-6.4l-4-9.3h-4.5V591.9z M993.7,570.4v7h4.4c1.3,0,2.3-0.3,3-0.9s1.1-1.5,1.1-2.6s-0.3-2-1-2.6
			c-0.7-0.6-1.7-0.9-3-0.9H993.7z"/>
		<path class="st9" d="M1029.6,591.9h-16.9v-26.6h16.9v5.4h-12.7l1.6-1.5v6.7h9.8v5.1h-9.8v7l-1.6-1.5h12.7V591.9z"/>
		<path class="st9" d="M1040.1,591.9h-5.8v-26.6h5.8l13,19.7h-1.8v-19.7h5.8v26.6h-5.8l-13-19.6h1.8V591.9z"/>
		<path class="st9" d="M1060.9,573c0-1.6,0.4-3,1.3-4.3c0.8-1.2,2-2.2,3.5-2.9c1.5-0.7,3.2-1.1,5.1-1.1c1.9,0,3.6,0.3,5,1
			s2.5,1.6,3.2,2.8s1.1,2.7,1.1,4.4h-5.8c0-0.9-0.3-1.7-1-2.2c-0.6-0.5-1.5-0.8-2.6-0.8c-1.2,0-2.1,0.3-2.8,0.8
			c-0.7,0.5-1.1,1.2-1.1,2.1c0,0.8,0.2,1.4,0.6,1.9c0.4,0.4,1.1,0.7,2.1,0.9l4,0.8c2.4,0.5,4.1,1.3,5.3,2.5c1.2,1.2,1.7,2.8,1.7,4.9
			c0,1.7-0.4,3.2-1.3,4.5c-0.8,1.3-2,2.3-3.5,3c-1.5,0.7-3.3,1-5.3,1c-2,0-3.7-0.3-5.2-1c-1.5-0.7-2.6-1.6-3.4-2.9
			c-0.8-1.2-1.2-2.7-1.2-4.3h5.8c0,1,0.3,1.7,1,2.2c0.7,0.5,1.7,0.8,3,0.8c1.3,0,2.4-0.2,3.1-0.7c0.8-0.5,1.2-1.2,1.2-2
			c0-0.7-0.2-1.3-0.6-1.7s-1-0.7-1.9-0.9l-4.1-0.8c-2.4-0.5-4.2-1.4-5.4-2.7C1061.5,576.9,1060.9,575.2,1060.9,573z"/>
		<path class="st9" d="M1087.9,591.9h-6.1l9.5-26.6h5.7l9.5,26.6h-6.2l-1.9-5.6h-8.6L1087.9,591.9z M1093.4,575.7l-1.9,5.7h5.3
			l-1.9-5.7c-0.1-0.5-0.3-0.9-0.4-1.4c-0.1-0.5-0.2-0.9-0.3-1.2c0,0.3-0.1,0.7-0.3,1.2C1093.8,574.7,1093.6,575.2,1093.4,575.7z"/>
	</g>
	<g>
		<path class="st0" d="M497.3,566.6v-28.3h10.9c6.9,0,10.8,3.3,10.8,9.2c0,3.7-1.6,6.3-4.7,7.9l5,11.2h-6.8l-4.2-9.9h-4.8v9.9H497.3
			z M503.5,551.3h4.7c2.7,0,4.3-1.4,4.3-3.8c0-2.4-1.5-3.7-4.2-3.7h-4.7V551.3z"/>
		<path class="st0" d="M523.6,566.6v-28.3h18v5.7h-11.8v5.5h10.4v5.4h-10.4v5.9h11.8v5.7H523.6z"/>
		<path class="st0" d="M552.9,557.2v9.4h-6.2v-28.3h11.5c5.8,0,9.6,3.8,9.6,9.4c0,5.7-3.9,9.4-9.6,9.4H552.9z M552.9,543.8v7.9h3.9
			c3,0,4.5-1.3,4.5-3.9s-1.5-3.9-4.5-3.9H552.9z"/>
		<path class="st0" d="M584,567.1c-8.2,0-13.8-6-13.8-14.6c0-8.6,5.7-14.7,13.8-14.7c8.2,0,13.9,6,13.9,14.6S592.2,567.1,584,567.1z
			 M584,543.8c-4.6,0-7.3,3.3-7.3,8.6c0,5.4,2.8,8.7,7.3,8.7c4.6,0,7.3-3.3,7.3-8.7C591.3,547.1,588.6,543.8,584,543.8z"/>
		<path class="st0" d="M602.2,566.6v-28.3h10.9c6.9,0,10.8,3.3,10.8,9.2c0,3.7-1.6,6.3-4.7,7.9l5,11.2h-6.8l-4.2-9.9h-4.8v9.9H602.2
			z M608.4,551.3h4.7c2.7,0,4.3-1.4,4.3-3.8c0-2.4-1.5-3.7-4.2-3.7h-4.7V551.3z"/>
		<path class="st0" d="M626,538.3h22.3v5.7h-8v22.6H634v-22.6h-8V538.3z"/>
		<path class="st0" d="M646.9,566.6l10.1-28.3h6l10.1,28.3h-6.6l-2-6h-9.1l-2,6H646.9z M657.1,555.5h5.6l-2-6
			c-0.3-1-0.7-2.1-0.8-2.8c-0.1,0.7-0.4,1.7-0.8,2.8L657.1,555.5z"/>
		<path class="st0" d="M676.4,538.3h11.8c5.7,0,9.1,3,9.1,7.8c0,3-1.4,5.2-3.9,6.4c2.8,0.9,4.3,3.1,4.3,6.3c0,5-3.4,7.8-9.5,7.8
			h-11.8V538.3z M682.6,543.8v6.2h4.9c2.2,0,3.4-1.1,3.4-3.1c0-2-1.2-3-3.4-3H682.6z M682.6,555.1v6.1h5.2c2.3,0,3.5-1,3.5-3.1
			c0-1.9-1.2-2.9-3.5-2.9H682.6z"/>
		<path class="st0" d="M708,566.6h-6.2v-28.3h6.2V566.6z"/>
		<path class="st0" d="M720.1,560.9h11.2v5.7h-17.4v-28.3h6.2V560.9z"/>
		<path class="st0" d="M741.4,566.6h-6.2v-28.3h6.2V566.6z"/>
		<path class="st0" d="M747.2,566.6v-28.3H758c8.3,0,14.1,5.8,14.1,14.2c0,8.3-5.6,14.1-13.7,14.1H747.2z M753.4,544.1v16.8h4.3
			c4.9,0,7.8-3.1,7.8-8.3c0-5.4-3-8.5-8.1-8.5H753.4z"/>
		<path class="st0" d="M772.2,566.6l10.1-28.3h6l10.1,28.3h-6.6l-2-6h-9.1l-2,6H772.2z M782.5,555.5h5.6l-2-6
			c-0.3-1-0.7-2.1-0.8-2.8c-0.1,0.7-0.4,1.7-0.8,2.8L782.5,555.5z"/>
		<path class="st0" d="M801.7,566.6v-28.3h10.7c8.3,0,14.1,5.8,14.1,14.2c0,8.3-5.6,14.1-13.7,14.1H801.7z M807.9,544.1v16.8h4.3
			c4.9,0,7.8-3.1,7.8-8.3c0-5.4-3-8.5-8.1-8.5H807.9z"/>
	</g>
	<g>
		<path class="st10" d="M158.8,424.5h-5.7v-26.6h5.7l7.9,19.9l8-19.9h5.7v26.6h-5.7v-5.6c0-1.4,0-2.6,0-3.6c0-0.9,0-1.7,0-2.3
			c0-0.6,0.1-1.2,0.1-1.6s0.1-1,0.2-1.5l-5.7,14.6h-5.3l-5.6-14.6c0.2,1,0.3,2.1,0.3,3.2s0.1,2.5,0.1,3.9V424.5z"/>
		<path class="st10" d="M185.8,414.5v-16.6h5.8v16.2c0,1.7,0.4,3,1.3,3.9s2.1,1.3,3.8,1.3c1.7,0,2.9-0.5,3.8-1.4
			c0.9-0.9,1.3-2.2,1.3-3.8v-16.2h5.8v16.6c0,2.1-0.5,3.9-1.3,5.5c-0.9,1.6-2.2,2.8-3.8,3.6c-1.7,0.9-3.6,1.3-5.8,1.3
			c-2.2,0-4.1-0.4-5.8-1.3s-2.9-2.1-3.8-3.6C186.2,418.4,185.8,416.6,185.8,414.5z"/>
		<path class="st10" d="M218.9,424.5h-5.8v-26.6h5.8l13,19.7h-1.8v-19.7h5.8v26.6h-5.8l-13-19.6h1.8V424.5z"/>
		<path class="st10" d="M247.2,397.8v26.6h-5.8v-26.6H247.2z"/>
		<path class="st10" d="M264.3,424.9c-2.7,0-5-0.6-6.9-1.7s-3.4-2.7-4.5-4.8c-1.1-2.1-1.6-4.5-1.6-7.3c0-2.8,0.6-5.2,1.7-7.3
			c1.1-2.1,2.7-3.7,4.6-4.8c2-1.1,4.3-1.7,6.9-1.7c2.2,0,4.2,0.4,6,1.2c1.7,0.8,3.2,1.9,4.3,3.4c1.1,1.5,1.8,3.2,2.1,5.2h-6.2
			c-0.4-1.3-1.1-2.4-2.2-3.1c-1.1-0.7-2.4-1.1-4-1.1c-1.4,0-2.7,0.3-3.7,1c-1,0.6-1.8,1.6-2.4,2.8c-0.6,1.2-0.8,2.7-0.8,4.4
			c0,1.7,0.3,3.1,0.8,4.3c0.6,1.2,1.4,2.2,2.4,2.8s2.3,1,3.7,1c1.6,0,3-0.4,4.2-1.1c1.1-0.8,1.9-1.8,2.2-3.1h6c-0.3,2-1,3.7-2.2,5.2
			c-1.1,1.5-2.6,2.6-4.4,3.5S266.5,424.9,264.3,424.9z"/>
		<path class="st10" d="M286.6,397.8v26.6h-5.8v-26.6H286.6z"/>
		<path class="st10" d="M298,397.8v26.6h-5.8v-26.6H298z M302.9,415.6h-6.4v-5.2h5.1c1.4,0,2.5-0.3,3.2-0.9c0.7-0.6,1-1.5,1-2.8
			s-0.3-2.2-1-2.8c-0.7-0.6-1.8-0.9-3.2-0.9h-5.1v-5.2h6.4c1.8,0,3.4,0.4,4.8,1.1c1.4,0.7,2.4,1.8,3.2,3.1s1.1,2.9,1.1,4.7
			c0,1.8-0.4,3.3-1.1,4.7s-1.8,2.4-3.2,3.1C306.3,415.3,304.8,415.6,302.9,415.6z"/>
		<path class="st10" d="M340.3,411.1c0,2.7-0.6,5.1-1.7,7.2c-1.1,2.1-2.6,3.7-4.6,4.9c-2,1.2-4.2,1.7-6.8,1.7
			c-2.6,0-4.8-0.6-6.8-1.7c-2-1.2-3.5-2.8-4.6-4.8c-1.1-2.1-1.6-4.5-1.6-7.2c0-2.7,0.6-5.1,1.7-7.2c1.1-2.1,2.6-3.7,4.6-4.9
			c2-1.2,4.2-1.7,6.8-1.7c2.6,0,4.9,0.6,6.8,1.7c2,1.2,3.5,2.8,4.6,4.8C339.7,406,340.3,408.4,340.3,411.1z M334.1,411.1
			c0-1.7-0.3-3.2-0.8-4.4c-0.6-1.2-1.3-2.1-2.4-2.8c-1-0.6-2.2-1-3.7-1c-1.4,0-2.7,0.3-3.7,1c-1,0.6-1.8,1.6-2.4,2.8
			c-0.6,1.2-0.8,2.7-0.8,4.4c0,1.7,0.3,3.2,0.8,4.4c0.6,1.2,1.3,2.2,2.4,2.8c1,0.6,2.3,1,3.7,1c1.4,0,2.7-0.3,3.7-1s1.8-1.6,2.4-2.8
			C333.9,414.3,334.1,412.8,334.1,411.1z"/>
	</g>
	<g>
		<path class="st11" d="M911.1,405.6c0-1.6,0.5-3,1.4-4.3c0.9-1.2,2.2-2.2,3.9-2.9s3.5-1.1,5.7-1.1c2.2,0,4,0.3,5.6,1
			s2.8,1.6,3.6,2.8c0.8,1.2,1.3,2.7,1.3,4.4h-6.5c0-0.9-0.4-1.7-1.1-2.2c-0.7-0.5-1.7-0.8-2.9-0.8c-1.3,0-2.4,0.3-3.2,0.8
			c-0.8,0.5-1.2,1.2-1.2,2.1c0,0.8,0.2,1.4,0.7,1.9c0.5,0.4,1.3,0.7,2.3,0.9l4.5,0.8c2.7,0.5,4.6,1.3,5.9,2.5
			c1.3,1.2,1.9,2.8,1.9,4.9c0,1.7-0.5,3.2-1.4,4.5s-2.3,2.3-4,3c-1.7,0.7-3.7,1-6,1c-2.2,0-4.1-0.3-5.8-1s-2.9-1.6-3.8-2.9
			c-0.9-1.2-1.4-2.7-1.4-4.3h6.5c0,1,0.4,1.7,1.2,2.2c0.8,0.5,1.9,0.8,3.4,0.8c1.5,0,2.7-0.2,3.5-0.7c0.9-0.5,1.3-1.2,1.3-2
			c0-0.7-0.2-1.3-0.6-1.7c-0.4-0.4-1.1-0.7-2.1-0.9l-4.6-0.8c-2.7-0.5-4.7-1.4-6-2.7C911.8,409.5,911.1,407.8,911.1,405.6z"/>
		<path class="st11" d="M956.4,424.5h-19v-26.6h19v5.4h-14.3l1.8-1.5v6.7h11v5.1h-11v7l-1.8-1.5h14.3V424.5z"/>
		<path class="st11" d="M975.2,402.9c-1.8,0-3.3,0.4-4.5,1.1s-2.1,1.7-2.7,3c-0.6,1.3-0.9,2.8-0.9,4.5c0,1.8,0.3,3.3,1,4.5
			s1.7,2.1,2.9,2.7s2.6,0.9,4.2,0.9c1.3,0,2.5-0.2,3.4-0.5c0.9-0.3,1.7-0.7,2.3-1.3s1-1.2,1.3-1.9c0.3-0.7,0.4-1.4,0.4-2.2v-2.1
			l3.1,2.8h-11.1v-5.1h14.1v15.3h-5.6l-0.5-3.6l0.7,0.5c-0.4,0.7-1.1,1.3-2,1.8c-0.9,0.5-2,0.9-3.2,1.2s-2.5,0.4-3.8,0.4
			c-2.8,0-5.2-0.6-7.4-1.7c-2.1-1.1-3.8-2.7-5-4.8s-1.8-4.4-1.8-7.2c0-2.7,0.6-5.1,1.9-7.1s3-3.7,5.3-4.9c2.3-1.2,5-1.8,8-1.8
			c2.4,0,4.6,0.4,6.5,1.2c1.9,0.8,3.5,1.9,4.7,3.3s1.9,3.1,2.1,5h-6.9c-0.4-1.4-1.2-2.4-2.4-3.1
			C978.2,403.2,976.8,402.9,975.2,402.9z"/>
		<path class="st11" d="M993.9,414.5v-16.6h6.5v16.2c0,1.7,0.5,3,1.5,3.9s2.4,1.3,4.2,1.3c1.9,0,3.3-0.5,4.3-1.4s1.5-2.2,1.5-3.8
			v-16.2h6.5v16.6c0,2.1-0.5,3.9-1.5,5.5c-1,1.6-2.4,2.8-4.3,3.6c-1.9,0.9-4,1.3-6.5,1.3c-2.5,0-4.6-0.4-6.5-1.3s-3.3-2.1-4.3-3.6
			C994.4,418.4,993.9,416.6,993.9,414.5z"/>
		<path class="st11" d="M1031.1,424.5h-6.5v-26.6h11.6c3.6,0,6.4,0.8,8.4,2.2s3,3.6,3,6.4c0,1.7-0.4,3.2-1.2,4.4
			c-0.8,1.2-2.1,2.2-3.7,3l5.3,10.6h-7.2l-4.5-9.3h-5V424.5z M1031.1,403v7h5c1.4,0,2.5-0.3,3.3-0.9s1.2-1.5,1.2-2.6s-0.4-2-1.2-2.6
			c-0.8-0.6-1.9-0.9-3.3-0.9H1031.1z"/>
		<path class="st11" d="M1080,411.1c0,2.7-0.6,5.1-1.9,7.2c-1.2,2.1-3,3.7-5.2,4.9c-2.2,1.2-4.8,1.7-7.7,1.7c-2.9,0-5.4-0.6-7.6-1.7
			c-2.2-1.2-3.9-2.8-5.1-4.8c-1.2-2.1-1.8-4.5-1.8-7.2c0-2.7,0.6-5.1,1.9-7.2c1.2-2.1,3-3.7,5.2-4.9c2.2-1.2,4.7-1.7,7.6-1.7
			c2.9,0,5.5,0.6,7.7,1.7c2.2,1.2,3.9,2.8,5.2,4.8C1079.4,406,1080,408.4,1080,411.1z M1073.1,411.1c0-1.7-0.3-3.2-0.9-4.4
			c-0.6-1.2-1.5-2.1-2.6-2.8c-1.1-0.6-2.5-1-4.1-1s-3,0.3-4.2,1c-1.2,0.6-2,1.6-2.7,2.8c-0.6,1.2-0.9,2.7-0.9,4.4
			c0,1.7,0.3,3.2,0.9,4.4c0.6,1.2,1.5,2.2,2.7,2.8c1.2,0.6,2.5,1,4.2,1s3-0.3,4.1-1s2-1.6,2.6-2.8
			C1072.8,414.3,1073.1,412.8,1073.1,411.1z"/>
		<path class="st11" d="M1082.9,405.6c0-1.6,0.5-3,1.4-4.3c0.9-1.2,2.2-2.2,3.9-2.9s3.5-1.1,5.7-1.1c2.2,0,4,0.3,5.6,1
			s2.8,1.6,3.6,2.8c0.8,1.2,1.3,2.7,1.3,4.4h-6.5c0-0.9-0.4-1.7-1.1-2.2c-0.7-0.5-1.7-0.8-2.9-0.8c-1.3,0-2.4,0.3-3.2,0.8
			c-0.8,0.5-1.2,1.2-1.2,2.1c0,0.8,0.2,1.4,0.7,1.9c0.5,0.4,1.3,0.7,2.3,0.9l4.5,0.8c2.7,0.5,4.6,1.3,5.9,2.5
			c1.3,1.2,1.9,2.8,1.9,4.9c0,1.7-0.5,3.2-1.4,4.5s-2.3,2.3-4,3c-1.7,0.7-3.7,1-6,1c-2.2,0-4.1-0.3-5.8-1s-2.9-1.6-3.8-2.9
			c-0.9-1.2-1.4-2.7-1.4-4.3h6.5c0,1,0.4,1.7,1.2,2.2c0.8,0.5,1.9,0.8,3.4,0.8c1.5,0,2.7-0.2,3.5-0.7c0.9-0.5,1.3-1.2,1.3-2
			c0-0.7-0.2-1.3-0.6-1.7c-0.4-0.4-1.1-0.7-2.1-0.9l-4.6-0.8c-2.7-0.5-4.7-1.4-6-2.7C1083.6,409.5,1082.9,407.8,1082.9,405.6z"/>
	</g>
	<g>
		<path class="st0" d="M1095.9,780.7H889.6l-0.2-0.2L806.6,679c-0.2-0.2-0.1-0.5,0.1-0.7c0.2-0.2,0.5-0.1,0.7,0.1L890,779.7h205.9
			c0.3,0,0.5,0.2,0.5,0.5S1096.2,780.7,1095.9,780.7z"/>
	</g>
	<g>
		<linearGradient id="SVGID_1_" gradientUnits="userSpaceOnUse" x1="839.7999" y1="526.7903" x2="839.7999" y2="526.7903">
			<stop  offset="0" style="stop-color:#FFFFFF"/>
			<stop  offset="1" style="stop-color:#CFC5B5"/>
		</linearGradient>
		<path class="st12" d="M839.8,526.8"/>
	</g>
	<g>
		<path class="st0" d="M490.4,493.2c-0.1,0-0.1,0-0.2,0L346,433.5H150.4c-0.3,0-0.5-0.2-0.5-0.5s0.2-0.5,0.5-0.5h195.8l0.1,0
			l144.3,59.7c0.3,0.1,0.4,0.4,0.3,0.7C490.8,493.1,490.6,493.2,490.4,493.2z"/>
	</g>
	<g>
		
			<linearGradient id="SVGID_00000081643924590482145530000009057982164293741753_" gradientUnits="userSpaceOnUse" x1="49.3652" y1="624.7026" x2="475.5972" y2="624.7026">
			<stop  offset="0" style="stop-color:#FFFFFF"/>
			<stop  offset="1" style="stop-color:#CFC5B5"/>
		</linearGradient>
		<polygon style="fill:url(#SVGID_00000081643924590482145530000009057982164293741753_);" points="320.5,658 49.4,658 49.4,657 
			320.3,657 475.2,591.4 475.6,592.4 		"/>
	</g>
	<g>
		<path class="st0" d="M234.1,787.3c-0.3,0-0.5-0.2-0.5-0.5c0-0.3,0.2-0.5,0.5-0.5l233.3-6.6l90.8-64.4c0.2-0.2,0.5-0.1,0.7,0.1
			c0.2,0.2,0.1,0.5-0.1,0.7l-91.1,64.6l-0.2,0L234.1,787.3C234.1,787.3,234.1,787.3,234.1,787.3z"/>
	</g>
	<g>
		<path class="st0" d="M618.4,881.1H497.9c-0.3,0-0.5-0.2-0.5-0.5s0.2-0.5,0.5-0.5h119.8l61.9-135.5c0.1-0.2,0.4-0.4,0.7-0.2
			c0.3,0.1,0.4,0.4,0.2,0.7L618.4,881.1z"/>
	</g>
	<g>
		<polygon class="st0" points="558.1,409.6 490.2,313.4 251.1,313.4 251.1,312.4 490.7,312.4 558.9,409 		"/>
	</g>
	<g>
		<polygon class="st0" points="999.5,679.2 933.4,679.2 933.2,679.1 839.5,607.7 840.1,606.9 933.7,678.2 999.5,678.2 		"/>
	</g>
	<g>
		<polygon class="st0" points="1095.9,557.7 961.5,557.7 961.4,557.6 839.7,527.3 839.9,526.3 961.6,556.7 1095.9,556.7 		"/>
	</g>
	<g>
		<polygon class="st0" points="797.4,444.4 797,443.5 909.6,388 1095.9,388 1095.9,389 909.8,389 		"/>
	</g>
	<g>
		<polygon class="st0" points="722.1,398.3 721.3,397.7 820.6,271.5 983.7,271.5 983.7,272.5 821.1,272.5 		"/>
	</g>
</g>
</svg>
