<?xml version="1.0" encoding="UTF-8"?>
<svg id="Capa_1" data-name="Capa 1" xmlns="http://www.w3.org/2000/svg" viewBox="0 0 1156.1914 1160.3689">
  <defs>
    <style>
      .cls-1 {
        fill: #e2dfcf;
      }

      .cls-1, .cls-2, .cls-3 {
        stroke-width: 0px;
      }

      .cls-2 {
        fill: #cdc711;
      }

      .cls-3 {
        fill: #3fc;
      }

      .cls-4 {
        opacity: .18;
      }
    </style>
  </defs>
  <g>
    <path class="cls-2" d="M111.5967,416.0132l3.4302-7.9834,36.46,15.6719-3.4307,7.9824-36.4595-15.6709Z"/>
    <path class="cls-2" d="M108.9263,421.5932l32.666,26.6084-2.8325,7.9854-42.1133.0264,3.0835-8.6934,8.8159.1689,4.2842-12.0781-6.9336-5.4756,3.0298-8.542ZM118.8609,440.4243l-2.6172,7.3779,8.9355.1543c1.4067.043,3.0342.1074,3.9971.2793-.8047-.457-2.0771-1.3633-3.2798-2.3008l-7.0356-5.5107Z"/>
    <path class="cls-2" d="M108.2574,488.1821c-7.8047-1.7197-12.6499,1.8281-14.0112,8.0078-1.4077,6.3906,1.4268,9.9814,5.3789,11.2363l2.2617-10.2666,7.4375,1.6387-4.0146,18.2275-22.2612-4.9033,1.603-7.2803,3.6138.3018c-2.0005-2.6377-2.7017-7.1855-1.686-11.7949,2.3877-10.8428,12.0225-16.6846,23.9131-14.0664,11.6807,2.5732,18.395,12.2354,15.7529,24.2305-2.042,9.2715-9.0586,15.1953-17.6357,14.2402l1.9614-8.9043c4.3047-.0967,6.8701-3.2656,7.7588-7.2988,1.5459-7.0186-2.582-11.7178-10.0723-13.3682Z"/>
    <path class="cls-2" d="M81.4434,522.8159l39.3418,5.2314-3.3228,24.9873-7.9746-1.0615,2.1772-16.374-7.7085-1.0254-1.9297,14.5146-7.5498-1.0039,1.9302-14.5137-8.1348-1.082-2.1772,16.375-7.9746-1.0596,3.3228-24.9883Z"/>
    <path class="cls-2" d="M77.1397,556.7417l39.6299,2.1836-.4722,8.5684-26.1445,15.3193,25.2236,1.3896-.4717,8.5684-39.6304-2.1826.4722-8.5684,26.0918-15.3232-25.1709-1.3867.4722-8.5684Z"/>
    <path class="cls-2" d="M75.2798,600.6186l39.6831-.7578.481,25.2041-8.0439.1533-.3154-16.5166-7.7759.1484.2793,14.6396-7.6147.1455-.2793-14.6396-8.2051.1562.3154,16.5166-8.0439.1543-.4805-25.2041Z"/>
    <path class="cls-2" d="M76.1871,634.522l39.5435-3.4072,1.3169,15.2832c.8281,9.6182-3.3506,15.4688-11.5264,16.1729-5.1299.4424-8.9526-1.4355-11.5747-5.623l-15.1118,8.2998-.8145-9.458,13.3286-7.125-.5757-6.6787-13.8403,1.1924-.7456-8.6562ZM98.3614,641.3315l.5664,6.5723c.3267,3.7949,2.4395,5.8193,5.8052,5.5303,3.3135-.2861,4.9512-2.5264,4.6196-6.374l-.5713-6.626-10.4199.8975Z"/>
    <path class="cls-2" d="M79.274,669.3325l41.4062,7.8232,1.3164,8.3721-37.0176,20.0977-1.4326-9.1133,7.8325-4.0537-1.9907-12.6631-8.707-1.5088-1.4072-8.9541ZM96.9854,681.1518l1.2158,7.7363,7.9297-4.125c1.2588-.6309,2.7202-1.3506,3.6489-1.6602-.9258-.0166-2.4761-.207-3.981-.458l-8.8135-1.4932Z"/>
    <path class="cls-2" d="M123.7457,696.6225l6.6475,30.499-7.8599,1.7139-2.3989-11.0039-30.918,6.7373-1.8506-8.4893,30.918-6.7383-2.3984-11.0049,7.8604-1.7139Z"/>
    <path class="cls-2" d="M95.5748,750.0122l-2.2319-8.3965,38.3511-10.1963,2.2324,8.3965-38.3516,10.1963Z"/>
    <path class="cls-2" d="M134.6626,743.6157l2.8286,8.8369-16.8154,13.2666c-2.0718,1.6191-4.1929,3.0869-7.2002,4.9502,3.937-.1895,6.2603-.1445,8.7695-.0469l21.3608.9346,2.7632,8.6328-42.2476-1.7959-2.7305-8.5312,33.2715-26.2471Z"/>
    <path class="cls-2" d="M107.3394,788.7016l42.1255-1.001,3.0356,7.9111-31.998,27.3887-3.3052-8.6133,6.812-5.5996-4.5928-11.9678-8.8291.3438-3.248-8.4619ZM127.1294,796.56l2.8047,7.3096,6.8931-5.6895c1.0981-.8809,2.3774-1.8887,3.2212-2.3848-.9092.1768-2.4648.3135-3.9897.3818l-8.9292.3828Z"/>
  </g>
  <g>
    <path class="cls-2" d="M1064.9126,742.7807l1.875-16.4111c.9072-7.9395,5.6113-12.2598,12.3784-11.4863,4.2095.4805,7.0806,2.752,8.2178,6.498,1.7231-3.7432,4.998-5.4746,9.4736-4.9629,6.9805.7979,10.334,5.9307,9.3599,14.4561l-1.875,16.4121-39.4297-4.5059ZM1073.4649,735.0132l8.5786.9805.7856-6.873c.353-3.0908-.9976-4.9727-3.8213-5.2949-2.771-.3164-4.3984,1.1709-4.7573,4.3145l-.7856,6.873ZM1089.2901,736.8218l8.4722.9678.834-7.2998c.3657-3.1973-.8843-5.0127-3.8149-5.3477-2.6641-.3047-4.2979,1.2363-4.6567,4.3799l-.8345,7.2998Z"/>
    <path class="cls-2" d="M1100.4488,701.0932l.6729-15.6436,8.0361.3457-1.0464,24.3223-39.6445-1.7051.3735-8.6787,31.6084,1.3594Z"/>
    <path class="cls-2" d="M1109.5103,663.395c.2974,11.4717-7.8608,19.5684-19.9751,19.8818-12.1147.3135-20.7363-7.4014-21.0332-18.873-.2983-11.5244,7.8579-19.6748,19.9727-19.9883,12.1147-.3145,20.7373,7.4551,21.0356,18.9795ZM1076.8628,664.1333c.1665,6.4326,4.8228,10.1748,12.3809,9.9785,7.6118-.1973,12.0684-4.1748,11.9019-10.6074-.1655-6.3789-4.9287-10.1172-12.4336-9.9229-7.5581.1963-12.0142,4.1738-11.8491,10.5518Z"/>
    <path class="cls-2" d="M1088.2598,640.2417c-12.3228,1.2861-21.2495-5.709-22.4805-17.498-1.0303-9.8682,3.8833-17.5537,12.6104-19.7051l.9526,9.1221c-3.8252,1.5859-5.7148,5.1797-5.2188,9.9277.668,6.4014,5.6089,9.8223,13.1304,9.0371,7.415-.7744,11.644-5.2061,10.981-11.5547-.5063-4.8545-3.2803-8.1777-7.2856-8.8379l-.936-8.9619c8.9468.4678,15.5303,7.2227,16.5605,17.0908,1.2363,11.8428-5.8311,20.0762-18.314,21.3799Z"/>
    <path class="cls-2" d="M1080.9195,587.9966l-21.1611-10.8418-1.7607-10.0898,18.9233,9.8721,20.1494-16.7979,1.7236,9.8789-13.606,11.2461,8.6206,4.4844,7.5015-1.3086,1.4932,8.5576-39.0913,6.8203-1.4932-8.5586,18.7007-3.2627Z"/>
    <path class="cls-2" d="M1077.5738,563.5132c-12.0547,2.8584-21.8062-2.9316-24.541-14.4639-2.2891-9.6543,1.5967-17.9072,9.9746-21.1611l2.1162,8.9229c-3.5898,2.0645-5.002,5.8711-3.9004,10.5156,1.4849,6.2627,6.8242,9.0205,14.1821,7.2754,7.2539-1.7197,10.8779-6.6582,9.4058-12.8682-1.1265-4.749-4.3037-7.6885-8.3608-7.8291l-2.0791-8.7666c8.9326-.6855,16.3281,5.167,18.6177,14.8213,2.7471,11.585-3.2041,20.6582-15.415,23.5537Z"/>
    <path class="cls-2" d="M1086.0357,514.8696l-37.9507,11.585-2.5361-8.3076,14.9751-4.5713-4.4775-14.668-14.9751,4.5713-2.5361-8.3076,37.9507-11.585,2.5361,8.3076-15.2827,4.666,4.4775,14.667,15.2827-4.665,2.5361,8.3076Z"/>
    <path class="cls-2" d="M1074.6075,477.8589l-42.1343.4717-2.9365-7.9482,32.3403-26.9844,3.1963,8.6533-6.8813,5.5156,4.4419,12.0234,8.833-.2334,3.1406,8.502ZM1054.9185,469.7534l-2.7139-7.3447-6.9634,5.6025c-1.1094.8672-2.4009,1.8584-3.2505,2.3438.9106-.165,2.4683-.2822,3.9937-.332l8.9341-.2695Z"/>
    <path class="cls-2" d="M1056.2867,430.353l3.3247,8.0264-36.6636,15.1875-3.3247-8.0264,36.6636-15.1875Z"/>
    <path class="cls-2" d="M1052.8047,421.7749l-36.0088,16.6777-3.606-7.7852,15.8877-25.7979-22.9189,10.6152-3.606-7.7852,36.0083-16.6777,3.606,7.7852-15.8384,25.7744,22.8701-10.5918,3.606,7.7852Z"/>
  </g>
  <g>
    <path class="cls-3" d="M325.5533,787.646c-1.5034,0-3.1021-.4287-4.709-1.4404-2.4307-1.5312-3.9072-4.2471-3.9497-7.2656-.042-3.0078,1.3569-5.7578,3.7422-7.3545,2.6089-1.748,5.1353-1.4229,7.5776-1.1104.3408.0439.6865.0889,1.0381.1279l32.0913-50.0752c-.3755-.5391-.8501-1.0303-1.3457-1.5439-.8271-.8564-1.6821-1.7422-2.2622-2.9961-1.5674-3.3867-1.6787-7.3232-.3057-10.7988,1.2358-3.1279,3.5039-5.6084,6.4478-7.0781l-11.0801-33.2334c-.375-.0361-.9785-.0352-1.3403-.0293-.6235.0039-1.1626.0098-1.5776-.0674-5.355-.9805-7.4248-5.5742-7.082-9.4287.3364-3.7783,3.1323-7.8545,8.4775-7.874h.0376c4.2861,0,7.647,2.6006,8.5684,6.6348.7363,3.2227-.2856,7.3164-4.127,9.5303l11.7891,33.2715c4.7749-.8926,8.562.8955,11.687,2.9922,10.5479-9.2295,21.3301-18.5176,31.7642-27.5059,10.8887-9.3799,22.1479-19.0791,33.1367-28.707.3574-.3135,1.0786-.9316,2.0278-1.7441,3.1299-2.6816,12.3604-10.5898,13.8784-12.4053-.0884-.2246-.2363-.541-.3452-.7734-.2959-.6318-.6011-1.2842-.7021-1.8682-.0732-.4238-.0698-1.0205-.0659-1.7119.0029-.4531.0073-1.2168-.04-1.6523l-45.4849-17.1523-1.1396-.126c-2.6895,4.1504-7.3057,4.6963-10.604,3.3809-3.5532-1.418-6.519-5.2109-5.1357-10.4873,1.187-4.5283,5.3125-6.4102,8.8491-6.2529,3.4829.1475,7.355,2.3535,8.1538,6.9521.1021.5879.0645,1.1934.0312,1.7266-.0518.835-.0542,1.2861.1484,1.5l46.3252,17.5391.0962-.0127c1.0352-1.8164,2.5552-2.6084,4.0293-3.376.3662-.1904.7402-.3848,1.1079-.5967l-.7104-12.7139c-6.1167-.3252-11.6479-3.4941-14.9512-8.6191-3.4346-5.3291-3.8779-11.7383-1.2173-17.5869.1592-.3496.4541-.7832.9224-1.4629.2896-.4209.7656-1.1123,1.021-1.5732l-26.3984-23.0908c-3.6309,2.4609-7.7275,1.7822-10.3188-.1016-3.2871-2.3877-4.4072-6.4922-2.8545-10.4561,1.791-4.5723,6.5317-5.9756,10.2939-4.9971,3.4233.8916,7.1304,4.0605,6.3105,10.0586-.0815.5977-.3682,1.2793-.6455,1.9385-.1323.3145-.3315.7891-.4248,1.1006l26.2793,22.9297c.3291-.2256.6528-.4922.9878-.7676.4761-.3916.9683-.7969,1.5586-1.166.4111-.2568.8911-.4707,1.3994-.6973.4932-.2197,1.7607-.7842,1.8599-1.1182l-11.5093-36.7803c-4.1621.4629-7.2739-2.2061-8.5801-5.251-1.4341-3.3418-1.0737-7.9189,2.9639-10.6094,4.0317-2.6855,8.4351-1.4893,11.0103.8838,3.0371,2.8008,3.7256,6.9062,1.7539,10.458-.5439.9795-1.4229,1.6592-2.1987,2.2588-1.0215.79-1.4937,1.2139-1.4907,1.7549l10.9814,36.5273c.5698.0068,1.5352-.1553,2.1187-.248.7988-.1279,1.4863-.2471,2.0117-.2227.5981.0146,1.499.2207,2.542.459.5732.1309,1.4287.3262,1.9839.4092l22.0454-58.3545-.0181-.0449c-4.6641-2.9463-5.123-8.0947-3.1201-11.7461,1.9663-3.584,6.5215-6.1875,11.877-3.4375,2.7554,1.416,4.4219,4.1738,4.457,7.377.0366,3.3301-1.7222,6.3643-4.5898,7.918-1.5283.8281-2.7925.8564-3.9082.8828-.6729.0156-1.271.0293-1.9033.2139l-21.7383,58.1064,6.0913,4.4053,24.895-18.1035-.0371-.1484c-.6533-2.5918-1.271-5.04.2979-7.9395,1.4897-2.7539,4.4023-4.5059,7.6011-4.5713,3.146-.0264,5.9443,1.4688,7.5078,4.0967,2.7759,4.667.9854,9.1113-2.021,11.4453-2.8193,2.1895-7.4229,2.9482-11.2266-.2441l-25.2305,18.0967-.1045.1885c2.6543,4.0518,3.3872,9.1943,2.0039,14.2295-1.4761,5.373-5.2095,9.8174-9.9873,11.8896-.4775.207-1.2437.4033-2.1304.6309-.7373.1885-2.0063.5137-2.604.7715l.4092,12.5439c.7222.4141,1.4351.7021,2.1279.9824,1.936.7842,3.938,1.5938,5.1836,4.8613,1.6152,4.2383-.0039,7.1035-2.3086,10.0186l39.0884,66.1826c4.1265-1.498,7.7334-1.3408,11.5767.4834.5718.2715,1.0698.6748,1.5088,1.0303.7886.6396,1.0371.7715,1.2031.7031l39.9458-36.7627c.0874-.1133.0786-.2363-.375-.9893-.2715-.4512-.5796-.9629-.708-1.5605-.7207-3.3477.1431-6.3262,2.4321-8.3848,2.3945-2.1543,6.0889-2.918,9.1948-1.8975,2.8223.9277,4.7979,3.1914,5.4204,6.2119.7998,3.8789-.7373,7.5059-4.0117,9.4658-3.021,1.8066-6.7153,1.6494-9.6597-.3428l-40.0415,36.8008c.4492.6582.8081,1.4746,1.1602,2.2744.2598.5908.6768,1.5391.9609,1.8721l44.334-7.0039.6992-.3076c.2041-4.4121,3.3525-7.2549,6.5337-8.1455,3.9253-1.1006,7.7588.4873,9.77,4.042,2.8364,5.0127.708,9.418-2.6597,11.5605-3.5186,2.2432-8.9023,2.3125-11.9473-1.9678-.3335-.4688-.5425-1.0029-.7271-1.4746-.1025-.2617-.2646-.6758-.3882-.8496l-45.3672,7.209-.8882,5.7412,21.8413,12.0791c.3594-.2598.6924-.5264,1.0186-.7871,1.2476-.998,2.5381-2.0303,4.8438-2.2568,6.0229-.6084,9.2251,3.501,9.667,7.5518.4624,4.2402-1.9585,9.0947-7.356,9.7422-3.2725.3896-6.3774-.9248-8.3057-3.5205-1.6567-2.2295-2.1206-5.0293-1.3091-7.6582l-21.981-12.4922c-.1523.1055-.3555.4199-.4829.6182-.2539.3936-.541.8389-.9614,1.2139-3.8901,3.4756-9.0088,4.6768-13.6914,3.2217-4.3555-1.3564-7.7056-4.8105-9.123-9.3418l-71.2456,10.1211c-.0278,1.1982-.3242,2.3496-.9302,3.6777-.5342,1.1689-1.2559,1.8418-1.8926,2.4355-.3301.3076-.6284.5859-.8794.9141l15.292,32.1348c2.2998-.4922,4.8936-.0859,6.9897,1.1367,2.0229,1.1797,3.3521,2.9893,3.7422,5.0957,1.0918,5.8945-2.2661,9.5947-6.0781,10.6475-3.8467,1.0605-8.6724-.3799-10.458-5.1904-1.7896-4.8203.3677-7.5205,2.8965-10.6211l-14.9287-31.7627c-2.9473.123-8.3467-.0107-10.4424-5.124-.3438-.8389-.4541-1.7041-.5518-2.4678-.1172-.9189-.2134-1.5205-.4946-1.7666l-33.0801-8.2969c-1.4248,2.96-3.4922,5.2598-6.2842,6.9893l9.6411,27.2539c4.7437-.0732,8.146,1.6143,9.6606,4.8877,2.2637,4.8887.0859,9.1211-3.0757,11.1465-3.1528,2.0186-8.0879,2.3809-11.4775-1.5938-1.6069-1.8848-2.272-4.1768-1.9224-6.6279.3706-2.5977,1.8726-5.082,4.0762-6.7988l-10.0366-27.2129c-.001-.002-.0015-.0029-.0024-.0039-.168.0088-.5083.1094-.7217.1729-.415.123-.8848.2627-1.3765.2656-2.7817,0-4.9351-.377-6.9531-1.2881l-32.3906,50.249c3.5444,3.5781,2.9565,8.251.7759,11.2432-1.5449,2.1191-4.1113,3.751-7.043,3.751ZM325.2881,772.4819c-1.1807,0-2.2734.2275-3.3955.9785-1.7476,1.1709-2.7725,3.207-2.7407,5.4482.0312,2.251,1.1138,4.2646,2.8955,5.3867,3.5156,2.2148,6.9863.6553,8.7246-1.7305,1.7808-2.4434,2.1191-6.1309-1.1396-8.8613l-.7627-.6396.1396-.2168c-.3662-.041-.7266-.0869-1.0815-.1328-.9487-.1211-1.8154-.2324-2.6396-.2324ZM443.8326,766.1763c-2.3647,2.9014-3.7573,4.7207-2.4321,8.29,1.3125,3.5342,4.8867,4.5889,7.7407,3.7998,2.6128-.7217,5.3481-3.2656,4.4595-8.0605-.3438-1.8584-1.6362-2.96-2.6597-3.5566-1.8218-1.0625-4.2153-1.3291-6.0977-.6807l-.9536.3281-.0571-.1201ZM385.4092,751.7407l-.1323.0869c-2.0698,1.3604-3.4971,3.5127-3.8174,5.7588-.1782,1.249-.0786,3.1045,1.4058,4.8447,2.5112,2.9463,6.1885,2.6641,8.542,1.1582,2.1655-1.3867,4.0532-4.3926,2.2456-8.2988-1.5063-3.252-5.2939-3.7305-8.2437-3.5498ZM553.5787,729.937l.2373.1348-.4067.9316c-.936,2.1416-.6763,4.5225.6953,6.3682,1.4399,1.9375,3.7651,2.918,6.2256,2.626,4-.4805,5.7344-4.0137,5.3809-7.2568-.3115-2.8574-2.3833-6.0312-7.2026-5.5508-1.6392.1611-2.4844.8369-3.6543,1.7734-.3813.3047-.8013.6406-1.2754.9736ZM418.0376,722.9097c.2773.6543.3716,1.3916.4595,2.0801.0835.6562.1699,1.334.4014,1.8984,1.4468,3.5303,5.0371,3.8809,8.7432,3.6992.4521-.7529,1.0034-1.2666,1.4951-1.7246.5527-.5156,1.0308-.9609,1.3779-1.7227.6167-1.3506.8174-2.3926.6929-3.5977l-.0952-.9219c-.3325-.4629-.5669-1.001-.7676-1.4629-.1548-.3574-.3154-.7266-.457-.916-1.3857-1.8535-3.605-2.7656-5.9409-2.4346-2.4331.3418-4.4766,1.959-5.3335,4.2188l-.356.9395-.2197-.0557ZM373.2281,723.2026h.0005-.0005ZM506.5142,712.1421l.1489.6143c1.0283,4.2373,3.9722,7.4932,7.875,8.709,3.917,1.2207,8.2241.1914,11.5171-2.75.1924-.1719.375-.4541.5679-.7539.3267-.5059.8047-1.2471,1.5996-1.5527l1.2251-7.9189c-.4868-.6133-.8628-1.4678-1.25-2.3477-.3784-.8604-.897-2.0381-1.3071-2.3076l-1.2109-.7939.4741-.4355c-.7373-.2178-1.3735-.7334-1.8716-1.1367-.374-.3027-.7275-.5889-1.0557-.7451-3.5464-1.6816-6.7344-1.7061-10.6616-.0801l-.7212.2988-.1406.1289c-3.8027,3.4873-5.4521,6.9961-5.1909,11.042l.002.0293ZM363.4263,719.4546l.9189.4961c1.9434,1.0508,3.8857,1.4834,6.6777,1.4834.0435,0,.0869,0,.1309-.001.1685,0,.4741-.0908.7437-.1709.4395-.1309,1.2075-.3594,1.9438-.1992l.6367-.3516c3.084-1.7041,5.1567-4.0117,6.5239-7.2607l.2236-.5322-.2378-.293.1357-.5469c.8491-3.418-.6514-6.792-2.0601-9.0205l-.5176-.8184.042-.0371c-3.1841-2.2334-6.7827-4.1064-11.4873-2.875l-.9248.2422-.4814.1953c-2.8364,1.1494-5.0259,3.3701-6.165,6.2529-1.147,2.9043-1.0542,6.1934.2554,9.0225.4199.9072,1.1084,1.6211,1.8374,2.376.6152.6377,1.2485,1.293,1.7617,2.1035l.0425-.0654ZM424.8951,715.4829c2.6885,0,5.167,1.2227,6.8003,3.4072.2998.4004.5132.8926.7197,1.3682.1548.3555.4331.9961.6299,1.1699l71.1841-10.2158c.0264-4.0498,1.7642-7.7227,5.2866-11.1777l-38.7617-66.5557c-.0811-.0908-.187-.0996-.8745.082-.4219.1104-.9004.2363-1.4307.2363h-.0029c-2.5776-.0029-3.9492-.2314-5.999-1.4863l-80.9746,70.375c1.3716,2.4092,2.6055,5.707,1.9966,9.2031l33.4473,8.4111c1.3149-2.541,3.8086-4.3193,6.7163-4.7285.4243-.0596.8462-.0889,1.2627-.0889ZM578.396,701.3179c.4707.4863.7319,1.1533.9331,1.668.144.3672.2925.7461.4648.9883,2.2368,3.1455,6.2534,3.0527,8.8965,1.3721,2.3965-1.5244,4.1558-4.5703,1.9062-8.5449-1.7993-3.1807-4.8975-3.625-7.1963-2.9805-2.3325.6533-5.0127,2.7939-4.8921,6.6758l.0239.7607-.1362.0605ZM569.1382,663.2768l.6572.5488c2.7979,2.333,5.8896,1.9111,7.8501.7373,1.9014-1.1377,3.6777-3.5938,2.96-7.0732-.4614-2.2383-1.8516-3.8447-3.9141-4.5225-2.3628-.7793-5.167-.2021-6.9805,1.4307-1.1758,1.0576-2.4316,2.998-1.7354,6.2324.0493.2295.2456.5557.4351.8701.2583.4297.6382,1.0596.7275,1.7764ZM351.9131,662.5893c.5918,0,1.1226.0166,1.5703.1123l.0645-.4736.5498-.2627c3.2778-1.5654,4.1616-4.8193,3.5835-7.3506-.541-2.3682-2.499-4.8467-6.3979-4.8789-3.9521.0137-5.9805,2.9316-6.2373,5.8164-.2637,2.9629,1.2544,6.2783,5.2402,7.0078.2051.0371.7324.0322,1.1553.0312.1611-.001.3184-.002.4717-.002ZM462.3565,629.5513l.6191.416c2.0581,1.3848,2.9639,1.5703,5.4722,1.5723h.001c.2393,0,.5396-.0781.8574-.1621.5117-.1338,1.2339-.3252,1.9546-.1406l.0249-.0303c2.3242-2.8496,3.75-4.9746,2.4429-8.4023-.895-2.3486-2.0986-2.8359-3.9209-3.5732-.772-.3125-1.6313-.6611-2.5337-1.1924l-.2324.1514c-.6299.4092-1.248.7314-1.8457,1.042-1.4575.7598-2.6089,1.3584-3.313,2.8857l-.2593.5625-.5898.0801c.1465.5947.1538,1.3955.1479,2.4443-.0034.5098-.0068,1.0869.0327,1.3135.0493.2861.3115.8457.522,1.2959.3232.6904.5776,1.2334.6201,1.7373ZM404.9751,595.1499c-2.5718,0-5.436,1.3887-6.2715,4.5762-1.0342,3.9434,1.1577,6.7686,3.7891,7.8184,2.6592,1.0615,6.2207.5361,8.1821-3.0293l.3633-.6602.5293.0586c-.3691-.8086-.312-1.7324-.2656-2.4736.0278-.4492.0542-.874-.0024-1.2002-.624-3.5908-3.6357-4.9824-6.0254-5.084-.0991-.0039-.1987-.0059-.2988-.0059ZM467.8531,603.7534h-.0005.0005ZM466.6871,601.689l.0068.125c.7031-.4346,1.8413-.7441,3.4668-1.1602.7275-.1865,1.48-.3789,1.793-.5146,4.1562-1.8027,7.4121-5.6973,8.709-10.417,1.27-4.623.5166-9.3271-2.0679-12.9072l-.4189-.5801.3501-.6328-7.5186-5.4375c-.6416.2002-1.5737.0244-3.5342-.4238-.8076-.1846-1.7231-.3936-2.0967-.4033-.3125.002-.9688.0967-1.6006.1963-1.417.2246-2.6904.4248-3.5581.0986-.6235.8945-1.8237,1.4297-2.7861,1.8584-.4341.1934-.8447.376-1.1216.5488-.4658.291-.8809.6328-1.3208.9941-.6226.5127-1.2661,1.042-2.0684,1.4258l-.186.0889c-.0703.7617-.6689,1.6719-1.5713,2.9824-.2861.415-.6421.9316-.7266,1.1172-2.3364,5.1357-1.9502,10.7588,1.0596,15.4297,3.0732,4.7676,8.3433,7.6123,14.1001,7.6123h.0215l1.0688-.001ZM506.379,554.8774l.6772.6797c2.9751,2.9844,6.6421,2.5068,8.9561.709,2.0596-1.5986,3.6792-4.7861,1.4653-8.5078-1.1426-1.9219-3.1909-3.0234-5.522-2.9941-2.4243.0498-4.5405,1.3164-5.6616,3.3887-1.1504,2.126-.7075,3.8828-.0947,6.3135l.1138.458.0659-.0469ZM418.7227,537.9936c-2.3687,0-4.8203,1.1865-5.8672,3.8594-1.4155,3.6133.146,6.4014,2.0796,7.8057,1.9219,1.3975,5.2568,2.1318,8.3325-.3945l.7393-.6074.0586.0518c.1162-.4824.334-1.001.5669-1.5547.2104-.5.4487-1.0664.4897-1.3682.6187-4.5293-1.9927-6.8799-4.6426-7.5693-.5645-.1465-1.1582-.2227-1.7568-.2227ZM448.4136,528.9243l.1318.4209c.4766-.7705,1.2285-1.3516,1.8872-1.8604.6621-.5117,1.2871-.9951,1.6055-1.5693,1.7603-3.1699.394-6.1309-1.3101-7.7021-1.7852-1.6465-5.0117-2.8076-8.229-.665-2.9575,1.9697-3.2065,5.3574-2.1411,7.8408.9663,2.2529,3.3901,4.5869,7.04,3.7656l1.0156-.2305ZM496.3116,495.4839c-2.4604,0-4.4097,1.4814-5.4658,3.4062-1.4775,2.6943-1.2896,6.6338,2.6167,8.915l.332.1943.2544.6279c.9653-.3018,1.8271-.3223,2.6021-.3398.9854-.0225,1.8359-.042,2.8853-.6104,2.1294-1.1543,3.4355-3.418,3.4082-5.9082-.0259-2.3516-1.2344-4.3682-3.2319-5.3945-1.207-.6201-2.3506-.8906-3.4009-.8906Z"/>
    <path class="cls-3" d="M628.4825,670.2182c-4.0322,0-6.9517-2.6592-8.145-5.5586-1.5728-3.8203-.4658-7.833,2.8203-10.2227.9058-.6592,1.9897-.9043,2.9458-1.1211,1.2593-.2852,1.8662-.4697,2.0923-.9619l5.4487-37.751c-.4883-.2295-1.4575-.5059-2.0264-.6689-.7773-.2217-1.4492-.4131-1.9165-.6455-.5366-.2656-1.2661-.833-2.1108-1.4883-.4648-.3613-1.1582-.8994-1.6265-1.209l-44.6016,43.6123-.0024.0479c2.9858,4.6387,1.231,9.5-2.125,11.9668-3.2939,2.4199-8.5229,2.8613-12.2188-1.8926-1.9019-2.4463-2.249-5.6504-.9292-8.5703,1.3721-3.0342,4.2461-5.043,7.501-5.2422,1.7368-.0977,2.8936.4023,3.916.8486.6162.2705,1.1646.5098,1.8149.6094l44.2183-43.5176-3.665-6.5635-30.207,5.915-.0293.1514c-.501,2.625-.9736,5.1045-3.6191,7.0713-2.5127,1.8682-5.8916,2.2285-8.8198.9385-2.8711-1.2656-4.77-3.8379-5.0786-6.8809-.5488-5.4023,2.9487-8.6758,6.6582-9.5244,3.4805-.7959,7.9751.457,10.0776,4.9561l30.5088-5.7666.1738-.127c-.6973-4.793.8071-9.7646,4.1851-13.7471,3.604-4.249,8.8696-6.6992,14.0703-6.5674.52.0137,1.2983.1582,2.1992.3271.748.1387,2.0342.3789,2.6846.3975l4.9194-11.5459c-.48-.6797-1.0044-1.2422-1.5146-1.7891-1.4248-1.5264-2.8979-3.1055-2.6489-6.5928.3223-4.5244,2.999-6.4395,6.3184-8.1104l-7.5273-76.4941c-4.374-.3818-7.5776-2.0469-10.2925-5.3213-.4043-.4873-.6855-1.0635-.9336-1.5713-.4448-.9102-.6128-1.1309-.7935-1.1445l-51.7251,16.4844c-.1274.0664-.1714.1807-.0781,1.0557.0562.5244.1196,1.1172-.0156,1.7129-.7588,3.3398-2.7979,5.6758-5.7417,6.5771-3.082.9453-6.7524.0762-9.1367-2.1572-2.1685-2.0312-3.0049-4.918-2.2954-7.9189.9111-3.8545,3.8345-6.4951,7.6299-6.8906,3.5034-.3779,6.7842,1.3359,8.6138,4.3848l51.8276-16.4785c-.1294-.7861-.1108-1.6777-.0928-2.5518.0137-.6455.0352-1.6807-.082-2.1025l-43.1519-12.3486-.7632-.0156c-2.0459,3.915-6.1001,5.1621-9.3594,4.6299-4.021-.6592-6.8291-3.7148-7.1538-7.7861-.4575-5.7412,3.3306-8.8379,7.2876-9.3604,4.1401-.543,9.0474,1.6611,10.0024,6.8242.1045.5654.0688,1.1377.0376,1.6436-.0176.2803-.0454.7246-.0068.9346l44.1753,12.5977,3.2271-4.8311-14.71-20.1641c-.4351.084-.8501.1846-1.2559.2842-1.5518.3779-3.1567.7676-5.3428.0039-5.6997-2-6.8882-7.0654-5.5801-10.9248,1.3696-4.0391,5.6133-7.418,10.7788-5.7305,3.1318,1.0234,5.3921,3.5264,6.0464,6.6943.5615,2.7207-.1987,5.4541-2.0439,7.4961l14.6621,20.5977c.1821-.0312.499-.2314.6982-.3574.3955-.249.8442-.5322,1.3833-.6953,4.9946-1.5088,10.1421-.4424,13.7729,2.8545,3.377,3.0664,4.958,7.6113,4.3315,12.3174l68.8677,20.873c.5303-1.0742,1.2847-1.9932,2.395-2.9424.9766-.835,1.9155-1.1406,2.7432-1.4102.4287-.1396.8164-.2656,1.1826-.457l-.3115-35.5859c-2.293-.5234-4.4736-1.9873-5.8589-3.9805-1.3364-1.9229-1.7778-4.123-1.2437-6.1963,1.4961-5.8057,6.1006-7.7441,10.0024-7.0918,3.9341.6592,7.7021,4.0029,7.293,9.1162-.4097,5.126-3.5054,6.6641-7.1064,8.4102l.1392,35.0947c2.729,1.126,7.563,3.5303,7.3076,9.0498-.042.9072-.3071,1.7383-.541,2.4717-.2812.8818-.4478,1.4678-.2964,1.8105l26.4946,21.4746c2.5405-2.084,5.3843-3.2969,8.645-3.6865l2.7534-28.7773c-4.3345-1.9023-6.7046-4.8994-6.6978-8.5059.0098-5.3887,3.7695-8.3076,7.4907-8.8105,3.7085-.499,8.3379,1.252,9.7339,6.2861.6626,2.3867.2983,4.7451-1.0522,6.8203-1.4312,2.1992-3.8413,3.8184-6.564,4.4453l-2.3774,28.9082c.0005.001.0005.0029.0005.0039.1562.0625.5073.1152.7275.1475.4282.0635.9136.1348,1.3599.3398,2.5371,1.166,4.3154,2.4238,5.7612,4.1006l50.5625-31.8984c-1.7046-4.7402.7993-8.7295,4.0391-10.5225,3.4697-1.9219,8.5908-1.8477,11.6299,2.8613,1.5581,2.4141,1.7515,5.5.5161,8.2539-1.2305,2.7451-3.6582,4.6475-6.4946,5.0898-3.1074.4805-5.2588-.877-7.3428-2.1924-.2891-.1826-.5825-.3672-.8828-.5508l-50.2183,31.8672c.1133.6475.3359,1.2939.5688,1.9688.3882,1.125.79,2.2891.7871,3.6689-.0068,3.7324-1.5654,7.3477-4.2764,9.9209-2.4395,2.3154-5.543,3.6074-8.8325,3.6992l-3.9702,34.8057c.3237.1904.8716.4414,1.2021.5918.5679.2598,1.0581.4834,1.4023.7275,4.4419,3.1465,4.3809,8.1846,2.4448,11.5342-1.8989,3.2861-6.1548,5.8027-11.0073,3.5654-3.9092-1.8018-5.8735-5.5879-5.0054-9.6455.6919-3.2334,3.3452-6.5137,7.7617-6.9004l3.3442-35.1406c-4.7109-1.1973-7.3867-4.4229-9.335-7.6416-13.457,3.9189-27.1509,7.793-40.4028,11.542-13.8286,3.9121-28.1279,7.958-42.1523,12.0527-.4541.1328-1.3618.3867-2.5566.7217-3.9731,1.1113-15.6895,4.3906-17.833,5.3975-.0146.2412-.0137.5898-.0132.8467.002.6973.0034,1.4189-.1514,1.9912-.1123.415-.3672.9541-.6621,1.5791-.1934.4102-.5195,1.1006-.6606,1.5156l34.0068,34.7363.98.5947c4.1895-2.627,8.605-1.1777,11.0405,1.4072,2.6235,2.7842,3.7129,7.4746.2329,11.6748-2.9858,3.6055-7.5054,3.5723-10.6606,1.9375-3.0962-1.6025-5.6758-5.2363-4.4604-9.7432.1553-.5762.4448-1.1084.7002-1.5791.3989-.7344.5913-1.1426.498-1.4209l-34.606-35.4424-.0928-.0283c-1.7051,1.21-3.418,1.2861-5.0786,1.3604-.4116.0186-.8325.0371-1.2544.0742l-4.7183,11.8271c5.4082,2.875,9.0869,8.0811,9.9204,14.1211.8667,6.2803-1.4346,12.2793-6.3135,16.46-.2915.249-.7412.5176-1.4507.9355-.4404.2588-1.1655.6855-1.5923.9971l14.1958,32.0713c4.3335-.6875,7.7583,1.6445,9.314,4.4434,1.9727,3.5518,1.2578,7.7451-1.8218,10.6846-3.5537,3.3906-8.4453,2.6631-11.4414.1895-2.7285-2.252-4.7529-6.6885-1.479-11.7822.3257-.5068.8726-1.0029,1.4014-1.4834.2529-.2305.6343-.5762.8506-.8203l-14.1562-31.873c-.3931.0654-.7983.1699-1.2178.2783-.5977.1543-1.2153.3145-1.9072.3994-.481.0596-1.0063.0498-1.564.042-.54-.0088-1.9253-.0322-2.1558.2295l-5.0781,38.2031c3.9683,1.3408,5.665,5.0684,5.5649,8.3799-.1094,3.6357-2.3662,7.6338-7.1616,8.3691-.5029.0771-.9922.1143-1.4653.1143ZM629.0987,654.6265c-.7573.4971-1.6846.707-2.4966.8916-.8159.1846-1.5864.3584-2.1167.7451-2.9336,2.1328-2.9434,5.3926-2.061,7.5371.9248,2.2451,3.3672,4.6621,7.1807,4.0732,3.5127-.5391,5.167-3.5059,5.2485-6.207.0737-2.4512-1.1377-5.5938-4.7949-6.3828l-1.0181-.2197.0581-.4375ZM574.043,652.7563c-.1025,0-.208.0039-.3169.0098-2.417.1484-4.5557,1.6494-5.5815,3.9189-.9692,2.1436-.7246,4.4814.6543,6.2559,2.7837,3.582,6.5762,3.3135,9.1001,1.458,2.4766-1.8193,3.9673-5.4707,1.3882-9.1875l-.2192-.3164.0342-.6758c-1.0024-.1328-1.7925-.4785-2.5024-.7891-.8203-.3594-1.5391-.6738-2.5566-.6738ZM659.461,647.395c-.3091.3887-.7251.7666-1.1704,1.1709-.4009.3652-.8555.7773-1.0205,1.0342-2.4712,3.8447-1.0947,7.0771,1.0171,8.8203,2.228,1.8408,5.8452,2.4004,8.4463-.0811,2.8076-2.6797,2.5679-5.8662,1.4072-7.9551-1.1538-2.0762-3.8701-4.1504-7.7217-3.1562l-.9263.2393-.0317-.0723ZM580.8311,601.5864c-.5278,0-1.0493.0605-1.5508.1748-2.5415.5811-5.354,2.7881-4.9165,7.0957.2261,2.2246,1.6255,4.1104,3.7437,5.0439,2.2188.9756,4.6724.7227,6.563-.6836,1.9395-1.4424,2.2788-3.2217,2.7485-5.6836l.0903-.4648-.0796.0146-.3271-.9014c-1.186-3.2656-3.792-4.5957-6.2715-4.5957ZM694.0772,602.6118c-.0059.8887-.4473,1.7012-.8018,2.3545-.2148.3955-.418.7695-.5039,1.0898-.9497,3.5186,1.1943,6.0518,3.3184,7.1514,2.3496,1.2139,5.7002,1.2627,7.8848-1.373,2.6011-3.1396,1.8052-6.626-.1372-8.6875-1.9644-2.084-5.4141-3.1084-8.6968-.7041l-.6079.4453-.4556-.2764ZM625.9483,608.1421c.668.0879,1.4385.6416,3.0264,1.875.6543.5078,1.396,1.084,1.7305,1.25.2822.1396.918.3213,1.5332.4971,1.3799.3936,2.6211.748,3.2686,1.4111.9424-.5479,2.2578-.5225,3.3086-.5098.4746.0059.9248.0137,1.2495-.0254.5469-.0674,1.0679-.2021,1.6196-.3447.7798-.2012,1.5864-.4092,2.4741-.4189l.2061-.002c.3853-.6621,1.313-1.2354,2.6865-2.0439.4331-.2549.9727-.5723,1.1274-.7051,4.2837-3.6699,6.3052-8.9326,5.5459-14.4365-.7764-5.626-4.3623-10.4336-9.5928-12.8594l-.9697-.4492.0464-.1162c-.8193.0938-1.9824-.1025-3.6304-.4092-.7393-.1387-1.5034-.2812-1.8447-.29-4.5469-.1318-9.124,2.0391-12.29,5.7715-3.1016,3.6562-4.4023,8.2393-3.5688,12.5752l.1353.7031-.585.4258,4.5234,8.1016ZM771.5372,573.8081l-.2578.4014-.6089.0068c-3.6323.0371-5.8066,2.6143-6.3496,5.1523-.5083,2.376.208,5.4941,3.7427,7.123,3.5908,1.6592,6.6597-.1348,8.1089-2.6436,1.4883-2.5752,1.5103-6.2217-1.7954-8.5635-.1709-.1211-.6499-.3398-1.0352-.5156-.7124-.3252-1.3442-.6143-1.8047-.9609ZM651.4781,552.6606l-.0356.0176c-3.3096,1.6035-5.498,2.9287-5.7593,6.5879-.1787,2.5068.707,3.4561,2.0479,4.8936.5684.6084,1.2012,1.2861,1.7944,2.1494l.2759-.0391c.7427-.1055,1.438-.1367,2.1108-.167,1.6426-.0732,2.9399-.1309,4.2222-1.2178l.4722-.4004.5688.1758c.1182-.6016.4492-1.3311.897-2.2793.2178-.4609.4644-.9834.5244-1.2051.0757-.2803.0742-.8984.0732-1.3955-.002-.7637-.0034-1.3623.1704-1.8369l-.3853-.6377c-1.2827-2.123-2.0259-2.6729-4.2993-3.7334-.2173-.1016-.5234-.1562-.8472-.2148-.521-.0947-1.2549-.2275-1.8306-.6973ZM659.3863,565.1186h0ZM652.8834,550.8413c.0352.1172.1289.1689.8267.2949.4302.0781.9185.166,1.4004.3916,2.335,1.0889,3.4824,1.874,4.812,3.876l103.1021-29.6562c-.228-2.7617.0444-6.2725,2.0708-9.1846l-26.7778-21.7344c-2.2642,1.75-5.2749,2.3105-8.084,1.4541-3.0552-.9307-5.2651-3.3271-5.9111-6.4102-.103-.4893-.0894-1.0254-.0762-1.5439.0098-.3887.0278-1.0869-.0776-1.3262l-68.8516-20.7607c-1.7314,3.6611-4.8564,6.2588-9.5073,7.9043l7.0737,76.6953ZM775.5806,535.0259l.5176.0264c3.0552.167,5.9795-.9365,8.228-3.0713,2.2651-2.1494,3.5674-5.1699,3.5732-8.2871.002-1-.3218-1.9365-.6641-2.9287-.2891-.8379-.5864-1.6992-.71-2.6504l-.0654.041-.624-.8379c-1.3398-1.7988-2.9473-3.0205-5.5483-4.2158-.1533-.0703-.4683-.1172-.7466-.1582-.4531-.0664-1.2451-.1836-1.8462-.6387l-.7266.0508c-3.5142.2432-6.3662,1.46-8.9766,3.8311l-.4272.3877.0923.3652-.354.4395c-2.2124,2.7402-2.2744,6.4326-1.9375,9.0469l.124.9609-.0532.0156c1.9443,3.3682,4.4141,6.5869,9.2026,7.4531l.9419.1699ZM779.1524,510.6225v.001-.001ZM726.4239,486.7358c.1064.5596.0913,1.1465.0786,1.6494-.0098.3896-.02.792.0288,1.0244.4746,2.2646,2.1045,4.0273,4.3599,4.7139,2.3525.7188,4.8862.1123,6.6147-1.5752l.7192-.7021.1758.1426c.0239-.71.25-1.418.4609-2.0791.2007-.6299.4082-1.2812.4365-1.8906.1768-3.8105-2.9253-5.6494-6.3672-7.042-.728.4922-1.4443.7256-2.083.9336-.7192.2344-1.3403.4365-1.9761.9795-1.1294.9648-1.751,1.8252-2.146,2.9707l-.3022.875ZM569.7574,477.5376c-.2329,0-.4609.0117-.6821.0352-2.2041.2295-4.8506,1.707-5.668,5.165-.5259,2.2246.0576,4.2676,1.6421,5.752,1.8145,1.6992,4.6001,2.3643,6.9326,1.6465,1.5122-.4629,3.4688-1.6924,4.2017-4.9189.0522-.2295.0117-.6074-.0273-.9727-.0532-.498-.1313-1.2295.0898-1.917l-.3647-.7754c-1.4009-2.9746-3.9663-4.0146-6.124-4.0146ZM840.1856,484.2612c.3135.1904.6191.3838.9209.5742,1.9678,1.2432,3.5254,2.2285,5.79,1.8701,2.0781-.3232,3.8662-1.7373,4.7827-3.7822.9214-2.0547.7891-4.3369-.353-6.1064-2.2529-3.4902-6.0581-3.542-8.6401-2.1113-2.6455,1.4648-4.5078,4.666-2.7051,8.5166l.4224.9014-.2178.1377ZM780.6329,466.2749c-.3149,0-.6255.0205-.9282.0615-2.5488.3447-5.5283,2.2744-5.5366,6.5781-.0063,3.584,3.228,5.6162,5.9761,6.6953l.1572-.0225c2.4507-.3604,4.6528-1.7109,5.8906-3.6123.6885-1.0576,1.3809-2.7812.769-4.9854-.9219-3.3232-3.7612-4.7148-6.3281-4.7148ZM631.8077,464.7993c.5767.5068.936,1.2432,1.2173,1.8184.2021.4141.4111.8418.6431,1.1211,2.5054,3.0215,5.3862,4.3887,9.6328,4.5703l.7764.0332.186-.0586c4.9185-1.5566,7.894-4.042,9.3638-7.8223l.0098-.0254.1245-.6211c.8555-4.2764-.4409-8.4697-3.4673-11.2178-3.0386-2.7588-7.377-3.6426-11.6021-2.3652-.2461.0742-.5308.2539-.832.4443-.5098.3203-1.2563.7764-2.106.7344l-4.4512,6.6631c.1831.7617.1636,1.6943.1436,2.6562-.02.9395-.0469,2.2256.2114,2.6426l.7637,1.2314-.6138.1953ZM577.2168,435.8745c-.3218,0-.6411.0205-.9546.0615-2.8159.3721-5.6958,2.3916-5.333,6.9434.2905,3.6426,2.9121,5.3525,5.2686,5.7383,2.3896.3984,5.7236-.418,7.251-3.9902l.2998-.7002.1479.0039c-.2212-.6396-.1768-1.3545-.1426-1.9053.0244-.3936.0498-.8008-.0044-1.0928-.6309-3.4111-3.6689-5.0586-6.5327-5.0586ZM732.4703,428.5893c-2.478,0-5.3076,1.4062-6.3672,5.5176-.4712,1.8291.2354,3.373.9116,4.3457,1.2036,1.7314,3.2612,2.9834,5.2427,3.1904l1.0024.1045.0015.1328c3.3682-1.6338,5.3984-2.6963,5.7017-6.4912.3008-3.7588-2.4971-6.2207-5.416-6.71-.3462-.0586-.7075-.0898-1.0767-.0898ZM614.585,416.1489c-2.8711,0-5.0767,2.1143-5.9336,4.6416-.9224,2.7217-.3784,6.4688,4.1895,8.0713,1.5542.543,2.6055.2881,4.061-.0674.4746-.1152.9971-.2432,1.5684-.3447l-.1592-.2236.7617-.6719c1.752-1.5469,2.5205-3.8154,2.0557-6.0674-.4883-2.3652-2.1846-4.2363-4.5371-5.0059-.6968-.2275-1.3682-.332-2.0063-.332Z"/>
  </g>
  <g>
    <path class="cls-2" d="M481.8379,291.8569c-.7969-12.3643,6.5469-21.0068,18.376-21.7686,9.9014-.6387,17.3857,4.5762,19.1899,13.3818l-9.1533.5908c-1.4326-3.8857-4.9497-5.917-9.7124-5.6094-6.4233.4141-10.0376,5.2158-9.5513,12.7617.4795,7.4404,4.7402,11.8418,11.1099,11.4316,4.8706-.3145,8.3018-2.9531,9.1201-6.9307l8.9922-.5791c-.8228,8.9209-7.8325,15.2314-17.7344,15.8701-11.8828.7656-19.8296-6.623-20.6367-19.1484Z"/>
    <path class="cls-2" d="M535.0381,300.6792l15.6494-.5312.2725,8.0391-24.3301.8262-1.3457-39.6582,8.6821-.2939,1.0718,31.6182Z"/>
    <path class="cls-2" d="M571.4595,308.6352c-11.4766.0527-19.3984-8.2773-19.4546-20.3975-.0557-12.1191,7.8428-20.5752,19.3193-20.6279,11.5298-.0527,19.5049,8.2754,19.561,20.3955.0557,12.1201-7.896,20.5762-19.4258,20.6299ZM571.4161,275.9751c-6.4351.0293-10.2754,4.6055-10.2407,12.167.0347,7.6143,3.9175,12.1553,10.3525,12.126,6.3823-.0283,10.2212-4.7129,10.1865-12.2207-.0347-7.5615-3.9165-12.1016-10.2983-12.0723Z"/>
    <path class="cls-2" d="M597.6753,268.354l8.6846.2715-.7559,24.1797c-.1562,4.9854,2.4927,7.8057,7.3706,7.958,4.9326.1543,7.8091-2.6006,7.9619-7.4785l.7559-24.1787,8.6851.2715-.7749,24.7676c-.2949,9.4365-6.9194,15.3467-16.8911,15.0342-9.918-.3096-16.1079-6.5674-15.8115-16.0566l.7754-24.7686Z"/>
    <path class="cls-2" d="M636.7579,309.4155l2.6431-39.6025,14.9844,1c11.6128.7754,19.1514,9.4502,18.3657,21.2227-.771,11.5605-9.1812,19.1699-20.4731,18.416l-15.52-1.0361ZM647.5347,278.4194l-1.5713,23.5469,5.9937.4014c6.8501.457,11.1533-3.6104,11.6426-10.9424.5-7.4922-3.4351-12.1621-10.606-12.6416l-5.459-.3643Z"/>
  </g>
  <path class="cls-3" d="M270.8121,911.7378c-39.4248-46.9971-69.8032-99.166-90.2905-155.0576-19.8008-54.0176-29.582-109.2373-29.0723-164.125.5098-54.9385,11.3037-106.793,32.082-154.124,21.5288-49.042,52.8877-91.0576,93.2056-124.8799l4.3203,5.1504c-39.5195,33.1523-70.2612,74.3438-91.3706,122.4307-20.4106,46.4951-31.0142,97.4619-31.5156,151.4854-.502,54.0742,9.1411,108.4941,28.6621,161.749,20.2188,55.1582,50.2061,106.6523,89.1294,153.0508l-5.1504,4.3203Z"/>
  <path class="cls-3" d="M913.5401,912.2856l-3.918-5.498c37.3896-26.6426,66.3706-62.7168,86.1377-107.2207,19.1436-43.0986,28.8975-92.2627,28.9912-146.126.1934-111.0293-40.6079-229.585-114.8882-333.8271l5.498-3.918c75.0903,105.3799,116.3369,225.3311,116.1411,337.7568-.0952,54.8096-10.0449,104.8916-29.5723,148.8545-20.2646,45.623-50.0034,82.625-88.3896,109.9785Z"/>
  <path class="cls-3" d="M580.0962,887.313c-104.918,0-203.5898-28.2012-277.8389-79.4092-36.1938-24.9629-64.6235-54.0518-84.4995-86.4609-20.6343-33.6465-31.0972-69.4043-31.0972-106.2803s10.4629-72.6338,31.0972-106.2803c19.876-32.4092,48.3057-61.499,84.4995-86.4609,74.249-51.208,172.9204-79.4092,277.8389-79.4092s203.5898,28.2012,277.8389,79.4092c36.1938,24.9619,64.6235,54.0518,84.4995,86.4609,20.6343,33.6465,31.0972,69.4043,31.0972,106.2803s-10.4629,72.6338-31.0972,106.2803c-19.876,32.4092-48.3057,61.498-84.4995,86.4609-74.249,51.208-172.9209,79.4092-277.8389,79.4092ZM580.0962,348.2056c-103.8755,0-201.5,27.876-274.8901,78.4912-73.0957,50.4131-113.3511,117.3447-113.3511,188.4658s40.2554,138.0527,113.3511,188.4658c73.3906,50.6152,171.0151,78.4912,274.8901,78.4912s201.4995-27.876,274.8901-78.4912c73.0957-50.4131,113.3511-117.3447,113.3511-188.4658s-40.2554-138.0527-113.3511-188.4658c-73.3901-50.6152-171.0146-78.4912-274.8901-78.4912Z"/>
  <g class="cls-4">
    <path class="cls-1" d="M279.1686,579.0919v87.8724h-19.2369v-87.8724h19.2369ZM295.5555,637.7526h-21.1367v-17.0996h16.8618c4.6703,0,8.1527-1.009,10.4496-3.028,2.2952-2.0181,3.4439-5.0854,3.4439-9.2027,0-4.1147-1.1487-7.1838-3.4439-9.2027-2.297-2.0181-5.7793-3.028-10.4496-3.028h-16.8618v-17.0996h21.1367c6.0154,0,11.2605,1.229,15.734,3.6818,4.4713,2.4545,7.9558,5.8779,10.4496,10.2711,2.4938,4.3941,3.7403,9.5205,3.7403,15.3774s-1.2465,10.9843-3.7403,15.3783c-2.4938,4.3932-5.9783,7.8183-10.4496,10.2711-4.4735,2.4545-9.7186,3.6809-15.734,3.6809Z"/>
  </g>
  <g class="cls-4">
    <path class="cls-1" d="M356.8283,666.9642h-19.2377v-87.8724h33.9614c10.6875,0,18.9405,2.4755,24.7591,7.4221,5.8186,4.9483,8.7279,11.975,8.7279,21.0773,0,5.6999-1.2081,10.5688-3.6224,14.6058-2.4152,4.037-6.0761,7.3234-10.9834,9.8556l15.4368,34.9115h-21.018l-13.1804-30.7549h-14.8432v30.7549ZM356.8283,596.1915v23.1556h14.605c4.195,0,7.4613-1.0282,9.7972-3.0874,2.3341-2.0574,3.5028-4.9466,3.5028-8.6685s-1.1278-6.5492-3.3841-8.4905c-2.2564-1.9387-5.5218-2.9093-9.7972-2.9093h-14.7237Z"/>
  </g>
  <g class="cls-4">
    <path class="cls-1" d="M500.5088,622.9094c0,8.947-1.8217,16.8439-5.4616,23.6898-3.6425,6.8486-8.7096,12.1923-15.2003,16.0312-6.4916,3.8407-14.0114,5.7584-22.5612,5.7584-8.4721,0-15.9326-1.9177-22.384-5.7584-6.4532-3.8389-11.4792-9.1626-15.0807-15.9719-3.6032-6.8076-5.4031-14.6835-5.4031-23.6305s1.8208-16.8413,5.4625-23.6898c3.6408-6.846,8.6869-12.1897,15.14-16.0304,6.4514-3.8389,13.9119-5.7592,22.384-5.7592,8.5498,0,16.0496,1.9203,22.5019,5.7592,6.4514,3.8407,11.4984,9.1634,15.1409,15.971,3.6399,6.8093,5.4616,14.6861,5.4616,23.6305ZM480.204,622.9094c0-5.6196-.9113-10.4291-2.7312-14.4278-1.8226-3.996-4.4141-7.0651-7.7782-9.2027-3.3658-2.1368-7.4212-3.2061-12.1714-3.2061s-8.8283,1.0693-12.2307,3.2061c-3.4051,2.1377-6.0176,5.2067-7.8375,9.2027-1.8217,3.9986-2.7312,8.8082-2.7312,14.4278s.9095,10.4501,2.7312,14.4871c1.8199,4.037,4.4325,7.1244,7.8375,9.2621,3.4025,2.1377,7.4805,3.2061,12.2307,3.2061s8.8056-1.0867,12.1714-3.2654c3.3641-2.1761,5.9556-5.2844,7.7782-9.3214,1.8199-4.037,2.7312-8.8265,2.7312-14.3684Z"/>
  </g>
  <g class="cls-4">
    <path class="cls-1" d="M528.5325,633.5968l-29.6865-54.505h21.4937l14.7245,28.4994c.7123,1.3468,1.3242,2.5942,1.84,3.7403.5141,1.1487,1.0099,2.2765,1.4848,3.3841.3945-.7123.7515-1.4429,1.0684-2.1962.3151-.7515.6721-1.5441,1.0684-2.3751.3954-.831.8319-1.7222,1.3067-2.6719l14.7245-28.3807h20.8993l-29.6865,54.505v33.3674h-19.2373v-33.3674Z"/>
  </g>
  <g class="cls-4">
    <path class="cls-1" d="M643.5967,666.9642h-55.8108v-87.8724h55.8108v17.8119h-41.9172l5.3437-4.9867v22.2051h32.4168v16.8622h-32.4168v23.1556l-5.3437-4.9876h41.9172v17.8119Z"/>
  </g>
  <g class="cls-4">
    <path class="cls-1" d="M697.3885,668.3888c-8.7872,0-16.3874-1.84-22.7995-5.5209-6.4121-3.6818-11.3605-8.9059-14.8432-15.6751-3.4845-6.7683-5.225-14.7839-5.225-24.046,0-9.1818,1.8208-17.1773,5.4625-23.9866,3.6408-6.8076,8.7462-12.0911,15.3181-15.8523,6.5701-3.7595,14.2087-5.6405,22.9182-5.6405,7.3627,0,13.9119,1.3268,19.6528,3.9777,5.7383,2.6535,10.4291,6.3938,14.0708,11.2217,3.6408,4.8296,5.8971,10.5295,6.7691,17.0996h-20.3057c-1.2674-4.4325-3.7019-7.8375-7.3033-10.2126-3.6032-2.3742-8.0558-3.5622-13.3585-3.5622-4.7502,0-8.8466,1.0693-12.2901,3.2061-3.4435,2.1377-6.077,5.2067-7.8969,9.2027-1.8217,3.9986-2.7312,8.8082-2.7312,14.4278,0,5.4625.9296,10.2126,2.7906,14.2497,1.8592,4.037,4.5128,7.1454,7.9563,9.3214,3.4435,2.1787,7.4997,3.2654,12.1714,3.2654,5.3821,0,9.9543-1.2465,13.7155-3.7403,3.7586-2.4938,6.2341-5.9172,7.4212-10.2711h19.9496c-1.03,6.4916-3.4252,12.1915-7.1846,17.0988-3.7603,4.9099-8.5699,8.7096-14.4278,11.3998-5.8587,2.6902-12.4682,4.037-19.83,4.037Z"/>
  </g>
  <g class="cls-4">
    <path class="cls-1" d="M740.1367,596.9038v-17.8119h69.1099v17.8119h-69.1099ZM784.3103,588.3548v78.6094h-19.2373v-78.6094h19.2373Z"/>
  </g>
  <g class="cls-4">
    <path class="cls-1" d="M898.4239,622.9094c0,8.947-1.8217,16.8439-5.4616,23.6898-3.6425,6.8486-8.7096,12.1923-15.2003,16.0312-6.4916,3.8407-14.0114,5.7584-22.5612,5.7584-8.4721,0-15.9326-1.9177-22.384-5.7584-6.4532-3.8389-11.4792-9.1626-15.0807-15.9719-3.6032-6.8076-5.4031-14.6835-5.4031-23.6305s1.8208-16.8413,5.4625-23.6898c3.6408-6.846,8.6869-12.1897,15.14-16.0304,6.4514-3.8389,13.9119-5.7592,22.384-5.7592,8.5498,0,16.0496,1.9203,22.5019,5.7592,6.4514,3.8407,11.4984,9.1634,15.1409,15.971,3.6399,6.8093,5.4616,14.6861,5.4616,23.6305ZM878.1191,622.9094c0-5.6196-.9113-10.4291-2.7312-14.4278-1.8226-3.996-4.4141-7.0651-7.7782-9.2027-3.3658-2.1368-7.4212-3.2061-12.1714-3.2061s-8.8283,1.0693-12.2307,3.2061c-3.4051,2.1377-6.0176,5.2067-7.8375,9.2027-1.8217,3.9986-2.7312,8.8082-2.7312,14.4278s.9095,10.4501,2.7312,14.4871c1.8199,4.037,4.4325,7.1244,7.8375,9.2621,3.4025,2.1377,7.4805,3.2061,12.2307,3.2061s8.8056-1.0867,12.1714-3.2654c3.3641-2.1761,5.9556-5.2844,7.7782-9.3214,1.8199-4.037,2.7312-8.8265,2.7312-14.3684Z"/>
  </g>
</svg>