<?xml version="1.0" encoding="utf-8"?>
<!-- Generator: Adobe Illustrator 28.4.1, SVG Export Plug-In . SVG Version: 6.00 Build 0)  -->
<svg version="1.1" id="Capa_1" xmlns="http://www.w3.org/2000/svg" xmlns:xlink="http://www.w3.org/1999/xlink" x="0px" y="0px"
	 viewBox="0 0 1156.2 1160.4" style="enable-background:new 0 0 1156.2 1160.4;" xml:space="preserve">
<style type="text/css">
	.st0{fill:#BBB099;}
	.st1{fill:#828172;}
	.st2{fill:#33FFCB;}
	.st3{opacity:7.000000e-02;}
	.st4{fill:#E1DECE;}
</style>
<g>
	<g>
		<path class="st0" d="M61.9,357.1l3.8-8.9l40.8,17.5l-3.8,8.9L61.9,357.1z"/>
		<path class="st0" d="M58.9,363.3l36.6,29.8l-3.2,8.9l-47.1,0l3.5-9.7l9.9,0.2l4.8-13.5l-7.8-6.1L58.9,363.3z M70,384.4l-2.9,8.3
			l10,0.2c1.6,0,3.4,0.1,4.5,0.3c-0.9-0.5-2.3-1.5-3.7-2.6L70,384.4z"/>
		<path class="st0" d="M58.2,437.8c-8.7-1.9-14.2,2-15.7,9c-1.6,7.1,1.6,11.2,6,12.6l2.5-11.5l8.3,1.8l-4.5,20.4L30,464.6l1.8-8.1
			l4,0.3c-2.2-3-3-8-1.9-13.2c2.7-12.1,13.5-18.7,26.8-15.7c13.1,2.9,20.6,13.7,17.6,27.1c-2.3,10.4-10.1,17-19.7,15.9l2.2-10
			c4.8-0.1,7.7-3.7,8.7-8.2C71.2,444.9,66.5,439.6,58.2,437.8z"/>
		<path class="st0" d="M28.2,476.5l44,5.9l-3.7,28l-8.9-1.2l2.4-18.3l-8.6-1.1l-2.2,16.2l-8.4-1.1l2.2-16.2l-9.1-1.2l-2.4,18.3
			l-8.9-1.2L28.2,476.5z"/>
		<path class="st0" d="M23.4,514.4l44.3,2.5l-0.5,9.6l-29.3,17.1l28.2,1.6l-0.5,9.6l-44.3-2.5l0.5-9.6L51,525.6L22.8,524L23.4,514.4
			z"/>
		<path class="st0" d="M21.3,563.5l44.4-0.8l0.5,28.2l-9,0.2l-0.3-18.5l-8.7,0.2l0.3,16.4l-8.5,0.2l-0.3-16.4l-9.2,0.2l0.3,18.5
			l-9,0.2L21.3,563.5z"/>
		<path class="st0" d="M22.3,601.4l44.2-3.8l1.5,17.1c0.9,10.8-3.8,17.3-12.9,18.1c-5.7,0.5-10-1.6-12.9-6.3l-16.9,9.3l-0.9-10.6
			l14.9-8l-0.6-7.5l-15.5,1.3L22.3,601.4z M47.1,609l0.6,7.4c0.4,4.2,2.7,6.5,6.5,6.2c3.7-0.3,5.5-2.8,5.2-7.1l-0.6-7.4L47.1,609z"
			/>
		<path class="st0" d="M25.7,640.3l46.3,8.8l1.5,9.4l-41.4,22.5l-1.6-10.2l8.8-4.5L37,652l-9.7-1.7L25.7,640.3z M45.5,653.5l1.4,8.7
			l8.9-4.6c1.4-0.7,3-1.5,4.1-1.9c-1,0-2.8-0.2-4.5-0.5L45.5,653.5z"/>
		<path class="st0" d="M75.4,670.8l7.4,34.1l-8.8,1.9l-2.7-12.3l-34.6,7.5l-2.1-9.5l34.6-7.5l-2.7-12.3L75.4,670.8z"/>
		<path class="st0" d="M43.9,730.6l-2.5-9.4l42.9-11.4l2.5,9.4L43.9,730.6z"/>
		<path class="st0" d="M87.6,723.4l3.2,9.9L72,748.1c-2.3,1.8-4.7,3.5-8.1,5.5c4.4-0.2,7-0.2,9.8,0l23.9,1.1l3.1,9.7l-47.3-2
			l-3.1-9.5L87.6,723.4z"/>
		<path class="st0" d="M57,773.8l47.1-1.1l3.4,8.9l-35.8,30.6l-3.7-9.6l7.6-6.3l-5.1-13.4l-9.9,0.4L57,773.8z M79.2,782.6l3.1,8.2
			l7.7-6.4c1.2-1,2.7-2.1,3.6-2.7c-1,0.2-2.8,0.3-4.5,0.4L79.2,782.6z"/>
	</g>
	<g>
		<path class="st0" d="M1071.2,772l4.4-18c2.1-8.7,8-12.8,15.4-11c4.6,1.1,7.5,4.1,8.2,8.4c2.4-3.9,6.3-5.4,11.2-4.2
			c7.6,1.9,10.6,8,8.3,17.4l-4.4,18L1071.2,772z M1081.8,764.6l9.4,2.3l1.8-7.5c0.8-3.4-0.4-5.7-3.5-6.4c-3-0.7-5,0.7-5.9,4.1
			L1081.8,764.6z M1099.1,768.8l9.3,2.3l2-8c0.9-3.5-0.3-5.7-3.5-6.5c-2.9-0.7-4.9,0.8-5.8,4.2L1099.1,768.8z"/>
		<path class="st0" d="M1116.5,730.8l3-17.3l8.9,1.5l-4.6,26.9l-43.8-7.5l1.6-9.6L1116.5,730.8z"/>
		<path class="st0" d="M1131.9,690.2c-1.3,12.8-11.5,20.6-25,19.3c-13.5-1.4-22-11.1-20.7-23.9c1.3-12.8,11.5-20.7,25-19.4
			C1124.7,667.5,1133.2,677.3,1131.9,690.2z M1095.6,686.4c-0.7,7.2,3.9,12,12.3,12.8c8.5,0.9,14-2.9,14.7-10.1
			c0.7-7.1-4-11.9-12.4-12.8C1101.8,675.5,1096.3,679.3,1095.6,686.4z"/>
		<path class="st0" d="M1111.6,661.4c-13.9-0.3-22.8-9.3-22.5-22.6c0.2-11.1,6.8-18.9,16.8-20.1l-0.2,10.3
			c-4.5,1.2-7.1,4.9-7.2,10.3c-0.2,7.2,4.8,11.7,13.3,11.9c8.3,0.2,13.7-4.1,13.8-11.3c0.1-5.5-2.5-9.5-6.8-10.8l0.2-10.1
			c9.9,1.8,16.2,10.2,16,21.3C1134.6,653.6,1125.6,661.8,1111.6,661.4z"/>
		<path class="st0" d="M1110.8,602.4l-22-15l-0.5-11.4l19.6,13.6l24.7-15.8l0.5,11.2l-16.7,10.6l8.9,6.2l8.5-0.4l0.4,9.7l-44.4,2.1
			l-0.4-9.7L1110.8,602.4z"/>
		<path class="st0" d="M1110.5,574.7c-13.8,1.5-23.8-6.3-25.2-19.5c-1.2-11,4.3-19.6,14.1-22.1l1.1,10.2c-4.3,1.8-6.4,5.8-5.8,11.1
			c0.8,7.2,6.3,11,14.7,10.1c8.3-0.9,13-5.9,12.3-13c-0.6-5.4-3.7-9.1-8.2-9.9l-1.1-10c10,0.5,17.4,8,18.6,19.1
			C1132.4,564,1124.5,573.2,1110.5,574.7z"/>
		<path class="st0" d="M1126.8,521.9l-43.8,7.5l-1.6-9.6l17.3-3l-2.9-16.9l-17.3,3l-1.6-9.6l43.8-7.5l1.6,9.6l-17.6,3l2.9,16.9
			l17.6-3L1126.8,521.9z"/>
		<path class="st0" d="M1119.3,479.3l-46.8-5.4l-2.1-9.2l39.7-25.4l2.3,10.1l-8.4,5.2l3.2,14l9.8,1L1119.3,479.3z M1098.6,467.5
			l-2-8.5l-8.5,5.2c-1.4,0.8-2.9,1.7-3.9,2.1c1-0.1,2.8,0,4.5,0.2L1098.6,467.5z"/>
		<path class="st0" d="M1105.7,423.9l2.6,9.4l-42.8,11.7l-2.6-9.4L1105.7,423.9z"/>
		<path class="st0" d="M1103,413.9l-42.3,13.4l-2.9-9.2l21.3-26.4l-26.9,8.5l-2.9-9.2l42.3-13.4l2.9,9.2l-21.2,26.4l26.9-8.5
			L1103,413.9z"/>
	</g>
	<g>
		<g>
			<g>
				<path class="st1" d="M272,789.1c-1.7,0-3.4-0.5-5.2-1.6c-2.7-1.7-4.3-4.7-4.4-8c0-3.3,1.5-6.4,4.1-8.1c2.9-1.9,5.7-1.6,8.4-1.2
					c0.4,0.1,0.8,0.1,1.2,0.2l36-56.2c-0.4-0.6-1-1.2-1.6-1.8c-0.9-1-1.9-1.9-2.5-3.3c-1.7-3.8-1.9-8.1-0.3-12
					c1.4-3.5,3.9-6.3,7.3-7.9l-12.5-37.4c-0.4-0.1-1.2,0-1.6,0c-0.7,0-1.3,0-1.7-0.1c-5.9-1.1-8.2-6.2-7.8-10.4
					c0.4-4.2,3.5-8.7,9.4-8.7c0,0,0,0,0,0c4.7,0,8.4,2.9,9.5,7.3c0.8,3.6-0.3,8.1-4.6,10.6l13.3,37.4c5.4-1.1,9.7,1,13.2,3.4
					c11.8-10.3,23.9-20.7,35.6-30.8c12.2-10.5,24.8-21.4,37.1-32.1c0.4-0.4,1.2-1,2.3-2c3.5-3,14-12,15.6-13.9
					c-0.1-0.3-0.3-0.7-0.4-0.9c-0.3-0.7-0.7-1.4-0.8-2.1c-0.1-0.5-0.1-1.1-0.1-1.9c0-0.5,0-1.5-0.1-1.9l-51-19.2l-1.4-0.2
					c-3,4.6-8.1,5.3-11.7,3.8c-3.9-1.6-7.2-5.8-5.7-11.6c1.3-5,5.9-7.1,9.8-6.9c3.8,0.2,8.1,2.6,9,7.7c0.1,0.6,0.1,1.3,0,1.9
					c-0.1,1-0.1,1.5,0.2,1.8l51.9,19.6l0.2,0c1.1-2,2.8-2.9,4.5-3.8c0.4-0.2,0.9-0.5,1.3-0.7l-0.8-14.4c-6.8-0.3-13-3.9-16.7-9.6
					c-3.8-5.9-4.3-13-1.4-19.5c0.2-0.4,0.5-0.9,1-1.6c0.3-0.5,0.9-1.3,1.2-1.9l-29.7-26c-4,2.8-8.6,2-11.5-0.1
					c-3.6-2.6-4.9-7.2-3.1-11.5c2-5,7.2-6.6,11.4-5.5c3.8,1,7.9,4.5,7,11.1c-0.1,0.7-0.4,1.4-0.7,2.1c-0.2,0.4-0.4,1-0.5,1.3
					l29.5,25.8c0.4-0.3,0.8-0.6,1.2-0.9c0.5-0.4,1.1-0.9,1.7-1.3c0.5-0.3,1-0.5,1.5-0.8c0.8-0.4,2.1-0.9,2.2-1.4l-12.9-41.3
					c-4.6,0.6-8.1-2.4-9.6-5.8c-1.6-3.7-1.2-8.7,3.3-11.7c4.5-3,9.3-1.6,12.2,1c3.4,3.1,4.1,7.6,1.9,11.5c-0.6,1.1-1.6,1.8-2.4,2.5
					c-1.2,0.9-1.7,1.4-1.7,2.1l12.3,41c0.6,0,1.8-0.2,2.5-0.3c0.9-0.1,1.7-0.3,2.2-0.2c0.7,0,1.7,0.2,2.8,0.5
					c0.7,0.2,1.7,0.4,2.3,0.5l24.7-65.4l-0.1-0.1c-5.2-3.2-5.7-8.9-3.5-13c2.2-4,7.2-6.8,13.1-3.8c3,1.6,4.9,4.6,4.9,8.1
					c0,3.7-1.9,7-5.1,8.7c-1.7,0.9-3.1,0.9-4.3,1c-0.8,0-1.5,0-2.2,0.3l-24.4,65.2l7,5l28-20.4c0-0.1,0-0.2-0.1-0.3
					c-0.7-2.9-1.4-5.6,0.3-8.8c1.6-3,4.9-5,8.4-5c3.4-0.1,6.6,1.6,8.3,4.5c3.1,5.2,1.1,10.1-2.2,12.6c-3.1,2.4-8.3,3.3-12.5-0.3
					l-28.3,20.3l-0.2,0.3c3,4.5,3.8,10.3,2.3,15.9c-1.6,6-5.8,10.9-11.1,13.2c-0.5,0.2-1.4,0.4-2.4,0.7c-0.9,0.2-2.4,0.6-3,0.9
					l0.5,14.2c0.8,0.5,1.7,0.8,2.5,1.1c2.1,0.9,4.4,1.8,5.7,5.4c1.8,4.7,0,7.9-2.6,11.1l43.8,74.2c4.6-1.7,8.7-1.5,13,0.5
					c0.6,0.3,1.2,0.7,1.7,1.1c1,0.8,1.3,0.9,1.5,0.8l44.7-41.2c0.1-0.2,0.2-0.3-0.4-1.3c-0.3-0.5-0.6-1.1-0.8-1.7
					c-0.8-3.7,0.2-7,2.7-9.3c2.6-2.4,6.7-3.2,10.2-2.1c3.1,1,5.3,3.5,6,6.8c0.9,4.3-0.8,8.3-4.4,10.4c-3.4,2-7.5,1.8-10.8-0.4
					l-45,41.3c0.5,0.7,0.9,1.7,1.4,2.6c0.3,0.7,0.8,1.8,1.1,2.2l49.7-7.8l0.9-0.4c0.2-4.9,3.7-8.1,7.2-9.1c4.3-1.2,8.6,0.5,10.8,4.5
					c3.1,5.5,0.8,10.4-2.9,12.8c-3.9,2.5-9.8,2.6-13.2-2.2c-0.4-0.5-0.6-1.1-0.8-1.6c-0.1-0.3-0.3-0.9-0.5-1l-50.9,8.1l-1,6.6
					l24.6,13.6c0.4-0.3,0.8-0.6,1.2-0.9c1.4-1.1,2.8-2.2,5.3-2.5c6.6-0.7,10.2,3.9,10.7,8.3c0.5,4.7-2.2,10-8.1,10.8
					c-3.6,0.4-7-1-9.2-3.9c-1.8-2.5-2.4-5.6-1.4-8.6l-24.8-14.1c-0.1,0-0.3,0.2-0.6,0.8c-0.3,0.4-0.6,0.9-1.1,1.3
					c-4.3,3.9-10,5.2-15.2,3.6c-4.9-1.5-8.6-5.4-10.2-10.5l-79.9,11.4c0,1.4-0.3,2.7-1,4.2c-0.6,1.3-1.4,2-2.1,2.7
					c-0.4,0.4-0.8,0.7-1,1.1l17.2,36.1c2.6-0.6,5.5-0.1,7.8,1.2c2.2,1.3,3.7,3.3,4.1,5.6c1.2,6.5-2.5,10.6-6.7,11.8
					c-4.2,1.2-9.6-0.4-11.5-5.7c-2-5.4,0.4-8.4,3.3-11.8l-16.8-35.7c-4.7,0.2-9.5-0.5-11.6-5.6c-0.4-0.9-0.5-1.9-0.6-2.7
					c-0.1-1.1-0.2-1.8-0.6-2.1l-37.1-9.3c-1.6,3.4-3.9,6-7.1,7.9l10.9,30.7c5.4-0.1,9.1,1.7,10.8,5.4c2.5,5.4,0.1,10.1-3.4,12.3
					c-3.5,2.2-8.9,2.6-12.7-1.8c-1.8-2.1-2.5-4.6-2.1-7.3c0.4-2.9,2.1-5.7,4.6-7.6l-11.3-30.5c0-0.1-0.1-0.1-0.1-0.1
					c-0.1,0-0.6,0.1-0.9,0.2c-0.5,0.1-1,0.3-1.5,0.3c-3.1,0-5.6-0.4-7.8-1.5l-36.4,56.4c4,4,3.4,9.2,0.9,12.5
					C278.1,787.3,275.2,789.1,272,789.1z M271.7,772.2c-1.3,0-2.6,0.3-3.9,1.1c-2,1.3-3.2,3.7-3.1,6.2c0,2.6,1.3,4.9,3.3,6.1
					c4,2.5,8,0.7,9.9-2c2-2.8,2.4-7-1.3-10.1l-0.8-0.6l0.2-0.3c-0.5-0.1-1-0.1-1.4-0.2C273.6,772.3,272.6,772.2,271.7,772.2z
					 M404.4,765c-2.7,3.3-4.4,5.4-2.9,9.6c1.5,4,5.6,5.2,8.8,4.3c3-0.8,6.1-3.7,5.1-9.2c-0.3-1.7-1.4-3.1-3-4.1
					c-2.1-1.2-4.8-1.5-6.9-0.8l-1,0.3L404.4,765z M338.9,749l-0.2,0.1c-2.3,1.5-4,4-4.3,6.5c-0.3,2,0.3,4,1.6,5.5
					c2.9,3.4,7.1,3,9.7,1.3c2.5-1.6,4.6-5,2.6-9.5C346.6,749.3,342.3,748.7,338.9,749z M526.9,724.7l0.3,0.2l-0.4,0.9
					c-1.1,2.4-0.8,5.2,0.8,7.3c1.6,2.2,4.3,3.3,7.1,3c4.6-0.5,6.5-4.6,6.1-8.3c-0.4-3.3-2.7-6.9-8.2-6.3c-1.9,0.2-2.9,1-4.2,2
					C528,723.9,527.5,724.3,526.9,724.7z M375.2,716.6c0.4,0.8,0.5,1.7,0.6,2.5c0.1,0.7,0.2,1.5,0.5,2.2c1.7,4,5.8,4.4,10,4.2
					c0.5-0.9,1.1-1.4,1.7-2c0.6-0.6,1.2-1.1,1.6-2c0.7-1.5,0.9-2.7,0.8-4.1l-0.1-1.1c-0.4-0.5-0.6-1.1-0.9-1.6
					c-0.2-0.4-0.4-0.8-0.5-1.1c-1.6-2.1-4.1-3.2-6.8-2.8c-2.8,0.4-5.1,2.2-6.1,4.8l-0.4,0.9L375.2,716.6z M474.3,704.8l0.2,0.7
					c1.2,4.8,4.5,8.5,8.9,9.8c4.4,1.4,9.3,0.2,13-3.1c0.2-0.2,0.4-0.5,0.7-0.9c0.4-0.6,0.9-1.4,1.8-1.7l1.4-9
					c-0.6-0.7-1-1.6-1.4-2.6c-0.4-1-1-2.3-1.5-2.6l-1.2-0.8l0.6-0.5c-0.9-0.2-1.7-0.8-2.3-1.3c-0.4-0.3-0.8-0.7-1.2-0.9
					c-4-1.9-7.6-1.9-12-0.1l-0.8,0.3l-0.2,0.2C475.9,696.2,474,700.2,474.3,704.8L474.3,704.8z M383.1,708.7c3,0,5.7,1.3,7.5,3.8
					c0.3,0.4,0.6,1,0.8,1.5c0.2,0.4,0.5,1.3,0.8,1.4l79.8-11.5c0-4.6,1.9-8.7,6-12.6l-43.4-74.6c-0.1-0.2-0.2-0.2-1.1,0
					c-0.5,0.1-1,0.3-1.6,0.3c0,0,0,0,0,0c-2.9,0-4.4-0.3-6.7-1.7l-90.8,78.9c1.6,2.7,3,6.5,2.3,10.4l37.6,9.5
					c1.4-2.9,4.2-4.9,7.5-5.3C382.2,708.7,382.7,708.7,383.1,708.7z M314.4,713.1l0.9,0.5c2.2,1.2,4.5,1.7,7.7,1.7
					c0.2,0,0.5-0.1,0.9-0.2c0.5-0.2,1.4-0.4,2.2-0.2l0.7-0.4c3.5-1.9,5.8-4.5,7.4-8.2l0.3-0.7l-0.3-0.3l0.1-0.5
					c1-3.9-0.7-7.7-2.3-10.2l-0.5-0.8l0.1-0.1l-0.1,0c-3.6-2.5-7.7-4.7-13-3.3l-1,0.3l0,0l-0.6,0.2c-3.2,1.3-5.7,3.8-7,7.1
					c-1.3,3.3-1.2,7,0.3,10.2c0.5,1,1.3,1.8,2.1,2.7c0.7,0.8,1.5,1.5,2.1,2.5L314.4,713.1z M554.6,692.6c0.6,0.5,0.9,1.3,1.2,2
					c0.2,0.4,0.3,0.9,0.5,1.1c2.6,3.6,7.1,3.5,10.1,1.6c2.6-1.7,4.7-5.2,2.2-9.7c-2.1-3.6-5.6-4.1-8.2-3.4c-2.7,0.7-5.7,3.2-5.6,7.6
					l0,0.8L554.6,692.6z M544.4,650.2l0.8,0.6c3.2,2.7,6.7,2.2,8.9,0.8c2.2-1.3,4.2-4.1,3.4-8.1c-0.5-2.6-2.1-4.4-4.5-5.2
					c-2.7-0.9-5.9-0.2-7.9,1.6c-1.3,1.2-2.8,3.4-2,7.1c0.1,0.3,0.3,0.7,0.5,1C543.9,648.7,544.3,649.4,544.4,650.2L544.4,650.2z
					 M301.5,649.5c0.7,0,1.4,0,1.9,0.2l0,0l0.1-0.6l0.6-0.3c3.7-1.8,4.7-5.5,4.1-8.4c-0.6-2.7-2.8-5.6-7.3-5.6c0,0,0,0,0,0
					c-4.5,0-6.8,3.3-7.1,6.6c-0.3,3.4,1.4,7.2,6,8c0.2,0,0.8,0,1.3,0C301.1,649.5,301.3,649.5,301.5,649.5z M425,612.5l0.7,0.5
					c2.3,1.6,3.4,1.8,6.2,1.8h0c0.3,0,0.6-0.1,1-0.2c0.6-0.2,1.4-0.4,2.2-0.1l0.1-0.1c2.6-3.2,4.2-5.6,2.8-9.5
					c-1-2.7-2.4-3.2-4.5-4.1c-0.9-0.4-1.9-0.8-2.9-1.4l-0.3,0.2c-0.7,0.5-1.4,0.8-2.1,1.2c-1.7,0.9-3,1.5-3.8,3.3l-0.3,0.6l-0.7,0.1
					c0.2,0.7,0.2,1.6,0.2,2.8c0,0.6,0,1.2,0,1.5c0.1,0.3,0.4,1,0.6,1.5C424.6,611.3,424.9,611.9,425,612.5L425,612.5z M422.7,612.6
					L422.7,612.6L422.7,612.6z M360.9,573.8c-2.9,0-6.2,1.6-7.1,5.2c-1.2,4.5,1.3,7.7,4.3,8.9c3,1.2,7.1,0.6,9.3-3.4l0.4-0.7
					l0.8,0.1c-0.5-0.9-0.5-2-0.4-2.9c0-0.5,0.1-1,0-1.4c-0.7-4.1-4.1-5.7-6.9-5.8C361.1,573.8,361,573.8,360.9,573.8z M429.8,581.3
					l0,0.2c0.7-0.5,2.1-0.9,4-1.4c0.8-0.2,1.7-0.4,2-0.6c4.7-2,8.4-6.4,9.8-11.7c1.4-5.2,0.6-10.5-2.3-14.6l-0.4-0.6l0.4-0.7
					l-8.6-6.2c-0.7,0.2-1.8,0-3.9-0.5c-0.9-0.2-1.9-0.4-2.4-0.5c-0.4,0-1.1,0.1-1.8,0.2c-1.6,0.3-3.1,0.5-4,0.1
					c-0.7,1-2,1.6-3.1,2.1c-0.5,0.2-1,0.4-1.3,0.6c-0.5,0.3-1,0.7-1.5,1.1c-0.7,0.6-1.4,1.2-2.3,1.6l-0.3,0.1c0,0.8-0.7,1.8-1.7,3.4
					c-0.3,0.5-0.7,1.1-0.8,1.3c-2.6,5.8-2.2,12.1,1.2,17.4c3.5,5.4,9.4,8.6,15.9,8.6c0,0,0,0,0,0L429.8,581.3z M474.3,529l0.7,0.7
					c3.4,3.4,7.6,2.9,10.2,0.8c2.3-1.8,4.2-5.5,1.7-9.7c-1.3-2.2-3.6-3.5-6.3-3.4c-2.8,0.1-5.2,1.5-6.5,3.9
					c-1.3,2.4-0.8,4.5-0.1,7.2c0.1,0.2,0.1,0.5,0.2,0.7L474.3,529z M376.2,509.8c-2.7,0-5.5,1.4-6.7,4.4c-1.6,4.1,0.2,7.3,2.4,8.9
					c2.2,1.6,6,2.4,9.5-0.4l0.7-0.6l0.2,0.1c0.1-0.6,0.4-1.2,0.7-1.9c0.2-0.6,0.5-1.2,0.6-1.6c0.7-5.2-2.3-7.8-5.3-8.6
					C377.6,509.9,376.9,509.8,376.2,509.8z M409.4,500l0.2,0.7c0.5-1,1.4-1.7,2.2-2.3c0.8-0.6,1.5-1.1,1.8-1.8c2-3.6,0.4-7-1.5-8.8
					c-2-1.9-5.7-3.2-9.4-0.8c-3.4,2.2-3.7,6.1-2.4,8.9c1.1,2.6,3.9,5.2,8,4.3L409.4,500z M463,462.3c-2.8,0-5,1.7-6.2,3.9
					c-1.7,3.1-1.5,7.6,3,10.2l0.3,0.2l0.3,0.8c1.1-0.4,2.1-0.4,3-0.4c1.1,0,2.1,0,3.3-0.7c2.4-1.3,3.9-3.9,3.9-6.7
					c0-2.7-1.4-5-3.7-6.2C465.5,462.6,464.2,462.3,463,462.3z"/>
			</g>
		</g>
		<g>
			<g>
				<path class="st1" d="M610.9,657.8c-4.5,0-7.7-2.9-9-6.1c-1.7-4.2-0.5-8.6,3.1-11.3c1-0.7,2.2-1,3.2-1.2c1.5-0.3,2.2-0.6,2.4-1.2
					l6.1-42.4c-0.5-0.3-1.7-0.6-2.4-0.8c-0.9-0.2-1.6-0.5-2.1-0.7c-0.6-0.3-1.4-0.9-2.3-1.6c-0.6-0.4-1.4-1.1-1.9-1.4l-50,48.9
					l0,0.1c3.3,5.1,1.4,10.5-2.3,13.2c-3.6,2.7-9.4,3.2-13.5-2.1c-2.1-2.7-2.5-6.2-1-9.4c1.5-3.4,4.7-5.6,8.3-5.8
					c1.9-0.1,3.2,0.4,4.3,0.9c0.7,0.3,1.4,0.6,2.1,0.7l49.6-48.8l-4.2-7.5l-34,6.7c0,0.1,0,0.2,0,0.3c-0.6,2.9-1.1,5.7-4,7.8
					c-2.8,2.1-6.5,2.5-9.7,1c-3.2-1.4-5.3-4.2-5.6-7.6c-0.6-6,3.3-9.6,7.3-10.5c3.9-0.9,8.9,0.5,11.2,5.6l34.3-6.5l0.3-0.2
					c-0.8-5.3,0.9-10.9,4.6-15.4c4-4.7,9.9-7.5,15.6-7.3c0.6,0,1.4,0.2,2.4,0.4c0.9,0.2,2.4,0.4,3.1,0.5l5.6-13.1
					c-0.6-0.8-1.2-1.4-1.7-2.1c-1.6-1.7-3.2-3.4-2.9-7.3c0.4-5,3.4-7.1,7.1-9l-8.4-85.8c-4.9-0.4-8.5-2.3-11.5-5.9
					c-0.4-0.5-0.8-1.2-1-1.7c-0.5-1.1-0.8-1.3-1-1.4l-57.9,18.5c-0.2,0.1-0.3,0.2-0.2,1.3c0.1,0.6,0.1,1.2,0,1.9
					c-0.8,3.7-3.1,6.3-6.3,7.3c-3.4,1-7.5,0.1-10.1-2.4c-2.4-2.2-3.3-5.4-2.5-8.7c1-4.3,4.2-7.2,8.4-7.6c3.9-0.4,7.6,1.5,9.6,4.9
					l58.2-18.5c-0.2-0.9-0.1-1.9-0.1-2.9c0-0.8,0-2-0.1-2.5l-48.4-13.8l-1,0c-2.2,4.4-6.8,5.8-10.4,5.2c-4.4-0.7-7.5-4.1-7.9-8.6
					c-0.5-6.3,3.7-9.8,8-10.3c4.6-0.6,10,1.8,11,7.5c0.1,0.6,0.1,1.2,0,1.8c0,0.4-0.1,0.9,0,1.2l49.6,14.1l3.7-5.6L600,389.8
					c-0.5,0.1-1,0.2-1.5,0.3c-1.7,0.4-3.5,0.9-5.9,0c-6.3-2.2-7.6-7.8-6.2-12.1c1.5-4.5,6.2-8.2,11.9-6.3c3.5,1.1,6,3.9,6.7,7.4
					c0.6,3-0.2,6.1-2.3,8.3l16.5,23.2c0.1,0,0.3-0.1,0.9-0.4c0.4-0.3,0.9-0.6,1.5-0.8c5.5-1.7,11.3-0.5,15.3,3.2
					c3.8,3.4,5.5,8.5,4.8,13.8l77.3,23.4c0.6-1.2,1.4-2.3,2.7-3.4c1.1-0.9,2.1-1.3,3-1.6c0.5-0.2,1-0.3,1.4-0.6l-0.4-40
					c-2.6-0.6-5-2.2-6.6-4.4c-1.5-2.1-2-4.5-1.4-6.8c1.7-6.4,6.7-8.6,11-7.8c4.3,0.7,8.5,4.4,8,10.1c-0.5,5.7-3.9,7.4-8,9.3
					l0.2,39.4c4.3,1.8,8.4,4.5,8.2,10c0,1-0.3,1.9-0.6,2.7c-0.3,1-0.5,1.7-0.3,2.1l29.8,24.1c2.9-2.4,6.1-3.8,9.8-4.2l3.1-32.4
					c-4.9-2.1-7.5-5.4-7.5-9.4c0-5.9,4.2-9.2,8.3-9.7c4.1-0.6,9.2,1.4,10.7,6.9c0.7,2.6,0.3,5.2-1.2,7.5c-1.6,2.5-4.3,4.3-7.4,4.9
					l-2.7,32.4c0,0.1,0,0.1,0,0.1c0.1,0.1,0.6,0.1,0.9,0.2c0.5,0.1,1,0.1,1.5,0.4c2.9,1.3,4.9,2.7,6.5,4.6l56.8-35.8
					c-2-5.3,0.8-9.7,4.4-11.7c3.8-2.1,9.5-2,12.8,3.2c1.7,2.7,1.9,6.1,0.6,9.1c-1.4,3-4,5.1-7.2,5.6c-3.4,0.5-5.8-1-8.1-2.4
					c-0.3-0.2-0.7-0.4-1.1-0.7l-56.3,35.7c0.1,0.8,0.4,1.5,0.7,2.3c0.4,1.2,0.9,2.5,0.9,4.1c0,4.1-1.7,8.1-4.7,11
					c-2.7,2.6-6.2,4-9.9,4.1l-4.5,39.1c0.4,0.2,1,0.5,1.4,0.7c0.6,0.3,1.2,0.5,1.5,0.8c4.9,3.5,4.8,9,2.7,12.7
					c-2.1,3.6-6.8,6.4-12.1,3.9c-4.3-2-6.5-6.2-5.5-10.6c0.8-3.6,3.7-7.2,8.7-7.6l3.8-39.5c-5.3-1.3-8.3-5-10.5-8.6
					c-15.1,4.4-30.4,8.7-45.3,12.9c-15.5,4.4-31.5,8.9-47.2,13.5c-0.5,0.1-1.5,0.4-2.9,0.8c-4.5,1.3-17.8,5-20,6.1c0,0.3,0,0.7,0,1
					c0,0.8,0,1.6-0.2,2.2c-0.1,0.5-0.4,1.1-0.7,1.7c-0.2,0.5-0.6,1.3-0.8,1.8l38.1,38.9l1.2,0.7c4.6-3,9.6-1.4,12.3,1.5
					c2.9,3.1,4.1,8.2,0.3,12.9c-3.3,4-8.3,3.9-11.8,2.1c-3.4-1.8-6.3-5.8-4.9-10.7c0.2-0.6,0.5-1.2,0.8-1.7c0.5-0.9,0.7-1.4,0.6-1.7
					l-38.8-39.7l-0.2-0.1c-1.9,1.4-3.8,1.5-5.7,1.5c-0.5,0-1,0-1.5,0.1l-5.4,13.4c6.1,3.2,10.2,9,11.1,15.8c1,7-1.6,13.6-7,18.3
					c-0.3,0.3-0.8,0.6-1.6,1c-0.5,0.3-1.4,0.8-1.9,1.2l16,36.1c4.8-0.8,8.7,1.8,10.4,4.9c2.2,3.9,1.4,8.5-2,11.8
					c-3.9,3.7-9.3,2.9-12.6,0.2c-3-2.5-5.2-7.4-1.6-13c0.4-0.6,1-1.1,1.5-1.6c0.3-0.3,0.8-0.7,1-1l-15.9-35.8
					c-0.5,0.1-1,0.2-1.5,0.3c-0.7,0.2-1.3,0.3-2.1,0.4c-0.5,0.1-1.1,0.1-1.7,0c-0.9,0-2.3,0-2.5,0.3l-5.7,42.9
					c4.5,1.4,6.4,5.6,6.2,9.3c-0.1,4-2.6,8.4-7.9,9.2C612,657.7,611.4,657.8,610.9,657.8z M611.8,640.1c-0.9,0.7-2,0.9-3,1.2
					c-0.9,0.2-1.8,0.4-2.4,0.9c-3.3,2.4-3.4,6.1-2.4,8.6c1.1,2.6,3.8,5.3,8.2,4.6c4-0.6,5.9-4,6-7.1c0.1-2.8-1.3-6.4-5.5-7.3l-1-0.2
					L611.8,640.1z M550,638.2c-0.1,0-0.2,0-0.4,0c-2.8,0.2-5.2,1.9-6.4,4.5c-1.1,2.4-0.8,5.1,0.7,7.1c3.2,4.1,7.5,3.8,10.4,1.7
					c2.8-2.1,4.5-6.2,1.6-10.5l-0.2-0.3l0-0.8c-1.2-0.1-2.1-0.5-2.9-0.9C552,638.6,551.2,638.2,550,638.2z M645.6,632.1
					c-0.3,0.5-0.9,1-1.4,1.5c-0.5,0.4-1,0.9-1.2,1.2c-2.8,4.4-1.2,8.1,1.2,10c2.5,2.1,6.7,2.7,9.6-0.1c3.2-3.1,2.9-6.7,1.6-9.1
					c-1.3-2.4-4.4-4.7-8.8-3.6l-0.9,0.2L645.6,632.1z M643.8,630.7L643.8,630.7L643.8,630.7z M557.6,581c-0.6,0-1.2,0.1-1.8,0.2
					c-2.9,0.7-6.1,3.2-5.6,8.1c0.3,2.5,1.9,4.7,4.3,5.8c2.5,1.1,5.3,0.8,7.5-0.8c2.2-1.6,2.6-3.8,3.1-6.4c0-0.2,0.1-0.5,0.1-0.7
					l-0.2,0l-0.3-0.9C563.4,582.5,560.4,581,557.6,581z M684.2,582c0.1,1.1-0.4,2-0.9,2.8c-0.2,0.4-0.5,0.9-0.6,1.2
					c-1.1,4,1.4,6.9,3.8,8.2c2.7,1.4,6.5,1.4,9-1.6c3-3.6,2.1-7.5-0.2-9.9c-2.2-2.4-6.2-3.5-9.9-0.8l-0.6,0.4L684.2,582z M608,588.6
					c0.7,0.1,1.6,0.7,3.4,2.1c0.7,0.6,1.6,1.2,2,1.4c0.3,0.2,1,0.4,1.7,0.6c1.6,0.5,3,0.9,3.7,1.6c1-0.7,2.5-0.6,3.7-0.6
					c0.5,0,1,0,1.4,0c0.6-0.1,1.2-0.2,1.8-0.4c0.9-0.2,1.8-0.5,2.7-0.5l0.3,0c0.4-0.7,1.4-1.4,3-2.3c0.5-0.3,1.1-0.6,1.3-0.8
					c4.8-4.1,7.1-10.1,6.3-16.3c-0.9-6.3-4.9-11.8-10.8-14.5l-1-0.4l0.1-0.2c-0.9,0.2-2.2,0-4.2-0.4c-0.8-0.2-1.7-0.3-2.1-0.3
					c-5.1-0.1-10.3,2.3-13.9,6.5c-3.5,4.1-5,9.3-4,14.2l0.1,0.7l-0.7,0.5L608,588.6z M607.7,590.8
					C607.7,590.8,607.7,590.8,607.7,590.8L607.7,590.8z M770.9,549.8L770.9,549.8l-0.3,0.5l-0.6,0c-4.1,0-6.6,3-7.2,5.9
					c-0.6,2.7,0.2,6.3,4.3,8.1c4.1,1.9,7.6-0.2,9.2-3c1.7-2.9,1.7-7.1-2-9.8c-0.2-0.1-0.7-0.4-1.2-0.6
					C772.2,550.6,771.4,550.2,770.9,549.8z M627.2,556L627.2,556L627.2,556z M636.7,526.2l-0.1,0.1c-3.7,1.8-6.2,3.3-6.5,7.5
					c-0.2,2.9,0.8,3.9,2.3,5.6c0.6,0.7,1.4,1.5,2,2.5l0.4-0.1c0.8-0.1,1.6-0.2,2.4-0.2c1.9-0.1,3.3-0.1,4.8-1.4l0.5-0.4l0.7,0.2
					c0.1-0.7,0.5-1.5,1-2.7c0.2-0.5,0.5-1.1,0.6-1.4c0.1-0.3,0.1-1,0.1-1.6c0-0.9,0-1.6,0.2-2.1l0,0l-0.4-0.7
					c-1.5-2.4-2.3-3-4.9-4.2c-0.3-0.1-0.6-0.2-1-0.3C638.1,526.9,637.3,526.8,636.7,526.2z M638.1,524.4c0,0.2,0.1,0.3,1,0.4
					c0.5,0.1,1,0.2,1.5,0.4c2.6,1.2,3.9,2.1,5.4,4.4l115.5-33.2c-0.3-3.1,0-7.1,2.4-10.4l-30.1-24.5c-2.5,2-5.9,2.6-9,1.7
					c-3.4-1-5.8-3.7-6.5-7.1c-0.1-0.5-0.1-1.1-0.1-1.7c0-0.4,0-1.4-0.1-1.6l-77.2-23.3c-1.9,4.2-5.4,7.1-10.7,8.9L638.1,524.4z
					 M775.4,506.8l0.6,0c3.5,0.2,6.8-1.1,9.3-3.5c2.6-2.4,4-5.8,4-9.4c0-1.1-0.4-2.2-0.7-3.3c-0.3-1-0.7-2-0.8-3.1l-0.1,0.1
					l-0.6-0.8c-1.5-2-3.3-3.4-6.3-4.8c-0.2-0.1-0.5-0.1-0.9-0.2c-0.5-0.1-1.4-0.2-2.1-0.7l-0.9,0.1c-4,0.3-7.2,1.6-10.1,4.3
					l-0.5,0.5l0.1,0.4l-0.4,0.4c-2.5,3.1-2.6,7.3-2.2,10.2l0.1,1l-0.1,0l0,0.1c2.2,3.8,5,7.5,10.4,8.5L775.4,506.8z M720.3,452.6
					c0.1,0.6,0.1,1.3,0.1,1.8c0,0.4,0,0.9,0,1.2c0.5,2.6,2.4,4.6,5,5.4c2.7,0.8,5.6,0.1,7.5-1.8l0.7-0.7l0.3,0.3
					c0-0.9,0.2-1.8,0.5-2.6c0.2-0.7,0.5-1.5,0.5-2.1c0.2-4.4-3.3-6.5-7.3-8c-0.8,0.6-1.6,0.8-2.4,1.1c-0.8,0.3-1.5,0.5-2.3,1.1
					c-1.3,1.1-2,2.1-2.4,3.4L720.3,452.6z M545.2,442.2c-0.3,0-0.5,0-0.8,0c-2.5,0.3-5.5,1.9-6.5,5.9c-0.6,2.5,0.1,4.9,1.9,6.6
					c2.1,1.9,5.2,2.7,7.9,1.9c1.7-0.5,4-1.9,4.8-5.6c0.1-0.3,0-0.7,0-1.1c-0.1-0.6-0.2-1.4,0.1-2.2l0,0l-0.4-0.9
					C550.6,443.4,547.7,442.2,545.2,442.2z M847.5,449.8c0.4,0.2,0.8,0.5,1.2,0.8c2.2,1.4,4,2.5,6.6,2.1c2.4-0.4,4.4-2,5.5-4.3
					c1-2.3,0.9-4.9-0.4-7c-2.6-4-6.9-4-9.8-2.4c-3,1.7-5.1,5.3-3.1,9.7l0.4,0.9L847.5,449.8z M781.1,429.6c-0.4,0-0.7,0-1.1,0.1
					c-2.9,0.4-6.3,2.6-6.3,7.5c0,4.1,3.7,6.4,6.8,7.6l0.2,0c2.8-0.4,5.3-1.9,6.7-4.1c1.1-1.7,1.4-3.7,0.9-5.7
					C787.3,431.2,784.1,429.6,781.1,429.6z M614.3,428c0.7,0.5,1.2,1.5,1.5,2.1c0.2,0.5,0.5,1,0.7,1.3c2.8,3.4,6.1,5,10.9,5.2l0.9,0
					l0.2-0.1c5.5-1.8,8.9-4.6,10.6-8.8l0,0l0.1-0.7c1-4.8-0.5-9.6-3.9-12.7c-3.4-3.1-8.3-4.1-13.1-2.7c-0.3,0.1-0.6,0.3-1,0.5
					c-0.6,0.4-1.4,0.9-2.3,0.8l-5.1,7.6c0.2,0.8,0.2,1.9,0.2,3c0,1.1-0.1,2.5,0.3,3l0.8,1.2L614.3,428z M553.6,395.6
					c-0.4,0-0.7,0-1.1,0.1c-3.1,0.4-6.5,2.7-6.1,7.9c0.3,4.2,3.3,6.1,6,6.5c2.7,0.4,6.5-0.5,8.3-4.5l0.3-0.7l0.3,0
					c-0.3-0.7-0.3-1.6-0.2-2.3c0-0.4,0.1-0.9,0-1.3C560.3,397.4,556.8,395.6,553.6,395.6z M727.2,387.4c-2.8,0-6,1.6-7.2,6.3
					c-0.4,1.6-0.1,3.4,1,5c1.4,2,3.7,3.4,6,3.6l1,0.1l0,0.2c3.8-1.8,6.3-3.1,6.6-7.5c0.3-4.3-2.8-7.1-6.2-7.6
					C728.1,387.5,727.7,387.4,727.2,387.4z M595.4,373.5c-3.3,0-5.8,2.4-6.8,5.3c-1.1,3.1-0.4,7.4,4.8,9.2c1.8,0.6,3,0.3,4.6-0.1
					c0.6-0.1,1.2-0.3,2-0.4l-0.2-0.3l0.8-0.7c2-1.8,2.9-4.3,2.3-6.9c-0.6-2.7-2.5-4.8-5.2-5.7C596.9,373.6,596.1,373.5,595.4,373.5z
					"/>
			</g>
		</g>
	</g>
	<g>
		<path class="st0" d="M446.8,583c-0.9-13.8,7.3-23.5,20.6-24.4c11.1-0.7,19.5,5.1,21.5,15l-10.2,0.7c-1.6-4.3-5.5-6.6-10.9-6.3
			c-7.2,0.5-11.2,5.8-10.7,14.3c0.5,8.3,5.3,13.2,12.4,12.8c5.4-0.4,9.3-3.3,10.2-7.8l10.1-0.6c-0.9,10-8.8,17-19.8,17.8
			C456.6,605.3,447.7,597,446.8,583z"/>
		<path class="st0" d="M506.4,592.9l17.5-0.6l0.3,9l-27.2,0.9l-1.5-44.4l9.7-0.3L506.4,592.9z"/>
		<path class="st0" d="M547.1,601.8c-12.8,0.1-21.7-9.3-21.8-22.8s8.8-23,21.6-23.1c12.9-0.1,21.8,9.3,21.9,22.8
			S560,601.7,547.1,601.8z M547,565.2c-7.2,0-11.5,5.2-11.5,13.6c0,8.5,4.4,13.6,11.6,13.6c7.1,0,11.4-5.3,11.4-13.7
			C558.5,570.3,554.2,565.2,547,565.2z"/>
		<path class="st0" d="M576.4,556.7l9.7,0.3l-0.8,27c-0.2,5.6,2.8,8.7,8.2,8.9c5.5,0.2,8.7-2.9,8.9-8.4l0.8-27l9.7,0.3l-0.9,27.7
			c-0.3,10.6-7.7,17.2-18.9,16.8c-11.1-0.3-18-7.3-17.7-18L576.4,556.7z"/>
		<path class="st0" d="M620.2,602.7l3-44.3l16.8,1.1c13,0.9,21.4,10.6,20.5,23.7c-0.9,12.9-10.3,21.4-22.9,20.6L620.2,602.7z
			 M632.2,568l-1.8,26.3l6.7,0.4c7.7,0.5,12.5-4,13-12.2c0.6-8.4-3.8-13.6-11.9-14.1L632.2,568z"/>
	</g>
	<g>
		<path class="st2" d="M211.1,914.5C167,862,133,803.7,110.1,741.2C88,680.8,77,619,77.6,557.7c0.6-61.4,12.6-119.4,35.9-172.3
			c24.1-54.8,59.1-101.8,104.2-139.6l4.3,5.2c-44.3,37.1-78.7,83.3-102.3,137.1c-22.9,52.1-34.7,109.1-35.3,169.6
			c-0.6,60.5,10.2,121.5,32.1,181.1c22.6,61.8,56.2,119.4,99.8,171.4L211.1,914.5z"/>
	</g>
	<g>
		<path class="st2" d="M929.6,913.6l-3.9-5.5c41.9-29.8,74.4-70.3,96.5-120.1c21.4-48.3,32.4-103.3,32.5-163.6
			c0.1-60.4-10.7-123.1-32-186.2c-22.1-65.4-54.6-128.5-96.6-187.5l5.5-3.9c42.4,59.5,75.2,123.2,97.5,189.3
			c21.6,63.8,32.4,127.2,32.3,188.4c-0.1,61.3-11.2,117.2-33.1,166.4C1005.7,841.7,972.5,883.1,929.6,913.6z"/>
	</g>
	<g>
		<path class="st2" d="M556.8,884.4c-117.3,0-227.7-31.5-310.7-88.8c-40.5-27.9-72.2-60.4-94.4-96.6
			c-23.1-37.6-34.7-77.5-34.7-118.7c0-41.2,11.7-81.1,34.7-118.7c22.2-36.2,54-68.7,94.4-96.6c83-57.3,193.3-88.8,310.7-88.8
			s227.7,31.5,310.7,88.8c40.5,27.9,72.2,60.4,94.4,96.6C985,499,996.6,539,996.6,580.2c0,41.2-11.7,81.1-34.7,118.7
			c-22.2,36.2-54,68.7-94.4,96.6C784.4,852.8,674.1,884.4,556.8,884.4z M556.8,281.2c-116.3,0-225.6,31.2-307.7,87.9
			c-39.9,27.5-71.1,59.5-93,95.1c-22.5,36.8-34,75.8-34,116c0,40.2,11.4,79.3,34,116c21.8,35.6,53.1,67.6,93,95.1
			c82.2,56.7,191.4,87.9,307.7,87.9s225.6-31.2,307.7-87.9c39.9-27.5,71.1-59.5,93-95.1c22.5-36.8,34-75.8,34-116
			c0-40.2-11.4-79.3-34-116c-21.8-35.6-53.1-67.6-93-95.1C782.3,312.4,673.1,281.2,556.8,281.2z"/>
	</g>
	<g class="st3">
		<path class="st4" d="M220.1,531v98.3h-21.5V531H220.1z M238.4,596.7h-23.6v-19.1h18.9c5.2,0,9.1-1.1,11.7-3.4
			c2.6-2.3,3.9-5.7,3.9-10.3c0-4.6-1.3-8-3.9-10.3c-2.6-2.3-6.5-3.4-11.7-3.4h-18.9V531h23.6c6.7,0,12.6,1.4,17.6,4.1
			c5,2.7,8.9,6.6,11.7,11.5c2.8,4.9,4.2,10.7,4.2,17.2c0,6.6-1.4,12.3-4.2,17.2c-2.8,4.9-6.7,8.7-11.7,11.5
			C251,595.3,245.2,596.7,238.4,596.7z"/>
	</g>
	<g class="st3">
		<path class="st4" d="M307,629.3h-21.5V531h38c12,0,21.2,2.8,27.7,8.3c6.5,5.5,9.8,13.4,9.8,23.6c0,6.4-1.4,11.8-4.1,16.3
			c-2.7,4.5-6.8,8.2-12.3,11l17.3,39.1h-23.5l-14.7-34.4H307V629.3z M307,550.2v25.9h16.3c4.7,0,8.3-1.2,11-3.5
			c2.6-2.3,3.9-5.5,3.9-9.7c0-4.2-1.3-7.3-3.8-9.5c-2.5-2.2-6.2-3.3-11-3.3H307z"/>
	</g>
	<g class="st3">
		<path class="st4" d="M467.7,580.1c0,10-2,18.8-6.1,26.5c-4.1,7.7-9.7,13.6-17,17.9c-7.3,4.3-15.7,6.4-25.2,6.4
			c-9.5,0-17.8-2.1-25-6.4c-7.2-4.3-12.8-10.3-16.9-17.9c-4-7.6-6-16.4-6-26.4c0-10,2-18.8,6.1-26.5c4.1-7.7,9.7-13.6,16.9-17.9
			c7.2-4.3,15.6-6.4,25-6.4c9.6,0,18,2.1,25.2,6.4c7.2,4.3,12.9,10.3,16.9,17.9C465.7,561.3,467.7,570.1,467.7,580.1z M445,580.1
			c0-6.3-1-11.7-3.1-16.1c-2-4.5-4.9-7.9-8.7-10.3c-3.8-2.4-8.3-3.6-13.6-3.6s-9.9,1.2-13.7,3.6c-3.8,2.4-6.7,5.8-8.8,10.3
			c-2,4.5-3.1,9.9-3.1,16.1c0,6.3,1,11.7,3.1,16.2c2,4.5,5,8,8.8,10.4c3.8,2.4,8.4,3.6,13.7,3.6s9.9-1.2,13.6-3.7
			c3.8-2.4,6.7-5.9,8.7-10.4C444,591.7,445,586.3,445,580.1z"/>
	</g>
	<g class="st3">
		<path class="st4" d="M499.1,592l-33.2-61h24l16.5,31.9c0.8,1.5,1.5,2.9,2.1,4.2c0.6,1.3,1.1,2.5,1.7,3.8c0.4-0.8,0.8-1.6,1.2-2.5
			c0.4-0.8,0.8-1.7,1.2-2.7c0.4-0.9,0.9-1.9,1.5-3l16.5-31.8h23.4l-33.2,61v37.3h-21.5V592z"/>
	</g>
	<g class="st3">
		<path class="st4" d="M627.8,629.3h-62.4V531h62.4V551h-46.9l6-5.6v24.8h36.3v18.9h-36.3V615l-6-5.6h46.9V629.3z"/>
	</g>
	<g class="st3">
		<path class="st4" d="M688,630.9c-9.8,0-18.3-2.1-25.5-6.2c-7.2-4.1-12.7-10-16.6-17.5c-3.9-7.6-5.8-16.5-5.8-26.9
			c0-10.3,2-19.2,6.1-26.8c4.1-7.6,9.8-13.5,17.1-17.7c7.4-4.2,15.9-6.3,25.6-6.3c8.2,0,15.6,1.5,22,4.5c6.4,3,11.7,7.2,15.7,12.6
			c4.1,5.4,6.6,11.8,7.6,19.1h-22.7c-1.4-5-4.1-8.8-8.2-11.4c-4-2.7-9-4-14.9-4c-5.3,0-9.9,1.2-13.8,3.6c-3.9,2.4-6.8,5.8-8.8,10.3
			c-2,4.5-3.1,9.9-3.1,16.1c0,6.1,1,11.4,3.1,15.9c2.1,4.5,5,8,8.9,10.4c3.9,2.4,8.4,3.7,13.6,3.7c6,0,11.1-1.4,15.3-4.2
			c4.2-2.8,7-6.6,8.3-11.5h22.3c-1.2,7.3-3.8,13.6-8,19.1c-4.2,5.5-9.6,9.7-16.1,12.8C703.6,629.4,696.2,630.9,688,630.9z"/>
	</g>
	<g class="st3">
		<path class="st4" d="M735.8,551V531h77.3V551H735.8z M785.3,541.4v87.9h-21.5v-87.9H785.3z"/>
	</g>
	<g class="st3">
		<path class="st4" d="M912.9,580.1c0,10-2,18.8-6.1,26.5c-4.1,7.7-9.7,13.6-17,17.9c-7.3,4.3-15.7,6.4-25.2,6.4
			c-9.5,0-17.8-2.1-25-6.4c-7.2-4.3-12.8-10.3-16.9-17.9c-4-7.6-6-16.4-6-26.4c0-10,2-18.8,6.1-26.5c4.1-7.7,9.7-13.6,16.9-17.9
			c7.2-4.3,15.6-6.4,25-6.4c9.6,0,18,2.1,25.2,6.4c7.2,4.3,12.9,10.3,16.9,17.9C910.9,561.3,912.9,570.1,912.9,580.1z M890.2,580.1
			c0-6.3-1-11.7-3.1-16.1c-2-4.5-4.9-7.9-8.7-10.3c-3.8-2.4-8.3-3.6-13.6-3.6s-9.9,1.2-13.7,3.6c-3.8,2.4-6.7,5.8-8.8,10.3
			c-2,4.5-3.1,9.9-3.1,16.1c0,6.3,1,11.7,3.1,16.2c2,4.5,5,8,8.8,10.4c3.8,2.4,8.4,3.6,13.7,3.6s9.9-1.2,13.6-3.7
			c3.8-2.4,6.7-5.9,8.7-10.4C889.2,591.7,890.2,586.3,890.2,580.1z"/>
	</g>
</g>
</svg>
