<?xml version="1.0" encoding="UTF-8"?>
<svg id="Capa_1" data-name="Capa 1" xmlns="http://www.w3.org/2000/svg" xmlns:xlink="http://www.w3.org/1999/xlink" viewBox="0 0 1156.1914 1160.3689">
  <defs>
    <style>
      .cls-1 {
        clip-path: url(#clippath);
      }

      .cls-2 {
        fill: none;
      }

      .cls-2, .cls-3, .cls-4, .cls-5, .cls-6, .cls-7, .cls-8, .cls-9 {
        stroke-width: 0px;
      }

      .cls-10 {
        clip-path: url(#clippath-1);
      }

      .cls-11 {
        clip-path: url(#clippath-4);
      }

      .cls-12 {
        clip-path: url(#clippath-3);
      }

      .cls-13 {
        clip-path: url(#clippath-2);
      }

      .cls-14 {
        clip-path: url(#clippath-6);
      }

      .cls-15 {
        clip-path: url(#clippath-5);
      }

      .cls-3 {
        fill: url(#Degradado_sin_nombre_7);
      }

      .cls-4 {
        fill: url(#Degradado_sin_nombre_6);
      }

      .cls-5 {
        fill: url(#Degradado_sin_nombre_6-5);
      }

      .cls-6 {
        fill: url(#Degradado_sin_nombre_6-4);
      }

      .cls-7 {
        fill: url(#Degradado_sin_nombre_6-6);
      }

      .cls-8 {
        fill: url(#Degradado_sin_nombre_6-3);
      }

      .cls-9 {
        fill: url(#Degradado_sin_nombre_6-2);
      }
    </style>
    <clipPath id="clippath">
      <path class="cls-2" d="M181.4803,515.4291c-22.2972,21.2871-44.7905,42.395-67.1341,63.6547-12.2388,11.2899-23.8766,23.2587-36.5835,34.0383-.0464-32.79.0295-65.5652.0148-98.3404-2.018-.0084-4.0339-.0042-6.0519,0-2.018.0021-4.0339.0063-6.0519,0,0,53.9274.0612,107.8717.0759,161.799h11.952c.1518-15.5979-.2699-31.2253.1982-46.8233,13.7001-13.1877,27.5647-26.194,41.3112-39.3248,21.964,28.8172,44.5037,57.198,66.3918,86.0574,5.1642.1054,10.3431.1223,15.5072.0148-24.1465-31.6618-48.5988-63.0812-72.7917-94.6966,23.2756-22.4638,47.1691-44.2633,70.1579-67.0117-2.0454.1265-4.1435.0422-6.2459-.0443-1.339-.0548-2.678-.1096-4.0065-.1096-2.309,0-4.5801.1666-6.7436.7865"/>
    </clipPath>
    <linearGradient id="Degradado_sin_nombre_6" data-name="Degradado sin nombre 6" x1="-377.41" y1="1114.8111" x2="-375.3009" y2="1114.8111" gradientTransform="translate(85746.4301 -28306.9661) rotate(-90) scale(76.796 -76.796)" gradientUnits="userSpaceOnUse">
      <stop offset="0" stop-color="#22dbfc"/>
      <stop offset="0" stop-color="#22dbfc"/>
      <stop offset=".5" stop-color="#1c90e1"/>
      <stop offset="1" stop-color="#2c80d4"/>
    </linearGradient>
    <clipPath id="clippath-1">
      <path class="cls-2" d="M306.4428,514.7838c-8.9956.0042-17.9913.0106-26.9848-.0021,0,4.0192,0,8.0235.0148,12.0427,9.7822.0084,19.5686.0042,29.3549,0,14.5183-.0063,29.0407-.0084,43.559.0148,13.8519.0611,28.0033,6.9123,35.333,18.9107,7.5744,12.0595,7.6482,27.9442,1.5372,40.6195-8.2661,16.7577-28.3027,23.1111-45.8723,21.7995-11.8613-.0401-23.7269-.0358-35.5924-.0295-9.4321,0-18.8621.0063-28.288-.0147,0,22.8243.0295,45.6318.0295,68.4562h11.9541c0-19.0604.0316-38.1207.0148-57.1663,8.7595-.0358,17.5189-.0232,26.2805-.0126,12.496.0169,24.9963.0338,37.4944-.0907,14.0459,18.7884,27.2948,38.165,40.9485,57.2549,4.9849,0,9.9825,0,14.9674.1202-14.0333-19.8574-28.2753-39.5673-42.2158-59.4985,14.3475-4.6222,27.1134-15.0855,32.5791-29.3739,6.2944-15.387,5.4066-33.8148-3.2832-48.1011-6.0667-10.5223-16.5131-18.1115-28.0012-21.7236-8.1311-2.7413-16.8167-2.5599-25.2768-3.1778-7.9055-.0274-15.8109-.0337-23.7142-.0337-4.947,0-9.8918.0021-14.8388.0063"/>
    </clipPath>
    <linearGradient id="Degradado_sin_nombre_6-2" data-name="Degradado sin nombre 6" x1="-377.4096" y1="1113.3588" x2="-375.301" y2="1113.3588" gradientTransform="translate(85831.5493 -28301.6868) rotate(-90) scale(76.7823 -76.7823)" xlink:href="#Degradado_sin_nombre_6"/>
    <clipPath id="clippath-2">
      <path class="cls-2" d="M495.5177,514.7817c.0147,53.9421.0295,107.8717.0907,161.8138,3.958-.0148,7.9181-.0148,11.893,0,.0611-53.9421.0759-107.8717.0907-161.8138-2.6886,0-5.3729-.0063-8.0531-.0063-1.3411,0-2.6822,0-4.0212.0063"/>
    </clipPath>
    <linearGradient id="Degradado_sin_nombre_6-3" data-name="Degradado sin nombre 6" x1="-377.4071" y1="1112.2842" x2="-375.2984" y2="1112.2842" gradientTransform="translate(85858.727 -28285.7858) rotate(-90) scale(76.7404 -76.7404)" xlink:href="#Degradado_sin_nombre_6"/>
    <clipPath id="clippath-3">
      <path class="cls-2" d="M733.8133,514.7817c-22.2361,49.6067-44.8811,99.0321-67.1468,148.624-23.05-49.2904-44.6998-99.2429-67.5389-148.624h-13.5778c24.72,53.9421,49.8323,107.722,74.3731,161.7379,4.4093.0464,8.8354.0611,13.2468.0759,24.5387-54.0181,49.6531-107.781,74.1475-161.8286-4.4999.0148-9.0167.0148-13.504.0148"/>
    </clipPath>
    <linearGradient id="Degradado_sin_nombre_6-4" data-name="Degradado sin nombre 6" x1="-377.4072" y1="1111.1551" x2="-375.2986" y2="1111.1551" gradientTransform="translate(85941.3645 -28287.2974) rotate(-90) scale(76.7444 -76.7444)" xlink:href="#Degradado_sin_nombre_6"/>
    <clipPath id="clippath-4">
      <path class="cls-2" d="M825.2436,514.7817c0,53.9421,0,107.8717.0148,161.8138,3.9896,0,7.994,0,11.9984.0169.0316-53.9443.0464-107.8716.0169-161.8159-2.8425-.0106-5.6787-.0211-8.5107-.0211-1.1724,0-2.3449.0021-3.5194.0063"/>
    </clipPath>
    <linearGradient id="Degradado_sin_nombre_6-5" data-name="Degradado sin nombre 6" x1="-377.4075" y1="1110.0262" x2="-375.2988" y2="1110.0262" gradientTransform="translate(86022.852 -28288.4181) rotate(-90) scale(76.7474 -76.7474)" xlink:href="#Degradado_sin_nombre_6"/>
    <clipPath id="clippath-5">
      <path class="cls-2" d="M1023.3267,612.401c.3606-2.2437.7359-4.4725,1.1134-6.6866,3.9896-2.2879,7.8906-4.7108,11.8023-7.121,10.3747,16.201,18.5501,33.7241,28.4693,50.2393-14.0291-11.893-27.2632-24.6758-41.385-36.4317M994.6023,592.5267c4.4852,3.4477,8.73,7.1969,12.9157,11.0052-.4829,1.9885-.9341,3.9749-1.3558,5.9612-24.583,12.7238-48.5229,26.6495-72.973,39.6263,17.7825-18.9254,36.1027-37.3215,53.5373-56.578,1.3264.291,2.6611.4492,4.0002.4492,1.2884,0,2.581-.1455,3.8757-.4639M996.3631,590.1333c-.0148-1.7481-.0464-3.4772-.0464-5.2084-1.8219-2.4397-3.5531-5.1789-3.1462-8.3714.7696-12.1355,2.7855-24.1486,3.9432-36.2546-.1181-2.6042,2.4418-3.6881,4.1414-5.1178,11.3806,19.5116,21.8902,39.5188,33.2729,59.0304-4.5168,2.2162-8.9577,4.578-13.3564,7.0177-3.6859-1.6279-7.6777-1.8535-11.3953-.2109-4.6053-3.4772-9.0188-7.1674-13.4133-10.885M991.7092,534.2934c-.3311,15.3554-.9321,30.7867-2.6801,46.0683-3.9897,2.3343-5.5248,6.4589-4.4261,10.9166-18.044,16.5532-34.9219,34.3546-52.8583,50.9774,19.9776-35.9973,39.5356-72.2371,59.9646-107.9623M1005.8753,531.7186c16.5932,14.1956,34.1164,27.28,50.4987,41.7329-1.5224,3.026-1.8683,6.324-1.0248,9.5903-4.4114,2.6337-8.9724,5.0292-13.6094,7.2265-12.0005-19.4969-23.4422-39.3396-35.8644-58.5496M987.7807,519.191c-3.1314,3.3296-1.9126,8.1163-1.4318,12.165-22.1601,37.4881-44.6217,74.8097-67.191,112.0721-1.1134,2.3807-4.1246,2.0475-6.2016,2.9522-7.0008,1.6869-11.7748,8.9577-11.7284,15.9416,1.0986,7.6039,7.7241,14.7565,15.7919,14.5583,8.9282.4365,16.3802-7.916,16.1251-16.6206,25.2177-15.2352,50.6779-30.0656,75.9546-45.2249,3.7471,2.3786,7.9181,2.4081,11.9394.6178,14.2125,13.369,27.8662,27.339,42.2136,40.5879-.8582,3.2832-2.2584,6.7752-1.0101,10.1617,2.1551,6.4146,8.9746,11.3384,15.8552,10.4359,8.1733-.8456,14.377-9.8623,11.8487-17.7804-1.8535-6.3408-7.8906-10.2672-14.107-11.4438-10.6889-17.8394-21.0468-35.9066-32.0815-53.5204,4.4999-2.7561,8.6393-6.2037,13.563-8.1922,3.1314.3922,6.5031,2.29,9.4996.3184,5.2253-2.3638,6.1594-10.0416,1.5351-13.5209-2.6485-2.7687-6.4884-1.9421-9.7695-1.1598-16.1378-13.7149-31.645-28.153-47.5887-42.1082-4.4282-2.8446-3.0281-9.4258-7.469-12.2725-1.8957-1.6722-4.3017-2.4545-6.7224-2.4545-3.4624,0-6.9523,1.6005-9.0252,4.4873"/>
    </clipPath>
    <linearGradient id="Degradado_sin_nombre_6-6" data-name="Degradado sin nombre 6" x1="-377.4187" y1="1108.9163" x2="-375.31" y2="1108.9163" gradientTransform="translate(86315.6849 -28361.2557) rotate(-90) scale(76.9389 -76.9389)" xlink:href="#Degradado_sin_nombre_6"/>
    <clipPath id="clippath-6">
      <path class="cls-2" d="M325.2059,726.5755v45.0098h29.1904v-2.9669h-25.8946v-42.0429h-3.2958ZM494.6299,730.1771l11.8171,25.9895h-23.6172l11.8002-25.9895ZM492.9957,726.5755l-20.6883,45.0098h3.5215l5.7609-12.6858h26.1013l5.7694,12.6858h3.5215l-20.6904-45.0098h-3.2958ZM645.4427,750.1674h16.7725c4.3143,0,7.606.7591,9.8813,2.2394,2.2732,1.4845,3.4287,3.8209,3.4287,7.0177,0,3.2642-1.1556,5.6365-3.4287,7.1168-2.2753,1.4866-5.5669,2.2078-9.8813,2.2078h-16.7725v-18.5817ZM645.4427,729.3737h15.3533c3.8905,0,6.9207.7591,9.0631,2.2753,2.1382,1.5161,3.2284,3.7239,3.2284,6.6887,0,3.0007-1.0902,5.2401-3.2284,6.7562-2.1424,1.514-5.1726,2.2373-9.0631,2.2373h-15.3533v-17.9575ZM642.149,726.5755v45.0098h20.0662c5.5648,0,9.7168-1.0227,12.4855-3.0997,2.735-2.0728,4.1204-5.0081,4.1204-8.7974,0-2.5684-.5947-4.7087-1.7165-6.4251-1.1513-1.7122-2.832-2.9964-5.0081-3.9201-.9763-.4006-2.0517-.7127-3.2157-.9363.3416-.1138.679-.2404,1.0079-.3795,2.0433-.8245,3.6248-2.0771,4.812-3.7598,1.1534-1.6806,1.7481-3.7534,1.7481-6.1932,0-3.7239-1.3854-6.5559-4.1204-8.5338-2.7687-1.9737-6.5558-2.9648-11.3995-2.9648h-18.7799ZM811.0227,725.8163c-2.3701,1.1239-4.0845,2.5726-5.2042,4.3523-1.1176,1.8092-1.6448,3.7872-1.6448,5.9317,0,2.3723.4934,4.2785,1.4803,5.763.989,1.4803,2.3406,2.6359,4.0255,3.492,1.6743.8561,3.5194,1.5836,5.531,2.1108,2.0096.5251,4.017,1.0522,5.9971,1.514,1.9737.4597,3.7872,1.0543,5.4678,1.7144,1.649.6895,3.0007,1.6131,4.0508,2.7687,1.0227,1.1872,1.5499,2.7033,1.5499,4.6096,0,1.6511-.4597,3.1673-1.3833,4.4831-.9236,1.3179-2.3407,2.3723-4.249,3.1609-1.9147.795-4.3839,1.1872-7.3783,1.1872-3.0007,0-5.8326-.5272-8.5043-1.6469-2.7012-1.0881-4.8078-2.4397-6.3577-4.017l-1.4507,2.4334c1.6131,1.8156,3.9201,3.2959,6.8827,4.4156,2.9669,1.1534,6.132,1.7165,9.4891,1.7165,3.726,0,6.792-.5293,9.1643-1.649,2.3723-1.0902,4.152-2.5388,5.3034-4.3839,1.1534-1.8114,1.7481-3.7535,1.7481-5.8642,0-2.3069-.5272-4.2174-1.5499-5.6681-1.0185-1.4466-2.3723-2.6338-4.0508-3.492-1.6806-.854-3.492-1.5457-5.472-2.0707-1.9759-.5314-3.9559-1.0227-5.9634-1.4866-2.0412-.4597-3.8863-1.0522-5.5353-1.7481-1.6785-.6917-3.0302-1.6131-4.017-2.7645-1.0227-1.1556-1.5183-2.7012-1.5183-4.6454,0-1.6511.4281-3.163,1.3516-4.5147.8941-1.3496,2.2753-2.4376,4.1836-3.2622,1.8788-.7886,4.2511-1.2188,7.1505-1.2188,1.9759,0,4.0845.3311,6.2628.9236,2.1698.6242,4.1794,1.5794,6.092,2.8636l1.2188-2.6359c-1.7123-1.2483-3.7893-2.2373-6.2248-2.9648-2.4376-.7233-4.8795-1.0839-7.3488-1.0839-3.6923,0-6.7246.5588-9.0968,1.6764"/>
    </clipPath>
    <linearGradient id="Degradado_sin_nombre_7" data-name="Degradado sin nombre 7" x1="-389.6941" y1="1145.48" x2="-387.5854" y2="1145.48" gradientTransform="translate(-32760.4067 12062.2976) rotate(90) scale(29.1064 -29.1064)" gradientUnits="userSpaceOnUse">
      <stop offset="0" stop-color="#0080d9"/>
      <stop offset=".3358" stop-color="#0083da"/>
      <stop offset=".7648" stop-color="#00c9f8"/>
      <stop offset=".7922" stop-color="#16cdf8"/>
      <stop offset=".8495" stop-color="#50dafa"/>
      <stop offset=".9312" stop-color="#acedfc"/>
      <stop offset="1" stop-color="#fff"/>
    </linearGradient>
  </defs>
  <g class="cls-1">
    <rect class="cls-4" x="65.6737" y="514.6426" width="135.4363" height="161.9698"/>
  </g>
  <g class="cls-10">
    <rect class="cls-9" x="279.458" y="514.7775" width="131.7356" height="161.9087"/>
  </g>
  <g class="cls-13">
    <rect class="cls-8" x="495.5177" y="514.7753" width="12.0743" height="161.8202"/>
  </g>
  <g class="cls-12">
    <rect class="cls-6" x="585.5499" y="514.767" width="161.7674" height="161.8286"/>
  </g>
  <g class="cls-11">
    <rect class="cls-5" x="825.2436" y="514.7754" width="12.0596" height="161.837"/>
  </g>
  <g class="cls-15">
    <rect class="cls-7" x="901.1814" y="514.7037" width="191.2931" height="163.0369"/>
  </g>
  <g class="cls-14">
    <rect class="cls-3" x="325.2059" y="724.14" width="510.3344" height="47.4453"/>
  </g>
</svg>