<?xml version="1.0" encoding="UTF-8"?>
<svg id="Capa_1" data-name="Capa 1" xmlns="http://www.w3.org/2000/svg" viewBox="0 0 1156.1914 1160.3689">
  <defs>
    <style>
      .cls-1 {
        fill: #fff;
        stroke-width: 0px;
      }
    </style>
  </defs>
  <path class="cls-1" d="M540.1964,557.258v58.7258H82.3098v-58.7258h457.8866Z"/>
  <path class="cls-1" d="M113.01,413.2039h22.1007c1.0749-1.5253,1.9078-2.7072,3.0879-4.3818h38.9876c.8691,1.3196,1.669,2.5342,2.7144,4.1215h18.7984c-.112.3877-.224.7755-.336,1.1632l8.3558,4.0711c-.0378.1624-.0757.3248-.1136.4872,2.9712,1.1839,5.9424,2.3678,9.441,3.7618.2048,1.9127.4807,4.4887.7772,7.2579,2.4084.3443,4.6536.6653,7.0217,1.0039.3652,2.2693.7025,4.3655,1.069,6.6431.9571.4416,1.9665.9072,3.203,1.4776v7.6609h-47.1421c-2.7214-3.2354-4.8234-5.7344-6.9254-8.2333-.1136.1929-.2272.3858-.3407.5787-1.9583-1.1009-3.9166-2.2019-5.8749-3.3028.1206-.3503.2413-.7006.3619-1.0509h-18.8162c-.4002.8239-.9376,1.9301-1.5251,3.1395-1.8552.3755-3.7864.7664-4.4784.9065-2.6421,2.0606-4.3388,3.3838-6.4771,5.0514-.0876.4672-.2987,1.5933-.5552,2.9616-1.3615.2662-2.7831.5441-4.3528.851v39.0373c2.5373,2.1644,4.2709,3.6432,6.0044,5.122-.1398.2094-.2795.4189-.4193.6283,1.9205.4577,3.841.9155,6.0224,1.4354.3531,1.1339.7357,2.3623.8394,2.6952,2.4544,1.8462,4.2929,3.2292,6.878,5.1736,5.7838-.9959,13.1817,3.0642,19.4688-3.2706,2.1135-.1612,4.5883-.35,6.4675-.4934,1.6868-2.1428,3.066-3.8947,5.2107-6.6191v-5.9474c-5.2804-.2529-10.4841-.5021-16.089-.7705v-18.5027c1.286-1.9183,2.6997-4.0272,4.1918-6.253h62.1001v62.6447h-20.1542c-1.9697-2.1587-4.1386-4.5355-6.863-7.5214-.9837,1.081-2.0142,2.2134-3.3991,3.7353-3.0011.2137-6.6399.4728-10.3974.7403-.7564,1.092-1.4836,2.1419-1.686,2.4342-5.0641,1.1561-9.3684,2.1387-13.6726,3.1213.0874.5072.1747,1.0143.2621,1.5215h-34.4c.075-.4917.1501-.9834.2251-1.4751-5.8146-.9808-11.6292-1.9617-18.4538-3.1129-.0994-.1264-.8801-1.1199-1.9954-2.5392-4.4192-.2324-9.2085-.4844-13.6381-.7173-1.8999-1.711-3.5691-3.2141-5.9859-5.3905-.0018-.0087-.2323-1.1275-.3699-1.7953-2.7511-2.1156-5.168-3.9742-6.8603-5.2756-1.9693-2.2931-3.4013-3.9605-5.5146-6.4213-.1019-.9283-.3367-3.0666-.6136-5.5888-.8505-.5384-1.9075-1.2075-3.1776-2.0115-.202-1.9715-.4201-4.0996-.66-6.4409-.9847-.6061-2.0629-1.2696-3.3761-2.0779v-30.8119c.3703.1081.7405.2162,1.1108.3243,1.1702-3.2123,2.3405-6.4245,3.8827-10.658.0343-.0197,1.1348-.6533,2.1625-1.245.299-2.1497.5721-4.1135.7044-5.0645,1.9394-2.2636,3.2977-3.849,5.2869-6.1706.0361-.0129,1.1115-.3982,2.1869-.7834-.1884-.2294-.3768-.4589-.5652-.6883,5.1324-4.7643,10.2649-9.5285,16.3053-15.1356Z"/>
  <path class="cls-1" d="M337.5313,490.5412c-1.2552-1.6842-2.5416-3.4101-4.3065-5.7782h-14.1235c.0675-.4426.135-.8853.2025-1.3279-3.0102-.7788-5.9956-2.0882-9.0357-2.2301-7.1277-.3327-14.2816-.1064-21.216-.1064-1.0736-2.032-1.7448-3.3024-2.5591-4.8436-4.8549-.2273-9.8211-.4599-15.0758-.706-.4704-1.068-.9693-2.2005-1.4727-3.3434-2.04-.3024-3.9963-.5924-5.1327-.7608-3.6889-3.0786-6.7844-5.662-10.2611-8.5635-.0971-.7334-.2675-2.021-.4636-3.5029-1.3043-.3398-2.5481-.6639-4.415-1.1502v-27.4244c1.3686-.3802,2.8614-.795,4.5322-1.2592.1479-2.5403.291-4.9982.4244-7.2899,3.3483-2.748,6.5909-5.4091,10.8226-8.8821h20.928c1.0884-1.8393,1.8209-3.0771,2.7276-4.6094h43.4621c.9134,1.2235,1.781,2.3856,3.0874,4.1354h22.8804c.7024,1.4673,1.1753,2.4552,1.7544,3.665,1.9871.3412,4.0867.7017,6.427,1.1035.3251.9246.6905,1.9639,1.1035,3.1385,1.3353.1855,2.6232.3645,3.2738.4549,1.7085,1.8129,3.0442,3.2303,4.8667,5.1642.1953,1.5969.495,4.0461.798,6.5232,1.1169.6196,2.099,1.1645,3.2113,1.7816v7.315h-49.0978c-1.4694-1.7251-2.5047-2.9399-3.5392-4.1554-.9661-1.1351-1.9314-2.2709-2.3666-2.7826-3.3843-1.3971-6.1626-2.544-8.9408-3.6909.0982-.3072.1965-.6145.2947-.9217h-10.9099c-.5614.7039-1.3439,1.685-2.3525,2.9498-1.8332.2488-3.9509.5361-5.4745.7429-1.6967,1.9008-3.0933,3.4654-5.1234,5.7397.5222.6304,1.5401,1.6383,2.2839,2.818.7658,1.2147,1.2644,2.5969,2.1044,4.3829h23.0184c.9171,1.3432,1.6331,2.3919,2.5859,3.7876h18.481c4.8588,6.5804,11.7108,2.6683,16.9662,5.6077,4.3356,1.1921,8.6712,2.3842,13.8399,3.8054.1028.3109.5462,1.6517,1.0561,3.1939,1.9949.3576,4.0917.7334,6.5766,1.1787.4836,1.9892.9822,4.0399,1.5446,6.3533.8315.3799,1.854.8471,2.4047,1.0986,1.0847,4.9375,2.0972,9.5462,3.1096,14.155.4536-.0893.9073-.1786,1.3609-.2679v5.7567c-.8024.5564-2.014,1.3966-3.0166,2.0919-.2242,2.4939-.4172,4.6399-.6467,7.1929-.9433.4323-2.0595.9439-3.3595,1.5397-.3705,1.794-.7673,3.7159-1.2033,5.8269-.9635.4855-1.9649.9901-3.1593,1.592-.138,1.3432-.288,2.8019-.4379,4.2605-.8597-.8145-1.7194-1.6289-2.5791-2.4434-1.2994,1.4565-2.5987,2.913-3.8981,4.3695.7183.7809,1.4366,1.5619,2.1549,2.3428h-11.7576c-2.012,5.1221-6.5958,3.6989-10.5563,4.1103-4.2954.4461-9.2301-1.3591-12.2811,3.6474h-48.0808c-.817-1.1156-1.5681-2.1411-2.4111-3.2921-4.5777-.2697-9.2126-.5428-13.9646-.8228-.9592-1.1659-1.871-2.2742-2.9763-3.6178h-9.119c-2.0722-2.0014-3.6651-3.5398-5.8563-5.6562-.0773-1.5401-.2011-4.0081-.3422-6.8209-1.3556-.3917-2.705-.7815-3.339-.9647-1.6644-3.2623-3.0244-5.9282-4.3845-8.594-.2469.1058-.4939.2117-.7408.3175v-7.6196h53.7057c.5534,2.5325,1.0725,4.9082,1.5397,7.0464,2.9696,1.6464,5.7628,3.195,9.5623,5.3016h13.2392c-.0951-.2924-.1902-.5849-.2853-.8773,3.3631-1.2673,6.7263-2.5347,10.0516-3.7878,1.1477-1.8926,2.4626-4.0608,3.8799-6.3978Z"/>
  <path class="cls-1" d="M498.2949,433.527c5.9282,2.5973,2.713,8.2554,3.8528,10.8426,2.2367,2.6609,3.5728,4.2502,5.7105,6.7933-.0862-.0286,1.1288.3748,2.6297.8732.3773,3.4876.748,6.9131,1.1501,10.6303.9759.5584,2.064,1.181,3.6083,2.0646v13.8634c2.6654,3.0221,4.709,5.3391,7.4679,8.4671.2386,2.2984.5951,5.7324.9674,9.3189,1.376.6594,2.6678,1.2784,3.994,1.9139.2147,1.1256.427,2.2388.6245,3.2748,1.2074.415,2.2548.7751,3.5279,1.2127v14.7378c1.6331,1.352,2.9579,2.4486,4.2826,3.5453-.2181.3939-.4363.7879-.6544,1.1818h-44.6307c-.2852-.8916-.6636-2.0747-1.0964-3.4278-1.0494-.2155-2.16-.4435-3.5643-.7318-.4123-1.0045-.8869-2.1608-1.4161-3.4501h-44.7947c-1.9796,2.4656-3.8475,4.7921-6.089,7.584-11.9132,1.8729-43.1482.682-45.4652-2.2904,1.6348-.5162,3.0951-.9773,4.851-1.5316v-11.7699c.2697.0978.5395.1956.8092.2934,1.4896-2.5657,2.9792-5.1315,4.9865-8.5889-.0327.0161.9685-.4781,1.9484-.9618.2189-2.6253.4243-5.0898.557-6.6816,1.8645-2.1817,3.2314-3.7811,5.0773-5.941.2643-.0737,1.3636-.3802,3.2399-.9033v-18.5173c1.8561-.734,3.0079-1.1896,4.2983-1.6999.1425-1.2877.2855-2.5811.4507-4.0742.9288-.4702,1.9198-.9719,3.0858-1.5622.3735-2.9012.7508-5.8324.9947-7.7265,1.9661-2.7533,3.3661-4.7138,4.766-6.6743-.2408-.2136-.4817-.4273-.7225-.6409,1.021-.4534,2.0421-.9067,3.4342-1.5249v-10.8659c1.4878-.6088,2.6615-1.089,4.2744-1.7489.4318-3.2888.8791-6.6957,1.2674-9.6528,1.6035-1.8541,2.9789-3.4443,4.8859-5.6492h56.3346c1.4105,2.0212,2.631,3.7702,3.8516,5.5192.284-.0916.5679-.1832.8519-.2748.2109,4.7719.4217,9.5438.6528,14.7737ZM478.2001,484.6302c-1.4822-3.9777-2.6389-7.0818-3.7956-10.1858-1.8643-3.5587.3238-8.5601-4.9946-10.8354-.2086-1.5468-.4045-3.0001-.5833-4.3255-1.3709-.6223-2.5479-1.1567-3.7805-1.7162-.4836-2.1908-.9396-4.257-1.4609-6.6185-1.1555.2032-2.1648.3807-3.1465.5533-.2128,2.503-.3944,4.6391-.576,6.7752-.3029-.1157-.6057-.2314-.9086-.347-1.294,3.1302-2.588,6.2604-4.1092,9.9402-.3047.1642-1.2896.695-2.2685,1.2226-.3194,3.7944-.6225,7.3959-.8508,10.1081-1.9665,1.6829-3.3508,2.8675-4.735,4.052.2865.459.573.9181.8596,1.3771h30.3499Z"/>
  <path class="cls-1" d="M649.84,751.593h-16.3507v-42.1909h24.072c.2344,2.3967.4854,4.9633.7662,7.8336,1.0078.4531,2.1461.9648,3.3103,1.4881.2218,3.4603.433,6.7557.6613,10.3166,1.1944.4825,2.3739.959,3.8947,1.5734.4261,1.0627.9624,2.4007,1.8128,4.5218,4.457-3.5342,2.0669-8.3079,3.6608-12.5896,5.2674-2.5517,2.6504-8.2251,3.7013-13.1939h24.1387v41.9514h-15.3998c-1.9772-8.4616.8015-17.0354-1.9239-24.8729-.5861-.0469-1.1723-.0938-1.7584-.1407-1.2345,4.4921-2.469,8.9841-3.7036,13.4762-.6235-.1062-1.247-.2124-1.8705-.3186v12.1019h-16.0122c-1.2649-2.0129-2.4718-3.9337-3.6788-5.8544-.5777.1011-1.1554.2022-1.7331.3034v-23.3028c-.7452-.0295-1.4903-.0589-2.2355-.0884-2.1017,4.3765-1.1701,9.2899-1.3181,13.9799-.151,4.7854-.0335,9.5792-.0335,15.006Z"/>
  <path class="cls-1" d="M763.663,713.4482v12.0392c-1.5583.3436-2.9315.6464-4.3242.9536v7.735c2.687.4464,5.1016.8476,7.922,1.3162v9.5071c-1.4563,1.9259-2.8856,3.8163-4.8888,6.4656h-52.8236v-41.9768h48.6635c.2883.7068.7525,1.8452,1.3041,3.198,1.1379.2092,2.4047.442,4.147.7622ZM730.5074,742.2964h16.1591v-7.5164c-7.0372.652-13.9064-1.428-20.944,1.7482,1.9132,2.3063,3.3297,4.0139,4.7849,5.7681ZM729.9354,725.4179h12.3008c-.1447-2.6521-.2639-4.8355-.3858-7.0686h-11.915v7.0686Z"/>
  <path class="cls-1" d="M886.1732,637.5955c12.6734,0,24.6342-.1102,36.589.108,2.0024.0365,3.9787,1.4966,5.7323,3.1157,2.1235.2823,4.2471.5646,6.736.8955v41.8093h-16.0269c-.2707-3.8581-.5335-7.6032-.8414-11.9918h-15.5435c-.2485,3.4674-.5149,7.186-.8302,11.5857h-15.8154v-45.5224ZM902.826,650.2635v7.7707h15.5334v-7.7707h-15.5334Z"/>
  <path class="cls-1" d="M911.2163,569.8599h23.8286c.3484,2.4702.6641,4.7086,1.0266,7.2792,1.3101.29,2.6916.5958,2.6966.5969,2.5332,4.8337,4.5287,8.6414,6.6318,12.6543,2.2018-.0979,4.3006-.1913,7.0319-.3127v-19.9548h16.4986v40.5243h-22.9445c-2.0713-2.1052-4.2047-4.2737-6.9588-7.0729-.3134-.0664-1.5657-.3317-2.9736-.6299-.2433-3.9395-.4759-7.7054-.7366-11.9254-2.4509-.2623-4.6829-.5012-7.5625-.8094v20.8595h-16.5382v-41.2092Z"/>
  <path class="cls-1" d="M691.5088,637.994v11.9362h-33.0768v4.348h28.688v7.6336h-23.2968c-2.4454,3.206-4.2963,5.6325-6.1471,8.0591.292.4118.5841.8236.8761,1.2353h32.7677v12.1548h-49.5904v-45.367h49.7793Z"/>
  <path class="cls-1" d="M914.3696,751.5926h-23.2977c-1.3888-2.4929-2.5577-4.5911-3.7266-6.6894-.3594.1287-.7188.2574-1.0782.3861-.2485-3.1138-.4968-6.2277-.7754-9.7183-1.0139-.3308-2.1976-.717-3.4655-1.1306-.5094-1.238-1.0494-2.5505-1.5721-3.8208-3.9205.8612-4.0577,1.1733-4.0708,8.8717-.0062,3.6223-.001,7.2446-.001,11.6355h-16.2991v-41.912h20.6836c1.2878,1.3563,2.7507,2.8969,4.6879,4.937.1869,1.5467.4636,3.8357.6818,5.6407,2.4618,2.6811,4.5717,4.9788,7.1819,7.8216.3624,1.6665.9027,4.1513,1.4431,6.6361.6165-.0154,1.2331-.0309,1.8496-.0463,2.8234-7.8093.3194-16.2432,1.7639-24.7636h15.9946v42.1523Z"/>
  <path class="cls-1" d="M759.1558,570.2889h74.7783v40.2265h-19.6164v-32.708h-17.35v33.2787h-17.2133v-33.3785h-20.5985v-7.4187Z"/>
  <path class="cls-1" d="M889.1126,569.724c.6154,1.3736,1.0147,2.2651,1.5255,3.4053,3.7601.2908,7.5213.5817,11.6253.8992v32.9927c-2.6763.1755-5.1287.3364-7.9422.521-.5089.9205-1.1122,2.0117-1.7786,3.217-3.083.4107-6.1864.8241-9.3073,1.2399-.8764,1.3684-1.6597,2.5914-2.4945,3.8949h-14.8164c-.5992-1.1978-1.2364-2.4717-2.0522-4.1025-3.4143-.2468-7.0363-.5086-10.4617-.7563-3.0297-3.1181-5.9328-6.1057-9.2312-9.5002v-20.9119c1.8648-2.5584,3.2133-4.4085,4.4406-6.0923,2.7521-1.2371,5.5263-2.4841,8.3004-3.731-.1321-.3586-.2641-.7171-.3961-1.0757h32.5885ZM880.7519,603.416c-.9979-1.2399-1.9958-2.4798-2.9936-3.7197,2.2606-.7653,4.5212-1.5306,7.8898-2.671v-14.0407c-1.2513-.4382-2.4264-.8498-3.4922-1.223-.3173-1.4528-.5862-2.684-.8608-3.942h-16.2287c-.25,2.9643-.4693,5.5644-.6826,8.093-1.4316.719-2.7068,1.3595-4.0877,2.053v5.5382c1.459.6242,2.7655,1.1831,3.9294,1.6811.2842,2.8973.5359,5.4635.8073,8.2312h15.7191Z"/>
  <path class="cls-1" d="M814.0229,645.5945c3.0641-.2408,5.5286-.4346,8.1653-.6418.4094-1.0598.8059-2.086,1.2583-3.2569,2.1461-.2412,4.2684-.4797,6.6848-.7512.4782-.999,1.0159-2.1221,1.6131-3.3699h22.6808c.7678,1.028,1.5271,2.0446,2.4231,3.2442,2.173.2168,4.4711.4461,7.1319.7115.3604.9879.7831,2.1465,1.2609,3.4561,1.025.2062,2.1305.4285,2.4639.4956,1.7147,2.2224,3.0221,3.9169,4.7266,6.1261v20.6076c-2.123,2.7239-3.4235,4.3925-5.142,6.5975-1.6722.1729-4.1233.4263-6.8664.7098-.4781,1.2591-.9812,2.5841-1.6036,4.2231h-27.7037c-.5-1.1255-1.0741-2.4176-1.8335-4.1268-3.5565-.2765-7.1565-.5564-10.7564-.8363.5434-.5232,1.0869-1.0465,1.6303-1.5698-1.4186-1.4278-2.8371-2.8557-4.2557-4.2835-.6259.573-1.2518,1.1459-1.8778,1.7189v-29.0543ZM855.371,665.3494v-8.4861c-1.8639-2.4351-3.155-4.1219-4.9496-6.4664-.1766-.0406-1.2739-.2928-2.2775-.5234-.5974-1.4649-1.1318-2.7752-1.6362-4.0118h-6.2309c-.7504,1.4287-1.4144,2.6931-2.0785,3.9576-.1994-.2087-.3988-.4173-.5982-.626-2.3058,1.9393-4.6117,3.8786-6.4181,5.3978v14.9445c3.4852,1.8818,6.2378,3.3681,9.9861,5.3919h5.26c2.9633-3.1738,5.6861-6.09,8.9428-9.5781Z"/>
  <path class="cls-1" d="M727.7032,574.1931c-1.9924,1.2286-4.1276,2.5452-6.7513,4.1631v3.934c1.5346.1954,2.9663.3778,4.4555.5675.7751.9695,1.5725,1.9669,2.7002,3.3774h17.7352c-.1065.5587-.2129,1.1175-.3194,1.6762,4.0248,1.223,8.0495,2.4459,12.748,3.8737v14.9792c-2.2647.2875-4.3731.5552-6.8741.8728-.4412.8793-1.0007,1.9944-1.6249,3.2382-3.477.3048-6.9376.6081-10.5954.9287-.8244,1.1409-1.6735,2.3159-2.7899,3.8609h-14.5439c-.5871-.8212-1.428-1.9972-2.5421-3.5555-2.9761-.3091-6.2492-.649-9.8117-1.019-.3692-1.1027-.7626-2.278-1.1606-3.4669-2.6468-.2709-5.0973-.5217-7.9125-.8099v-7.0255h19.581c4.6246,5.9811,11.0747,3.4571,18.6206,3.4911-2.073-3.3251-3.6124-5.7943-5.5226-8.8583h-14.5738c.0913-.5059.1827-1.0118.2741-1.5177-4.2802-1.1086-8.5604-2.2173-13.0385-3.3771-1.2596-1.1693-2.8797-2.673-5.1101-4.7434v-10.4294c2.6958-.3753,4.9575-.6902,7.5874-1.0564.3732-.9549.8221-2.1037,1.4164-3.6245h35.8808c.7179,1.2483,1.3393,2.3289,2.0359,3.54,2.1972.2327,4.4735.4737,6.9461.7355v7.8669h-14.1724c-4.7064-2.8383-8.4681-5.1069-12.6379-7.6216Z"/>
  <path class="cls-1" d="M621.288,679.5962c-.7088,1.8683-1.1587,3.0538-1.5689,4.1352h-31.7835c-.3908-1.7002-.7073-3.0769-1.0294-4.478-2.7422-.2176-5.2053-.4131-8.2101-.6515-.2333-2.3052-.4584-4.5301-.7369-7.2824h23.972c.6727,1.4159,1.2072,2.5409,1.732,3.6455h6.9818c1.7473-2.0299,3.335-3.8743,5.5584-6.4573-2.7033-.7852-5.0471-1.4659-7.8253-2.2729-.3894-.7195-1.0016-1.8508-1.9896-3.6766h-22.2271c-2.4028-2.564-3.8206-4.0769-5.7941-6.1827v-9.8122c1.7142-1.4157,3.3971-2.8056,4.9531-4.0906,3.0436-1.3726,6.0569-2.7316,9.0702-4.0906-.0991-.2619-.1982-.5238-.2972-.7857h26.5778c.6379,1.2021,1.2225,2.3036,1.8214,3.4321,2.3575.2799,4.6531.5525,5.8613.696,2.4183,1.8965,4.0595,3.1836,6.2975,4.9388v3.2552h-20.1534c-.3626-1.1897-.7719-2.5327-1.3135-4.3098h-12.0102v8.3451h18.8327c1.242,1.7201,2.0659,2.8612,2.8989,4.0148,2.4062.1582,4.7248.3106,7.4043.4868.4759.9355,1.0378,2.0402,1.6056,3.1562,2.1279.4315,4.2084.8533,6.5634,1.3308v10.1897c-1.7379,2.0934-3.0949,3.728-4.709,5.6723-3.0697.2319-6.6808.5046-10.4821.7917Z"/>
  <path class="cls-1" d="M746.4829,641.9761c.3248.9068.6498,1.8136,1.0459,2.9194,2.2924.2388,4.5577.4748,5.9982.6249,1.8188,4.3028,3.3807,7.9978,5.1277,12.1309h-19.3294c-3.7997-3.9285-7.5829-7.84-11.7459-12.1441-.9179,1.3815-1.7655,2.657-2.7059,4.0722-2.3317.3094-4.7737.6333-6.9166.9177-1.2566,3.0978-2.4167,5.9577-3.5768,8.8175-.3365-.1022-.673-.2043-1.0095-.3065v5.5543c1.7372,2.341,3.0055,4.05,4.393,5.9198,1.389,1.1257,3.0204,2.4479,5.3584,4.3427h5.3409c3.7447-2.5901,7.0742-4.8931,10.1552-7.0242h19.3729l.287,1.364c-1.0333.8653-2.0667,1.7305-3.0655,2.5668-.3947,1.9276-.7892,3.8548-1.3242,6.4682-3.7394.4274-7.4449.851-11.5555,1.3208-.2995,1.1196-.663,2.4781-1.1275,4.2139h-30.8823c-.5951-1.5955-1.0927-2.9295-1.6852-4.518-2.5047-.1618-5.1278-.3312-7.48-.4831-1.2863-2.988-2.479-5.7585-3.6716-8.5291l-1.3358.4044v-18.0174c2.0047-2.7745,3.3088-4.5794,5.1001-7.0586,1.4126-.1702,3.8607-.4653,5.4288-.6542,3.0067-2.6919,5.3901-4.8258,8.0092-7.1707h23.9275c2.9775,1.9745,4.9845,3.3053,6.9915,4.6362.2917-.1227.5835-.2453.8753-.368Z"/>
  <path class="cls-1" d="M617.4409,582.0656c-.7292-1.8828-1.1923-3.0787-1.7213-4.4447h-12.2972c-.2949,1.3232-.5992,2.6879-.9503,4.2633-.9533.3073-2.0082.6475-3.4705,1.1189v15.7282c.7226-.6837,1.4452-1.3675,2.1679-2.0512,1.5702,1.4371,3.1403,2.8742,4.7104,4.3113-.7742.7804-1.5485,1.5608-2.3227,2.3413h16.1151v-7.7498c-2.46-.7894-4.7162-1.5134-6.9724-2.2373.0287-.5732.0573-1.1463.0859-1.7195,7.6252-2.954,15.6789-.7611,23.8031-1.4579v21.2028c-2.2682-.1146-4.2216-.2134-6.4515-.3261-.6389-.9839-1.3263-2.0425-2.5846-3.9802-1.4949,1.0884-2.9271,2.1312-4.3593,3.1739.1613.2237.3225.4474.4837.6711-2.1056.3797-4.2113.7594-6.3747,1.1495-.7173,1.22-1.3759,2.3402-2.1805,3.7089h-11.159c-.5888-.9422-1.3489-2.1582-2.3719-3.7951-4.1594-.3426-8.5953-.708-13.2314-1.0899-.4795-1.0258-.9516-2.0357-1.544-3.303-1.2133-.1808-2.6521-.3953-3.545-.5284-1.45-3.1536-2.7357-5.9498-4.0213-8.7459-.3127.1053-.6252.2106-.9378.3158v-15.126c1.0723-.652,2.1483-1.3063,3.2248-1.9609.3449-2.495.6798-4.9169,1.0278-7.4347,2.502-.3309,4.7785-.632,7.3686-.9746.5479-.9479,1.1716-2.0269,1.9948-3.4511h31.2821c.79,1.1853,1.4904,2.2362,2.2457,3.3694,3.6883.3128,7.2922.6184,11.1448.9451v8.0768h-19.1591Z"/>
  <path class="cls-1" d="M1010.2035,645.2624c1.7525,4.1542,3.0049,7.1229,4.2573,10.0915.2843-.1167.5687-.2333.853-.35.2119,1.9711.4237,3.9422.6723,6.2554,1.281.3805,2.6322.7819,3.2092.9534,4.7337,6.5713,6.7893,13.2885,4.649,21.2239h-15.4115c-.2908-1.0468-.6695-2.4101-1.135-4.0858h-20.4297c-.3223,1.3611-.6457,2.7263-.9984,4.2157h-15.8506v-15.7726c.8174-.464,1.7784-1.0095,2.0285-1.1515,1.6942-3.539,3.1022-6.4802,4.5101-9.4214.2745.1251.5491.2503.8236.3754.2576-2.119.5151-4.238.7933-6.5264,1.2838-.4157,2.5062-.8115,3.9782-1.2882.1893-1.1864.3933-2.4656.6493-4.0703.9669-.4348,2.1165-.9516,3.2612-1.4663.392-2.0469.7635-3.9874,1.2113-6.3259h19.6093c.3816,1.9886.805,4.1957,1.2666,6.6014.9595.3467,2.0019.7232,2.053.7417ZM1003.5152,666.9354c-.1224-1.8378-.2058-3.0911-.2806-4.2151-1.321-.4889-2.3447-.8678-3.2365-1.1979-.3061-2.5555-.5738-4.7908-.8507-7.1032h-3.0481c-1.7959,2.2358-3.235,4.0273-5.1469,6.4073-.069,1.4932-.1707,3.693-.2824,6.1088h12.8452Z"/>
  <path class="cls-1" d="M850.9546,717.7436h-28.2303c.2088,2.856.3567,4.8799.5673,7.7606h24.1098v9.1927h-24.6647v7.9235h28.6867v8.7255h-49.8129v-41.7019h49.3441v8.0996Z"/>
  <path class="cls-1" d="M969.968,736.0077c1.2132-.5124,2.2405-.9462,2.5432-1.0741,1.4387-2.4463,2.5629-4.358,3.6872-6.2698.3031.1325.6062.2649.9093.3974.27-2.1114.54-4.2227.8582-6.7105,1.0829-.5093,2.3661-1.1129,3.8638-1.8173.4976-2.0489.9989-4.1123,1.2995-5.3498,1.7588-2.2492,3.0664-3.9214,4.7371-6.0578h19.3171c.3684,2.4468.7062,4.6904.9995,6.6384,2.2871,2.6313,4.3809,5.0401,6.9964,8.0491.2838,2.6071.6571,6.0356.9306,8.549,3.0266,2.9253,5.4079,5.2271,8.158,7.8852v11.278h-54.2999v-15.5179ZM991.3136,738.0029h7.1697c2.4947-6.7115,1.5616-13.3196-2.4775-15.5688-.7527,2.2014-1.471,4.302-2.2464,6.5699-.8778.5674-1.9322,1.2489-3.106,2.0076.2154,2.2809.4133,4.377.6602,6.9913Z"/>
  <path class="cls-1" d="M570.1079,751.4759c.1647-2.7848.3-5.0735.4374-7.3976,1.1609-.6208,2.1497-1.1496,3.2133-1.7184.2389-2.1449.4761-4.2733.7443-6.6809.977-.3171,2.0293-.6587,3.344-1.0854.1891-1.3225.3948-2.7617.6005-4.2009.4848.1322.9695.2643,1.4543.3965,1.1057-3.812,2.2114-7.624,3.4292-11.8222.9753-.3471,2.3053-.8205,3.6336-1.2933.1328-2.8695.2533-5.4759.3887-8.4006h24.1873c.2967,2.6489.568,5.0709.8748,7.8103.9984.4189,2.1458.9003,2.4217,1.0161,1.476,3.3775,2.6437,6.0498,3.8115,8.7221.4105-.1375.8211-.275,1.2317-.4126v11.5794c5.6626,3.1064,3.8189,8.3556,4.2749,13.4875h-54.0471ZM602.5291,725.3658c-2.5023.5386-4.5015.9689-6.8773,1.4802v11.3156h6.8773v-12.7958Z"/>
  <path class="cls-1" d="M650.1413,569.8699h45.1467v7.4128h-28.4716c.1839,3.2884.318,5.6857.4928,8.811h24.2196v8.0793h-24.5044v9.1017h28.5269v7.8363h-45.41v-41.2413Z"/>
  <path class="cls-1" d="M775.981,649.9473h-16.5183v-11.9533h49.8527v11.5522c-5.2188.3437-10.2502.6751-16.2341,1.0693v32.887h-12.227c-1.4565-1.9079-2.9031-3.8031-4.8733-6.384v-27.1711Z"/>
  <path class="cls-1" d="M1029.3121,683.3775v-45.3562h16.1765v32.6873h28.4856v12.6689h-44.6621Z"/>
  <path class="cls-1" d="M969.1376,718.1992h-16.3517v33.3363h-17.0543v-33.469h-16.8001v-8.7329h50.2061v8.8656Z"/>
  <path class="cls-1" d="M1074.2556,742.816v8.7698h-45.155v-42.2598h16.4527v27.147c2.0879,2.5157,3.518,4.2387,5.2645,6.343h23.4378Z"/>
  <path class="cls-1" d="M945.3613,637.8041h15.9155v45.6246h-15.9155v-45.6246Z"/>
  <path class="cls-1" d="M792.537,751.6058h-16.1489v-42.218h16.1489v42.218Z"/>
</svg>