<?xml version="1.0" encoding="UTF-8"?>
<svg id="Capa_1" data-name="Capa 1" xmlns="http://www.w3.org/2000/svg" viewBox="0 0 1156.1914 1160.3689">
  <defs>
    <style>
      .cls-1 {
        fill: #fff;
        stroke-width: 0px;
      }
    </style>
  </defs>
  <path class="cls-1" d="M580.6114,827.5743c-169.5364-.0004-339.0732.1187-508.6065-.5984-4.883-.0206-13.956-8.8864-13.9788-13.6618-.7427-155.3888-.7279-310.7821-.1607-466.1723.0211-5.7687,1.756-14.3672,13.5037-14.3543,337.5735.3694,675.1475.2371,1012.7201.8969,4.9098.0096,14.0619,8.9918,14.085,13.8206.7505,156.7208.6829,313.4459.2023,470.1688-.0101,3.3102-6.2889,9.479-9.6567,9.4884-169.3686.4699-338.7385.4126-508.1084.4121ZM781.5185,813.2263v.398c96.765,0,193.5304-.1107,290.2943.2073,7.8621.0258,9.7596-1.8185,9.7468-9.6337-.2446-149.0723-.1561-298.1452-.434-447.2173-.0039-2.0467-3.8086-5.866-5.8553-5.877-261.535-1.4037-523.0712-2.5747-784.6079-3.6328-68.2842-.2763-136.5714-.3205-204.8513.2404-3.5575.0292-10.1326,6.7466-10.1453,10.3683-.518,147.7384-.4819,295.479-.1186,443.2183.0063,2.5571,4.8384,7.303,7.4671,7.3376,135.7333,1.7833,271.4694,3.5444,407.2109,4.4631,97.0936.6571,194.1952.1277,291.2933.1277Z"/>
  <path class="cls-1" d="M686.6257,417.3724c-4.2485,4.148-9.1492,8.4299-13.4346,13.258-4.31,4.8559-7.9614,10.2919-12.0044,15.392-1.0885,1.3732-2.5577,2.443-3.8422,3.6625-1.7026,1.6165-3.4855,3.1636-5.0348,4.9167-.4375.495.1457,2.047-.2887,2.3664-5.0088,3.6817-10.5209,6.778-15.1082,10.9086-5.5539,5.0009-10.3188,10.8734-15.4819,16.3148-5.272,5.556-10.5736,11.085-15.9371,16.5524-3.6848,3.7563-7.2178,7.7436-11.3328,10.9722-3.9664,3.1119-8.6644,7.5682-12.9098,7.429-4.5542-.1492-9.0084-4.8861-13.4097-7.7685-5.3369-3.4951-10.6168-7.0825-15.8208-10.7719-1.2626-.8952-2.1028-2.3729-3.1872-3.5361-1.6897-1.8128-3.61-3.4436-5.0959-5.4064-2.7856-3.6794-4.8032-8.1027-8.098-11.1964-5.0326-4.7254-11.3087-8.1424-16.2469-12.9474-4.209-4.0956-7.1793-9.4418-10.8764-14.0926-3.4643-4.3578-6.8092-8.9095-10.8573-12.6767-4.1497-3.8618-9.3654-6.5629-13.6196-10.331-7.0545-6.2485-14.8318-12.4318-11.2832-23.7922.3815-1.2212.9652-3.1815,1.7477-3.3383,3.6707-.7356,8.3313-2.5555,11.0116-1.0642,7.6247,4.2425,15.0059,9.314,21.4131,15.2199,4.4803,4.1298,6.7757,10.5402,10.8624,15.2197,2.6486,3.0329,7.4298,4.2031,10.0783,7.2361,4.4991,5.1523,7.7577,11.3739,12.1311,16.6545,3.3463,4.0404,7.5769,7.3565,11.4703,10.9336,6.6709,6.1288,13.1502,12.5011,20.1829,18.186,3.4339,2.7757,7.8498,5.4443,11.9884,5.7285,1.8143.1247,3.6332-6.225,6.192-8.934,3.2943-3.4876,7.523-6.0732,11.0083-9.4041,5.4534-5.212,10.6114-10.7325,15.9129-16.1043,3.9187-3.9709,7.9359-7.847,11.7843-11.8844,5.1043-5.3549,10.0966-10.8169,15.1185-16.2501,3.6056-3.901,7.1056-7.9027,10.7975-11.7195,2.2361-2.3118,6.4718-4.089,6.8564-6.5651,2.4743-15.9323,14.3664-3.8339,20.8111-7.4194,1.1247,3.5596,2.2495,7.1193,4.5031,14.2517Z"/>
  <path class="cls-1" d="M451.917,756.8186c-5.9171-4.3737-12.6377-6.7998-14.4905-11.2519-3.6045-8.6618,1.5329-11.2396,10.5052-10.9429,21.5748.7136,26.1847-3.1587,28.828-24.3163,1.1825-9.465,3.3078-21.5011-1.1976-28.1946-4.1043-6.0977-10.0837-17.8687-23.3798-13.6496-11.3805,3.6112-13.2439-3.63-11.5351-12.8406.2895-1.5604,1.4504-4.2433,2.1891-4.2366,6.9583.0628,14.1098-.2637,20.8043,1.2717,5.217,1.1965,10.4282,4.1929,14.6146,7.6381,4.7055,3.8727,8.9319,8.7315,12.1315,13.9229,3.5831,5.8137,7.3578,12.2865,8.1633,18.8279.9007,7.3155-1.0049,15.1195-2.5478,22.5322-.7674,3.687-3.1157,7.2117-5.3446,10.3922-4.2843,6.1136-8.0802,13.0875-13.7631,17.5676-6.6403,5.2347-15.0802,8.1862-24.9773,13.28Z"/>
  <path class="cls-1" d="M824.326,689.0845c0,5.839.6902,10.324-.2436,14.4405-.6179,2.724-3.527,4.951-5.4874,7.3372-.8808,1.0722-1.9589,1.9808-2.9318,2.9789-2.2338,2.292-4.4837,4.5692-6.6737,6.9026-.934.995-2.5804,2.2398-2.4455,3.1567.5159,3.507.498,8.2885,2.7201,10.1267,6.9668,5.7631,14.876,10.3834,22.3469,15.5523.3375.2335.1615,2.1051-.1153,2.1979-5.2041,1.7415-10.5639,4.8186-15.6702,4.4611-3.8335-.2685-7.1671-5.3012-11.0546-7.6688-8.0916-4.9281-18.1983-7.9683-23.9754-14.7622-3.6848-4.3334-1.3278-14.0189-.9376-21.2647.0379-.7042,5.3128-1.5822,8.1629-1.6048,18.3277-.1452,27.9664-12.4261,21.8953-29.4983-4.1347-11.6272-13.8219-14.7288-25.5745-12.9308-1.4711.2251-4.868-2.3103-4.7192-2.9422.8768-3.7268,2.0162-9.9849,4.0333-10.3734,6.5385-1.2592,14.1168-1.9974,20.0995.2484,4.966,1.8642,7.5602,10.8551,12.395,12.1124,15.4696,4.0228,4.2585,15.9467,8.1758,21.5306Z"/>
  <path class="cls-1" d="M175.0769,715.8988c-8.1348-7.4992-13.3287-12.2117-18.4335-17.0189-3.6518-3.4388-7.2967-6.898-10.7446-10.5376-5.7618-6.0825-11.3774-12.3039-17.0272-18.4918-2.9755-3.2589-7.3097-6.2035-8.2934-9.9994-.569-2.1955,4.0161-7.8405,6.8031-8.2336,3.1694-.4469,7.3958,2.6853,10.3198,5.2303,6.0672,5.2809,11.7204,11.0656,17.2744,16.8997,5.1167,5.3747,9.88,11.0857,14.8008,16.647.7269.8215,1.4905,2.3219,2.1897,2.2947,1.1281-.044,2.3207-.9659,3.305-1.7457,5.201-4.121,10.4509-8.1932,15.4332-12.5679,1.2082-1.0608,1.2173-3.3803,2.2294-4.7986,1.2791-1.7925,3.0165-3.259,4.5636-4.859,1.4795-1.5301,2.9524-3.0672,4.458-4.5714,1.4724-1.4711,2.8774-3.0391,4.5091-4.3119,1.2934-1.009,3.1555-1.3651,4.2836-2.4928,1.9418-1.9412,3.1313-5.3085,5.3454-6.1038,1.9846-.7129,7.1187,1.3156,7.0929,1.9907-.198,5.187.1779,11.3355-2.4615,15.293-5.4012,8.0983-12.2605,15.3245-19.1368,22.3012-4.1755,4.2365-9.4909,7.3548-14.3286,10.9288-1.0259.758-2.4968,1.0739-3.253,2.0068-2.349,2.8976-4.4528,5.994-8.9293,12.1403Z"/>
  <path class="cls-1" d="M427.5403,704.2419c0,11.8058.7605,23.6859-.3819,35.3801-.4443,4.5479-4.2542,10.9908-8.1426,12.5493-10.4886,4.2041-13.3024-5.5569-13.5466-12.1251-.951-25.5739-.7014-51.204-.2556-76.802.0497-2.8562,3.7722-7.2985,6.5638-8.0212,3.1836-.8242,10.093,1.1025,10.4572,2.8565,3.1463,15.1552,5.1818,30.541,7.5483,45.8582-.7476.1014-1.4951.2028-2.2427.3042Z"/>
  <path class="cls-1" d="M684.4052,540.3436c0,13.3114.0562,26.6234-.0792,39.9335-.0149,1.4755-.9199,4.0667-1.7579,4.2174-3.9466.7098-8.17,1.5945-12.0113.8843-18.9003-3.4945-6.9937-18.0136-8.2425-26.9484-2.1671-15.5052-.6021-31.5321-.6021-47.3403,0-12.7481,8.0299-18.63,20.559-14.791,1.0067.3084,1.9406,2.6853,1.9564,4.1116.148,13.3096.0876,26.6215.0876,39.9326.0299,0,.0598.0001.0898.0002Z"/>
  <path class="cls-1" d="M982.117,658.7752c3.0677-2.0495,7.022-5.5239,11.6279-7.1325,1.0393-.3629,4.33,5.7866,6.6183,8.9132,1.5524,2.1212,3.5702,4.0052,4.6785,6.3297,4.595,9.6369,8.0394,19.9434,13.5813,28.9762,6.4043,10.4387,15.0183,19.502,21.7576,29.7637,2.8254,4.3019,3.0114,10.2621,4.9772,15.2393.8414,2.1302,4.883,4.7631,4.5354,5.3135-2.5284,4.0028-5.8054,7.5327-8.8456,11.2122-2.9132-2.9913-6.0249-5.817-8.6916-9.0141-3.6792-4.4112-7.0157-9.1077-10.5138-13.6706-1.1136-1.4525-2.4785-2.7522-3.3754-4.3234-2.7649-4.8429-5.4912-9.7174-7.976-14.7072-1.8228-3.6604-2.9074-7.7112-4.9106-11.2547-4.2999-7.6069-9.331-14.8139-13.3986-22.5346-3.4579-6.5637-5.9846-13.6179-10.0646-23.1106Z"/>
  <path class="cls-1" d="M494.9304,542.8703c0,9.6514-1.1472,19.4812.3171,28.9051,1.5167,9.7614-4.0397,14.3297-10.7907,16.7392-2.6031.9291-10.8217-4.5962-10.922-7.381-.9278-25.7586-1.0217-51.5736-.1671-77.3328.0952-2.8715,7.4676-7.3306,11.7004-7.6209,3.044-.2088,9.0189,5.0796,9.2938,8.2916,1.0884,12.7192.4472,25.5864.4472,38.3987.0404,0,.0809,0,.1213,0Z"/>
  <path class="cls-1" d="M973.7007,734.6264c-12.634-2.9718-18.3732,6.0123-23.6808,16.4332-1.3964,2.7417-5.6143,6.215-7.918,5.8126-3.3817-.5908-6.4964-4.1144-9.0158-7.0063-.4814-.5526,2.5642-3.8561,3.5518-6.0817,1.7619-3.9704,2.7629-8.3273,4.8582-12.0903,4.0316-7.2403,8.8453-14.0456,12.8586-21.295,2.2034-3.9803,3.0206-8.7293,5.2319-12.7037,1.9532-3.5105,4.3924-7.5861,7.7028-9.2453,2.7247-1.3656,7.0412.4455,10.6523.8488-1.1974,5.7416-2.0505,11.5868-3.7354,17.1816-.8611,2.8592-3.2127,5.2694-4.8906,7.8826,2.8598.5444,5.7832.8697,8.5662,1.6785,5.8266,1.6932,11.6446,3.4743,17.2833,5.6854.7441.2919,1.214,3.8966.4354,4.9577-2.152,2.9331-4.6128,6.5748-7.7307,7.6269-3.8876,1.3118-8.5541.315-14.1694.315Z"/>
  <path class="cls-1" d="M296.6784,704.3598c0,13.802.3836,27.6248-.3606,41.3866-.1309,2.4216-4.7834,6.136-7.7006,6.5116-4.4438.572-11.3376,3.6964-11.1002-6.6244.6271-27.2583.0004-54.5472.7864-81.7976.0902-3.1275,5.4893-7.5825,9.2662-8.7848,6.0467-1.9247,9.683.6919,9.2985,8.4107-.6777,13.6019-.1896,27.2621-.1897,40.8978Z"/>
  <path class="cls-1" d="M649.8311,662.9819c3.3828-2.7158,7.8519-8.4291,10.1157-7.659,4.1425,1.4093,7.8302,6.1723,10.2015,10.3847,6.5023,11.5507,12.4301,23.4415,18.1906,35.388,5.0439,10.4602,9.3973,21.2518,14.3613,31.7525,2.5548,5.4042,5.9231,10.4221,8.5226,15.8083.3551.7358-1.684,3.7864-2.5119,3.7443-4.9797-.2528-12.9813.5201-14.334-2.035-4.5962-8.6823-6.0264-19.0015-10.3103-27.9042-2.312-4.8046-8.3106-7.7088-11.9854-12.0319-2.1218-2.4962-2.9813-6.088-4.3146-9.2267-2.0861-4.9106-3.8416-9.9808-6.2243-14.7395-1.4771-2.9502-4.2251-5.2592-5.7341-8.1992-1.8663-3.6362-3.0398-7.6281-5.977-15.2824Z"/>
  <path class="cls-1" d="M635.5844,734.6293c-12.7069-3.1056-18.1329,6.3042-23.2401,16.3935-.4512.8913-2.5907,1.8117-3.4327,1.4664-3.426-1.4049-7.2178-2.7359-9.7115-5.2488-1.2372-1.2466-.6846-5.3388.3471-7.5393,1.9743-4.2113,5.046-7.8914,7.3469-11.9699,4.9642-8.7994,9.7545-17.6976,14.5658-26.5826,3.0705-5.67,5.5033-11.8075,9.366-16.8609,1.3758-1.7998,6.128-1.312,9.3289-1.2594,1.0834.0178,2.8269,1.7587,3.0948,2.9716,2.4646,11.1556-2.6687,18.8669-11.5627,24.8678-.7785.5253-1.1518,2.2484-1.0103,3.3226.0887.6737,1.4684,1.631,2.3093,1.6744,3.8147.1966,8.1103-.9861,11.3573.3915,4.7574,2.0183,8.7677,5.798,13.0963,8.8272-4.3886,3.182-8.5745,6.7234-13.2652,9.3699-1.8918,1.0674-4.8887.176-8.5901.176Z"/>
  <path class="cls-1" d="M765.3675,704.2664c-.0005,14.4833.1221,28.969-.1681,43.4465-.0332,1.6581-2.7232,4.8355-3.587,4.6429-4.7559-1.0607-13.3187-2.8417-13.3656-4.5714-.7631-28.1109-.8374-56.2662.2134-84.3636.1137-3.0394,8.1673-5.7817,12.538-8.6618,1.4566,2.8515,4.0769,5.6651,4.1716,8.5611.4455,13.6364.1984,27.2953.1978,40.9462Z"/>
  <path class="cls-1" d="M895.9562,704.2403c0,12.7985.945,25.7015-.4556,38.3448-.5767,5.2056-6.1994,9.8519-9.5269,14.7526-2.4859-2.5931-7.0858-5.148-7.1333-7.785-.5183-28.7461-.4171-57.5063-.0171-86.2563.0178-1.2787,4.6541-3.7081,6.9058-3.4623,3.5778.3904,9.8652,2.4096,9.9643,4.0455.8131,13.4135.4586,26.8978.4586,40.3606h-.1958Z"/>
  <path class="cls-1" d="M553.5587,706.2909c0,13.6413.298,27.2964-.3321,40.9085-.091,1.9651-4.5327,4.9515-7.1636,5.1852-2.0639.1834-6.3743-3.1392-6.39-4.9331-.2575-29.4388-.0266-58.8826.2713-88.3233.0138-1.3686,1.7263-3.8832,2.5698-3.8505,2.0919.0809,5.7641,1.0422,5.9595,2.151,2.8428,16.1273,5.2178,32.337,7.7046,48.5271-.8731.1117-1.7463.2234-2.6194.3352Z"/>
  <path class="cls-1" d="M120.0187,726.8128c-.0024-6.1523-1.0938-12.5784.3585-18.3662,1.0744-4.2819,5.4602-7.7328,8.3707-11.554,3.0407,3.8506,8.3539,7.5071,8.7025,11.5878,1.1139,13.0392.9392,26.2852-.2262,39.3182-.1752,1.9598-8.2287,3.5866-12.8106,4.5131-1.1122.2249-4.07-2.8597-4.1893-4.5621-.4873-6.9495-.2031-13.9531-.2055-20.9368Z"/>
  <path class="cls-1" d="M334.7654,668.6676c-6.9915,0-14.0633.6103-20.9356-.2951-2.8191-.3714-5.2074-4.0136-7.7918-6.1679,2.4252-2.4572,4.7532-6.9165,7.2918-7.0398,14.2753-.6936,28.621-.7269,42.8918.0052,2.5608.1314,4.8841,4.8924,7.317,7.5159-2.5996,1.9939-5.0319,5.3693-7.8319,5.7085-6.8904.8347-13.9499.2732-20.9414.2732Z"/>
  <path class="cls-1" d="M334.5566,752.6179c-6.6395-.0009-13.3636.6187-19.8812-.2728-3.074-.4205-5.7513-3.7406-8.6084-5.7469,2.597-2.6423,5.0572-7.3907,7.8142-7.5698,13.3846-.8695,26.8805-1.0347,40.2621-.2201,3.2709.1991,6.26,5.0293,9.3788,7.7303-3.3477,2.0267-6.5076,5.2532-10.0849,5.8134-6.1566.964-12.5732.2667-18.8807.2658Z"/>
  <path class="cls-1" d="M210.8316,725.0574c0-6.4794-.7129-13.0728.2974-19.3905.5139-3.2139,4.1281-5.9319,6.3408-8.8741,2.1565,3.0124,6.0287,5.9439,6.1751,9.0511.6643,14.0893.5639,28.2421-.1226,42.3301-.0787,1.6158-5.4371,3.419-8.5782,4.1702-.9445.2258-3.7629-2.7554-3.8515-4.3701-.4179-7.6194-.1863-15.2744-.1863-22.9166h-.0748Z"/>
  <path class="cls-1" d="M335.1533,712.2596c-7.1854-1.6402-14.4143-3.1205-21.5201-5.0537-1.4455-.3932-2.4273-2.4916-3.6228-3.804,2.6387-2.2692,5.1587-6.3108,7.9368-6.4967,11.2341-.7521,22.6007-.9099,33.7953.0905,2.858.2555,5.2641,5.5683,7.8778,8.5575-2.7384,1.6965-5.3193,4.4129-8.2497,4.8652-5.1867.8006-10.5859.2244-15.8962.2244l-.321,1.6168Z"/>
</svg>